<svg width="51" height="52" viewBox="0 0 51 52" fill="none" xmlns="http://www.w3.org/2000/svg">
<path fill-rule="evenodd" clip-rule="evenodd" d="M28.6343 0.197078C28.498 0.581044 28.498 1.10126 28.114 1.2375C27.9375 1.2375 27.8942 1.11055 27.6681 1.16319C27.5627 1.03107 27.5096 0.864726 27.519 0.695937C27.5285 0.527149 27.5997 0.367755 27.7193 0.248217C27.8388 0.12868 27.9982 0.0573808 28.167 0.0479469C28.3358 0.038513 28.5021 0.0916056 28.6343 0.197078Z" fill="#383838"/>
<path fill-rule="evenodd" clip-rule="evenodd" d="M15.3315 1.83231C15.3594 2.38039 15.1024 2.6436 14.8856 2.94705C13.5572 2.92847 14.4149 0.943617 15.3315 1.83231Z" fill="#383838"/>
<path fill-rule="evenodd" clip-rule="evenodd" d="M27.5194 1.89349C27.8971 1.98639 27.9529 2.40442 28.0396 2.78529C29.1915 3.40459 31.3343 2.45706 31.9783 3.75139C32.0636 4.12643 32.2157 4.48305 32.4273 4.8042C32.8343 4.57836 33.3067 4.49963 33.765 4.58126C34.7838 4.7206 35.4805 5.67742 36.3661 5.84463C37.1495 5.99636 37.7192 5.50401 38.4469 5.77031C38.5305 5.99945 38.3633 6.29981 38.224 6.51347C38.2828 6.90054 38.5089 7.13277 38.5956 7.47958C39.0817 8.13294 40.1438 8.20416 40.6021 8.89159C40.4844 9.44896 40.9768 9.85769 40.9117 10.6009C41.2895 10.6009 41.531 10.7309 41.9522 10.6752C42.2618 10.9198 42.4011 11.3161 42.7696 11.4926C43.1629 12.8861 43.6305 14.199 44.6275 14.9855C44.996 15.1156 45.4884 15.1156 45.7423 15.3571C45.8042 15.8649 45.3428 15.8494 45.0734 16.0259C44.5501 18.339 48.2659 19.3082 46.4111 21.451C46.6246 21.5511 46.8491 21.6259 47.08 21.6739C47.409 22.0317 47.6586 22.455 47.8123 22.9161C47.966 23.3773 48.0204 23.8657 47.9718 24.3493C47.9408 24.7023 47.7086 25.012 47.6621 25.3897C47.5413 26.7584 48.2226 27.3034 48.9255 28.1394C48.5198 28.4274 47.7798 28.381 47.5878 28.8826C47.8015 30.6321 48.1606 32.8864 46.3987 33.1929C46.5071 33.6605 46.7951 33.9237 46.8446 34.3077C47.0614 35.9767 45.2716 36.8127 45.4326 38.3331C45.4791 38.7728 45.7887 38.9896 45.8042 39.6708C45.3894 39.5687 44.9559 39.5695 44.5414 39.6731C44.127 39.7768 43.7441 39.98 43.4261 40.2653C43.0514 41.6526 41.9553 42.7147 40.3791 42.2719C40.1376 43.0274 39.8558 43.8201 39.1158 44.2784C38.7875 44.4859 38.2673 44.5292 37.9267 44.7986C37.6682 45.0399 37.4432 45.3149 37.2579 45.6161C37.2988 45.9308 37.2191 46.2494 37.0349 46.5079C36.4806 46.5667 36.6045 45.9474 36.2174 45.839C34.3595 45.839 32.7308 48.1831 31.0896 46.6565C30.6933 46.9909 30.78 47.4306 30.3465 47.6969C29.498 48.2357 27.8693 47.5142 26.8536 48.1428C26.3334 48.4525 26.3241 48.8241 25.8875 49.4805C25.3704 49.431 25.3518 48.8767 25.07 48.5887C24.0048 48.211 23.367 49.0594 22.0974 48.8984C21.2799 48.79 20.7442 48.3905 20.3138 47.5607C19.5149 47.7186 19.0752 47.8703 18.3816 47.7836C17.174 47.6536 16.4153 46.319 15.0374 46.9662C14.5822 47.1798 14.6472 47.6474 13.997 47.7836C13.6873 47.3563 14.2168 46.6101 13.8483 46.0744C12.1298 45.8886 10.532 45.5789 10.5784 43.6219C9.72688 43.5136 9.12616 43.8697 8.49757 43.4733C7.92472 43.1141 7.84111 42.0241 7.15988 41.6154C6.57464 41.2655 6.12875 41.4265 5.30198 41.3925C5.19051 40.8196 5.65189 40.5471 5.61163 39.9804C5.57138 39.4138 4.78796 38.9989 4.57121 38.3455C4.43662 37.9609 4.40012 37.5488 4.465 37.1465C4.52989 36.7442 4.69411 36.3645 4.94279 36.0417C4.43186 35.8095 4.18414 35.3171 3.90236 34.8526C3.97049 33.5893 4.02932 31.8026 3.23352 31.2112C2.90529 30.9696 2.46249 31.1245 2.19309 30.691C2.3696 30.0995 3.21494 30.18 3.38215 29.5762C2.70092 28.4553 2.84336 27.26 3.88688 26.6655C3.6918 26.393 3.26758 26.3373 3.14372 25.9967C3.47814 24.5289 3.05392 23.3739 2.17761 22.7267C2.39127 22.3304 2.93006 22.2809 3.21804 21.9712C3.58962 21.1042 3.83734 20.1133 4.48141 19.5188C3.86211 18.8406 4.17176 17.3512 4.33278 16.3975C4.85609 15.6574 5.85626 15.3942 6.19068 14.4653C6.10088 13.7902 5.46919 13.332 5.44752 12.8303C6.37647 13.0161 7.19394 12.5857 7.45405 11.8642C7.50979 9.88556 8.2034 8.24442 10.4267 8.66864C10.5722 8.19487 10.5939 7.60034 10.7983 7.18232C11.5538 6.15428 13.7864 6.60327 14.5884 5.63407C14.8175 5.01477 14.8175 4.18181 15.1086 3.62753C15.6412 3.51606 15.5947 3.98363 15.7774 4.22206C17.016 4.64319 17.722 3.25905 19.0473 3.33027C19.5985 3.36124 19.9082 3.60276 20.6823 3.77617C21.0848 3.61205 21.1746 3.129 21.4998 2.88437C23.0047 2.1567 24.4229 3.42316 25.8844 3.19402C26.6214 3.04849 27.0611 2.44777 27.5194 1.89349ZM21.4998 5.02715C20.2209 5.31203 18.7408 5.43899 17.4124 5.99326C16.8643 6.2224 16.3905 6.7519 15.7774 7.108C14.7153 7.7273 13.2569 8.29396 12.4332 9.04022C11.3154 10.0559 10.4669 10.6287 9.68353 11.7899C8.90011 12.9511 7.96497 14.1061 7.60268 15.58C7.29303 15.8897 7.09486 16.3108 6.78521 16.6205C6.56535 17.8157 6.02656 18.9088 5.74478 20.0266C5.6364 20.4539 5.70762 20.9122 5.59615 21.3643C5.3732 22.2623 4.97685 23.151 4.85299 24.0397C4.6672 25.4579 4.95517 26.9906 5.00162 28.4986C5.00162 28.9074 4.90563 29.3006 4.9273 29.6877C5.00162 30.9263 5.54661 32.1061 5.44752 33.4778C6.2557 35.6175 6.78521 38.0358 7.97426 39.7947C8.90807 40.731 9.92825 41.577 11.0212 42.3214C12.1607 43.0893 13.4705 44.0926 14.8856 44.5509C15.1086 44.6252 15.378 44.5509 15.6288 44.6252C15.8796 44.6995 16.1397 44.9596 16.4463 45.0711C16.7528 45.1826 17.0904 45.3405 17.4124 45.4427C21.0229 46.5915 25.5717 47.1427 29.6745 46.4088C31.8235 45.2476 34.3472 44.9225 36.363 43.7334C37.3946 43.103 38.365 42.3773 39.2613 41.5659C39.6298 41.2562 40.1283 41.0395 40.4504 40.7484C40.7724 40.4573 41.1533 39.8968 41.5651 39.485C41.9804 39.1046 42.3541 38.6811 42.6798 38.2216C42.8409 37.9522 42.878 37.6023 43.0514 37.3298C43.2744 36.9799 43.5995 36.7322 43.7946 36.3637C44.2477 35.4983 44.6449 34.6046 44.9836 33.6884C45.5441 32.1804 45.5131 30.372 45.6525 28.7092C45.7144 27.9722 45.9281 27.2105 45.8754 26.4797C45.6184 22.8909 44.7947 19.6674 43.423 16.9673C42.9368 16.0104 42.5653 14.9793 42.0853 14.1433C41.6088 13.4211 41.0919 12.7263 40.5371 12.0624C39.2675 10.3872 38.1528 9.82363 36.3754 8.71818C35.561 8.21036 34.7683 7.56009 33.9972 7.16993C32.3685 6.31839 30.4084 5.9592 28.4979 5.46066C26.4921 4.90189 24.3949 4.75028 22.3296 5.01477C22.2089 4.79801 21.6174 4.83517 21.4998 5.02715Z" fill="#383838"/>
<path fill-rule="evenodd" clip-rule="evenodd" d="M39.4842 5.32474C39.306 5.39664 39.1072 5.39828 38.9279 5.32931C38.7486 5.26034 38.6021 5.12591 38.5181 4.95316C38.6543 3.73004 40.2273 4.2131 39.4842 5.32474Z" fill="#383838"/>
<path fill-rule="evenodd" clip-rule="evenodd" d="M22.3171 5.02763C24.3823 4.76315 26.4796 4.91476 28.4853 5.47353C30.3959 5.97206 32.3559 6.33126 33.9847 7.18279C34.7557 7.58534 35.5329 8.2356 36.3628 8.73104C38.1402 9.83649 39.2549 10.4001 40.5245 12.0753C41.0793 12.7392 41.5962 13.4339 42.0728 14.1561C42.5527 14.9922 42.9243 16.014 43.4104 16.9801C44.7822 19.6772 45.6059 22.9037 45.8629 26.4926C45.9155 27.2233 45.7019 27.9851 45.6399 28.7221C45.5006 30.3849 45.5316 32.1932 44.9711 33.7012C44.6323 34.6175 44.2351 35.5111 43.782 36.3766C43.5869 36.7451 43.2618 36.9959 43.0389 37.3427C42.8655 37.6152 42.8283 37.962 42.6673 38.2345C42.3416 38.694 41.9679 39.1175 41.5525 39.4979C41.1407 39.9097 40.7846 40.4454 40.4378 40.7612C40.091 41.0771 39.6172 41.2629 39.2487 41.5787C38.3524 42.3901 37.3821 43.1158 36.3504 43.7463C34.3346 44.9353 31.811 45.2605 29.662 46.4216C25.5591 47.1555 21.0104 46.6043 17.3998 45.4555C17.0902 45.3534 16.7496 45.2016 16.4337 45.084C16.1179 44.9663 15.8826 44.7248 15.6163 44.6381C15.35 44.5514 15.096 44.6381 14.8731 44.5638C13.458 44.1055 12.1482 43.1022 11.0087 42.3343C9.91678 41.5897 8.89763 40.7437 7.9648 39.8075C6.77575 38.0487 6.24624 35.6303 5.43806 33.4907C5.53715 32.1189 4.99216 30.9391 4.91785 29.7005C4.89617 29.3135 5.00455 28.9202 4.99216 28.5115C4.94571 27.0035 4.65774 25.4707 4.84353 24.0525C4.9612 23.1638 5.36374 22.2751 5.58669 21.3772C5.69816 20.9251 5.62694 20.4668 5.73532 20.0395C6.0171 18.9092 6.55589 17.8162 6.77575 16.6333C7.0854 16.3237 7.28667 15.9056 7.59322 15.5929C7.9648 14.1066 8.89375 12.9423 9.68336 11.8028C10.473 10.6633 11.3152 10.0687 12.4331 9.05308C13.2567 8.30682 14.7152 7.74016 15.7773 7.12086C16.3966 6.76477 16.8641 6.23526 17.4122 6.00612C18.7406 5.45185 20.2208 5.32489 21.4996 5.04002C21.6173 4.83565 22.2087 4.79849 22.3171 5.02763ZM22.1685 5.77079C21.322 5.78546 20.4776 5.85996 19.6417 5.99374C18.1678 6.33745 16.7434 7.23234 15.48 7.92595C14.2057 8.66954 13.0104 9.54107 11.9128 10.527C11.1635 11.6851 10.4265 12.8556 9.46041 13.7969C8.50562 15.4348 7.63741 17.1216 6.85935 18.8504C6.1069 21.5289 5.55572 24.3343 5.59598 27.0995C5.97685 27.9324 5.70126 29.4219 6.26482 30.0721C5.97685 30.6914 6.44752 31.4779 6.48777 32.0787C6.52803 32.6794 6.38559 33.1779 6.48777 33.7136C6.80744 35.1539 7.22964 36.5695 7.75114 37.9496C8.51509 39.031 9.33363 40.0728 10.2036 41.0709C11.5041 41.5787 12.2194 42.6718 13.7707 42.9288C15.1735 44.0559 17.276 44.2479 18.7499 45.1583C19.7687 45.1583 20.8679 45.6816 22.0198 45.9014C23.8777 46.2575 25.6799 45.9014 27.2219 45.8271C30.1079 44.9508 33.4459 44.3036 36.0655 42.8545C36.9326 42.0401 38.1371 41.5601 38.8896 40.625C39.1682 40.625 39.1001 40.7086 39.3355 40.625C39.687 40.004 40.2007 39.4902 40.8218 39.1387C41.5897 37.705 42.9026 36.3178 43.5715 34.754C43.8285 34.1595 43.8811 33.5371 44.0917 32.8961C44.2032 32.5865 44.4602 32.3388 44.5376 32.0043C44.615 31.6699 44.5376 31.3045 44.6119 30.9639C45.0919 28.5889 45.609 26.4399 44.6862 24.2012C44.5778 22.5817 44.262 20.5968 43.5715 19.1477C42.9924 17.9307 42.4567 16.7788 41.7879 15.5805C41.1181 14.4873 40.3699 13.4441 39.5491 12.4592C36.8644 8.96947 32.5851 7.093 27.8072 5.84511C25.9324 5.67278 24.0471 5.64793 22.1685 5.77079Z" fill="#F6F6F6"/>
<path fill-rule="evenodd" clip-rule="evenodd" d="M27.8165 5.845C32.5944 7.0836 36.8738 8.96936 39.5584 12.4591C40.376 13.4443 41.1211 14.4875 41.7879 15.5804C42.4567 16.7787 42.9924 17.9306 43.5715 19.1476C44.262 20.5967 44.5778 22.5816 44.6862 24.2011C45.6152 26.4398 45.0919 28.5888 44.6119 30.9638C44.5438 31.3044 44.6119 31.676 44.5376 32.0042C44.4633 32.3325 44.2032 32.5771 44.0917 32.896C43.8687 33.537 43.8285 34.1594 43.5715 34.7539C42.9026 36.3022 41.5897 37.7049 40.8218 39.1386C40.2008 39.4901 39.687 40.0039 39.3355 40.6249C39.1001 40.7085 39.1683 40.6249 38.8896 40.6249C38.1371 41.5538 36.9326 42.04 36.0656 42.8544C33.4459 44.3035 30.1079 44.9507 27.222 45.827C25.6737 45.9013 23.8777 46.2574 22.0198 45.9013C20.8679 45.6815 19.7687 45.1489 18.7499 45.1582C17.276 44.2478 15.1735 44.0558 13.7708 42.9287C12.2225 42.6717 11.5041 41.5786 10.2036 41.0708C9.33365 40.0727 8.51511 39.0309 7.75116 37.9495C7.22966 36.5694 6.80746 35.1538 6.48779 33.7135C6.3856 33.1778 6.52495 32.639 6.48779 32.0785C6.45063 31.5181 5.97687 30.6913 6.26484 30.072C5.70128 29.4218 5.97687 27.9323 5.596 27.0994C5.55574 24.3342 6.09144 21.5257 6.85937 18.8503C7.63743 17.1215 8.50564 15.4347 9.46043 13.7968C10.4265 12.8679 11.1635 11.685 11.9129 10.5269C13.0105 9.54096 14.2057 8.66943 15.48 7.92584C16.7434 7.21674 18.1678 6.33734 19.6417 5.99363C20.4777 5.85985 21.322 5.78535 22.1685 5.77068C24.0502 5.64733 25.9387 5.67218 27.8165 5.845ZM17.9325 7.39325C17.4866 7.61 17.0995 8.01255 16.5948 8.28504C15.127 9.05916 13.4766 9.93547 12.5074 11.0347C12.0832 11.5178 11.7983 12.1619 11.3926 12.744C10.987 13.3261 10.4203 13.7008 10.055 14.2303C9.78247 14.6267 9.5719 15.1809 9.3118 15.6423C8.21873 17.5776 7.05135 20.1013 7.008 22.5537C5.87468 25.4954 6.63332 29.6942 7.37958 32.8093C7.34242 33.0694 7.03587 33.0632 7.15663 33.4782C7.7171 36.2124 8.75443 38.4697 10.5009 40.018C12.3918 41.2076 14.3569 42.275 16.3842 43.2136C18.4929 44.1704 20.8184 45.0591 23.4473 45.2449C25.0792 45.3563 26.4076 44.8795 27.9806 44.9352C30.721 43.8886 33.6317 43.5294 35.9324 42.0369C36.6198 41.591 37.2577 40.9129 37.9389 40.4019C39.4036 39.3058 40.5988 38.2344 41.5804 36.6861C42.562 35.1379 43.2216 34.0851 43.748 32.2272C43.9858 31.47 44.1843 30.7011 44.3425 29.9234C44.6707 27.8023 44.3425 25.8453 43.9709 23.9781C43.7263 22.7395 43.5839 21.343 43.2278 20.3366C42.5654 18.5916 41.7184 16.9223 40.701 15.3574C38.6202 12.1123 36.0439 9.94476 32.5727 8.22311C31.6919 7.7688 30.7715 7.39568 29.823 7.10837C27.9465 6.58506 26.1072 6.61602 24.4723 6.21657C24.4258 6.21657 24.3856 6.21658 24.398 6.29089C22.2304 6.39617 19.8399 6.47978 17.9325 7.40563V7.39325Z" fill="#383838"/>
<path fill-rule="evenodd" clip-rule="evenodd" d="M24.398 6.29111C24.398 6.22918 24.4259 6.22299 24.4724 6.2168C26.1228 6.61625 27.9466 6.58528 29.8231 7.10859C30.7716 7.3959 31.692 7.76902 32.5728 8.22333C36.044 9.94498 38.6203 12.1125 40.6733 15.3577C41.6906 16.9226 42.5377 18.5918 43.2 20.3368C43.5561 21.3432 43.6985 22.7397 43.9432 23.9783C44.3116 25.8362 44.643 27.8025 44.3147 29.9236C44.1565 30.7013 43.9581 31.4703 43.7202 32.2274C43.2062 34.0853 42.5219 35.1877 41.5527 36.6864C40.5835 38.1851 39.3851 39.306 37.9112 40.4022C37.2299 40.9131 36.5921 41.5912 35.9046 42.0371C33.6039 43.5296 30.6932 43.895 27.9528 44.9354C26.3798 44.8673 25.0514 45.3442 23.4195 45.2451C20.8061 45.0717 18.4651 44.183 16.3595 43.2386C14.3323 42.2999 12.3671 41.2326 10.4762 40.043C8.72975 38.4947 7.68933 36.2374 7.13196 33.5032C7.01119 33.0882 7.31775 33.0944 7.3549 32.8343C6.60865 29.7192 5.85 25.5204 6.98332 22.5787C7.02667 20.1263 8.19406 17.6026 9.28712 15.6673C9.54723 15.2059 9.75779 14.6517 10.0303 14.2553C10.3957 13.7258 10.9871 13.3264 11.368 12.769C11.7488 12.2116 12.0585 11.5304 12.4827 11.0597C13.4519 9.96047 15.1023 9.08416 16.5701 8.31003C17.0748 8.04683 17.4619 7.63499 17.9078 7.41824C19.84 6.48 22.2305 6.39639 24.398 6.29111ZM39.6328 37.0579C39.8496 36.7173 39.9053 36.129 40.153 35.6459C40.311 35.3363 40.6361 35.1598 40.7476 34.9028C40.9117 34.5219 40.9457 34.1101 41.1191 33.7137C41.2926 33.3174 41.466 32.9706 41.6394 32.599C42.2246 31.3387 42.6426 30.611 42.9027 29.3291C42.9832 28.942 43.1597 28.5302 43.2124 28.14C43.33 26.9572 42.9027 25.83 42.8408 24.7339C42.8253 24.3964 42.9275 24.0341 42.9151 23.6934C42.8718 22.3991 42.3144 21.2162 41.8004 19.9776C40.7878 17.5686 39.5492 15.4939 37.8492 13.797C36.301 12.2643 34.8735 10.9266 32.9444 9.85828C30.3805 8.43699 26.8257 7.07143 22.7631 7.55449C22.3451 7.60403 21.6793 7.81769 21.1281 7.92607C20.577 8.03444 20.0289 7.99419 19.5799 8.14901C19.1928 8.27907 18.8956 8.59181 18.5395 8.74354C17.6693 9.11203 16.7776 9.32568 16.0158 9.78397C14.5636 11.1124 12.9812 12.4841 11.6807 14.1686C10.5288 15.689 9.15087 17.8565 8.58421 19.8166C8.21883 21.0552 8.10426 22.6933 7.98969 24.2756C7.87512 25.8579 7.74506 27.6508 7.91537 29.2548C8.02065 30.2487 8.48513 31.1405 8.58421 32.2274C8.63685 32.7879 8.48513 33.3638 8.58421 33.9367C8.77225 34.6722 9.07308 35.3741 9.47601 36.0175C10.4886 37.8537 11.916 38.7517 13.3404 40.043C14.3158 40.4827 15.3005 40.9905 16.3131 41.3807C16.663 41.5169 16.9324 41.7429 17.2792 41.9009C19.6728 43.0032 22.376 43.0435 25.0204 43.6845C27.7727 43.5344 30.4947 43.0349 33.1209 42.1981C34.3216 41.4379 35.5904 40.7911 36.911 40.2659C37.7811 39.1512 38.8618 38.2687 39.6328 37.0579Z" fill="#F6F6F6"/>
<path fill-rule="evenodd" clip-rule="evenodd" d="M36.8832 40.2533C35.5627 40.7785 34.2939 41.4253 33.0931 42.1855C30.4679 43.0221 27.747 43.5215 24.9958 43.6718C22.3638 43.0309 19.6605 42.9906 17.2545 41.8883C16.9077 41.7303 16.6352 41.5043 16.2884 41.368C15.2759 40.9779 14.2912 40.4701 13.3158 40.0304C11.8914 38.7515 10.4639 37.8628 9.45135 36.0049C9.05824 35.3638 8.76583 34.6662 8.58433 33.9364C8.48524 33.3636 8.63697 32.7876 8.58433 32.2272C8.48524 31.1403 8.02077 30.2485 7.91548 29.2545C7.74518 27.6505 7.87523 25.8484 7.9898 24.2754C8.10437 22.7023 8.21894 21.0457 8.58433 19.8164C9.15099 17.8563 10.5289 15.6888 11.6808 14.1684C12.9814 12.4839 14.5637 11.1121 16.0159 9.78374C16.7932 9.32236 17.6849 9.1118 18.5427 8.74331C18.8988 8.59159 19.196 8.27884 19.5831 8.14879C20.0445 7.99396 20.6142 8.03112 21.1313 7.92584C21.6485 7.82056 22.3483 7.61619 22.7663 7.55426C26.8289 7.0743 30.3837 8.43676 32.9476 9.85805C34.8767 10.9263 36.3104 12.264 37.8525 13.7968C39.5555 15.4937 40.791 17.5683 41.7912 19.965C42.3052 21.2036 42.8626 22.3865 42.9059 23.6808C42.9059 24.0214 42.8161 24.3837 42.8316 24.7213C42.8781 25.8298 43.3209 26.9569 43.2032 28.1274C43.163 28.5176 42.9865 28.9294 42.8936 29.3165C42.6335 30.5984 42.2154 31.3261 41.6302 32.5864C41.4568 32.958 41.2741 33.3295 41.11 33.7011C40.9459 34.0727 40.9025 34.5093 40.7384 34.8902C40.6269 35.1472 40.3018 35.333 40.1439 35.6333C39.8961 36.1071 39.8342 36.7047 39.6237 37.0453C38.8619 38.2684 37.7812 39.151 36.8832 40.2533ZM21.4998 22.1945C21.9105 22.1733 22.3026 22.0165 22.6146 21.7486C23.7386 20.6246 23.9646 16.8716 23.9523 14.6886C23.9523 12.9577 22.9614 9.34713 21.2026 9.48647C20.0569 9.57937 19.4592 11.4497 19.419 12.7564C19.3973 13.4128 19.6946 14.1095 19.7286 14.7629C19.7968 16.7416 20.0228 18.6335 20.2488 20.6463C20.7845 21.1634 20.639 22.1016 21.4998 22.1945ZM27.0735 10.2296C26.6586 10.8489 26.6462 11.3413 26.479 12.1619C26.349 12.7812 26.0114 13.4283 25.9588 14.0941C25.886 15.5572 25.9357 17.0239 26.1074 18.4787C26.157 18.9184 26.1446 19.3519 26.1817 19.7421C26.253 20.476 27.3367 21.7858 27.891 21.8229C28.4453 21.8601 29.1884 21.2036 29.4393 20.7825C29.8139 20.1632 30.1731 18.9989 30.4054 18.0328C31.1857 14.7722 30.3187 11.5797 28.8571 9.70942C28.5475 9.74658 28.5289 9.49267 28.1883 9.56079C28.1418 9.56079 28.1016 9.56079 28.114 9.63511C27.8539 9.91998 27.3615 9.97262 27.0735 10.2296ZM33.2418 12.6077C33.1055 16.3607 32.1549 19.612 32.2757 22.7147C34.0871 23.0553 35.3722 23.5663 36.9576 23.8295C37.131 23.2349 37.4685 22.8045 37.5521 22.1202C37.1248 21.9406 36.9328 22.0552 36.4374 22.1202C35.6601 21.7579 34.3379 21.9437 33.762 21.377C33.923 18.6212 34.6011 15.9241 35.0253 13.2023C34.564 12.8462 33.9416 12.2547 33.1674 12.4591C33.2263 12.4777 33.2542 12.521 33.2418 12.6077ZM16.2977 12.8307C13.5171 14.156 11.6282 16.0696 10.5011 18.9246C10.1512 20.8971 9.57211 22.6125 10.4267 24.3497C10.7085 24.5386 10.8912 24.8265 11.1699 25.0185C13.6471 25.0588 15.3316 23.749 17.4868 23.2349C17.5183 22.5116 17.4935 21.7869 17.4125 21.0674C15.8642 21.3182 13.9722 22.6373 12.5076 21.7362C11.783 21.2934 11.7768 20.4543 12.136 19.4324C12.6716 18.2739 13.4051 17.2177 14.3036 16.3112C15.1087 15.633 16.1615 15.2212 16.8303 14.4533C16.4959 14.0693 16.7343 13.1125 16.2977 12.8307ZM22.7632 23.6065C22.0417 24.4209 22.212 26.1302 21.4255 26.8764C21.0726 26.533 20.6073 26.3288 20.1156 26.3015C19.6239 26.2742 19.139 26.4256 18.7501 26.7278C18.1866 27.6908 17.7809 29.0285 18.7501 29.8491C19.611 30.4219 20.3417 29.7066 21.1283 29.5394C21.2206 29.3356 21.3882 29.1754 21.596 29.0923C21.8037 29.0092 22.0356 29.0096 22.243 29.0935C22.2987 29.4465 22.1594 29.6044 22.1687 29.911C22.4536 30.4777 23.559 31.0474 23.8779 30.1339C23.6339 30.1943 23.3788 30.1943 23.1348 30.1339C22.0603 28.5238 22.4009 25.4056 23.1379 23.6808C23.1379 23.6251 23.1379 23.5353 23.0636 23.5322C23.0481 23.6437 22.8809 23.6003 22.7632 23.6065ZM28.0273 25.7741C27.922 26.9415 28.3369 29.431 26.9125 29.7128C25.6491 29.4032 26.4883 27.2046 25.9464 26.3067C25.228 26.9848 25.9805 28.4742 25.9464 29.5766C26.2096 29.8336 26.1817 30.3817 26.5409 30.5427C27.8043 30.8523 28.7518 30.233 29.0677 29.3536C28.6744 28.0779 28.7302 26.7216 28.2502 25.6378C28.244 25.7183 28.0923 25.6998 28.0396 25.7617L28.0273 25.7741ZM33.8363 30.072C35.3845 31.9299 36.3383 34.3576 37.998 36.0916C38.4594 35.3206 39.732 34.1749 39.1127 33.2676C38.4253 33.4224 38.3572 34.1966 37.7007 34.3823C37.2765 34.1098 36.8058 33.763 36.8089 33.3419C36.8089 33.0323 37.1031 32.958 37.2548 32.6731C37.7082 31.7271 38.1053 30.7552 38.4439 29.7624C38.1342 29.784 38.0104 29.3598 37.775 29.5394C37.196 30.3228 36.9483 31.4376 35.9171 31.7689C35.527 31.4592 35.0625 31.2394 34.8767 30.7285C35.1647 29.7995 35.849 29.2731 36.1401 28.3504C35.1182 27.5112 34.2512 29.1771 33.8363 30.072ZM10.2038 34.2337C10.4453 34.3638 10.5754 34.6053 10.8726 34.6796C11.3495 34.1408 11.4919 33.2521 12.0617 32.8217C12.8947 33.5494 12.6284 35.3454 12.8792 36.4632C13.6688 36.2371 13.8236 34.7322 14.8114 34.4567C15.4802 35.7913 14.9383 37.3209 15.2573 38.9899C15.5298 38.9218 15.7218 39.2996 15.9261 39.0642C16.2946 36.7605 16.1305 34.3483 15.7032 31.9423C14.9743 32.5429 14.3686 33.279 13.9196 34.1098C13.6936 34.0572 13.6997 34.2399 13.4737 34.1842C12.8358 32.478 13.0588 30.3321 12.359 28.4618C11.4455 30.1494 11.2071 32.5864 10.2038 34.2337ZM34.1336 38.1725C34.9913 34.9645 33.2046 32.7907 30.4178 32.8217C30.1081 33.602 30.9008 34.1687 30.6407 35.0512C31.5294 36.7078 31.1114 39.0766 31.9041 40.6249C32.8034 39.9644 33.5615 39.1305 34.1336 38.1725ZM19.58 33.119C19.4314 33.763 19.0443 34.1687 18.6882 34.6053C18.4312 35.9182 17.7933 37.7018 17.9451 39.2129C18.3166 39.9003 18.5179 40.789 19.4314 40.7611C21.2057 40.7364 22.4164 36.8286 22.0324 34.5186C21.8993 33.7197 21.2769 32.6607 20.3232 32.8093C20.2767 32.8093 20.2365 32.8093 20.2488 32.8836C20.0524 33.0322 19.8139 33.1145 19.5676 33.119H19.58ZM27.6061 33.0447C27.4978 33.7073 27.634 34.4567 27.6061 35.2122C27.6061 35.6302 27.3367 36.0575 27.2965 36.4756C27.2438 37.2466 27.8012 38.287 26.9868 38.6431C25.7235 37.4293 25.3364 35.3392 24.1628 34.0355C24.2 36.8317 23.5157 38.7422 23.4475 41.5291C23.7881 41.4919 23.8687 41.6591 24.1164 41.5291C24.392 40.0458 24.2433 38.1229 24.9339 37.0701C25.9123 38.3459 26.2653 40.2471 27.2376 41.5291C27.8167 41.5291 28.0489 41.1513 28.724 41.2194C28.7054 38.1663 28.9531 35.3361 28.2038 32.896C27.9888 32.8641 27.7699 32.9174 27.5937 33.0447H27.6061Z" fill="#383838"/>
<path fill-rule="evenodd" clip-rule="evenodd" d="M20.2363 20.6339C20.0102 18.6336 19.7842 16.7571 19.7315 14.763C19.7098 14.1096 19.4219 13.4129 19.4219 12.7564C19.4621 11.4497 20.0598 9.57942 21.2055 9.48653C22.9643 9.34718 23.9459 12.9577 23.9552 14.6886C23.9552 16.8562 23.7415 20.6246 22.6175 21.7487C22.3055 22.0166 21.9134 22.1734 21.5027 22.1946C20.6388 22.1017 20.7843 21.1634 20.2363 20.6339ZM21.0537 12.0133C21.0063 12.0263 20.9651 12.056 20.9378 12.097C20.9105 12.1379 20.8989 12.1874 20.9051 12.2362C20.5242 13.7349 20.5954 15.887 20.7565 17.6613C20.8277 18.485 20.9423 19.8939 22.0198 19.8288C23.1408 17.7913 22.7568 14.8744 22.3914 12.3972C21.9858 12.2207 21.704 11.9328 21.0537 12.0133Z" fill="#F6F6F6"/>
<path fill-rule="evenodd" clip-rule="evenodd" d="M28.1139 9.63512C28.1139 9.57319 28.1418 9.567 28.1882 9.56081C28.5288 9.49268 28.5474 9.7466 28.8571 9.70944C30.331 11.5673 31.198 14.7722 30.4053 18.0328C30.1731 18.9989 29.8139 20.1787 29.4392 20.7825C29.176 21.2036 28.4297 21.8601 27.891 21.8229C27.3522 21.7858 26.2529 20.4729 26.1817 19.7421C26.1445 19.3519 26.1569 18.9184 26.1074 18.4787C25.9356 17.0239 25.8859 15.5572 25.9587 14.0941C26.0114 13.4283 26.3489 12.7936 26.479 12.1619C26.6462 11.3413 26.6586 10.8397 27.0735 10.2296C27.3615 9.97264 27.8538 9.92 28.1139 9.63512ZM29.2286 15.2088C29.2286 14.8156 29.0398 14.2799 29.0057 13.6606C28.9438 12.5303 28.9623 10.7901 27.7423 11.654C27.0023 13.9083 26.3923 16.9181 26.7762 19.8288C27.1385 20.061 27.3707 20.4264 28.0396 20.349C28.758 19.3891 29.1884 17.3392 29.2286 15.2088Z" fill="#F6F6F6"/>
<path fill-rule="evenodd" clip-rule="evenodd" d="M28.0396 20.3364C27.3708 20.4138 27.1385 20.0484 26.7763 19.8162C26.3923 16.9147 27.0023 13.8957 27.7424 11.6414C28.9624 10.7775 28.9438 12.5177 29.0212 13.6603C29.0553 14.2796 29.2504 14.8277 29.2442 15.2086C29.1884 17.339 28.758 19.3888 28.0396 20.3364Z" fill="#383838"/>
<path fill-rule="evenodd" clip-rule="evenodd" d="M5.00158 12.6078C4.90685 12.6859 4.79286 12.7371 4.67154 12.756C4.55023 12.7749 4.42607 12.7608 4.31207 12.7152C4.19808 12.6696 4.09845 12.5942 4.02363 12.4968C3.94882 12.3995 3.90157 12.2838 3.88684 12.1619C3.88684 11.3661 5.12544 11.5178 5.0759 12.4716C5.00468 12.4623 5.01706 12.5521 5.00158 12.6078Z" fill="#383838"/>
<path fill-rule="evenodd" clip-rule="evenodd" d="M22.3917 12.3844C22.7571 14.8616 23.141 17.7785 22.0201 19.816C20.9425 19.8935 20.828 18.4845 20.7567 17.6485C20.6019 15.8742 20.5245 13.7221 20.9054 12.2234C20.8991 12.1746 20.9107 12.1252 20.9381 12.0842C20.9654 12.0432 21.0065 12.0135 21.054 12.0005C21.7043 11.9324 21.9861 12.2203 22.3917 12.3844Z" fill="#383838"/>
<path fill-rule="evenodd" clip-rule="evenodd" d="M33.1674 12.4589C33.9415 12.2546 34.5639 12.846 35.0253 13.2021C34.6011 15.9239 33.9229 18.621 33.7619 21.3769C34.3379 21.9435 35.6601 21.7577 36.4373 22.12C36.9358 22.055 37.1247 21.9404 37.552 22.12C37.4684 22.8043 37.1309 23.2347 36.9575 23.8293C35.3814 23.5661 34.087 23.0552 32.2756 22.7145C32.1548 19.618 33.1054 16.3605 33.2417 12.6076C33.2541 12.5209 33.2262 12.4775 33.1674 12.4589Z" fill="#F6F6F6"/>
<path fill-rule="evenodd" clip-rule="evenodd" d="M16.818 14.4662C16.1522 15.2341 15.0963 15.646 14.2912 16.3241C13.3928 17.2306 12.6593 18.2869 12.1237 19.4454C11.7645 20.4672 11.7707 21.3033 12.4953 21.7492C13.9723 22.641 15.8736 21.3311 17.4125 21.0927C17.4936 21.8122 17.5184 22.5369 17.4868 23.2603C15.3193 23.7743 13.6379 25.0841 11.17 25.0438C10.8913 24.8519 10.7086 24.5639 10.4268 24.375C9.56289 22.6379 10.1512 20.9224 10.5011 18.9499C11.6283 16.095 13.5171 14.1813 16.2978 12.856C16.7344 13.113 16.496 14.0698 16.818 14.4662Z" fill="#F6F6F6"/>
<path fill-rule="evenodd" clip-rule="evenodd" d="M47.7332 14.7631C47.696 14.9984 47.5133 15.0913 47.5102 15.3576C47.2453 15.436 46.9675 15.4612 46.6927 15.4319C46.0796 14.6238 47.3895 14.0385 47.7332 14.7631Z" fill="#383838"/>
<path fill-rule="evenodd" clip-rule="evenodd" d="M0.245359 22.7894C0.0378939 21.6747 1.36629 21.9348 1.43442 22.4798C1.51492 23.1363 0.67887 23.2137 0.245359 22.7894Z" fill="#383838"/>
<path fill-rule="evenodd" clip-rule="evenodd" d="M23.0602 23.5322C23.1314 23.5322 23.119 23.6251 23.1345 23.6809C22.4007 25.4056 22.06 28.5238 23.1376 30.1464C23.3817 30.2067 23.6367 30.2067 23.8808 30.1464C23.5711 31.0753 22.4564 30.4901 22.1715 29.9234C22.1715 29.6138 22.3016 29.4589 22.2458 29.1059C22.0384 29.022 21.8066 29.0216 21.5988 29.1047C21.391 29.1878 21.2235 29.348 21.1311 29.5518C20.3446 29.7067 19.6138 30.4219 18.753 29.8615C17.7838 29.0409 18.1894 27.6939 18.753 26.7402C19.1418 26.438 19.6268 26.2866 20.1185 26.3139C20.6102 26.3412 21.0754 26.5454 21.4284 26.8888C22.2149 26.1426 22.0477 24.4333 22.766 23.6189C22.8806 23.6004 23.0478 23.6437 23.0602 23.5322ZM18.8985 28.7963C18.9616 29.07 19.1287 29.3084 19.3645 29.461C19.6004 29.6136 19.8864 29.6684 20.1619 29.6138C20.7285 29.5332 20.7812 28.9449 21.4253 28.7963C21.4996 27.9788 21.3974 27.3378 21.0537 26.9384C20.7818 26.8677 20.4968 26.8643 20.2233 26.9285C19.9499 26.9926 19.6961 27.1223 19.4839 27.3064C19.2718 27.4905 19.1076 27.7235 19.0056 27.9852C18.9036 28.2469 18.8669 28.5296 18.8985 28.8087V28.7963Z" fill="#F6F6F6"/>
<path fill-rule="evenodd" clip-rule="evenodd" d="M28.2625 25.6133C28.7425 26.6971 28.6867 28.0534 29.08 29.3291C28.7703 30.2024 27.8166 30.8402 26.5532 30.5182C26.194 30.3572 26.2219 29.8091 25.9587 29.5521C25.9928 28.4374 25.2403 26.9603 25.9587 26.2822C26.5006 27.1926 25.649 29.3787 26.9248 29.6883C28.3523 29.4066 27.9343 26.9015 28.0395 25.7496C28.0922 25.7 28.2439 25.7186 28.2625 25.6133Z" fill="#F6F6F6"/>
<path fill-rule="evenodd" clip-rule="evenodd" d="M21.0537 26.9508C21.3974 27.3502 21.4996 27.9912 21.4253 28.8087C20.7843 28.9573 20.7286 29.5456 20.1619 29.6261C19.8864 29.6808 19.6004 29.626 19.3646 29.4734C19.1287 29.3208 18.9616 29.0824 18.8985 28.8087C18.8691 28.5305 18.9075 28.2494 19.0104 27.9893C19.1134 27.7293 19.2778 27.498 19.4897 27.3154C19.7015 27.1328 19.9544 27.0042 20.2268 26.9407C20.4992 26.8772 20.7829 26.8807 21.0537 26.9508Z" fill="#383838"/>
<path fill-rule="evenodd" clip-rule="evenodd" d="M50.5572 27.7681C50.7554 28.3099 50.5572 28.8921 50.1856 28.9571C49.1669 29.1429 49.2257 26.9754 50.5572 27.7681Z" fill="#383838"/>
<path fill-rule="evenodd" clip-rule="evenodd" d="M36.1432 28.3627C35.8521 29.2917 35.1678 29.815 34.8798 30.7409C35.0656 31.2518 35.53 31.4809 35.9202 31.7813C36.9513 31.45 37.1991 30.3352 37.7781 29.5518C38.0134 29.3722 38.1404 29.7964 38.447 29.7747C38.1079 30.7634 37.7108 31.7312 37.2579 32.6731C37.1062 32.958 36.8151 33.0416 36.812 33.3419C36.812 33.7661 37.2796 34.1098 37.7038 34.3823C38.3602 34.1996 38.4284 33.4224 39.1158 33.2676C39.7351 34.1749 38.4624 35.3206 38.0011 36.0916C36.3413 34.3576 35.3907 31.9175 33.8394 30.072C34.2512 29.1771 35.1182 27.5112 36.1432 28.3627Z" fill="#F6F6F6"/>
<path fill-rule="evenodd" clip-rule="evenodd" d="M12.3587 28.4374C13.0585 30.2953 12.8356 32.4628 13.4735 34.1597C13.6995 34.2154 13.6933 34.0328 13.9194 34.0854C14.3706 33.2587 14.9773 32.5269 15.706 31.9302C16.1334 34.3486 16.2975 36.7608 15.929 39.0522C15.7246 39.2999 15.5326 38.9097 15.2602 38.9779C14.9505 37.3089 15.4831 35.7792 14.8143 34.4446C13.8265 34.7202 13.6716 36.2251 12.882 36.4511C12.6312 35.3333 12.8975 33.5373 12.0646 32.8096C11.4793 33.24 11.3524 34.1287 10.8755 34.6675C10.5659 34.5932 10.4482 34.3579 10.2067 34.2216C11.2068 32.5867 11.4453 30.1497 12.3587 28.4374Z" fill="#F6F6F6"/>
<path fill-rule="evenodd" clip-rule="evenodd" d="M0.843136 30.2952C1.67919 30.0816 1.59249 31.2242 0.991768 31.2613C0.391047 31.2985 0.0132734 30.5089 0.843136 30.2952Z" fill="#383838"/>
<path fill-rule="evenodd" clip-rule="evenodd" d="M31.9039 40.6255C31.1112 39.0617 31.5292 36.7084 30.6405 35.0518C30.9006 34.1693 30.1141 33.6026 30.4176 32.8223C33.2044 32.7913 34.9911 34.9651 34.1334 38.173C33.5613 39.1311 32.8033 39.965 31.9039 40.6255ZM33.093 35.2747C32.6192 34.9836 32.2724 34.5594 31.6066 34.4572C31.105 35.1416 31.7367 36.792 31.9782 38.0244C32.0587 38.4301 31.8884 38.7923 32.2879 38.9905C33.3964 38.4331 33.4367 36.5752 33.093 35.2747Z" fill="#F6F6F6"/>
<path fill-rule="evenodd" clip-rule="evenodd" d="M20.2363 32.8961C20.2363 32.8342 20.2641 32.828 20.3106 32.8218C21.2643 32.667 21.8867 33.7322 22.0198 34.531C22.4038 36.841 21.1931 40.7488 19.4188 40.7736C18.4898 40.7891 18.304 39.9004 17.9325 39.2253C17.7807 37.705 18.4186 35.9307 18.6756 34.6178C19.0317 34.1811 19.4188 33.7755 19.5674 33.1314C19.8094 33.1244 20.0432 33.0422 20.2363 32.8961ZM19.7315 39.5102C20.2387 38.7614 20.6156 37.9323 20.8463 37.0578C21.0599 36.1288 21.3789 34.9986 20.8463 34.3081C20.3508 34.0697 20.4128 34.6611 19.9545 34.4567C19.3352 35.8285 18.4279 37.7731 19.0627 39.5102C19.4219 39.5195 19.4219 39.439 19.7315 39.5102Z" fill="#F6F6F6"/>
<path fill-rule="evenodd" clip-rule="evenodd" d="M28.1882 32.8964C28.9376 35.3364 28.6899 38.1604 28.7084 41.2197C28.0334 41.1392 27.8012 41.5046 27.2221 41.5294C26.2498 40.2474 25.8968 38.3462 24.9183 37.0704C24.2278 38.1232 24.3764 40.0338 24.1009 41.5294C23.8531 41.6594 23.7726 41.4922 23.432 41.5294C23.5156 38.7425 24.1999 36.8444 24.1752 34.0235C25.3487 35.3271 25.7234 37.4296 26.9992 38.6311C27.8012 38.2874 27.2438 37.2469 27.3088 36.4635C27.3367 36.0455 27.5906 35.6182 27.6185 35.2001C27.6463 34.457 27.5101 33.7076 27.6185 33.0326C27.7856 32.9197 27.9881 32.8713 28.1882 32.8964Z" fill="#F6F6F6"/>
<path fill-rule="evenodd" clip-rule="evenodd" d="M19.0473 39.5107C18.428 37.7736 19.3136 35.829 19.9391 34.4573C20.3974 34.6616 20.3354 34.0702 20.8309 34.3086C21.3635 34.9991 21.0445 36.1294 20.8309 37.0583C20.6002 37.9328 20.2233 38.762 19.7161 39.5107C19.422 39.4395 19.422 39.52 19.0473 39.5107Z" fill="#383838"/>
<path fill-rule="evenodd" clip-rule="evenodd" d="M32.2757 38.9902C31.8886 38.792 32.0589 38.4297 31.966 38.0241C31.7245 36.7855 31.0928 35.1412 31.5945 34.4569C32.2602 34.5591 32.607 34.9833 33.0808 35.2744C33.4369 36.5749 33.3966 38.4328 32.2757 38.9902Z" fill="#383838"/>
<path fill-rule="evenodd" clip-rule="evenodd" d="M47.1387 39.8075C47.141 40.1189 47.0643 40.4257 46.9157 40.6993C45.5873 40.8479 46.2097 38.9281 47.1387 39.8075Z" fill="#383838"/>
<path fill-rule="evenodd" clip-rule="evenodd" d="M4.55876 41.8887C4.65485 42.1271 4.65485 42.3935 4.55876 42.6319C4.22743 42.6814 3.88991 42.8734 3.44402 42.6319C3.32016 41.8609 4.03235 41.5946 4.55876 41.8887Z" fill="#383838"/>
<path fill-rule="evenodd" clip-rule="evenodd" d="M38.0724 47.1647C38.0228 47.4062 38.0724 48.0689 37.7008 48.2051C37.196 48.1897 37.0815 47.7964 36.8833 47.462C36.9762 46.9201 37.6915 46.8458 38.0724 47.1647Z" fill="#383838"/>
<path fill-rule="evenodd" clip-rule="evenodd" d="M14.0682 48.6513C14.1487 49.2551 13.8298 49.4533 13.548 49.6917C13.3864 49.6889 13.2293 49.6379 13.0969 49.5452C12.9645 49.4525 12.8628 49.3224 12.8048 49.1715C12.8054 49.0254 12.8493 48.8827 12.9308 48.7615C13.0124 48.6403 13.128 48.5459 13.2631 48.4903C13.3982 48.4346 13.5467 48.4202 13.69 48.4489C13.8333 48.4775 13.9649 48.548 14.0682 48.6513Z" fill="#383838"/>
<path fill-rule="evenodd" clip-rule="evenodd" d="M26.3304 51.475C26.143 51.4367 25.9663 51.3582 25.8123 51.2448C25.6583 51.1315 25.5308 50.986 25.4386 50.8185C25.6399 49.2393 27.4173 50.7349 26.3304 51.475Z" fill="#383838"/>
</svg>
