<svg width="53" height="40" viewBox="0 0 53 40" fill="none" xmlns="http://www.w3.org/2000/svg">
<g filter="url(#filter0_d_2480_2036)">
<path d="M48.9381 31.8452L26.7583 31.8151L4.57373 31.8452L26.7685 0.331543L48.9381 31.8452ZM26.7557 30.3095L46.0337 30.3343L26.7676 2.9472L7.4781 30.3361L26.7557 30.3095Z" fill="#13171B"/>
<path d="M7.32201 23.1373C7.30392 23.1401 7.28544 23.1385 7.26805 23.1329C7.25066 23.1272 7.23485 23.1175 7.22191 23.1045C7.20898 23.0916 7.19927 23.0758 7.19358 23.0584C7.18789 23.041 7.18638 23.0225 7.18916 23.0044V21.6233C7.18638 21.6052 7.18789 21.5867 7.19358 21.5694C7.19927 21.552 7.20898 21.5362 7.22191 21.5232C7.23485 21.5103 7.25066 21.5006 7.26805 21.4949C7.28544 21.4892 7.30392 21.4877 7.32201 21.4905H11.0859C11.2266 21.4904 11.3649 21.4541 11.4875 21.3851C11.6167 21.3135 11.7325 21.22 11.8298 21.1088C11.9277 20.9991 12.0077 20.8746 12.0667 20.7399C12.1219 20.6157 12.151 20.4814 12.1521 20.3454C12.1503 20.1996 12.1355 20.0542 12.1079 19.911C12.0739 19.7253 11.9949 19.5509 11.8779 19.4028C11.7609 19.2547 11.6093 19.1376 11.4366 19.0617C11.2299 18.9607 10.9512 18.9102 10.6005 18.9102H8.33603C8.24747 18.9102 8.20319 18.866 8.20319 18.7774V17.3976C8.20319 17.3091 8.24747 17.2648 8.33603 17.2648H11.1532C11.2712 17.2637 11.3868 17.232 11.4888 17.1727C11.5987 17.1111 11.6989 17.0335 11.7859 16.9424C11.8736 16.8498 11.9448 16.7429 11.9963 16.6262C12.047 16.5168 12.0741 16.3979 12.0755 16.2773C12.0753 16.1549 12.0483 16.0339 11.9963 15.9231C11.9455 15.812 11.8742 15.7116 11.7859 15.6273C11.6983 15.5443 11.5984 15.4755 11.4897 15.4231C11.3852 15.3718 11.2705 15.3448 11.1541 15.3443H7.32201C7.23345 15.3443 7.18916 15.3 7.18916 15.2115V13.8304C7.18638 13.8123 7.18789 13.7938 7.19358 13.7764C7.19927 13.759 7.20898 13.7432 7.22191 13.7303C7.23485 13.7173 7.25066 13.7076 7.26805 13.7019C7.28544 13.6963 7.30392 13.6947 7.32201 13.6975H10.9973C12.0155 13.6975 12.7877 13.9279 13.3141 14.3887C13.8404 14.8496 14.103 15.4794 14.1018 16.2782C14.1065 16.5989 14.0756 16.919 14.0097 17.2329C13.9483 17.5003 13.7947 17.7306 13.5487 17.9237C13.4767 17.9793 13.3969 18.0241 13.3118 18.0565C13.2065 18.1008 13.1538 18.1353 13.1538 18.1619C13.1538 18.1885 13.2065 18.2385 13.3118 18.3129C13.4013 18.373 13.4812 18.4463 13.5487 18.5303C13.7858 18.7941 13.9512 19.1142 14.0292 19.4602C14.1089 19.8478 14.1464 20.2429 14.1412 20.6385C14.1414 20.9552 14.0879 21.2696 13.9831 21.5684C13.8831 21.8619 13.7291 22.1341 13.5293 22.3712C13.3323 22.6036 13.0904 22.7938 12.8181 22.9305C12.5258 23.0748 12.2031 23.1471 11.8772 23.1413L7.32201 23.1373Z" fill="#13171B"/>
<path d="M18.0252 15.3436C17.8853 15.3434 17.7467 15.3702 17.6169 15.4224C17.3618 15.5224 17.1515 15.7111 17.0244 15.9538C16.9647 16.0652 16.9331 16.1896 16.9323 16.316V17.4084C16.9323 17.47 16.9545 17.5005 16.9983 17.5005C17.0683 17.5005 17.1863 17.4589 17.3525 17.3756C17.5379 17.2885 17.7411 17.246 17.9459 17.2516H19.9602C20.3198 17.2516 20.6182 17.3043 20.8556 17.4097C21.1011 17.5216 21.3143 17.6937 21.4755 17.9101C21.6531 18.1315 21.7931 18.3806 21.89 18.6474C21.9991 18.9331 22.0549 19.2364 22.0547 19.5423V20.4244C22.0517 20.6908 22.0341 20.9569 22.002 21.2214C21.9682 21.5277 21.8883 21.8272 21.7651 22.1097C21.6414 22.3918 21.4517 22.6401 21.212 22.8337C20.9664 23.0362 20.633 23.1371 20.2117 23.1365H16.7481C16.4871 23.1433 16.2308 23.0656 16.0175 22.9151C15.8133 22.7669 15.6396 22.5806 15.506 22.3665C15.3724 22.158 15.2681 21.9321 15.1961 21.6952C15.1323 21.5016 15.0968 21.2998 15.0907 21.0961V16.4493C15.0889 16.0921 15.1423 15.7368 15.2488 15.3958C15.3505 15.0687 15.5261 14.7693 15.762 14.5209C16.0198 14.2569 16.3322 14.0525 16.6773 13.9217C17.0501 13.7724 17.5085 13.6977 18.0526 13.6977H21.344C21.3621 13.695 21.3805 13.6966 21.3978 13.7023C21.4152 13.708 21.431 13.7177 21.4439 13.7307C21.4568 13.7436 21.4665 13.7593 21.4722 13.7767C21.4779 13.794 21.4795 13.8125 21.4768 13.8305V15.2125C21.4796 15.2306 21.4781 15.2491 21.4724 15.2665C21.4667 15.2839 21.457 15.2997 21.4441 15.3126C21.4311 15.3256 21.4153 15.3353 21.3979 15.341C21.3806 15.3466 21.3621 15.3482 21.344 15.3454H18.0252V15.3436ZM19.447 21.4251C19.5871 21.43 19.727 21.4123 19.8615 21.3728C19.9566 21.3425 20.038 21.2798 20.0917 21.1957C20.1506 21.0932 20.1844 20.9782 20.1905 20.8601C20.2038 20.7199 20.2104 20.5488 20.2104 20.3469V19.978C20.2104 19.7587 20.1731 19.5787 20.0984 19.4382C20.0295 19.3046 19.9246 19.1929 19.7955 19.1159C19.6587 19.0381 19.5085 18.9867 19.3527 18.9644C19.1785 18.9376 19.0024 18.9245 18.8262 18.925C18.616 18.925 18.3989 18.9294 18.1748 18.9383C17.9662 18.9443 17.7597 18.9819 17.5624 19.0499C17.386 19.1106 17.2293 19.2176 17.1085 19.3598C16.9905 19.5004 16.9314 19.707 16.9314 19.9798V20.3486C16.9314 20.5848 16.9601 20.7756 17.0173 20.9212C17.062 21.0484 17.139 21.1618 17.2409 21.2502C17.3322 21.3247 17.4411 21.3745 17.5571 21.395C17.6764 21.4171 17.7975 21.4281 17.9189 21.4278L19.447 21.4251Z" fill="#13171B"/>
<path d="M23.0138 19.9117V15.7254C23.0138 15.0671 23.2002 14.5653 23.5731 14.2199C23.9459 13.8745 24.4615 13.7011 25.1198 13.6996H28.0423C28.6832 13.6996 29.1967 13.873 29.5828 14.2199C29.969 14.5667 30.162 15.0686 30.162 15.7254V20.6224C30.162 21.0877 30.1116 21.4804 30.0106 21.8007C29.9096 22.121 29.7671 22.3799 29.5828 22.5774C29.3989 22.7745 29.1679 22.9216 28.9116 23.0052C28.6266 23.0966 28.3287 23.1414 28.0295 23.138H25.3833C25.0299 23.1442 24.6775 23.0994 24.3369 23.0052C24.059 22.927 23.8054 22.7799 23.5997 22.5774C23.4022 22.3799 23.2546 22.121 23.1568 21.8007C23.0591 21.4804 23.0109 21.0877 23.012 20.6224L23.0138 19.9117ZM25.831 21.4912H27.3316C27.7614 21.4912 28.0466 21.4056 28.1871 21.2344C28.3276 21.0632 28.3979 20.8021 28.3979 20.4511V16.3702C28.3974 16.245 28.3774 16.1207 28.3386 16.0017C28.2994 15.8796 28.2343 15.7673 28.1477 15.6727C28.0549 15.5726 27.9431 15.4921 27.8187 15.4358C27.665 15.37 27.4988 15.3385 27.3316 15.3437H25.831C25.5236 15.3437 25.2735 15.4227 25.0804 15.5806C24.8873 15.7386 24.7908 16.0017 24.7908 16.3702V20.4511C24.7908 20.8021 24.8677 21.0632 25.0215 21.2344C25.1753 21.4056 25.441 21.4912 25.8186 21.4912H25.831Z" fill="#13171B"/>
<path d="M31.092 14.6869C31.0878 14.5715 31.1127 14.457 31.1646 14.3539C31.2101 14.2678 31.2769 14.1948 31.3586 14.1418C31.4427 14.0878 31.5361 14.0497 31.634 14.0293C31.7386 14.007 31.8454 13.9958 31.9524 13.9961C32.0944 13.9937 32.2363 14.0039 32.3766 14.0266C32.4783 14.0431 32.5725 14.0905 32.6462 14.1626C32.7274 14.2532 32.7846 14.3626 32.8127 14.4809C32.8633 14.6706 32.9038 14.8627 32.9341 15.0566L33.2608 17.0621C33.2648 17.0784 33.2701 17.1063 33.2763 17.1409C33.2824 17.1776 33.2904 17.2139 33.3003 17.2498C33.3103 17.2864 33.3205 17.3187 33.3308 17.3468C33.3406 17.3751 33.3499 17.3911 33.3578 17.3911C33.3658 17.3911 33.376 17.3769 33.3884 17.3468C33.4015 17.3155 33.4116 17.283 33.4185 17.2498C33.4265 17.2135 33.4349 17.1785 33.4428 17.144C33.4485 17.1231 33.4525 17.1018 33.4548 17.0802L33.7701 15.0322C33.7967 14.8429 33.8362 14.6556 33.8883 14.4716C33.9183 14.3559 33.9765 14.2493 34.0579 14.1617C34.1341 14.0902 34.2304 14.0439 34.3338 14.0288C34.478 14.0061 34.6239 13.9959 34.7699 13.9983C35.0241 13.9983 35.2321 14.0488 35.3938 14.1497C35.5556 14.2507 35.6365 14.4244 35.6365 14.6709V18.2824C35.6377 18.2907 35.6369 18.2991 35.6343 18.307C35.6317 18.3149 35.6272 18.3221 35.6214 18.328C35.6155 18.3338 35.6083 18.3383 35.6004 18.3409C35.5925 18.3435 35.5841 18.3443 35.5758 18.3431H34.816C34.8077 18.3443 34.7993 18.3435 34.7914 18.3409C34.7835 18.3383 34.7764 18.3338 34.7705 18.328C34.7646 18.3221 34.7601 18.3149 34.7575 18.307C34.7549 18.2991 34.7541 18.2907 34.7553 18.2824V14.9778C34.7544 14.9606 34.7525 14.9434 34.7496 14.9264C34.7451 14.8998 34.7332 14.887 34.7133 14.887C34.7047 14.8866 34.6962 14.8884 34.6885 14.8921C34.6807 14.8958 34.674 14.9014 34.669 14.9083C34.6588 14.9224 34.6497 14.9372 34.6415 14.9525C34.6349 14.9702 34.6299 14.9884 34.6265 15.007C34.6207 15.0353 34.6145 15.0659 34.6083 15.0982C34.6021 15.1305 34.5964 15.1629 34.5902 15.1952C34.584 15.2275 34.5791 15.2514 34.5751 15.2678C34.5507 15.3688 34.5277 15.4746 34.5051 15.5857C34.4826 15.6969 34.452 15.8443 34.4113 16.0286C34.3705 16.2128 34.3227 16.4466 34.2629 16.7313C34.2031 17.016 34.1265 17.3809 34.0296 17.825C34.0174 17.8901 33.997 17.9533 33.9689 18.0132C33.9403 18.0746 33.9003 18.13 33.8511 18.1766C33.7925 18.23 33.7232 18.2703 33.6479 18.2948C33.5441 18.3275 33.4356 18.3425 33.3268 18.3391C33.229 18.3416 33.1315 18.3266 33.039 18.2948C32.9716 18.2708 32.909 18.2348 32.8544 18.1886C32.808 18.1504 32.7703 18.1029 32.7437 18.0491C32.7211 18.0003 32.7029 17.9496 32.6892 17.8976L32.0834 15.0132C32.0745 14.9906 32.0674 14.9674 32.0622 14.9437C32.052 14.9052 32.0387 14.8839 32.0228 14.8799H31.9927C31.9763 14.8799 31.9683 14.8941 31.9683 14.9242V18.2811C31.9695 18.2894 31.9687 18.2978 31.9661 18.3057C31.9635 18.3136 31.959 18.3207 31.9532 18.3266C31.9473 18.3325 31.9401 18.337 31.9322 18.3396C31.9243 18.3422 31.9159 18.343 31.9076 18.3418H31.15C31.1418 18.3429 31.1334 18.3421 31.1256 18.3394C31.1177 18.3368 31.1106 18.3323 31.1048 18.3264C31.099 18.3205 31.0946 18.3134 31.092 18.3055C31.0893 18.2977 31.0886 18.2893 31.0898 18.2811L31.092 14.6869Z" fill="#13171B"/>
<path d="M38.5852 13.9963H39.3428C39.3511 13.9951 39.3595 13.9958 39.3674 13.9985C39.3753 14.0011 39.3825 14.0055 39.3883 14.0114C39.3942 14.0173 39.3987 14.0245 39.4013 14.0324C39.4039 14.0403 39.4047 14.0487 39.4035 14.0569V16.9352C39.4044 17.0639 39.3963 17.1924 39.3791 17.32C39.3675 17.4121 39.3453 17.5026 39.3127 17.5896C39.2849 17.661 39.2493 17.729 39.2064 17.7925C39.1607 17.8624 39.1089 17.9284 39.0519 17.9895C38.9895 18.0515 38.9179 18.1036 38.8398 18.144C38.7652 18.1838 38.6883 18.2192 38.6095 18.2499C38.5302 18.276 38.4493 18.2973 38.3673 18.3136C38.2715 18.3325 38.1741 18.3417 38.0764 18.3411H37.3679C37.2423 18.3414 37.1171 18.3265 36.9951 18.2968C36.8911 18.2732 36.7918 18.2322 36.7015 18.1755C36.6223 18.1277 36.5491 18.0708 36.4832 18.0059C36.4105 17.934 36.3455 17.8548 36.2892 17.7694C36.2368 17.6808 36.1952 17.5863 36.1652 17.4878C36.1346 17.3846 36.1197 17.2775 36.121 17.1699V14.0569C36.1198 14.0487 36.1205 14.0403 36.1232 14.0324C36.1258 14.0245 36.1302 14.0173 36.1361 14.0114C36.142 14.0055 36.1492 14.0011 36.1571 13.9985C36.165 13.9958 36.1734 13.9951 36.1816 13.9963H36.9375C36.9457 13.9951 36.9542 13.9958 36.9621 13.9985C36.97 14.0011 36.9771 14.0055 36.983 14.0114C36.9889 14.0173 36.9933 14.0245 36.996 14.0324C36.9986 14.0403 36.9994 14.0487 36.9982 14.0569V17.014C36.9995 17.0705 37.0088 17.1265 37.0256 17.1805C37.0434 17.2435 37.0711 17.3033 37.1075 17.3576C37.1439 17.4122 37.1901 17.4596 37.2439 17.4971C37.2998 17.5358 37.3664 17.5559 37.4343 17.5547H38.0706C38.1378 17.555 38.2034 17.5349 38.2588 17.4971C38.3142 17.4595 38.3623 17.4122 38.401 17.3576C38.4394 17.3031 38.4699 17.2435 38.4918 17.1805C38.5127 17.1253 38.5241 17.0669 38.5254 17.0078V14.0569C38.5243 14.0488 38.525 14.0405 38.5276 14.0326C38.5302 14.0248 38.5345 14.0177 38.5403 14.0118C38.5461 14.006 38.5531 14.0015 38.5609 13.9988C38.5687 13.9961 38.577 13.9952 38.5852 13.9963Z" fill="#13171B"/>
<path d="M41.0213 16.536C40.8856 16.5347 40.7504 16.5184 40.6183 16.4873C40.4755 16.4554 40.3419 16.3912 40.2277 16.2996C40.1585 16.2429 40.1 16.1742 40.0551 16.0968C40.0077 16.0162 39.9691 15.9309 39.9399 15.8422C39.9094 15.7513 39.8871 15.658 39.8731 15.5632C39.859 15.47 39.8519 15.3758 39.8518 15.2816V15.1664C39.8518 15.1298 39.8559 15.0932 39.8642 15.0575C39.8911 14.7059 40.0226 14.434 40.2587 14.2419C40.3377 14.1786 40.4231 14.1237 40.5134 14.078C40.6044 14.0282 40.7062 14.0011 40.81 13.9992H42.816C42.8242 13.998 42.8326 13.9988 42.8405 14.0014C42.8484 14.004 42.8556 14.0085 42.8615 14.0144C42.8674 14.0202 42.8718 14.0274 42.8744 14.0353C42.8771 14.0432 42.8778 14.0516 42.8766 14.0599V14.7263C42.8778 14.7345 42.8771 14.7429 42.8744 14.7508C42.8718 14.7587 42.8674 14.7659 42.8615 14.7718C42.8556 14.7777 42.8484 14.7821 42.8405 14.7848C42.8326 14.7874 42.8242 14.7881 42.816 14.787H41.0638C41.0341 14.7877 41.0049 14.7949 40.9782 14.808C40.9516 14.821 40.928 14.8397 40.9092 14.8627C40.8686 14.9047 40.8349 14.9528 40.8092 15.0053C40.7898 15.043 40.7775 15.084 40.7728 15.1261C40.7689 15.1669 40.7671 15.2072 40.7671 15.2475C40.7672 15.3144 40.7712 15.3812 40.779 15.4476C40.7868 15.5157 40.8165 15.5794 40.8636 15.6292C40.9141 15.6764 40.9797 15.7043 41.0487 15.708C41.1342 15.7163 41.2201 15.7203 41.306 15.7199H41.9857C42.1187 15.721 42.2511 15.7384 42.3798 15.7718C42.5202 15.8078 42.6506 15.875 42.7615 15.9684C42.8311 16.0261 42.8896 16.096 42.9342 16.1747C42.9812 16.2574 43.0198 16.3446 43.0493 16.4351C43.0799 16.5298 43.1011 16.6272 43.1126 16.726C43.1246 16.8225 43.1307 16.9197 43.1308 17.0169V17.144C43.131 17.1788 43.127 17.2134 43.1188 17.2472C43.0864 17.6147 42.9571 17.8975 42.7309 18.0956C42.6524 18.1587 42.5682 18.2144 42.4794 18.2621C42.394 18.3129 42.2971 18.3411 42.1978 18.344H39.9931C39.9848 18.3452 39.9764 18.3445 39.9685 18.3418C39.9606 18.3392 39.9534 18.3348 39.9475 18.3289C39.9417 18.323 39.9372 18.3158 39.9346 18.3079C39.932 18.3 39.9312 18.2916 39.9324 18.2834V17.6143C39.9313 17.6061 39.9321 17.5977 39.9348 17.5899C39.9374 17.582 39.9419 17.5749 39.9477 17.5691C39.9536 17.5632 39.9608 17.5588 39.9686 17.5562C39.9765 17.5536 39.9849 17.5529 39.9931 17.5541H41.9414C41.9729 17.5532 42.0037 17.5448 42.0312 17.5293C42.0587 17.5139 42.082 17.492 42.099 17.4655C42.1378 17.4162 42.1704 17.3624 42.196 17.3052C42.2149 17.2649 42.2272 17.2219 42.2323 17.1777C42.2363 17.1374 42.2385 17.0949 42.2385 17.0506C42.2384 16.9828 42.2343 16.9151 42.2261 16.8478C42.2181 16.7769 42.1886 16.7101 42.1416 16.6565C42.0948 16.6085 42.0346 16.5758 41.9689 16.5626C41.8824 16.5433 41.794 16.5342 41.7054 16.5356L41.0213 16.536Z" fill="#13171B"/>
<path d="M43.6386 13.9963H44.3958C44.404 13.9951 44.4125 13.9958 44.4204 13.9985C44.4283 14.0011 44.4354 14.0055 44.4413 14.0114C44.4472 14.0173 44.4516 14.0245 44.4543 14.0324C44.4569 14.0403 44.4577 14.0487 44.4565 14.0569V18.2804C44.4577 18.2887 44.4569 18.2971 44.4543 18.305C44.4516 18.3129 44.4472 18.3201 44.4413 18.3259C44.4354 18.3318 44.4283 18.3363 44.4204 18.3389C44.4125 18.3415 44.404 18.3423 44.3958 18.3411H43.6386C43.6304 18.3423 43.622 18.3415 43.6141 18.3389C43.6062 18.3363 43.599 18.3318 43.5931 18.3259C43.5872 18.3201 43.5828 18.3129 43.5801 18.305C43.5775 18.2971 43.5768 18.2887 43.5779 18.2804V14.0569C43.5768 14.0487 43.5775 14.0403 43.5801 14.0324C43.5828 14.0245 43.5872 14.0173 43.5931 14.0114C43.599 14.0055 43.6062 14.0011 43.6141 13.9985C43.622 13.9958 43.6304 13.9951 43.6386 13.9963Z" fill="#13171B"/>
<path d="M44.9292 15.3482C44.9282 15.1817 44.9527 15.0161 45.0018 14.8571C45.0226 14.7764 45.0564 14.6997 45.1019 14.6299C45.1424 14.5702 45.1858 14.5126 45.2321 14.4572C45.3556 14.3133 45.5086 14.1976 45.6807 14.118C45.8547 14.037 46.0444 13.9954 46.2364 13.9963H47.8438C47.852 13.9951 47.8604 13.9958 47.8683 13.9985C47.8762 14.0011 47.8834 14.0055 47.8893 14.0114C47.8952 14.0173 47.8996 14.0245 47.9023 14.0324C47.9049 14.0403 47.9056 14.0487 47.9044 14.0569V14.7234C47.9056 14.7316 47.9049 14.74 47.9023 14.7479C47.8996 14.7558 47.8952 14.763 47.8893 14.7689C47.8834 14.7748 47.8762 14.7792 47.8683 14.7818C47.8604 14.7845 47.852 14.7852 47.8438 14.784H46.2745C46.2015 14.7967 46.1322 14.8252 46.0714 14.8676C46.0106 14.91 45.9599 14.9652 45.9229 15.0293C45.8464 15.1607 45.8081 15.3315 45.8078 15.5417V17.0751C45.813 17.1995 45.8612 17.3183 45.9441 17.4112C46.0326 17.4983 46.1504 17.5491 46.2745 17.5538H47.8438C47.852 17.5526 47.8603 17.5534 47.8682 17.556C47.8761 17.5586 47.8832 17.563 47.8891 17.5688C47.895 17.5746 47.8994 17.5818 47.9021 17.5896C47.9047 17.5974 47.9056 17.6058 47.9044 17.614V18.2809C47.9056 18.2891 47.9049 18.2975 47.9023 18.3054C47.8996 18.3133 47.8952 18.3205 47.8893 18.3264C47.8834 18.3323 47.8762 18.3367 47.8683 18.3393C47.8604 18.342 47.852 18.3427 47.8438 18.3415H46.294C46.186 18.343 46.0782 18.3317 45.9729 18.3079C45.8902 18.2889 45.8091 18.2636 45.7303 18.2322C45.5735 18.1734 45.4326 18.0792 45.3185 17.9567C45.1931 17.8229 45.0925 17.6679 45.0213 17.4989C44.9967 17.4415 44.9765 17.3823 44.9611 17.3217C44.9389 17.2315 44.9286 17.1388 44.9306 17.0459L44.9292 15.3482Z" fill="#13171B"/>
<path d="M33.8201 22.4488V23.0873C33.8212 23.0952 33.8204 23.1032 33.8179 23.1108C33.8154 23.1183 33.8111 23.1252 33.8055 23.1308C33.7999 23.1364 33.793 23.1407 33.7855 23.1432C33.7779 23.1457 33.7699 23.1465 33.762 23.1453H32.0794C32.0559 23.1455 32.0325 23.1436 32.0094 23.1396C31.6885 23.1127 31.4603 23.0189 31.3248 22.858C31.1893 22.6971 31.1216 22.4543 31.1216 22.1295V19.0414C31.1205 19.0335 31.1212 19.0255 31.1237 19.018C31.1263 19.0104 31.1305 19.0036 31.1361 18.998C31.1418 18.9923 31.1486 18.9881 31.1562 18.9856C31.1637 18.983 31.1717 18.9823 31.1796 18.9834H31.9049C31.9128 18.9823 31.9208 18.983 31.9284 18.9856C31.9359 18.9881 31.9428 18.9923 31.9484 18.998C31.954 19.0036 31.9582 19.0104 31.9608 19.018C31.9633 19.0255 31.964 19.0335 31.9629 19.0414V22.1991C31.9629 22.3266 32.0386 22.3908 32.1896 22.3908H33.7625C33.7703 22.3898 33.7783 22.3906 33.7858 22.3931C33.7933 22.3957 33.8001 22.3999 33.8056 22.4055C33.8112 22.4112 33.8154 22.418 33.8179 22.4255C33.8204 22.433 33.8211 22.441 33.8201 22.4488Z" fill="#13171B"/>
<path d="M35.1605 19.3261C35.2068 19.1755 35.292 19.0808 35.416 19.0418C35.5806 18.9981 35.7506 18.9786 35.9208 18.9838C36.0958 18.9784 36.2707 18.9979 36.4402 19.0418C36.566 19.0808 36.6522 19.1755 36.6988 19.3261L37.8669 23.1107C37.8669 23.1338 37.8537 23.1457 37.8266 23.1457H37.0641C37.0475 23.1471 37.0309 23.1426 37.0171 23.1331C37.0034 23.1236 36.9934 23.1096 36.9888 23.0935L36.6811 22.0892C36.6775 22.0721 36.668 22.0569 36.6542 22.0463C36.6404 22.0356 36.6232 22.0303 36.6058 22.0312H35.2415C35.2234 22.0308 35.2057 22.037 35.1918 22.0488C35.1779 22.0605 35.1688 22.077 35.1663 22.095L34.8563 23.0877C34.8527 23.1048 34.8432 23.12 34.8294 23.1306C34.8156 23.1413 34.7984 23.1466 34.781 23.1457H34.0282C33.9972 23.1457 33.9818 23.1338 33.9818 23.1107L35.1605 19.3261ZM35.9903 19.8428C35.9835 19.8139 35.9739 19.7857 35.9615 19.7587C35.9572 19.7519 35.9512 19.7465 35.944 19.7429C35.9368 19.7393 35.9288 19.7377 35.9208 19.7383C35.9013 19.7383 35.8801 19.7733 35.857 19.8428L35.4505 21.1664C35.4508 21.1723 35.4499 21.1781 35.4479 21.1837C35.4459 21.1872 35.4448 21.1911 35.4448 21.1952C35.4448 21.2226 35.4603 21.2359 35.4913 21.2359H36.3561C36.3871 21.2359 36.4004 21.2226 36.4004 21.1952C36.4003 21.1912 36.3994 21.1873 36.3977 21.1837C36.3952 21.1783 36.3942 21.1723 36.3946 21.1664L35.9903 19.8428Z" fill="#13171B"/>
<path d="M38.2258 19.0414C38.2247 19.0335 38.2254 19.0255 38.2279 19.018C38.2305 19.0104 38.2347 19.0036 38.2403 18.998C38.2459 18.9923 38.2528 18.9881 38.2603 18.9856C38.2679 18.983 38.2759 18.9823 38.2838 18.9834H40.3734C40.5053 18.9822 40.6363 19.0058 40.7595 19.0529C40.8757 19.0975 40.9812 19.1658 41.0695 19.2535C41.1587 19.344 41.2287 19.4515 41.2754 19.5697C41.3272 19.7029 41.3528 19.8448 41.3507 19.9877C41.3548 20.1548 41.3364 20.3218 41.2962 20.4841C41.2717 20.5826 41.2316 20.6767 41.1775 20.7626C41.1464 20.8124 41.106 20.8557 41.0584 20.8901C41.0234 20.9114 41.0062 20.9278 41.0062 20.9397C41.0062 20.9588 41.0363 20.9995 41.0947 21.0615C41.1532 21.1235 41.2214 21.1943 41.2949 21.2763C41.3237 21.3139 41.348 21.3548 41.3675 21.398C41.3887 21.4443 41.4072 21.4917 41.4228 21.5402C41.438 21.5875 41.4487 21.6361 41.4547 21.6854C41.4601 21.7268 41.463 21.7685 41.4636 21.8103C41.4645 21.9858 41.4469 22.1609 41.4113 22.3328C41.3808 22.4852 41.3184 22.6294 41.2284 22.7561C41.1387 22.8782 41.02 22.976 40.8831 23.0408C40.7114 23.1162 40.5249 23.1519 40.3375 23.1453H38.2838C38.2759 23.1465 38.2679 23.1457 38.2603 23.1432C38.2528 23.1407 38.2459 23.1364 38.2403 23.1308C38.2347 23.1252 38.2305 23.1183 38.2279 23.1108C38.2254 23.1032 38.2247 23.0952 38.2258 23.0873V19.0414ZM39.0671 20.5912C39.0659 20.5991 39.0666 20.6072 39.0691 20.6148C39.0716 20.6224 39.0758 20.6293 39.0814 20.6349C39.0871 20.6406 39.094 20.6448 39.1016 20.6473C39.1092 20.6498 39.1172 20.6504 39.1251 20.6492H40.1294C40.2841 20.6492 40.3943 20.6154 40.4602 20.5478C40.5257 20.4801 40.5589 20.357 40.5589 20.179C40.5589 20.0129 40.5146 19.8978 40.431 19.8336C40.3439 19.7691 40.2378 19.7354 40.1294 19.738H39.1256C39.1177 19.7368 39.1097 19.7376 39.1021 19.7401C39.0946 19.7426 39.0877 19.7469 39.0821 19.7525C39.0765 19.7581 39.0722 19.765 39.0697 19.7725C39.0672 19.7801 39.0664 19.7881 39.0676 19.796L39.0671 20.5912ZM39.0671 22.3328C39.066 22.3407 39.0667 22.3487 39.0693 22.3562C39.0718 22.3638 39.076 22.3706 39.0817 22.3763C39.0873 22.3819 39.0941 22.3861 39.1017 22.3886C39.1092 22.3912 39.1172 22.3919 39.1251 22.3908H40.3499C40.4085 22.3929 40.466 22.3744 40.5124 22.3386C40.5557 22.3025 40.5913 22.2581 40.6169 22.2079C40.6438 22.1559 40.6623 22.1 40.6718 22.0423C40.6808 21.9925 40.6857 21.942 40.6865 21.8913C40.6883 21.8163 40.6775 21.7414 40.6546 21.6699C40.6378 21.6173 40.61 21.5688 40.5731 21.5278C40.5431 21.4946 40.5052 21.4696 40.4628 21.4552C40.4266 21.4423 40.3884 21.4354 40.3499 21.4348H39.1256C39.1177 21.4337 39.1097 21.4344 39.1021 21.4369C39.0946 21.4395 39.0877 21.4437 39.0821 21.4493C39.0765 21.455 39.0722 21.4618 39.0697 21.4694C39.0672 21.4769 39.0664 21.4849 39.0676 21.4928L39.0671 22.3328Z" fill="#13171B"/>
</g>
<defs>
<filter id="filter0_d_2480_2036" x="0.57373" y="0.331543" width="52.3644" height="39.5137" filterUnits="userSpaceOnUse" color-interpolation-filters="sRGB">
<feFlood flood-opacity="0" result="BackgroundImageFix"/>
<feColorMatrix in="SourceAlpha" type="matrix" values="0 0 0 0 0 0 0 0 0 0 0 0 0 0 0 0 0 0 127 0" result="hardAlpha"/>
<feOffset dy="4"/>
<feGaussianBlur stdDeviation="2"/>
<feComposite in2="hardAlpha" operator="out"/>
<feColorMatrix type="matrix" values="0 0 0 0 0 0 0 0 0 0 0 0 0 0 0 0 0 0 0.25 0"/>
<feBlend mode="normal" in2="BackgroundImageFix" result="effect1_dropShadow_2480_2036"/>
<feBlend mode="normal" in="SourceGraphic" in2="effect1_dropShadow_2480_2036" result="shape"/>
</filter>
</defs>
</svg>
