<svg width="45" height="56" viewBox="0 0 45 56" fill="none" xmlns="http://www.w3.org/2000/svg">
<path d="M12.9243 43.4057V48.7328C12.9243 51.371 11.2501 52.5378 8.71337 52.5378C6.17667 52.5378 4.50244 51.3202 4.50244 48.7328V43.4057H7.80016V48.4284C7.80016 49.1387 7.80016 49.7475 8.71337 49.7475C9.57585 49.7475 9.62659 49.1387 9.62659 48.4284V43.4057H12.9243Z" fill="#13171B"/>
<path d="M14.091 43.4057H17.2365L20.1791 48.3776H20.2806C20.1284 47.6166 20.0269 46.8556 20.0269 46.0946V43.4057H23.1724V52.4364H20.0269L17.135 47.7181H17.0336C17.135 48.3269 17.2365 48.9357 17.2365 49.5445V52.4871H14.091C14.091 52.4871 14.091 43.4057 14.091 43.4057Z" fill="#13171B"/>
<path d="M24.3386 43.4057H30.4267V45.8409H27.6363V46.7034H30.173V49.0372H27.6363V49.9504H30.5282V52.3856H24.3386V43.4057Z" fill="#13171B"/>
<path d="M31.645 52.3856H35.8052C38.4433 52.3856 40.3712 50.7114 40.3712 48.0225C40.3712 44.7248 38.0375 43.4057 34.9934 43.4057H31.645C31.645 43.4057 31.645 52.3856 31.645 52.3856ZM34.9427 46.1961H35.1456C36.3632 46.1961 37.0735 46.7542 37.0735 48.0225C37.0735 49.1894 36.211 49.6967 35.1456 49.6967H34.9427V46.1961Z" fill="#13171B"/>
<path d="M22.4622 29.0983C26.318 29.0983 29.4636 25.9528 29.4636 22.097V4.94889C28.7025 4.64449 27.8908 4.34008 27.0283 4.13715V22.097C27.0283 24.6337 24.999 26.6631 22.4622 26.6631C19.9255 26.6631 17.8962 24.6337 17.8962 22.097V4.13715C17.0844 4.34008 16.2727 4.59375 15.4609 4.94889V22.1478C15.4609 26.0036 18.6065 29.0983 22.4622 29.0983Z" fill="#13171B"/>
<path d="M22.4634 25.2427C24.1883 25.2427 25.6089 23.8221 25.6089 22.0972V3.83289C24.7972 3.68069 23.9854 3.62996 23.1737 3.57922V22.0972C23.1737 22.503 22.8693 22.8075 22.4634 22.8075C22.0575 22.8075 21.7531 22.503 21.7531 22.0972V3.57922C20.9414 3.62996 20.1296 3.68069 19.3179 3.83289V22.0972C19.3179 23.8729 20.7384 25.2427 22.4634 25.2427Z" fill="#13171B"/>
<path d="M22.4626 33.0051C28.4492 33.0051 33.3197 28.1346 33.3197 22.148V7.07999C32.5587 6.52192 31.7469 6.01458 30.8844 5.6087V22.148C30.8844 26.8156 27.1301 30.5699 22.4626 30.5699C17.795 30.5699 14.0407 26.8156 14.0407 22.148V5.6087C13.1782 6.06531 12.3665 6.52192 11.6055 7.07999V22.0973C11.6055 28.1347 16.4759 33.0051 22.4626 33.0051Z" fill="#13171B"/>
<path d="M22.4627 36.8609C30.5802 36.8609 37.1756 30.2655 37.1756 22.148V10.8343C36.4653 9.87039 35.6536 9.00791 34.7404 8.19617V22.0973C34.7404 28.8957 29.2611 34.375 22.4627 34.375C15.6643 34.375 10.1851 28.8957 10.1851 22.0973V8.2469C9.27184 9.05865 8.46009 9.92113 7.74982 10.8851V22.148C7.74982 30.2655 14.3453 36.8609 22.4627 36.8609Z" fill="#13171B"/>
<path d="M38.596 12.965V22.0971C38.596 31.0263 31.3918 38.2306 22.4626 38.2306C13.5334 38.2306 6.32914 30.9756 6.32914 22.0971L6.27841 21.9956V13.0664C4.75639 15.7553 3.94464 18.7994 3.94464 22.0971C3.94464 32.3454 12.265 40.6658 22.5133 40.6658C32.7616 40.6658 41.082 32.3454 41.082 22.0971C41.0313 18.7994 40.1688 15.7046 38.596 12.965Z" fill="#13171B"/>
</svg>
