<svg width="86" height="25" viewBox="0 0 86 25" fill="none" xmlns="http://www.w3.org/2000/svg">
<path d="M1.98969 13.2178V3.77627H6.07651C6.92175 3.77627 7.6501 3.91565 8.26155 4.1944C8.873 4.46415 9.34507 4.8553 9.67777 5.36784C10.0105 5.88038 10.1768 6.49183 10.1768 7.20219C10.1768 7.90356 10.0105 8.51051 9.67777 9.02305C9.34507 9.53559 8.873 9.93123 8.26155 10.21C7.6501 10.4797 6.92175 10.6146 6.07651 10.6146H3.2036L4.17473 9.63V13.2178H1.98969ZM4.17473 9.87278L3.2036 8.83422H5.95512C6.62952 8.83422 7.13306 8.69035 7.46576 8.40261C7.79846 8.11487 7.96481 7.71473 7.96481 7.20219C7.96481 6.68066 7.79846 6.27602 7.46576 5.98828C7.13306 5.70054 6.62952 5.55667 5.95512 5.55667H3.2036L4.17473 4.5181V9.87278ZM10.0217 13.2178L14.2299 3.77627H16.388L20.6097 13.2178H18.3167L14.8639 4.88228H15.7271L12.2607 13.2178H10.0217ZM12.1258 11.1946L12.7058 9.53559H17.5614L18.1549 11.1946H12.1258ZM21.5892 13.2178V3.77627H23.7743V11.4374H28.5085V13.2178H21.5892ZM29.7294 13.2178V3.77627H31.9144V11.4374H36.6486V13.2178H29.7294ZM36.6813 13.2178L40.8895 3.77627H43.0476L47.2693 13.2178H44.9763L41.5234 4.88228H42.3867L38.9203 13.2178H36.6813ZM38.7854 11.1946L39.3654 9.53559H44.221L44.8145 11.1946H38.7854ZM48.2488 13.2178V3.77627H52.3357C53.1809 3.77627 53.9092 3.91565 54.5207 4.1944C55.1321 4.46415 55.6042 4.8553 55.9369 5.36784C56.2696 5.88038 56.436 6.49183 56.436 7.20219C56.436 7.90356 56.2696 8.51051 55.9369 9.02305C55.6042 9.5266 55.1321 9.91325 54.5207 10.183C53.9092 10.4528 53.1809 10.5876 52.3357 10.5876H49.4627L50.4339 9.63V13.2178H48.2488ZM54.2509 13.2178L51.8906 9.79186H54.224L56.6113 13.2178H54.2509ZM50.4339 9.87278L49.4627 8.84771H52.2143C52.8887 8.84771 53.3922 8.70384 53.7249 8.4161C54.0576 8.11936 54.224 7.71473 54.224 7.20219C54.224 6.68066 54.0576 6.27602 53.7249 5.98828C53.3922 5.70054 52.8887 5.55667 52.2143 5.55667H49.4627L50.4339 4.5181V9.87278ZM62.753 13.3796C62.0067 13.3796 61.3143 13.2582 60.6759 13.0155C60.0465 12.7727 59.498 12.431 59.0304 11.9904C58.5718 11.5498 58.2121 11.0327 57.9513 10.4393C57.6996 9.84581 57.5737 9.19839 57.5737 8.49702C57.5737 7.79565 57.6996 7.14824 57.9513 6.55477C58.2121 5.96131 58.5763 5.44427 59.0439 5.00367C59.5114 4.56306 60.0599 4.22137 60.6894 3.97859C61.3188 3.73581 62.0022 3.61442 62.7395 3.61442C63.4859 3.61442 64.1692 3.73581 64.7897 3.97859C65.4191 4.22137 65.9631 4.56306 66.4217 5.00367C66.8893 5.44427 67.2535 5.96131 67.5142 6.55477C67.775 7.13925 67.9054 7.78666 67.9054 8.49702C67.9054 9.19839 67.775 9.8503 67.5142 10.4528C67.2535 11.0462 66.8893 11.5633 66.4217 12.0039C65.9631 12.4355 65.4191 12.7727 64.7897 13.0155C64.1692 13.2582 63.4904 13.3796 62.753 13.3796ZM62.7395 11.5183C63.1622 11.5183 63.5488 11.4464 63.8995 11.3025C64.2592 11.1586 64.5739 10.9518 64.8436 10.6821C65.1134 10.4123 65.3202 10.0931 65.4641 9.72442C65.6169 9.35575 65.6934 8.94662 65.6934 8.49702C65.6934 8.04743 65.6169 7.6383 65.4641 7.26963C65.3202 6.90096 65.1134 6.58175 64.8436 6.31199C64.5829 6.04223 64.2727 5.83542 63.913 5.69155C63.5533 5.54768 63.1622 5.47574 62.7395 5.47574C62.3169 5.47574 61.9258 5.54768 61.5661 5.69155C61.2154 5.83542 60.9052 6.04223 60.6354 6.31199C60.3657 6.58175 60.1544 6.90096 60.0015 7.26963C59.8576 7.6383 59.7857 8.04743 59.7857 8.49702C59.7857 8.93763 59.8576 9.34676 60.0015 9.72442C60.1544 10.0931 60.3612 10.4123 60.6219 10.6821C60.8917 10.9518 61.2064 11.1586 61.5661 11.3025C61.9258 11.4464 62.3169 11.5183 62.7395 11.5183ZM69.5475 13.2178V3.77627H71.7326V11.4374H76.4668V13.2178H69.5475ZM80.7504 13.3796C79.995 13.3796 79.2712 13.2807 78.5788 13.0829C77.8864 12.8761 77.3289 12.6108 76.9063 12.2871L77.6481 10.6416C78.0528 10.9293 78.5294 11.1676 79.0779 11.3564C79.6354 11.5363 80.1974 11.6262 80.7638 11.6262C81.1955 11.6262 81.5416 11.5857 81.8024 11.5048C82.0722 11.4149 82.27 11.2935 82.3959 11.1406C82.5218 10.9878 82.5847 10.8124 82.5847 10.6146C82.5847 10.3628 82.4858 10.165 82.288 10.0212C82.0901 9.86829 81.8294 9.7469 81.5057 9.65698C81.182 9.55807 80.8223 9.46815 80.4266 9.38722C80.04 9.2973 79.6488 9.1894 79.2532 9.06351C78.8666 8.93763 78.5114 8.77577 78.1877 8.57795C77.864 8.38013 77.5987 8.11936 77.3919 7.79565C77.1941 7.47195 77.0951 7.05832 77.0951 6.55477C77.0951 6.01526 77.239 5.5252 77.5268 5.08459C77.8235 4.635 78.2641 4.27982 78.8486 4.01905C79.442 3.7493 80.1839 3.61442 81.0741 3.61442C81.6675 3.61442 82.252 3.68635 82.8275 3.83022C83.403 3.9651 83.911 4.17192 84.3516 4.45067L83.6772 6.10967C83.2366 5.8579 82.796 5.67356 82.3554 5.55667C81.9148 5.43078 81.4832 5.36784 81.0606 5.36784C80.638 5.36784 80.2918 5.4173 80.022 5.51621C79.7523 5.61512 79.5589 5.7455 79.442 5.90735C79.3251 6.06022 79.2667 6.24005 79.2667 6.44687C79.2667 6.68965 79.3656 6.88747 79.5634 7.04033C79.7612 7.1842 80.022 7.3011 80.3457 7.39102C80.6694 7.48094 81.0246 7.57086 81.4113 7.66078C81.8069 7.75069 82.1981 7.8541 82.5847 7.971C82.9803 8.08789 83.34 8.24525 83.6637 8.44307C83.9874 8.64089 84.2482 8.90166 84.446 9.22537C84.6528 9.54908 84.7562 9.95821 84.7562 10.4528C84.7562 10.9833 84.6079 11.4688 84.3112 11.9095C84.0144 12.3501 83.5693 12.7052 82.9759 12.975C82.3914 13.2447 81.6495 13.3796 80.7504 13.3796Z" fill="#13171B"/>
<path d="M84.6571 17.2617H1.3429" stroke="#13171B" stroke-width="0.187234" stroke-linecap="round"/>
<path d="M1.50227 23.3057V19.9572H1.98063V23.3057H1.50227ZM3.41364 23.3057V19.9572H3.80589L6.02067 22.7077H5.81498V19.9572H6.29334V23.3057H5.90109L3.6863 20.5551H3.89199V23.3057H3.41364ZM8.6597 23.3057L7.18637 19.9572H7.70299L9.05674 23.0474H8.76015L10.1235 19.9572H10.6018L9.13327 23.3057H8.6597ZM11.8947 21.4018H13.6167V21.8084H11.8947V21.4018ZM11.9377 22.8895H13.8894V23.3057H11.4593V19.9572H13.8224V20.3733H11.9377V22.8895ZM15.0945 23.3057V19.9572H16.4004C16.6938 19.9572 16.9441 20.0034 17.1514 20.0959C17.3587 20.1884 17.5181 20.3223 17.6298 20.4977C17.7414 20.6731 17.7972 20.882 17.7972 21.1244C17.7972 21.3667 17.7414 21.5756 17.6298 21.751C17.5181 21.9232 17.3587 22.0556 17.1514 22.148C16.9441 22.2405 16.6938 22.2868 16.4004 22.2868H15.3576L15.5728 22.0667V23.3057H15.0945ZM17.3332 23.3057L16.4817 22.0906H16.9935L17.8546 23.3057H17.3332ZM15.5728 22.1146L15.3576 21.8802H16.386C16.6922 21.8802 16.9234 21.8148 17.0796 21.684C17.2391 21.5501 17.3188 21.3635 17.3188 21.1244C17.3188 20.8852 17.2391 20.7002 17.0796 20.5695C16.9234 20.4387 16.6922 20.3733 16.386 20.3733H15.3576L15.5728 20.1342V22.1146ZM19.9764 23.3439C19.7213 23.3439 19.4773 23.3057 19.2445 23.2291C19.0117 23.1494 18.8283 23.0474 18.6944 22.923L18.8714 22.5499C18.999 22.6615 19.1616 22.754 19.3593 22.8273C19.557 22.9007 19.7627 22.9373 19.9764 22.9373C20.1709 22.9373 20.3288 22.915 20.45 22.8704C20.5711 22.8257 20.6604 22.7651 20.7178 22.6886C20.7752 22.6089 20.8039 22.5196 20.8039 22.4207C20.8039 22.3059 20.7657 22.2134 20.6891 22.1433C20.6158 22.0731 20.5185 22.0173 20.3973 21.9758C20.2793 21.9312 20.1486 21.8929 20.0051 21.861C19.8616 21.8291 19.7165 21.7925 19.5698 21.751C19.4263 21.7064 19.2939 21.6506 19.1728 21.5836C19.0548 21.5166 18.9591 21.4273 18.8857 21.3157C18.8124 21.2009 18.7757 21.0542 18.7757 20.8756C18.7757 20.7034 18.8204 20.5456 18.9097 20.402C19.0021 20.2554 19.1425 20.139 19.3306 20.0528C19.522 19.9636 19.7643 19.9189 20.0577 19.9189C20.2522 19.9189 20.4452 19.9444 20.6365 19.9954C20.8279 20.0465 20.9937 20.1198 21.134 20.2155L20.9762 20.5982C20.8326 20.5025 20.6812 20.4339 20.5217 20.3925C20.3623 20.3478 20.2076 20.3255 20.0577 20.3255C19.8696 20.3255 19.7149 20.3494 19.5937 20.3973C19.4725 20.4451 19.3832 20.5089 19.3258 20.5886C19.2716 20.6683 19.2445 20.7576 19.2445 20.8565C19.2445 20.9745 19.2812 21.0686 19.3545 21.1387C19.4311 21.2089 19.5283 21.2647 19.6463 21.3061C19.7675 21.3476 19.8999 21.3859 20.0434 21.4209C20.1869 21.4528 20.3304 21.4895 20.4739 21.531C20.6206 21.5724 20.7529 21.6266 20.8709 21.6936C20.9921 21.7606 21.0894 21.8499 21.1627 21.9615C21.2361 22.0731 21.2727 22.2166 21.2727 22.392C21.2727 22.561 21.2265 22.7189 21.134 22.8656C21.0415 23.0091 20.898 23.1255 20.7035 23.2148C20.5121 23.3009 20.2698 23.3439 19.9764 23.3439ZM22.4021 23.3057V19.9572H22.8805V23.3057H22.4021ZM25.8251 23.3439C25.5699 23.3439 25.3324 23.3009 25.1123 23.2148C24.8955 23.1287 24.7073 23.0091 24.5479 22.856C24.3884 22.6997 24.264 22.518 24.1747 22.3107C24.0854 22.1034 24.0408 21.877 24.0408 21.6314C24.0408 21.3859 24.0854 21.1594 24.1747 20.9522C24.264 20.7449 24.3884 20.5647 24.5479 20.4116C24.7073 20.2554 24.8955 20.1342 25.1123 20.0481C25.3292 19.962 25.5668 19.9189 25.8251 19.9189C26.0802 19.9189 26.3146 19.962 26.5282 20.0481C26.7451 20.131 26.9333 20.2506 27.0927 20.4068C27.2553 20.5599 27.3797 20.7401 27.4658 20.9474C27.5551 21.1547 27.5998 21.3827 27.5998 21.6314C27.5998 21.8802 27.5551 22.1082 27.4658 22.3155C27.3797 22.5228 27.2553 22.7045 27.0927 22.8608C26.9333 23.0139 26.7451 23.1335 26.5282 23.2196C26.3146 23.3025 26.0802 23.3439 25.8251 23.3439ZM25.8251 22.9182C26.01 22.9182 26.1806 22.8863 26.3369 22.8225C26.4964 22.7587 26.6335 22.6695 26.7483 22.5546C26.8663 22.4367 26.9572 22.2995 27.021 22.1433C27.0879 21.987 27.1214 21.8164 27.1214 21.6314C27.1214 21.4465 27.0879 21.2758 27.021 21.1196C26.9572 20.9633 26.8663 20.8278 26.7483 20.713C26.6335 20.595 26.4964 20.5041 26.3369 20.4403C26.1806 20.3765 26.01 20.3446 25.8251 20.3446C25.6369 20.3446 25.4631 20.3765 25.3037 20.4403C25.1474 20.5041 25.0103 20.595 24.8923 20.713C24.7743 20.8278 24.6818 20.9633 24.6148 21.1196C24.551 21.2758 24.5192 21.4465 24.5192 21.6314C24.5192 21.8164 24.551 21.987 24.6148 22.1433C24.6818 22.2995 24.7743 22.4367 24.8923 22.5546C25.0103 22.6695 25.1474 22.7587 25.3037 22.8225C25.4631 22.8863 25.6369 22.9182 25.8251 22.9182ZM28.7614 23.3057V19.9572H29.1537L31.3685 22.7077H31.1628V19.9572H31.6411V23.3057H31.2489L29.0341 20.5551H29.2398V23.3057H28.7614ZM33.5092 21.4018H35.2313V21.8084H33.5092V21.4018ZM33.5523 22.8895H35.5039V23.3057H33.0739V19.9572H35.437V20.3733H33.5523V22.8895ZM37.6849 23.3439C37.4298 23.3439 37.1858 23.3057 36.953 23.2291C36.7202 23.1494 36.5368 23.0474 36.4029 22.923L36.5799 22.5499C36.7074 22.6615 36.8701 22.754 37.0678 22.8273C37.2655 22.9007 37.4712 22.9373 37.6849 22.9373C37.8794 22.9373 38.0373 22.915 38.1584 22.8704C38.2796 22.8257 38.3689 22.7651 38.4263 22.6886C38.4837 22.6089 38.5124 22.5196 38.5124 22.4207C38.5124 22.3059 38.4742 22.2134 38.3976 22.1433C38.3243 22.0731 38.227 22.0173 38.1058 21.9758C37.9878 21.9312 37.8571 21.8929 37.7136 21.861C37.5701 21.8291 37.425 21.7925 37.2783 21.751C37.1348 21.7064 37.0024 21.6506 36.8812 21.5836C36.7632 21.5166 36.6676 21.4273 36.5942 21.3157C36.5209 21.2009 36.4842 21.0542 36.4842 20.8756C36.4842 20.7034 36.5288 20.5456 36.6181 20.402C36.7106 20.2554 36.8509 20.139 37.0391 20.0528C37.2304 19.9636 37.4728 19.9189 37.7662 19.9189C37.9607 19.9189 38.1537 19.9444 38.345 19.9954C38.5363 20.0465 38.7022 20.1198 38.8425 20.2155L38.6846 20.5982C38.5411 20.5025 38.3897 20.4339 38.2302 20.3925C38.0707 20.3478 37.9161 20.3255 37.7662 20.3255C37.578 20.3255 37.4234 20.3494 37.3022 20.3973C37.181 20.4451 37.0917 20.5089 37.0343 20.5886C36.9801 20.6683 36.953 20.7576 36.953 20.8565C36.953 20.9745 36.9897 21.0686 37.063 21.1387C37.1395 21.2089 37.2368 21.2647 37.3548 21.3061C37.476 21.3476 37.6083 21.3859 37.7518 21.4209C37.8954 21.4528 38.0389 21.4895 38.1824 21.531C38.3291 21.5724 38.4614 21.6266 38.5794 21.6936C38.7006 21.7606 38.7978 21.8499 38.8712 21.9615C38.9445 22.0731 38.9812 22.2166 38.9812 22.392C38.9812 22.561 38.935 22.7189 38.8425 22.8656C38.75 23.0091 38.6065 23.1255 38.412 23.2148C38.2206 23.3009 37.9783 23.3439 37.6849 23.3439ZM41.8257 23.3057V19.9572H42.3041V23.3057H41.8257ZM43.7371 23.3057V19.9572H44.1294L46.3441 22.7077H46.1385V19.9572H46.6168V23.3057H46.2246L44.0098 20.5551H44.2155V23.3057H43.7371ZM48.0496 23.3057V19.9572H48.4418L49.9439 22.4877H49.7334L51.2163 19.9572H51.6086L51.6133 23.3057H51.1541L51.1493 20.6795H51.2594L49.9391 22.8991H49.7191L48.3892 20.6795H48.5088V23.3057H48.0496ZM54.5604 23.3439C54.3053 23.3439 54.0677 23.3009 53.8476 23.2148C53.6308 23.1287 53.4426 23.0091 53.2832 22.856C53.1237 22.6997 52.9994 22.518 52.9101 22.3107C52.8208 22.1034 52.7761 21.877 52.7761 21.6314C52.7761 21.3859 52.8208 21.1594 52.9101 20.9522C52.9994 20.7449 53.1237 20.5647 53.2832 20.4116C53.4426 20.2554 53.6308 20.1342 53.8476 20.0481C54.0645 19.962 54.3021 19.9189 54.5604 19.9189C54.8155 19.9189 55.0499 19.962 55.2636 20.0481C55.4804 20.131 55.6686 20.2506 55.828 20.4068C55.9907 20.5599 56.115 20.7401 56.2011 20.9474C56.2904 21.1547 56.3351 21.3827 56.3351 21.6314C56.3351 21.8802 56.2904 22.1082 56.2011 22.3155C56.115 22.5228 55.9907 22.7045 55.828 22.8608C55.6686 23.0139 55.4804 23.1335 55.2636 23.2196C55.0499 23.3025 54.8155 23.3439 54.5604 23.3439ZM54.5604 22.9182C54.7454 22.9182 54.916 22.8863 55.0722 22.8225C55.2317 22.7587 55.3688 22.6695 55.4836 22.5546C55.6016 22.4367 55.6925 22.2995 55.7563 22.1433C55.8232 21.987 55.8567 21.8164 55.8567 21.6314C55.8567 21.4465 55.8232 21.2758 55.7563 21.1196C55.6925 20.9633 55.6016 20.8278 55.4836 20.713C55.3688 20.595 55.2317 20.5041 55.0722 20.4403C54.916 20.3765 54.7454 20.3446 54.5604 20.3446C54.3722 20.3446 54.1984 20.3765 54.039 20.4403C53.8827 20.5041 53.7456 20.595 53.6276 20.713C53.5096 20.8278 53.4171 20.9633 53.3501 21.1196C53.2864 21.2758 53.2545 21.4465 53.2545 21.6314C53.2545 21.8164 53.2864 21.987 53.3501 22.1433C53.4171 22.2995 53.5096 22.4367 53.6276 22.5546C53.7456 22.6695 53.8827 22.7587 54.039 22.8225C54.1984 22.8863 54.3722 22.9182 54.5604 22.9182ZM57.4967 23.3057V19.9572H58.9988C59.3847 19.9572 59.6812 20.0353 59.8885 20.1916C60.0958 20.3446 60.1994 20.5551 60.1994 20.823C60.1994 21.0048 60.158 21.1578 60.0751 21.2822C59.9954 21.4066 59.8869 21.5023 59.7498 21.5692C59.6127 21.6362 59.4644 21.6697 59.3049 21.6697L59.391 21.5262C59.5824 21.5262 59.7514 21.5597 59.8981 21.6266C60.0448 21.6936 60.1612 21.7925 60.2473 21.9232C60.3334 22.0508 60.3764 22.2102 60.3764 22.4016C60.3764 22.6886 60.268 22.9118 60.0512 23.0713C59.8375 23.2275 59.5186 23.3057 59.0944 23.3057H57.4967ZM57.9751 22.9182H59.0753C59.34 22.9182 59.5425 22.8735 59.6828 22.7843C59.8231 22.695 59.8933 22.5546 59.8933 22.3633C59.8933 22.1688 59.8231 22.0269 59.6828 21.9376C59.5425 21.8483 59.34 21.8036 59.0753 21.8036H57.932V21.4162H58.9557C59.1981 21.4162 59.3862 21.3715 59.5202 21.2822C59.6541 21.1929 59.7211 21.059 59.7211 20.8804C59.7211 20.7018 59.6541 20.5679 59.5202 20.4786C59.3862 20.3893 59.1981 20.3446 58.9557 20.3446H57.9751V22.9182ZM61.5476 23.3057V19.9572H62.026V23.3057H61.5476ZM63.459 23.3057V19.9572H63.9373V22.8895H65.7503V23.3057H63.459ZM66.7297 23.3057V19.9572H67.2081V23.3057H66.7297ZM68.1341 23.3057L69.6504 19.9572H70.124L71.6452 23.3057H71.1429L69.7892 20.2251H69.9805L68.6268 23.3057H68.1341ZM68.7798 22.4685L68.909 22.0859H70.7937L70.9324 22.4685H68.7798ZM72.5752 23.3057V19.9572H73.8811C74.1745 19.9572 74.4249 20.0034 74.6321 20.0959C74.8394 20.1884 74.9989 20.3223 75.1105 20.4977C75.2221 20.6731 75.2779 20.882 75.2779 21.1244C75.2779 21.3667 75.2221 21.5756 75.1105 21.751C74.9989 21.9232 74.8394 22.0556 74.6321 22.148C74.4249 22.2405 74.1745 22.2868 73.8811 22.2868H72.8383L73.0536 22.0667V23.3057H72.5752ZM74.8139 23.3057L73.9624 22.0906H74.4743L75.3353 23.3057H74.8139ZM73.0536 22.1146L72.8383 21.8802H73.8668C74.1729 21.8802 74.4041 21.8148 74.5604 21.684C74.7198 21.5501 74.7996 21.3635 74.7996 21.1244C74.7996 20.8852 74.7198 20.7002 74.5604 20.5695C74.4041 20.4387 74.1729 20.3733 73.8668 20.3733H72.8383L73.0536 20.1342V22.1146ZM76.4813 23.3057V19.9572H76.9596V23.3057H76.4813ZM77.8856 23.3057L79.402 19.9572H79.8755L81.3967 23.3057H80.8944L79.5407 20.2251H79.732L78.3783 23.3057H77.8856ZM78.5314 22.4685L78.6605 22.0859H80.5452L80.684 22.4685H78.5314ZM83.3026 23.3439C83.0475 23.3439 82.8035 23.3057 82.5707 23.2291C82.3379 23.1494 82.1545 23.0474 82.0206 22.923L82.1976 22.5499C82.3251 22.6615 82.4878 22.754 82.6855 22.8273C82.8832 22.9007 83.0889 22.9373 83.3026 22.9373C83.4971 22.9373 83.655 22.915 83.7762 22.8704C83.8973 22.8257 83.9866 22.7651 84.044 22.6886C84.1014 22.6089 84.1301 22.5196 84.1301 22.4207C84.1301 22.3059 84.0919 22.2134 84.0153 22.1433C83.942 22.0731 83.8447 22.0173 83.7235 21.9758C83.6055 21.9312 83.4748 21.8929 83.3313 21.861C83.1878 21.8291 83.0427 21.7925 82.896 21.751C82.7525 21.7064 82.6201 21.6506 82.499 21.5836C82.381 21.5166 82.2853 21.4273 82.2119 21.3157C82.1386 21.2009 82.1019 21.0542 82.1019 20.8756C82.1019 20.7034 82.1466 20.5456 82.2359 20.402C82.3283 20.2554 82.4687 20.139 82.6568 20.0528C82.8482 19.9636 83.0905 19.9189 83.3839 19.9189C83.5784 19.9189 83.7714 19.9444 83.9627 19.9954C84.1541 20.0465 84.3199 20.1198 84.4602 20.2155L84.3024 20.5982C84.1588 20.5025 84.0074 20.4339 83.8479 20.3925C83.6885 20.3478 83.5338 20.3255 83.3839 20.3255C83.1958 20.3255 83.0411 20.3494 82.9199 20.3973C82.7987 20.4451 82.7094 20.5089 82.652 20.5886C82.5978 20.6683 82.5707 20.7576 82.5707 20.8565C82.5707 20.9745 82.6074 21.0686 82.6807 21.1387C82.7573 21.2089 82.8545 21.2647 82.9725 21.3061C83.0937 21.3476 83.2261 21.3859 83.3696 21.4209C83.5131 21.4528 83.6566 21.4895 83.8001 21.531C83.9468 21.5724 84.0791 21.6266 84.1971 21.6936C84.3183 21.7606 84.4156 21.8499 84.4889 21.9615C84.5623 22.0731 84.5989 22.2166 84.5989 22.392C84.5989 22.561 84.5527 22.7189 84.4602 22.8656C84.3677 23.0091 84.2242 23.1255 84.0297 23.2148C83.8383 23.3009 83.596 23.3439 83.3026 23.3439Z" fill="#13171B"/>
</svg>
