<svg width="116" height="12" viewBox="0 0 116 12" fill="none" xmlns="http://www.w3.org/2000/svg">
<path fill-rule="evenodd" clip-rule="evenodd" d="M70.1507 3.65233L70.1495 6.87545H70.5784H71.0074L71.0083 4.69112L71.0092 2.5068L71.3729 2.88043C71.9198 3.44229 75.4205 6.99106 75.5226 7.08711L75.6115 7.1707V3.93513V0.699572H75.1682H74.725L74.7247 2.89813L74.7244 5.09668L74.3172 4.68307C74.0932 4.45556 73.7425 4.09696 73.5378 3.88618C73.3331 3.67538 72.7132 3.04185 72.1602 2.47834C71.6072 1.91483 70.9292 1.22324 70.6534 0.941484L70.1519 0.429199L70.1507 3.65233ZM48.2587 0.504989C47.2653 0.616382 46.3898 1.12298 45.7869 1.93515C45.0198 2.9686 45.0005 4.44429 45.7399 5.54971C45.9277 5.83056 46.3255 6.24301 46.6144 6.45637C47.0126 6.75048 47.5608 6.97757 48.0414 7.04752C48.4082 7.10091 49.2577 7.06887 49.5455 6.99083C50.1269 6.83313 50.5722 6.58678 51.0054 6.18324C51.4924 5.72947 51.8153 5.2122 51.9768 4.62709C52.0684 4.29547 52.1043 3.63431 52.0506 3.26897C51.9534 2.60712 51.649 2.03234 51.1193 1.51069C50.5169 0.917321 49.9172 0.620253 49.108 0.514238C48.7543 0.467905 48.6041 0.466254 48.2587 0.504989ZM103.307 0.49056C102.778 0.553172 102.362 0.663456 102.032 0.828525C101.401 1.14344 100.811 1.70687 100.496 2.29335C100.096 3.03815 100.034 4.04587 100.338 4.88323C100.507 5.34947 100.757 5.71834 101.171 6.11163C101.589 6.50994 101.984 6.74838 102.506 6.91848C102.925 7.05518 103.177 7.08395 103.802 7.06668C104.443 7.04894 104.771 6.97677 105.273 6.7422L105.495 6.6388V6.14522C105.495 5.87376 105.488 5.65166 105.478 5.65166C105.469 5.65166 105.382 5.69554 105.285 5.74922C104.703 6.07142 104.041 6.2187 103.423 6.16355C102.699 6.09894 102.148 5.83637 101.672 5.32955C101.343 4.97934 101.155 4.56923 101.086 4.05253C101.023 3.57978 101.14 3.00835 101.385 2.59562C101.627 2.18847 102.166 1.73376 102.599 1.57171C102.994 1.42417 103.136 1.40038 103.622 1.40043C104.028 1.40046 104.115 1.40937 104.391 1.47933C104.709 1.56004 105.113 1.70263 105.32 1.80753C105.383 1.83995 105.449 1.86644 105.466 1.86644C105.487 1.86644 105.494 1.70906 105.489 1.37826L105.481 0.890113L105.227 0.796479C104.595 0.563532 103.783 0.434237 103.307 0.49056ZM109.27 0.502968C108.244 0.616325 107.287 1.19509 106.727 2.03997C106.24 2.77683 106.093 3.70634 106.324 4.6068C106.579 5.60601 107.435 6.53353 108.428 6.88629C108.892 7.05117 108.953 7.0599 109.656 7.06019C110.288 7.06044 110.325 7.05737 110.598 6.98141C111.18 6.81947 111.664 6.53814 112.101 6.10702C112.611 5.6043 112.892 5.08376 113.03 4.38632C113.107 3.99593 113.08 3.25622 112.976 2.90524C112.733 2.08559 112.206 1.42559 111.413 0.946408C110.806 0.579782 110.029 0.419039 109.27 0.502968ZM0.630828 1.12648V1.55338H1.36004H2.08926V4.21442V6.87545H2.51821H2.94716V4.21442V1.55338H3.69068H4.43419V1.12648V0.699572H2.53251H0.630828V1.12648ZM5.40648 3.78751V6.87545H5.83518H6.26387L6.27128 5.40263L6.27868 3.92981L7.74427 3.92244L9.20985 3.91507V5.39526V6.87545H9.6388H10.0677V3.78751V0.699572H9.6388H9.20985V1.88093V3.06229L7.74427 3.05492L6.27868 3.04754L6.27122 1.87356L6.26376 0.699572H5.83512H5.40648V3.78751ZM11.333 3.7804L11.3403 6.86122L13.0633 6.86856L14.7862 6.87591V6.44877V6.02164H13.4994H12.2125V4.96861V3.91558H13.4994H14.7862V3.48868V3.06177H13.4994H12.2125V2.30758V1.55338H13.4994H14.7862V1.12648V0.699572H13.056H11.3257L11.333 3.7804ZM18.1652 1.01975C18.2448 1.19586 18.3289 1.38475 18.3521 1.43954C18.3982 1.54803 18.571 1.94209 18.6337 2.08152C18.6552 2.12936 18.719 2.2759 18.7755 2.40719C18.8319 2.53848 18.896 2.68502 18.918 2.73286C19.093 3.11494 20.2196 5.65029 20.2196 5.66205C20.2196 5.67033 20.2636 5.77062 20.3173 5.88495C20.3711 5.99927 20.5071 6.30411 20.6196 6.56239C20.7322 6.82066 20.8351 7.04305 20.8483 7.0566C20.8786 7.08748 20.9139 7.0192 21.1655 6.44331C21.2771 6.18791 21.4008 5.90851 21.4403 5.82242C21.7295 5.19314 22.6803 3.09009 22.7075 3.01985C22.7197 2.98812 22.7622 2.89172 22.8017 2.80563C22.8736 2.64941 23.2491 1.81729 23.5684 1.10707C23.6611 0.900729 23.737 0.724332 23.737 0.715026C23.737 0.705748 23.5287 0.701678 23.2742 0.705975L22.8115 0.713802L22.6919 0.984175C22.6262 1.13288 22.4612 1.50147 22.3254 1.80329C22.1895 2.10508 22.0784 2.35676 22.0784 2.36253C22.0784 2.36834 22.0269 2.48292 21.964 2.6172C21.9011 2.75147 21.8496 2.86685 21.8496 2.87362C21.8496 2.8804 21.8034 2.98633 21.747 3.10905C21.6906 3.23174 21.6275 3.37057 21.6068 3.41753C21.5861 3.46449 21.4447 3.77826 21.2924 4.1148C21.1402 4.45135 20.9838 4.79694 20.945 4.88275L20.8744 5.03882L20.6223 4.47007C20.3701 3.90118 19.932 2.924 19.8024 2.6413C19.7646 2.55874 19.701 2.41425 19.6613 2.32019C19.6215 2.22615 19.5529 2.06956 19.5089 1.97223C19.4649 1.87492 19.3205 1.54883 19.188 1.2476L18.947 0.699942L18.4837 0.699742L18.0205 0.699572L18.1652 1.01975ZM24.5091 3.78751V6.87545H26.2392H27.9693V6.44855V6.02164H26.6682H25.367V4.96861V3.91558H26.6682H27.9693V3.48868V3.06177H26.6682H25.367V2.30758V1.55338H26.6682H27.9693V1.12648V0.699572H26.2392H24.5091V3.78751ZM29.0846 3.78552V6.87545H29.5135H29.9425V5.60897V4.34249H30.0425C30.1339 4.34249 30.1517 4.35729 30.2498 4.51444C30.3088 4.60902 30.587 5.02203 30.868 5.43229C31.149 5.84251 31.4824 6.33505 31.6089 6.52681L31.8389 6.87545H32.3359C32.8136 6.87545 32.8316 6.87337 32.804 6.82186C32.7642 6.74792 32.2092 5.92929 31.5808 5.01754C31.2919 4.59834 31.0632 4.24296 31.0726 4.22776C31.082 4.21259 31.1066 4.20019 31.1272 4.20019C31.1852 4.20019 31.4832 4.10052 31.6633 4.02083C32.4321 3.68084 32.8237 2.96165 32.6882 2.13858C32.603 1.62049 32.1545 1.12559 31.5501 0.882628C31.1538 0.723279 31.1111 0.718213 30.064 0.706516L29.0846 0.695587V3.78552ZM33.096 0.720917C33.1185 0.763266 33.4893 1.37986 33.8193 1.92336C34.0046 2.2286 34.3727 2.83583 34.6373 3.27275L35.1185 4.06716V5.47131V6.87545H35.5474H35.9764V5.46715V4.05885L36.3011 3.52474C36.4797 3.23097 36.84 2.63982 37.1018 2.21104C37.3636 1.78226 37.5778 1.42722 37.5778 1.42201C37.5778 1.41683 37.6594 1.28099 37.7591 1.12013C37.8589 0.959243 37.9559 0.798813 37.9746 0.763607L38.0088 0.699572H37.5276H37.0464L36.3074 1.92527C35.901 2.59938 35.5591 3.1405 35.5478 3.12772C35.5365 3.11494 35.3819 2.86753 35.2043 2.57795C35.0268 2.28837 34.8012 1.92336 34.7032 1.76683C34.6051 1.6103 34.4184 1.30615 34.2885 1.0909L34.0522 0.699572H33.5685C33.3024 0.699572 33.0898 0.709191 33.096 0.720917ZM41.8387 3.78751V6.87545H43.2829H44.727V6.44855V6.02164H43.7118H42.6966V3.36061V0.699572H42.2677H41.8387V3.78751ZM53.1423 2.84121C53.1535 4.92612 53.1554 4.98962 53.2162 5.23899C53.3477 5.77771 53.5144 6.09023 53.8475 6.42268C54.1217 6.69635 54.3487 6.83689 54.7331 6.97102C54.9599 7.05014 55.0159 7.05774 55.4561 7.06898C55.7508 7.07649 56.0071 7.06835 56.1266 7.04764C56.5792 6.9692 57.0652 6.70577 57.3409 6.38955C57.6475 6.03778 57.7851 5.78147 57.9033 5.34167L57.9768 5.06822L57.9884 2.8839L58 0.699572H57.5547H57.1094L57.109 2.81275C57.1085 5.04415 57.1055 5.10312 56.9746 5.40975C56.8968 5.59206 56.7208 5.83682 56.5975 5.93401C56.5348 5.98342 56.3831 6.07028 56.2603 6.12706C56.0476 6.22536 56.0194 6.23088 55.6652 6.24326C55.3787 6.25328 55.2511 6.24545 55.1086 6.20911C54.6099 6.08198 54.2456 5.71663 54.0984 5.19629C54.0013 4.85289 53.9923 4.6379 53.9923 2.66498V0.699572H53.5616H53.1309L53.1423 2.84121ZM59.2255 3.78751V6.87545H60.2266C60.9797 6.87545 61.2999 6.86466 61.5193 6.83185C62.3073 6.71408 62.8664 6.44616 63.3645 5.94762C63.8449 5.46678 64.1377 4.89447 64.2438 4.22865C64.298 3.88877 64.2981 3.69092 64.244 3.33403C64.0812 2.25897 63.3637 1.33646 62.3998 0.962801C61.8227 0.739103 61.5007 0.699572 60.2553 0.699572H59.2255V3.78751ZM67.9832 3.7804L67.9904 6.86122H68.4194H68.8483L68.8556 3.7804L68.8629 0.699572H68.4194H67.9759L67.9832 3.7804ZM76.8697 3.78751V6.87545H77.8964C79.0251 6.87545 79.3257 6.84602 79.8009 6.68904C80.7121 6.38798 81.4057 5.7215 81.7394 4.82631C82.0197 4.07448 81.9837 3.23037 81.6401 2.49328C81.4263 2.03473 81.0441 1.55773 80.6855 1.30199C80.3119 1.03557 79.8327 0.84933 79.283 0.757005C78.9861 0.707114 78.8117 0.699856 77.9063 0.699714L76.8697 0.699572V3.78751ZM82.8178 3.78774V6.87588L84.5551 6.86856L86.2923 6.86122L86.3003 6.44143L86.3082 6.02164H84.9916H83.675L83.6825 4.97573L83.69 3.92981L84.9991 3.92241L86.3082 3.91501L86.3003 3.49551L86.2923 3.076L84.984 3.0686L83.6757 3.0612V2.30758V1.55395L84.984 1.54655L86.2923 1.53915L86.3003 1.11936L86.3082 0.699572H84.563H82.8178V3.78774ZM87.2002 3.78017L87.2074 6.86122H88.9375H90.6676L90.6756 6.44143L90.6835 6.02164H89.3816H88.0796V4.9689V3.91615L89.3736 3.90875L90.6676 3.90135V3.48868V3.076L89.3736 3.0686L88.0796 3.0612V2.30758V1.55395L89.3736 1.54655L90.6676 1.53915V1.12648V0.713802L88.9303 0.706459L87.1929 0.699145L87.2002 3.78017ZM91.6542 3.78751V6.87545H92.6809C93.5681 6.87545 93.7516 6.86794 94.0321 6.82001C94.5897 6.72478 94.9568 6.58666 95.3577 6.32119C95.6182 6.14866 96.0146 5.75429 96.1989 5.48423C96.72 4.7205 96.8586 3.68363 96.5575 2.8025C96.2373 1.86562 95.5783 1.20451 94.6591 0.898025C94.1549 0.72991 93.8548 0.699572 92.6952 0.699572H91.6542V3.78751ZM49.2882 1.46467C49.5955 1.54794 49.7174 1.59823 49.9681 1.7452C50.2184 1.89191 50.6068 2.24884 50.757 2.4702C51.2424 3.18549 51.2928 4.09138 50.891 4.88036C50.7994 5.06045 50.5229 5.40542 50.3444 5.56255C49.8824 5.96916 49.4361 6.15395 48.8449 6.18355C48.0004 6.22582 47.3414 5.97719 46.7815 5.40505C46.327 4.94067 46.1255 4.44881 46.1226 3.79648C46.1197 3.13771 46.3425 2.60069 46.8131 2.13221C47.2068 1.74022 47.6834 1.49176 48.2008 1.40869C48.4347 1.37115 49.0623 1.40345 49.2882 1.46467ZM110.309 1.46683C110.571 1.53397 110.942 1.70348 111.14 1.84638C111.766 2.29844 112.108 2.91011 112.15 3.65147C112.197 4.48453 111.848 5.20574 111.143 5.73371C110.632 6.1161 109.98 6.26464 109.256 6.16323C108.214 6.01746 107.342 5.20275 107.169 4.2147C107.115 3.90591 107.114 3.71462 107.165 3.4033C107.336 2.3686 108.19 1.56095 109.284 1.39981C109.48 1.37092 110.09 1.41085 110.309 1.46683ZM31.0345 1.5486C31.3647 1.64095 31.6034 1.82572 31.7211 2.0799C31.7759 2.19838 31.787 2.26984 31.787 2.5068C31.787 2.76653 31.7795 2.80614 31.7012 2.96023C31.5039 3.34845 30.9313 3.57286 30.1355 3.57383L29.9425 3.57406V2.51679V1.45949L30.3929 1.47731C30.6988 1.48937 30.9046 1.51225 31.0345 1.5486ZM61.0148 1.55312C61.8264 1.60828 62.2617 1.76279 62.6533 2.13471C62.9757 2.44094 63.1893 2.79248 63.3043 3.20573C63.3831 3.48928 63.3768 4.11964 63.2924 4.38879C63.1066 4.98108 62.7602 5.4042 62.2282 5.68866C61.8197 5.90709 61.4571 5.97992 60.6267 6.01037L60.0834 6.03027V3.77761V1.52492L60.348 1.52535C60.4935 1.52557 60.7935 1.53807 61.0148 1.55312ZM79.0277 1.58324C79.1384 1.5986 79.3298 1.63697 79.4531 1.6685C80.137 1.84342 80.6637 2.35178 80.9072 3.07196C81.0477 3.48743 81.0516 4.07675 80.9166 4.47056C80.7016 5.09768 80.2649 5.54715 79.6145 5.81078C79.3324 5.92513 78.9213 5.98692 78.2911 6.00972L77.7276 6.0301V3.77308V1.51604L78.2771 1.53568C78.5793 1.54649 78.9171 1.56789 79.0277 1.58324ZM93.8166 1.58409C94.507 1.67969 94.9374 1.90102 95.3071 2.35072C95.6381 2.75335 95.8063 3.23279 95.8063 3.77328C95.8063 4.16885 95.7423 4.44321 95.5674 4.79785C95.4034 5.13027 95.0353 5.49945 94.6921 5.67585C94.2259 5.91549 93.92 5.97878 93.0769 6.01017L92.5407 6.03012V3.77305V1.51598L93.0701 1.53499C93.3612 1.54547 93.6971 1.56755 93.8166 1.58409ZM114.017 5.66694C113.731 5.75525 113.559 5.99361 113.559 6.30192C113.559 6.70395 113.817 6.96083 114.221 6.96083C114.544 6.96083 114.806 6.75356 114.873 6.44618C114.906 6.28925 114.875 6.08502 114.8 5.97004C114.712 5.83634 114.543 5.70579 114.405 5.66492C114.236 5.61483 114.185 5.61509 114.017 5.66694ZM1.68891 8.55344C1.19904 8.64454 0.74796 9.03379 0.618445 9.47723C0.560308 9.67625 0.561252 10.0259 0.620447 10.2294C0.742984 10.6505 1.16504 11.0415 1.60632 11.1428C1.89769 11.2096 2.32656 11.1701 2.61115 11.0503L2.71839 11.0051V10.8044C2.71839 10.6941 2.71153 10.6037 2.70315 10.6037C2.69474 10.6037 2.62239 10.6368 2.54232 10.6772C1.96764 10.967 1.31049 10.7876 1.05503 10.2712C0.969985 10.0992 0.959919 10.0538 0.961892 9.85015C0.964637 9.56799 1.05383 9.35975 1.24843 9.18124C1.58287 8.87442 2.02804 8.82071 2.5245 9.0273C2.61447 9.06473 2.69488 9.09535 2.70323 9.09535C2.71155 9.09535 2.71839 9.00727 2.71839 8.89957C2.71839 8.71268 2.71481 8.70237 2.63975 8.67206C2.35941 8.55888 1.94062 8.50662 1.68891 8.55344ZM6.15686 9.81397L6.1643 11.1018L6.34303 11.1103L6.52176 11.1187L6.52276 10.2422L6.52376 9.36572L6.81181 9.66456C7.16401 10.03 8.33141 11.2014 8.34334 11.2014C8.34806 11.2014 8.35195 10.6181 8.35195 9.9051V8.60882L8.17322 8.61728L7.99449 8.62576L7.98691 9.47245C7.98273 9.93815 7.97375 10.3191 7.96692 10.3191C7.95437 10.3191 6.84052 9.19491 6.4231 8.76094C6.2989 8.63179 6.18652 8.52615 6.17333 8.52615C6.16018 8.52615 6.15277 9.10568 6.15686 9.81397ZM13.2882 8.55765C13.2814 8.57945 13.2215 8.80221 13.1552 9.05266C13.0889 9.30311 12.9983 9.6425 12.9538 9.80686C12.7403 10.5965 12.6197 11.0849 12.6346 11.0997C12.6595 11.1245 12.9507 11.1192 12.9665 11.0937C12.981 11.0705 13.2448 10.0697 13.3189 9.75705C13.3421 9.65924 13.3696 9.57923 13.3802 9.57932C13.3907 9.5794 13.4821 9.7811 13.5833 10.0276C13.6845 10.274 13.7951 10.5397 13.8291 10.618C13.8631 10.6962 13.9283 10.8531 13.9739 10.9665C14.0196 11.0799 14.0699 11.1726 14.0856 11.1725C14.1013 11.1724 14.2092 10.9451 14.3254 10.6674C14.4415 10.3898 14.5722 10.0794 14.6157 9.97762C14.6593 9.87587 14.7167 9.7414 14.7434 9.67879L14.7919 9.56495L14.9601 10.2053C15.0526 10.5575 15.1452 10.9033 15.1659 10.9737L15.2035 11.1018L15.3706 11.1105L15.5377 11.1191L15.5209 11.0108C15.5116 10.9513 15.4518 10.7105 15.388 10.4757C15.2734 10.054 15.1467 9.57824 15.0013 9.0242C14.9602 8.86767 14.9134 8.68994 14.8972 8.62926C14.8811 8.56855 14.8578 8.53013 14.8455 8.54388C14.8333 8.5576 14.6578 8.96216 14.4557 9.44291C14.2535 9.92363 14.0857 10.3142 14.0827 10.3109C14.0797 10.3076 13.9076 9.90789 13.7001 9.42265C13.4927 8.9374 13.3179 8.53534 13.3117 8.52919C13.3056 8.52304 13.295 8.53585 13.2882 8.55765ZM17.8787 8.58554C17.8641 8.62331 17.7815 8.8079 17.6952 8.99574C17.6089 9.18358 17.5095 9.4013 17.4743 9.47957C17.4392 9.55783 17.3549 9.74353 17.2871 9.89224C17.0114 10.4972 16.7594 11.0704 16.7594 11.0925C16.7594 11.1054 16.842 11.116 16.9429 11.116C17.1096 11.116 17.1285 11.1099 17.1502 11.0492C17.1633 11.0124 17.2252 10.8716 17.2878 10.7361L17.4016 10.4899H17.9259H18.4503L18.5639 10.7389C18.7525 11.1523 18.718 11.116 18.9233 11.116C19.0228 11.116 19.1043 11.1074 19.1043 11.0968C19.1043 11.079 18.5617 9.89144 18.2589 9.24659C18.1868 9.09305 18.0888 8.87772 18.041 8.76812C17.9336 8.52159 17.9127 8.49809 17.8787 8.58554ZM26.3107 8.55609C26.0547 8.59966 25.7626 8.7639 25.5624 8.9769C25.3586 9.19368 25.2586 9.39228 25.2164 9.66388C25.1177 10.2981 25.5453 10.9381 26.1944 11.1276C26.4972 11.216 26.983 11.1777 27.2615 11.0433L27.3688 10.9917V10.7977C27.3688 10.691 27.361 10.6037 27.3514 10.6037C27.3419 10.6037 27.255 10.6411 27.1584 10.6867C26.5717 10.9639 25.917 10.7666 25.6719 10.2388C25.5772 10.035 25.585 9.64557 25.6875 9.45111C25.7621 9.30963 25.9433 9.11812 26.0842 9.0318C26.1956 8.96352 26.4482 8.89613 26.5929 8.89613C26.7505 8.89613 27.0598 8.9701 27.2032 9.04207C27.2616 9.07139 27.3227 9.09535 27.339 9.09535C27.3826 9.09535 27.3771 8.73911 27.333 8.70337C27.1934 8.59027 26.6066 8.50571 26.3107 8.55609ZM31.5957 8.56593C31.2548 8.65726 31.0244 8.96805 31.0766 9.26611C31.1254 9.5446 31.3058 9.7223 31.7539 9.93322C32.0966 10.0945 32.1855 10.1676 32.2435 10.3356C32.3405 10.6164 32.0562 10.8763 31.7318 10.8034C31.5814 10.7696 31.4913 10.6997 31.3755 10.5265L31.2785 10.3815L31.1324 10.424C31.052 10.4475 30.9757 10.4766 30.9629 10.4887C30.9221 10.5273 31.0622 10.7762 31.2044 10.9177C31.3821 11.0946 31.5858 11.173 31.8682 11.173C32.0342 11.173 32.1058 11.1582 32.2239 11.0996C32.7151 10.856 32.789 10.2268 32.3707 9.85066C32.3039 9.79064 32.1025 9.67261 31.9231 9.58837C31.7436 9.50416 31.5656 9.40417 31.5275 9.36621C31.4342 9.2734 31.4317 9.10139 31.5225 9.01683C31.7075 8.84428 31.982 8.85808 32.2186 9.05184L32.3071 9.1243L32.4403 9.02315C32.5135 8.96751 32.5734 8.91218 32.5734 8.90023C32.5734 8.85492 32.3935 8.69802 32.2775 8.64212C32.1563 8.58372 31.9032 8.52447 31.7902 8.52805C31.757 8.52913 31.6694 8.54615 31.5957 8.56593ZM35.2186 8.54604C34.8021 8.60114 34.3522 8.92687 34.1638 9.30969C34.0097 9.62306 34.0137 10.0829 34.1737 10.4164C34.2919 10.663 34.5512 10.9163 34.8214 11.0492C35.0112 11.1426 35.0618 11.1545 35.319 11.1669C35.674 11.1839 35.8964 11.1401 36.1138 11.0105C36.5869 10.7283 36.8255 10.3019 36.8006 9.78301C36.7849 9.4568 36.679 9.22354 36.4289 8.96424C36.1076 8.63128 35.683 8.48457 35.2186 8.54604ZM41.8254 8.55597C41.8167 8.57871 41.8129 9.16081 41.817 9.84955L41.8244 11.1018H41.996H42.1676L42.1819 10.24L42.1962 9.37816L43.0938 10.2915C43.6037 10.8103 44.0022 11.1942 44.0164 11.1801C44.0301 11.1664 44.0379 10.5861 44.0338 9.8905L44.0264 8.62576H43.8405H43.6546L43.6403 9.47726L43.626 10.3288L42.7337 9.42171C42.1305 8.80859 41.8362 8.52805 41.8254 8.55597ZM58.3247 8.54553C58.0642 8.60379 57.8189 8.79413 57.7676 8.97795C57.661 9.36009 57.8327 9.65909 58.2776 9.8662C58.6785 10.0528 58.7114 10.0723 58.8118 10.1823C58.938 10.3204 58.9634 10.455 58.8898 10.5961C58.7379 10.8876 58.2903 10.8852 58.076 10.5918C58.0294 10.5279 57.9808 10.4573 57.968 10.4348C57.948 10.3997 57.9221 10.3994 57.7831 10.4326C57.6942 10.4538 57.616 10.48 57.6093 10.4908C57.5831 10.533 57.7516 10.8118 57.8761 10.9323C58.2125 11.2577 58.8182 11.2588 59.1043 10.9345C59.2385 10.7824 59.2902 10.6445 59.2925 10.4327C59.2965 10.0645 59.1078 9.84078 58.5803 9.58831C58.2394 9.42518 58.1103 9.316 58.1103 9.19092C58.1103 9.07887 58.1628 9.00932 58.2913 8.95126C58.4975 8.85808 58.6572 8.88346 58.8573 9.04119L58.967 9.12766L59.0963 9.0201C59.1674 8.96093 59.2255 8.908 59.2255 8.90245C59.2255 8.8562 59.1476 8.775 59.0331 8.70186C58.8254 8.56924 58.5201 8.50187 58.3247 8.54553ZM63.7643 8.55407C63.3927 8.62078 62.972 8.93689 62.8053 9.27468C62.5518 9.78813 62.6559 10.3798 63.0717 10.7887C63.3578 11.0703 63.6317 11.1723 64.1013 11.1723C64.4211 11.1723 64.6276 11.1279 64.8141 11.0192C64.9727 10.9267 65.1819 10.7197 65.2728 10.5653C65.3533 10.4285 65.43 10.1326 65.4306 9.95628L65.431 9.83532H64.8863H64.3416L64.3501 10.0132L64.3587 10.1911L64.6804 10.1991C64.8573 10.2035 65.0021 10.2133 65.0021 10.2208C65.0021 10.2838 64.86 10.5081 64.7674 10.5915C64.5605 10.7774 64.2584 10.8513 63.9072 10.8018C63.6544 10.7661 63.4684 10.6697 63.3062 10.4901C62.9152 10.0573 62.9994 9.37611 63.4815 9.07076C63.8637 8.82874 64.3761 8.8535 64.746 9.13184C64.8129 9.18221 64.8847 9.23597 64.9056 9.25134C64.9334 9.27178 64.9781 9.24554 65.0726 9.15321L65.2016 9.02719L65.1376 8.95931C65.0224 8.83716 64.7426 8.6701 64.5584 8.61346C64.3463 8.54829 63.9582 8.51926 63.7643 8.55407ZM66.9482 9.81397L66.9467 11.116H67.1182H67.2898V10.2366V9.35724L67.8311 9.90223C68.1288 10.202 68.5359 10.6169 68.7357 10.8243C68.9356 11.0317 69.1102 11.2014 69.1238 11.2014C69.1375 11.2014 69.1486 10.6187 69.1486 9.90647V8.61153H68.9627H68.7768L68.7768 9.48668L68.7768 10.3618L67.8632 9.43688L66.9497 8.51192L66.9482 9.81397ZM76.8109 8.55481C76.523 8.60333 76.1912 8.79245 75.9962 9.01922C75.94 9.08457 75.8529 9.22103 75.8028 9.32244C75.7162 9.49741 75.7116 9.52357 75.7116 9.83472C75.7116 10.0883 75.7239 10.1949 75.766 10.3049C75.9167 10.6985 76.279 11.0271 76.6796 11.1333C76.8687 11.1834 77.2711 11.1834 77.4602 11.1333C77.6865 11.0733 77.882 10.9537 78.0667 10.7622C78.3281 10.4913 78.4425 10.2125 78.4425 9.84653C78.4425 9.02725 77.6641 8.411 76.8109 8.55481ZM86.3209 8.54436C85.7873 8.6253 85.3088 9.05522 85.192 9.55874C85.0515 10.1645 85.3631 10.7719 85.9591 11.054C86.1441 11.1415 86.2033 11.1551 86.4551 11.1671C86.7567 11.1816 86.9659 11.15 87.1839 11.0569L87.3075 11.0042V10.804C87.3075 10.6939 87.3026 10.6037 87.2964 10.6037C87.2903 10.6037 87.202 10.6426 87.1002 10.69C86.5195 10.9604 85.901 10.7755 85.6262 10.2493C85.5624 10.1273 85.5511 10.0692 85.551 9.86378C85.5509 9.65371 85.5618 9.60018 85.6337 9.45708C85.821 9.08434 86.2327 8.86249 86.6556 8.90646C86.7992 8.9214 87.0496 8.99386 87.2575 9.08055C87.3024 9.09928 87.3075 9.08095 87.3075 8.90262C87.3075 8.67952 87.3175 8.68968 87.0085 8.59846C86.8573 8.55384 86.463 8.52282 86.3209 8.54436ZM89.824 8.5556C89.5124 8.61067 89.2452 8.75781 89.0358 8.98954C88.8537 9.19109 88.7799 9.33103 88.7206 9.58714C88.6756 9.78159 88.6736 9.83535 88.7048 10.0283C88.7246 10.1506 88.7798 10.33 88.8293 10.433C88.9873 10.7614 89.3618 11.0622 89.7129 11.1428C89.9225 11.1909 90.3136 11.1792 90.5078 11.119C90.9954 10.968 91.363 10.541 91.4356 10.0413C91.5648 9.15122 90.7426 8.39321 89.824 8.5556ZM93.4323 8.6625C93.4142 8.73621 93.3618 8.9374 93.3157 9.10958C93.2697 9.28177 93.1842 9.60194 93.1257 9.82109C93.0672 10.0402 92.9698 10.4052 92.9092 10.6322C92.8485 10.8592 92.7988 11.0609 92.7985 11.0805C92.7982 11.105 92.8512 11.116 92.9691 11.116C93.1323 11.116 93.141 11.1124 93.1581 11.0378C93.1888 10.9043 93.4875 9.76955 93.5185 9.66905C93.5509 9.56384 93.5713 9.57366 93.6275 9.72148C93.6483 9.77626 93.7868 10.1092 93.9353 10.4614C94.0837 10.8136 94.2117 11.1178 94.2196 11.1374C94.2276 11.157 94.2442 11.173 94.2565 11.173C94.2821 11.173 94.4829 10.7168 94.8434 9.8403C94.9107 9.6766 94.9602 9.58937 94.9727 9.61262C94.9839 9.63336 95.0402 9.83603 95.098 10.063C95.2017 10.4704 95.2881 10.8013 95.3449 11.0093L95.3741 11.116H95.5445C95.661 11.116 95.715 11.1049 95.715 11.0808C95.715 11.0471 95.6059 10.629 95.3716 9.76417C95.3123 9.54502 95.2141 9.17689 95.1533 8.94608C95.0926 8.71529 95.0365 8.5266 95.0286 8.52677C95.0208 8.52694 94.8472 8.92391 94.6429 9.4089C94.4386 9.89386 94.2649 10.2904 94.2569 10.2901C94.2488 10.2897 94.0754 9.89813 93.8715 9.41994C93.6677 8.94172 93.4928 8.54553 93.483 8.53947C93.4731 8.53343 93.4503 8.58879 93.4323 8.6625ZM101.266 8.55822C100.89 8.62038 100.431 8.96438 100.277 9.2993C100.003 9.89435 100.207 10.5905 100.764 10.959C101.199 11.2474 101.853 11.2516 102.299 10.9688C102.74 10.689 102.975 10.1672 102.893 9.64646C102.852 9.38394 102.749 9.18392 102.543 8.96466C102.213 8.61423 101.774 8.47429 101.266 8.55822ZM104.975 8.56425C104.901 8.58497 104.817 8.61944 104.789 8.64087C104.555 8.81747 104.466 8.96759 104.466 9.18483C104.466 9.48674 104.665 9.72544 105.058 9.89375C105.453 10.0628 105.584 10.1648 105.636 10.3438C105.756 10.7579 105.192 10.9856 104.862 10.6565C104.8 10.595 104.737 10.513 104.723 10.4745C104.708 10.436 104.674 10.4045 104.648 10.4045C104.586 10.4045 104.372 10.4654 104.341 10.4922C104.304 10.5238 104.459 10.7874 104.591 10.9173C104.764 11.0879 104.926 11.1559 105.19 11.1685C105.458 11.1813 105.62 11.1297 105.79 10.9768C106.202 10.6077 106.074 9.97896 105.53 9.69421C105.454 9.65443 105.3 9.57921 105.188 9.52707C104.94 9.41212 104.837 9.31714 104.837 9.20344C104.837 9.07882 104.886 9.01108 105.018 8.95126C105.225 8.85788 105.41 8.88956 105.603 9.05132L105.696 9.12979L105.824 9.02528C105.895 8.96779 105.953 8.90336 105.953 8.88207C105.953 8.82068 105.752 8.67257 105.585 8.61019C105.384 8.5354 105.142 8.51721 104.975 8.56425ZM114.04 8.56593C113.667 8.66586 113.44 9.01316 113.532 9.34145C113.595 9.56395 113.775 9.72805 114.156 9.90903C114.339 9.99603 114.531 10.1075 114.582 10.1566C114.862 10.4244 114.687 10.8111 114.286 10.8111C114.092 10.8111 113.949 10.7231 113.821 10.5244L113.729 10.3828L113.58 10.4254C113.498 10.4488 113.42 10.4781 113.406 10.4905C113.364 10.5292 113.563 10.8591 113.692 10.964C113.962 11.1844 114.381 11.2423 114.669 11.0993C114.855 11.007 115.006 10.8334 115.061 10.6496C115.115 10.4713 115.114 10.3941 115.06 10.2132C114.988 9.96999 114.814 9.80811 114.408 9.60573C114.004 9.40443 113.902 9.32227 113.902 9.19596C113.902 8.88293 114.401 8.79185 114.677 9.05454L114.75 9.12458L114.884 9.02079C114.958 8.96369 115.018 8.90527 115.018 8.89095C115.018 8.85691 114.888 8.73837 114.775 8.66876C114.669 8.60342 114.384 8.52535 114.261 8.52805C114.213 8.52913 114.114 8.54615 114.04 8.56593ZM4.18992 8.6471C4.18237 8.66668 4.17954 9.22698 4.18366 9.89224L4.19112 11.1018L4.36985 11.1103L4.54858 11.1187V9.86515V8.61153H4.37611C4.2645 8.61153 4.19879 8.62408 4.18992 8.6471ZM9.92477 9.86429V11.1171L10.6182 11.1094L11.3117 11.1018L11.3202 10.9239L11.3287 10.746H10.7975H10.2664L10.2743 10.3405L10.2822 9.93493L10.8055 9.92716L11.3287 9.91942L11.3202 9.74217L11.3117 9.56495L10.7898 9.55718L10.2679 9.54943V9.26611V8.98279L10.7898 8.97505L11.3117 8.96728L11.3202 8.7894L11.3287 8.61153H10.6268H9.92477V9.86429ZM20.3398 8.7894L20.3483 8.96728L20.6414 8.97539L20.9345 8.9835V10.0498V11.116H21.1061H21.2777V10.0488V8.98151H21.5779H21.8782V8.79652V8.61153H21.1047H20.3313L20.3398 8.7894ZM23.3497 8.6471C23.3422 8.66668 23.3394 9.22698 23.3435 9.89224L23.3509 11.1018L23.5297 11.1103L23.7084 11.1187V9.86515V8.61153H23.5359C23.4243 8.61153 23.3586 8.62408 23.3497 8.6471ZM38.3213 9.47222C38.3213 10.4058 38.3391 10.5545 38.4763 10.7708C38.5721 10.922 38.7346 11.049 38.9219 11.1193C39.1505 11.2051 39.562 11.1865 39.7655 11.0813C39.945 10.9883 40.0678 10.861 40.171 10.6607L40.2516 10.5041L40.2605 9.55644L40.2694 8.60871L40.0889 8.61725L39.9084 8.62576L39.8941 9.53649C39.8801 10.4287 39.8785 10.4495 39.8127 10.5603C39.7021 10.7465 39.5512 10.8257 39.2998 10.8293C39.0572 10.8327 38.8623 10.7267 38.7547 10.5326C38.7144 10.4599 38.7053 10.3124 38.6931 9.53649L38.6788 8.62576L38.5001 8.61728L38.3213 8.60882V9.47222ZM45.6135 9.86378V11.116H45.997C46.7669 11.116 47.163 10.9584 47.4436 10.5403C47.5825 10.3331 47.6439 10.126 47.6439 9.86378C47.6439 9.60436 47.5844 9.4007 47.4472 9.19018C47.1587 8.74762 46.8299 8.61295 46.0353 8.61201L45.6135 8.61153V9.86378ZM51.3397 9.85348L51.3471 11.1018L51.676 11.1112C52.5084 11.1349 52.984 10.9146 53.2532 10.3809C53.3452 10.1985 53.3489 10.1782 53.3489 9.86378C53.3489 9.55561 53.3437 9.52567 53.2595 9.35149C53.149 9.12284 52.9963 8.94505 52.8071 8.82504C52.5605 8.66859 52.4043 8.63538 51.8401 8.61947L51.3322 8.60518L51.3397 9.85348ZM54.8216 9.86378V11.116H55.5223H56.2229V10.931V10.746H55.7081H55.1934V10.3334V9.9207H55.7095H56.2256L56.2171 9.74282L56.2086 9.56495L55.701 9.55718L55.1934 9.54941V9.26611V8.98282L55.701 8.97505L56.2086 8.96728L56.2171 8.7894L56.2256 8.61153H55.5236H54.8216V9.86378ZM60.8052 9.8553L60.8127 11.1018H60.9842H61.1558V9.86378V8.62576L60.9768 8.61728L60.7978 8.6088L60.8052 9.8553ZM72.9016 9.85666L72.9091 11.1018H73.0807H73.2522L73.26 10.5113L73.2677 9.9207H73.7832H74.2987L74.2902 9.74282L74.2817 9.56495L73.7741 9.55718L73.2665 9.54941V9.26546V8.98151H73.7813H74.296V8.79652V8.61153H73.5951H72.8942L72.9016 9.85666ZM80.0154 9.86515V11.1187L80.1941 11.1103L80.3728 11.1018L80.3806 10.5966C80.3852 10.3 80.3997 10.0915 80.4158 10.0915C80.4308 10.0915 80.5955 10.3188 80.7818 10.5966L81.1204 11.1018L81.2868 11.1105C81.3783 11.1152 81.4711 11.1122 81.493 11.1039C81.5397 11.086 81.5572 11.1157 81.1491 10.5203C80.9942 10.2942 80.8621 10.0955 80.8556 10.0787C80.8491 10.0619 80.9063 10.0261 80.9827 9.99911C81.0591 9.9721 81.1806 9.89836 81.2527 9.83523C81.4258 9.68357 81.484 9.53128 81.4691 9.26922C81.4594 9.09865 81.4452 9.05457 81.3701 8.96176C81.1565 8.69779 80.9094 8.61153 80.3668 8.61153H80.0154V9.86515ZM97.2374 9.85356L97.2449 11.1018H97.4165H97.5881L97.5958 10.6007L97.6036 10.0996L97.8103 10.0838C98.3438 10.0431 98.6931 9.74769 98.6931 9.33727C98.6931 9.04629 98.5476 8.84581 98.2315 8.70152C98.0916 8.63765 98.0276 8.62838 97.6521 8.6175L97.23 8.6053L97.2374 9.85356ZM107.51 8.64659C107.502 8.66643 107.5 9.22698 107.504 9.89224L107.511 11.1018L108.204 11.1094L108.897 11.117L108.914 11.0498C108.923 11.0128 108.927 10.9325 108.922 10.8714L108.912 10.7603L108.39 10.7525L107.869 10.7448V10.3334V9.92198L108.39 9.91424L108.912 9.90647L108.921 9.75264C108.927 9.64882 108.918 9.59113 108.893 9.57519C108.872 9.56221 108.633 9.5514 108.362 9.55114L107.869 9.55072V9.26611V8.98151L108.362 8.98108C108.633 8.98083 108.872 8.97001 108.893 8.95704C108.918 8.9411 108.927 8.88341 108.921 8.77959L108.912 8.62576L108.218 8.61813C107.678 8.61221 107.521 8.61853 107.51 8.64659ZM110.442 9.86167V11.1187L110.621 11.1103L110.8 11.1018L110.808 10.5945C110.813 10.2245 110.824 10.0902 110.849 10.0982C110.867 10.1043 111.035 10.3358 111.223 10.6126L111.564 11.116H111.761C111.869 11.116 111.958 11.1085 111.958 11.0992C111.958 11.09 111.809 10.8647 111.627 10.5985C111.445 10.3323 111.29 10.0992 111.283 10.0804C111.275 10.0602 111.327 10.0259 111.411 9.99601C111.719 9.88558 111.908 9.63564 111.908 9.33727C111.908 9.12976 111.838 8.97602 111.684 8.84083C111.485 8.66683 111.363 8.63307 110.878 8.6181L110.442 8.60461V9.86167ZM35.7256 8.95274C36.3918 9.15754 36.6367 9.90027 36.218 10.4465C36.0969 10.6046 35.8348 10.7632 35.6374 10.7978C35.271 10.862 34.9108 10.7423 34.6651 10.4747C34.1954 9.96331 34.4317 9.16852 35.1185 8.94938C35.3267 8.88295 35.5017 8.88392 35.7256 8.95274ZM77.4459 8.97912C77.6697 9.06399 77.8491 9.22994 77.9606 9.45532C78.174 9.88661 78.026 10.3906 77.6062 10.6623C77.2113 10.9179 76.6902 10.8557 76.3446 10.5118C75.8364 10.006 76.0656 9.16596 76.7732 8.94098C76.9543 8.88341 77.2355 8.89935 77.4459 8.97912ZM90.3362 8.9407C90.8077 9.08004 91.0758 9.44769 91.0476 9.91606C91.0313 10.1865 90.9462 10.3655 90.7449 10.5529C90.5098 10.7718 90.2386 10.853 89.9144 10.8014C89.6745 10.7633 89.4825 10.6589 89.3139 10.475C89.1502 10.2964 89.0802 10.1112 89.0804 9.85723C89.0809 9.21784 89.713 8.7565 90.3362 8.9407ZM101.808 8.94192C102.134 9.03786 102.423 9.32008 102.493 9.60946C102.541 9.81116 102.516 10.1045 102.437 10.2591C102.347 10.4349 102.14 10.6452 101.988 10.7164C101.694 10.8539 101.331 10.8459 101.054 10.6959C100.861 10.5916 100.65 10.3537 100.59 10.1738C100.527 9.98565 100.542 9.61085 100.619 9.46534C100.853 9.01933 101.341 8.80437 101.808 8.94192ZM80.8174 8.98387C80.8732 8.99773 80.9569 9.04853 81.0033 9.09678C81.0772 9.17353 81.0877 9.20529 81.0877 9.35149C81.0877 9.62178 80.9735 9.70571 80.523 9.76653L80.3871 9.78486V9.35679V8.92872L80.5516 8.94372C80.642 8.95194 80.7616 8.97004 80.8174 8.98387ZM98.1034 9.0106C98.247 9.07936 98.3173 9.19448 98.3173 9.36083C98.3173 9.59634 98.15 9.71197 97.7382 9.7611L97.6024 9.77732V9.34703V8.91674L97.7954 8.93615C97.9016 8.94682 98.0402 8.98032 98.1034 9.0106ZM111.141 8.96611C111.298 8.9837 111.453 9.07358 111.499 9.17444C111.515 9.21067 111.529 9.29691 111.529 9.36607C111.529 9.46539 111.511 9.51238 111.443 9.58971C111.354 9.68969 111.255 9.72535 110.95 9.76653L110.814 9.78486V9.37369C110.814 9.14755 110.822 8.95462 110.832 8.94494C110.841 8.93526 110.883 8.9325 110.925 8.93882C110.966 8.94511 111.064 8.95741 111.141 8.96611ZM46.7066 9.03615C46.9686 9.11735 47.2141 9.4134 47.2654 9.71007C47.3184 10.0163 47.2161 10.2987 46.9761 10.5084C46.803 10.6597 46.6263 10.7178 46.2784 10.7378L45.9853 10.7546V9.86492V8.97522L46.2927 8.98917C46.4617 8.99685 46.648 9.018 46.7066 9.03615ZM52.3545 9.02178C52.5482 9.0731 52.6817 9.15683 52.7932 9.29705C53.1752 9.77706 52.9934 10.4494 52.4213 10.672C52.3465 10.7011 52.1734 10.7282 51.9995 10.738L51.7046 10.7546V9.86808V8.98151L51.9548 8.98185C52.0925 8.98202 52.2723 9.00001 52.3545 9.02178ZM18.1213 9.77071L18.3024 10.1626L17.9417 10.1706C17.7433 10.175 17.5751 10.1728 17.5679 10.1657C17.5608 10.1585 17.5997 10.0525 17.6544 9.92998C17.7091 9.80748 17.7893 9.62693 17.8327 9.52877C17.8761 9.43061 17.918 9.35673 17.9259 9.36456C17.9338 9.37241 18.0217 9.55516 18.1213 9.77071Z" fill="#13171B"/>
</svg>
