<svg width="61" height="24" viewBox="0 0 61 24" fill="none" xmlns="http://www.w3.org/2000/svg">
<path d="M58.9459 8.89427V6.69745C58.9459 6.58532 58.9017 6.4777 58.8229 6.39796C58.744 6.31822 58.6369 6.27279 58.5248 6.27153H53.4269V4.41785H59.9525C60.0644 4.41785 60.1752 4.43988 60.2785 4.48269C60.3819 4.5255 60.4758 4.58825 60.5549 4.66735C60.634 4.74645 60.6967 4.84036 60.7395 4.94371C60.7824 5.04706 60.8044 5.15783 60.8044 5.2697V16.6677H58.9603V15.6887C58.934 15.7068 58.9087 15.7264 58.8847 15.7475C58.2788 16.4194 57.535 16.8489 56.6315 16.9413C54.3015 17.1812 52.0123 15.8531 51.5444 13.3743C51.1713 11.4006 51.8083 9.75453 53.4293 8.54034C54.2523 7.92484 55.2098 7.68128 56.232 7.70048C56.7306 7.69897 57.2241 7.80172 57.6807 8.00214C58.1374 8.20256 58.5471 8.49622 58.8835 8.86428C58.8941 8.87529 58.9053 8.8857 58.9171 8.89547C58.9171 8.89547 58.9315 8.89307 58.9459 8.89427ZM56.142 15.144C56.5651 15.1479 56.9846 15.0663 57.3754 14.904C57.7481 14.738 58.076 14.4859 58.3324 14.1684C58.5887 13.851 58.7661 13.4773 58.8499 13.078C59.1259 11.9405 58.8607 10.9519 57.9621 10.1769C57.2914 9.59855 56.4947 9.42578 55.6297 9.56736C55.2432 9.62163 54.8735 9.76067 54.547 9.97451C54.2205 10.1884 53.9454 10.4717 53.7412 10.8043C53.4375 11.2982 53.2841 11.8697 53.2997 12.4493C53.292 12.8007 53.358 13.1498 53.4933 13.4742C53.6287 13.7986 53.8304 14.0911 54.0855 14.3329C54.6403 14.8592 55.3774 15.1499 56.142 15.144Z" fill="#13171B"/>
<path d="M8.31714 8.91107V6.69505C8.31682 6.5824 8.27201 6.47442 8.19246 6.39465C8.11291 6.31488 8.00507 6.26976 7.89241 6.26913H2.80049V4.41785H9.32256C9.54807 4.41848 9.76413 4.50851 9.92337 4.6682C10.0826 4.82788 10.172 5.04419 10.172 5.2697V16.6677H8.33154V15.6827C8.28954 15.7187 8.26675 15.7355 8.24875 15.7547C7.64165 16.4254 6.89658 16.8537 5.99314 16.9425C3.56236 17.1824 1.24436 15.7427 0.873624 13.1463C0.601271 11.2399 1.26236 9.66574 2.83768 8.51394C3.65114 7.92244 4.58938 7.68368 5.59721 7.69448C6.0964 7.69299 6.59041 7.79573 7.04762 7.99613C7.50482 8.19653 7.91515 8.49018 8.25235 8.85828C8.273 8.87701 8.29462 8.89463 8.31714 8.91107ZM5.43764 15.1428C5.96314 15.1428 6.36627 15.078 6.74541 14.9028C7.11677 14.7389 7.44395 14.4892 7.70007 14.1743C7.9562 13.8593 8.13396 13.4881 8.21876 13.0912C8.50191 11.9453 8.23795 10.9483 7.32851 10.1709C6.61943 9.57096 5.78318 9.40779 4.88093 9.59016C4.48099 9.66249 4.10336 9.82687 3.7779 10.0703C3.45243 10.3137 3.18805 10.6295 3.00566 10.9927C2.76683 11.4555 2.65153 11.9721 2.67091 12.4925C2.66857 13.1419 2.916 13.7673 3.36199 14.2394C3.62928 14.5217 3.95074 14.7472 4.30718 14.9024C4.66361 15.0576 5.04768 15.1394 5.43644 15.1428H5.43764Z" fill="#13171B"/>
<path d="M47.802 12.3992C47.7792 12.4543 47.7564 12.5107 47.7312 12.5659C47.5048 13.0834 47.1752 13.5493 46.7626 13.935C46.35 14.3208 45.8631 14.6184 45.3316 14.8095C44.9571 14.9475 44.564 15.0284 44.1654 15.0495H44.1474C42.3981 15.0075 41.0963 14.2192 40.3585 12.6271C39.7322 11.2737 39.7454 9.87959 40.3645 8.51662C40.5908 7.99925 40.9204 7.53352 41.333 7.14795C41.7456 6.76237 42.2325 6.46506 42.764 6.27421C43.1384 6.13579 43.5316 6.05489 43.9302 6.03425H43.9482C45.6975 6.07624 47.0005 6.86451 47.7384 8.45663C47.778 8.54302 47.8152 8.6306 47.85 8.71699H49.8584C49.8404 8.6486 49.8224 8.58021 49.802 8.51182C49.4475 7.26342 48.701 6.16209 47.6726 5.3705C46.6442 4.57891 45.3886 4.13902 44.091 4.11578C43.7562 4.12233 43.4224 4.15522 43.0928 4.21417C41.603 4.47466 40.2709 5.29926 39.3734 6.51657C38.871 7.16657 38.4897 7.90179 38.248 8.68699C37.8977 9.85319 37.9013 11.0866 38.236 12.3692C38.254 12.4375 38.2732 12.5059 38.2924 12.5743C38.6481 13.8227 39.3955 14.9238 40.4243 15.7153C41.4532 16.5068 42.7092 16.9468 44.007 16.9704C44.3423 16.964 44.6765 16.9307 45.0065 16.8708C46.496 16.6106 47.8281 15.7864 48.7258 14.5696C49.2278 13.9195 49.6087 13.1843 49.85 12.3992H47.8104H47.802Z" fill="#13171B"/>
<path d="M30.4122 4.40251V5.6251C30.4122 5.79449 30.345 5.95697 30.2254 6.07686C30.1057 6.19676 29.9434 6.26427 29.774 6.26459H27.4944C27.4944 6.32218 27.4884 6.36297 27.4884 6.40376C27.4884 8.77216 27.4884 11.1401 27.4884 13.5077C27.4873 13.5889 27.4982 13.6697 27.5207 13.7477C27.7463 14.5012 28.2406 14.8275 28.9185 14.8275H30.2383C30.2842 14.8278 30.3282 14.8463 30.3605 14.8789C30.3929 14.9115 30.4111 14.9555 30.411 15.0015V16.668C30.4039 16.668 30.3931 16.6824 30.3835 16.6824C29.7656 16.6824 29.1441 16.7076 28.5298 16.6572C27.0696 16.5372 25.811 15.2942 25.6407 13.8401C25.6335 13.7765 25.6299 13.6721 25.6299 13.6073C25.6299 11.2245 25.6299 8.84174 25.6299 6.45895V6.27179H23.0659V4.41571L23.4079 4.39171C24.6784 4.29813 25.6587 3.70903 26.3522 2.64481C26.7717 1.97411 27.043 1.22139 27.1476 0.437195C27.1476 0.396402 27.1608 0.354409 27.1692 0.307617H29.0889C29.0349 0.57877 28.9881 0.840325 28.9305 1.09948C28.7805 1.79866 28.5385 2.47484 28.2106 3.11033C27.9587 3.58425 27.6647 4.02817 27.228 4.35812C27.2144 4.37187 27.202 4.38671 27.1908 4.40251H30.4122Z" fill="#13171B"/>
<path d="M35.4125 16.6783H33.662C33.6356 16.6783 33.6092 16.6783 33.5684 16.6783V6.27252H32.3914V4.41644H35.4125V16.6783Z" fill="#13171B"/>
<path d="M35.4125 0.307617H32.3914V2.1637H35.4125V0.307617Z" fill="#13171B"/>
<path d="M14.4354 12.1743V21.1919C14.4354 21.2479 14.4464 21.3033 14.4678 21.3549C14.4892 21.4066 14.5206 21.4536 14.5602 21.4931C14.5997 21.5327 14.6467 21.564 14.6983 21.5855C14.75 21.6069 14.8054 21.6179 14.8613 21.6179H15.6028V23.4692H13.4288C13.3163 23.4698 13.2049 23.4482 13.1009 23.4056C12.9968 23.363 12.9022 23.3003 12.8225 23.221C12.7427 23.1417 12.6795 23.0475 12.6363 22.9437C12.5931 22.8399 12.5709 22.7285 12.5709 22.6161V4.41524H14.415V5.40147C14.457 5.36428 14.4798 5.34868 14.4978 5.32828C15.1049 4.6576 15.85 4.22927 16.7534 4.14169C19.1842 3.90173 21.5022 5.34148 21.8729 7.93783C22.1453 9.8443 21.4842 11.4244 19.9089 12.5714C19.0954 13.1629 18.1572 13.4017 17.1553 13.3897C16.6548 13.3926 16.1592 13.2906 15.7005 13.0904C15.2417 12.8902 14.83 12.5961 14.4918 12.2271C14.4822 12.2115 14.4642 12.1995 14.4354 12.1743ZM17.3149 5.94258C16.7894 5.94258 16.3863 6.00737 16.0071 6.18254C15.6357 6.34675 15.3086 6.59667 15.0524 6.9118C14.7963 7.22694 14.6186 7.5983 14.5338 7.99542C14.2506 9.14122 14.5158 10.1383 15.424 10.9157C16.1331 11.5156 16.9694 11.6788 17.8716 11.4964C18.2715 11.4236 18.649 11.2587 18.9743 11.0149C19.2995 10.771 19.5636 10.4549 19.7457 10.0915C19.9846 9.62874 20.0999 9.11212 20.0804 8.59172C20.0836 7.94252 19.836 7.31715 19.3893 6.84602C19.1222 6.56381 18.8007 6.3386 18.4441 6.18395C18.0876 6.02931 17.7035 5.94842 17.3149 5.94618V5.94258Z" fill="#13171B"/>
<path d="M10.1744 0.307617H2.79932V2.1589H10.1744V0.307617Z" fill="#13171B"/>
</svg>
