<svg width="67" height="74" viewBox="0 0 67 74" fill="none" xmlns="http://www.w3.org/2000/svg">
<g filter="url(#filter0_d_2480_1953)">
<path d="M32.9408 41.718C35.7142 41.718 37.6123 40.6722 38.6349 38.5805C39.673 36.4733 40.192 34.1337 40.192 31.5617C40.192 29.2376 39.8202 27.3473 39.0764 25.8908C37.8989 23.5977 35.8692 22.4511 32.9873 22.4511C30.4307 22.4511 28.5715 23.4273 27.4094 25.3795C26.2473 27.3318 25.6663 29.6869 25.6663 32.4448C25.6663 35.0943 26.2473 37.3022 27.4094 39.0685C28.5715 40.8349 30.4153 41.718 32.9408 41.718ZM33.1035 18.8023C36.3107 18.8023 39.0222 19.8714 41.2379 22.0096C43.4535 24.1477 44.5613 27.293 44.5613 31.4455C44.5613 35.4584 43.5852 38.7742 41.633 41.3927C39.6807 44.0112 36.6516 45.3204 32.5457 45.3204C29.1215 45.3204 26.4023 44.1661 24.3881 41.8575C22.3738 39.5334 21.3667 36.4191 21.3667 32.5145C21.3667 28.3311 22.4281 24.9999 24.5507 22.5209C26.6734 20.0418 29.5243 18.8023 33.1035 18.8023Z" fill="#13171B"/>
<path d="M23.2106 22.8771L42.4176 41.7391" stroke="white" stroke-width="1.22516" stroke-linecap="round"/>
<path d="M7.13177 62.6785C6.65476 62.6785 6.21811 62.5684 5.82182 62.3482C5.43287 62.1207 5.12465 61.8015 4.89715 61.3905C4.66965 60.9722 4.55591 60.4659 4.55591 59.8714C4.55591 59.2917 4.67332 58.7927 4.90816 58.3744C5.143 57.9561 5.44388 57.6332 5.81082 57.4057C6.17775 57.1782 6.5667 57.0644 6.97766 57.0644C7.43266 57.0644 7.81794 57.1708 8.1335 57.3836C8.4564 57.5891 8.69858 57.879 8.86003 58.2533C9.02148 58.6275 9.1022 59.0679 9.1022 59.5742C9.1022 59.6696 9.09853 59.7614 9.09119 59.8494C9.09119 59.9375 9.08018 60.0256 9.05817 60.1136H5.20538V59.3981H8.28761C8.28761 58.8844 8.17386 58.4918 7.94636 58.2203C7.7262 57.9414 7.40697 57.8019 6.98867 57.8019C6.74649 57.8019 6.50799 57.8717 6.27315 58.0111C6.03831 58.1432 5.84384 58.3597 5.68973 58.6606C5.54295 58.9615 5.46957 59.3614 5.46957 59.8604C5.46957 60.3154 5.54662 60.697 5.70074 61.0053C5.86219 61.3135 6.07868 61.5483 6.35021 61.7098C6.62174 61.8639 6.91895 61.9409 7.24185 61.9409C7.49871 61.9409 7.73721 61.9043 7.95737 61.8309C8.18487 61.7575 8.39035 61.6584 8.57382 61.5337L8.90406 62.1281C8.66922 62.2895 8.40503 62.4216 8.11148 62.5244C7.82528 62.6271 7.49871 62.6785 7.13177 62.6785ZM11.8222 62.6785C11.4333 62.6785 11.0627 62.6124 10.7104 62.4803C10.3655 62.3409 10.0719 62.1501 9.82976 61.9079L10.2481 61.3795C10.4829 61.5703 10.7251 61.7171 10.9746 61.8199C11.2314 61.9226 11.525 61.974 11.8552 61.974C12.2075 61.974 12.4717 61.8932 12.6478 61.7318C12.8239 61.563 12.912 61.3649 12.912 61.1374C12.912 60.9539 12.8496 60.8035 12.7249 60.686C12.6074 60.5613 12.457 60.4585 12.2735 60.3778C12.0974 60.2898 11.9066 60.209 11.7011 60.1356C11.4369 60.0402 11.1837 59.9302 10.9416 59.8054C10.6994 59.6733 10.5012 59.5119 10.3471 59.321C10.2004 59.1229 10.127 58.8771 10.127 58.5835C10.127 58.1505 10.2884 57.7909 10.6113 57.5047C10.9416 57.2112 11.3966 57.0644 11.9763 57.0644C12.3066 57.0644 12.6148 57.1231 12.901 57.2405C13.1872 57.3506 13.433 57.4937 13.6385 57.6699L13.2202 58.1872C13.0294 58.0551 12.8349 57.9524 12.6368 57.879C12.4387 57.8056 12.2185 57.7689 11.9763 57.7689C11.6387 57.7689 11.3892 57.846 11.2278 58.0001C11.0737 58.1542 10.9966 58.334 10.9966 58.5395C10.9966 58.7009 11.0443 58.8367 11.1397 58.9468C11.2351 59.0495 11.3672 59.1413 11.536 59.222C11.7121 59.3027 11.9103 59.3798 12.1304 59.4531C12.4093 59.5559 12.6735 59.6733 12.923 59.8054C13.1799 59.9302 13.3853 60.0953 13.5394 60.3008C13.7009 60.4989 13.7816 60.7594 13.7816 61.0823C13.7816 61.3759 13.7046 61.6437 13.5505 61.8859C13.4037 62.1207 13.1835 62.3115 12.89 62.4583C12.6038 62.6051 12.2478 62.6785 11.8222 62.6785ZM16.5052 62.6455C15.9401 62.6455 15.5438 62.4803 15.3163 62.1501C15.0888 61.8199 14.975 61.3905 14.975 60.8622V57.934H14.1825V57.2515L15.0191 57.1965L15.1292 55.4793H15.8887V57.1965H17.3418V57.934H15.8887V60.8732C15.8887 61.1961 15.9474 61.4493 16.0648 61.6327C16.1896 61.8162 16.4061 61.9079 16.7143 61.9079C16.8097 61.9079 16.9088 61.9006 17.0115 61.8859C17.1143 61.8639 17.217 61.8272 17.3197 61.7758L17.5179 62.4143C17.3785 62.4803 17.2207 62.5354 17.0445 62.5794C16.8684 62.6234 16.6886 62.6455 16.5052 62.6455ZM20.1036 62.6785C19.5385 62.6785 19.1238 62.5024 18.8597 62.1501C18.6028 61.7905 18.4744 61.2695 18.4744 60.587V57.1965H19.377V60.4659C19.377 60.9649 19.4541 61.3282 19.6082 61.5557C19.7696 61.7758 20.0265 61.8859 20.3788 61.8859C20.6503 61.8859 20.8925 61.8162 21.1053 61.6768C21.3254 61.53 21.5639 61.3025 21.8208 60.9943V57.1965H22.7235V62.5464H21.9749L21.8979 61.7098H21.8648C21.6227 62.0033 21.3585 62.2382 21.0723 62.4143C20.7934 62.5904 20.4705 62.6785 20.1036 62.6785ZM26.3555 62.6785C25.6803 62.6785 25.1409 62.4363 24.7373 61.952C24.341 61.4603 24.1429 60.7704 24.1429 59.8825C24.1429 59.3027 24.2493 58.8037 24.4621 58.3854C24.6823 57.9597 24.9685 57.6332 25.3207 57.4057C25.673 57.1782 26.0546 57.0644 26.4656 57.0644C26.7811 57.0644 27.049 57.1195 27.2691 57.2295C27.4966 57.3323 27.7278 57.4827 27.9627 57.6809L27.9186 56.7672V54.7087H28.8323V62.5464H28.0837L28.0067 61.9189H27.9737C27.7682 62.1244 27.526 62.3042 27.2471 62.4583C26.9683 62.6051 26.671 62.6785 26.3555 62.6785ZM26.5536 61.9189C26.8031 61.9189 27.038 61.8566 27.2581 61.7318C27.4783 61.607 27.6985 61.4236 27.9186 61.1814V58.3854C27.6985 58.1799 27.482 58.0368 27.2691 57.9561C27.0563 57.868 26.8398 57.824 26.6197 57.824C26.3335 57.824 26.0729 57.912 25.8381 58.0882C25.6106 58.2569 25.4271 58.4955 25.2877 58.8037C25.1483 59.1046 25.0786 59.4605 25.0786 59.8714C25.0786 60.5099 25.207 61.0126 25.4638 61.3795C25.7207 61.7391 26.084 61.9189 26.5536 61.9189ZM30.6341 62.5464V57.1965H31.5368V62.5464H30.6341ZM31.0855 56.0957C30.9093 56.0957 30.7626 56.0407 30.6452 55.9306C30.5351 55.8205 30.48 55.6774 30.48 55.5013C30.48 55.3252 30.5351 55.182 30.6452 55.072C30.7626 54.9619 30.9093 54.9069 31.0855 54.9069C31.2616 54.9069 31.4047 54.9619 31.5148 55.072C31.6322 55.182 31.6909 55.3252 31.6909 55.5013C31.6909 55.6774 31.6322 55.8205 31.5148 55.9306C31.4047 56.0407 31.2616 56.0957 31.0855 56.0957ZM35.4237 62.6785C34.9907 62.6785 34.5834 62.5684 34.2018 62.3482C33.8275 62.1281 33.5229 61.8089 33.2881 61.3905C33.0606 60.9722 32.9469 60.4695 32.9469 59.8825C32.9469 59.2807 33.0606 58.7707 33.2881 58.3523C33.5229 57.934 33.8275 57.6148 34.2018 57.3947C34.5834 57.1745 34.9907 57.0644 35.4237 57.0644C35.864 57.0644 36.2713 57.1745 36.6455 57.3947C37.0198 57.6148 37.3207 57.934 37.5482 58.3523C37.783 58.7707 37.9004 59.2807 37.9004 59.8825C37.9004 60.4695 37.783 60.9722 37.5482 61.3905C37.3207 61.8089 37.0198 62.1281 36.6455 62.3482C36.2713 62.5684 35.864 62.6785 35.4237 62.6785ZM35.4237 61.9299C35.7319 61.9299 36.0034 61.8455 36.2382 61.6768C36.4731 61.5006 36.6529 61.2585 36.7776 60.9502C36.9024 60.642 36.9648 60.2861 36.9648 59.8825C36.9648 59.4715 36.9024 59.1119 36.7776 58.8037C36.6529 58.4881 36.4731 58.2459 36.2382 58.0771C36.0034 57.901 35.7319 57.813 35.4237 57.813C35.1154 57.813 34.8439 57.901 34.6091 58.0771C34.3816 58.2459 34.2018 58.4881 34.0697 58.8037C33.9449 59.1119 33.8825 59.4715 33.8825 59.8825C33.8825 60.2861 33.9449 60.642 34.0697 60.9502C34.2018 61.2585 34.3816 61.5006 34.6091 61.6768C34.8439 61.8455 35.1154 61.9299 35.4237 61.9299ZM39.3094 62.5464V57.1965H40.0579L40.135 58.1652H40.168C40.3441 57.8276 40.5643 57.5598 40.8285 57.3616C41.0927 57.1635 41.3789 57.0644 41.6871 57.0644C41.8045 57.0644 41.9073 57.0718 41.9953 57.0864C42.0834 57.1011 42.1715 57.1305 42.2595 57.1745L42.0614 57.9451C41.9807 57.923 41.9036 57.9084 41.8302 57.901C41.7642 57.8863 41.6761 57.879 41.566 57.879C41.3385 57.879 41.1 57.9707 40.8505 58.1542C40.6083 58.3377 40.3955 58.6569 40.212 59.1119V62.5464H39.3094ZM43.1256 62.5464V57.1965H43.8742L43.9512 58.1652H43.9842C44.1604 57.8276 44.3805 57.5598 44.6447 57.3616C44.9089 57.1635 45.1951 57.0644 45.5033 57.0644C45.6208 57.0644 45.7235 57.0718 45.8116 57.0864C45.8996 57.1011 45.9877 57.1305 46.0758 57.1745L45.8776 57.9451C45.7969 57.923 45.7198 57.9084 45.6465 57.901C45.5804 57.8863 45.4923 57.879 45.3823 57.879C45.1548 57.879 44.9163 57.9707 44.6667 58.1542C44.4246 58.3377 44.2117 58.6569 44.0283 59.1119V62.5464H43.1256ZM49.0029 62.6785C48.5259 62.6785 48.0893 62.5684 47.693 62.3482C47.304 62.1207 46.9958 61.8015 46.7683 61.3905C46.5408 60.9722 46.4271 60.4659 46.4271 59.8714C46.4271 59.2917 46.5445 58.7927 46.7793 58.3744C47.0142 57.9561 47.315 57.6332 47.682 57.4057C48.0489 57.1782 48.4379 57.0644 48.8488 57.0644C49.3038 57.0644 49.6891 57.1708 50.0047 57.3836C50.3276 57.5891 50.5697 57.879 50.7312 58.2533C50.8926 58.6275 50.9734 59.0679 50.9734 59.5742C50.9734 59.6696 50.9697 59.7614 50.9624 59.8494C50.9624 59.9375 50.9514 60.0256 50.9293 60.1136H47.0765V59.3981H50.1588C50.1588 58.8844 50.045 58.4918 49.8175 58.2203C49.5974 57.9414 49.2781 57.8019 48.8598 57.8019C48.6177 57.8019 48.3792 57.8717 48.1443 58.0111C47.9095 58.1432 47.715 58.3597 47.5609 58.6606C47.4141 58.9615 47.3407 59.3614 47.3407 59.8604C47.3407 60.3154 47.4178 60.697 47.5719 61.0053C47.7334 61.3135 47.9498 61.5483 48.2214 61.7098C48.4929 61.8639 48.7901 61.9409 49.113 61.9409C49.3699 61.9409 49.6084 61.9043 49.8285 61.8309C50.056 61.7575 50.2615 61.6584 50.445 61.5337L50.7752 62.1281C50.5404 62.2895 50.2762 62.4216 49.9826 62.5244C49.6964 62.6271 49.3699 62.6785 49.0029 62.6785ZM53.9932 65.0122C53.5602 65.0122 53.1749 64.9535 52.8373 64.836C52.5071 64.726 52.2466 64.5645 52.0558 64.3517C51.8723 64.1389 51.7806 63.8784 51.7806 63.5701C51.7806 63.3426 51.8503 63.1225 51.9897 62.9096C52.1291 62.7042 52.32 62.5207 52.5621 62.3593V62.3152C52.43 62.2272 52.3163 62.1134 52.2209 61.974C52.1328 61.8272 52.0888 61.6511 52.0888 61.4456C52.0888 61.2181 52.1512 61.0199 52.2759 60.8512C52.408 60.6824 52.5401 60.5503 52.6722 60.4549V60.4108C52.5034 60.2641 52.3456 60.0659 52.1989 59.8164C52.0521 59.5669 51.9787 59.2844 51.9787 58.9688C51.9787 58.5798 52.0704 58.2423 52.2539 57.9561C52.4447 57.6699 52.6906 57.4497 52.9914 57.2956C53.2997 57.1415 53.6336 57.0644 53.9932 57.0644C54.1399 57.0644 54.2794 57.0791 54.4115 57.1084C54.5436 57.1305 54.6573 57.1598 54.7527 57.1965H56.6131V57.89H55.5013V57.934C55.6334 58.0515 55.7398 58.1982 55.8205 58.3744C55.9086 58.5505 55.9526 58.7596 55.9526 59.0018C55.9526 59.3834 55.8645 59.7137 55.6884 59.9925C55.5123 60.2641 55.2774 60.4769 54.9839 60.631C54.6903 60.7778 54.3601 60.8512 53.9932 60.8512C53.8611 60.8512 53.7253 60.8365 53.5859 60.8071C53.4464 60.7704 53.3143 60.7227 53.1896 60.664C53.1015 60.7447 53.0208 60.8328 52.9474 60.9282C52.8814 61.0236 52.8483 61.1484 52.8483 61.3025C52.8483 61.4713 52.9144 61.6107 53.0465 61.7208C53.1859 61.8309 53.4354 61.8859 53.795 61.8859H54.8298C55.4536 61.8859 55.9196 61.9886 56.2278 62.1941C56.5433 62.3923 56.7011 62.7152 56.7011 63.1628C56.7011 63.4931 56.591 63.7976 56.3709 64.0765C56.1507 64.3554 55.8352 64.5792 55.4242 64.748C55.0206 64.9241 54.5436 65.0122 53.9932 65.0122ZM53.9932 60.2457C54.1986 60.2457 54.3858 60.1943 54.5546 60.0916C54.7307 59.9815 54.8701 59.8311 54.9729 59.6403C55.0756 59.4495 55.127 59.2256 55.127 58.9688C55.127 58.5725 55.0169 58.268 54.7967 58.0551C54.5766 57.835 54.3087 57.7249 53.9932 57.7249C53.6776 57.7249 53.4097 57.835 53.1896 58.0551C52.9694 58.268 52.8593 58.5725 52.8593 58.9688C52.8593 59.2256 52.9107 59.4495 53.0135 59.6403C53.1162 59.8311 53.252 59.9815 53.4207 60.0916C53.5969 60.1943 53.7877 60.2457 53.9932 60.2457ZM54.1253 64.3847C54.4628 64.3847 54.7564 64.3333 55.0059 64.2306C55.2628 64.1279 55.4609 63.9921 55.6003 63.8233C55.7471 63.6545 55.8205 63.4784 55.8205 63.2949C55.8205 63.0454 55.7251 62.873 55.5343 62.7776C55.3508 62.6822 55.0866 62.6345 54.7417 62.6345H53.817C53.7143 62.6345 53.6005 62.6271 53.4758 62.6124C53.3584 62.5978 53.241 62.5757 53.1235 62.5464C52.9254 62.6858 52.7823 62.8326 52.6942 62.9867C52.6135 63.1408 52.5731 63.2949 52.5731 63.449C52.5731 63.7352 52.7089 63.9627 52.9804 64.1315C53.2593 64.3003 53.6409 64.3847 54.1253 64.3847ZM59.6649 62.6785C59.2319 62.6785 58.8246 62.5684 58.443 62.3482C58.0687 62.1281 57.7641 61.8089 57.5293 61.3905C57.3018 60.9722 57.1881 60.4695 57.1881 59.8825C57.1881 59.2807 57.3018 58.7707 57.5293 58.3523C57.7641 57.934 58.0687 57.6148 58.443 57.3947C58.8246 57.1745 59.2319 57.0644 59.6649 57.0644C60.1052 57.0644 60.5125 57.1745 60.8867 57.3947C61.261 57.6148 61.5619 57.934 61.7894 58.3523C62.0242 58.7707 62.1416 59.2807 62.1416 59.8825C62.1416 60.4695 62.0242 60.9722 61.7894 61.3905C61.5619 61.8089 61.261 62.1281 60.8867 62.3482C60.5125 62.5684 60.1052 62.6785 59.6649 62.6785ZM59.6649 61.9299C59.9731 61.9299 60.2446 61.8455 60.4794 61.6768C60.7143 61.5006 60.8941 61.2585 61.0188 60.9502C61.1436 60.642 61.206 60.2861 61.206 59.8825C61.206 59.4715 61.1436 59.1119 61.0188 58.8037C60.8941 58.4881 60.7143 58.2459 60.4794 58.0771C60.2446 57.901 59.9731 57.813 59.6649 57.813C59.3566 57.813 59.0851 57.901 58.8503 58.0771C58.6228 58.2459 58.443 58.4881 58.3109 58.8037C58.1861 59.1119 58.1237 59.4715 58.1237 59.8825C58.1237 60.2861 58.1861 60.642 58.3109 60.9502C58.443 61.2585 58.6228 61.5006 58.8503 61.6768C59.0851 61.8455 59.3566 61.9299 59.6649 61.9299Z" fill="#13171B"/>
</g>
<defs>
<filter id="filter0_d_2480_1953" x="0.555908" y="18.8023" width="65.5857" height="54.2098" filterUnits="userSpaceOnUse" color-interpolation-filters="sRGB">
<feFlood flood-opacity="0" result="BackgroundImageFix"/>
<feColorMatrix in="SourceAlpha" type="matrix" values="0 0 0 0 0 0 0 0 0 0 0 0 0 0 0 0 0 0 127 0" result="hardAlpha"/>
<feOffset dy="4"/>
<feGaussianBlur stdDeviation="2"/>
<feComposite in2="hardAlpha" operator="out"/>
<feColorMatrix type="matrix" values="0 0 0 0 0 0 0 0 0 0 0 0 0 0 0 0 0 0 0.25 0"/>
<feBlend mode="normal" in2="BackgroundImageFix" result="effect1_dropShadow_2480_1953"/>
<feBlend mode="normal" in="SourceGraphic" in2="effect1_dropShadow_2480_1953" result="shape"/>
</filter>
</defs>
</svg>
