<svg width="100" height="113" viewBox="0 0 100 113" fill="none" xmlns="http://www.w3.org/2000/svg">
<path d="M48.8386 69.9789C53.5218 69.9789 56.7268 68.2128 58.4536 64.6808C60.2065 61.1226 61.083 57.172 61.083 52.8289C61.083 48.9044 60.455 45.7125 59.1992 43.2532C57.2108 39.381 53.7834 37.4449 48.9171 37.4449C44.6002 37.4449 41.4606 39.0932 39.4983 42.3898C37.5361 45.6863 36.555 49.6631 36.555 54.3202C36.555 58.7941 37.5361 62.5223 39.4983 65.505C41.4606 68.4876 44.574 69.9789 48.8386 69.9789ZM49.1133 31.2835C54.5291 31.2835 59.1076 33.0888 62.849 36.6993C66.5903 40.3098 68.461 45.6209 68.461 52.6327C68.461 59.4089 66.8127 65.0078 63.5161 69.4294C60.2196 73.851 55.1047 76.0618 48.1714 76.0618C42.3894 76.0618 37.7977 74.1126 34.3965 70.2143C30.9953 66.2898 29.2947 61.031 29.2947 54.4379C29.2947 47.3739 31.0869 41.7488 34.6712 37.5627C38.2556 33.3766 43.0696 31.2835 49.1133 31.2835Z" fill="#13171B"/>
<path d="M32.4085 38.4629L64.8413 70.3132" stroke="white" stroke-width="2.0688" stroke-linecap="round"/>
<path d="M5.25755 106.096C4.45207 106.096 3.71475 105.91 3.04558 105.538C2.38881 105.154 1.86834 104.615 1.48419 103.921C1.10004 103.215 0.907962 102.36 0.907962 101.356C0.907962 100.377 1.10623 99.5345 1.50278 98.8282C1.89932 98.1219 2.40739 97.5766 3.02699 97.1925C3.64659 96.8083 4.30337 96.6162 4.99732 96.6162C5.76562 96.6162 6.4162 96.7959 6.94906 97.1553C7.49431 97.5023 7.90324 97.9917 8.17587 98.6237C8.44849 99.2557 8.5848 99.9992 8.5848 100.854C8.5848 101.015 8.57861 101.17 8.56621 101.319C8.56621 101.468 8.54763 101.616 8.51045 101.765H2.00465V100.557H7.20929C7.20929 99.6894 7.01722 99.0265 6.63306 98.568C6.2613 98.0971 5.72225 97.8616 5.01591 97.8616C4.60697 97.8616 4.20423 97.9793 3.80769 98.2148C3.41115 98.4379 3.08276 98.8034 2.82253 99.3115C2.57469 99.8196 2.45077 100.495 2.45077 101.338C2.45077 102.106 2.58088 102.75 2.84111 103.271C3.11374 103.791 3.4793 104.188 3.9378 104.46C4.39631 104.721 4.89818 104.851 5.44343 104.851C5.87715 104.851 6.27989 104.789 6.65165 104.665C7.0358 104.541 7.38278 104.374 7.69258 104.163L8.25022 105.167C7.85367 105.439 7.40756 105.662 6.91188 105.836C6.4286 106.009 5.87715 106.096 5.25755 106.096ZM13.1778 106.096C12.521 106.096 11.8952 105.985 11.3004 105.762C10.718 105.526 10.2223 105.204 9.81335 104.795L10.5197 103.903C10.9162 104.225 11.3252 104.473 11.7465 104.646C12.1802 104.82 12.6759 104.906 13.2335 104.906C13.8284 104.906 14.2745 104.77 14.5719 104.498C14.8693 104.213 15.018 103.878 15.018 103.494C15.018 103.184 14.9127 102.93 14.702 102.732C14.5037 102.521 14.2497 102.348 13.9399 102.211C13.6425 102.063 13.3203 101.926 12.9733 101.802C12.5272 101.641 12.0997 101.455 11.6907 101.245C11.2818 101.022 10.9472 100.749 10.687 100.427C10.4391 100.092 10.3152 99.677 10.3152 99.1814C10.3152 98.4502 10.5879 97.843 11.1331 97.3597C11.6907 96.8641 12.459 96.6162 13.438 96.6162C13.9957 96.6162 14.5161 96.7154 14.9994 96.9136C15.4827 97.0995 15.8978 97.3412 16.2448 97.6386L15.5385 98.5122C15.2163 98.2891 14.8879 98.1157 14.5533 97.9917C14.2187 97.8678 13.8469 97.8059 13.438 97.8059C12.868 97.8059 12.4467 97.936 12.174 98.1962C11.9138 98.4564 11.7837 98.76 11.7837 99.107C11.7837 99.3796 11.8642 99.6089 12.0253 99.7948C12.1864 99.9683 12.4095 100.123 12.6945 100.259C12.9919 100.396 13.3265 100.526 13.6982 100.65C14.1691 100.823 14.6152 101.022 15.0366 101.245C15.4703 101.455 15.8173 101.734 16.0775 102.081C16.3501 102.416 16.4864 102.856 16.4864 103.401C16.4864 103.897 16.3563 104.349 16.0961 104.758C15.8483 105.154 15.4765 105.477 14.9808 105.724C14.4975 105.972 13.8965 106.096 13.1778 106.096ZM21.0854 106.04C20.1312 106.04 19.462 105.762 19.0779 105.204C18.6937 104.646 18.5016 103.921 18.5016 103.029V98.0847H17.1633V96.9322L18.576 96.8393L18.7619 93.9396H20.0444V96.8393H22.4981V98.0847H20.0444V103.048C20.0444 103.593 20.1436 104.02 20.3419 104.33C20.5525 104.64 20.9181 104.795 21.4385 104.795C21.5996 104.795 21.7669 104.783 21.9404 104.758C22.1139 104.721 22.2874 104.659 22.4609 104.572L22.7955 105.65C22.56 105.762 22.2936 105.854 21.9962 105.929C21.6988 106.003 21.3952 106.04 21.0854 106.04ZM27.1616 106.096C26.2074 106.096 25.5073 105.799 25.0612 105.204C24.6274 104.597 24.4106 103.717 24.4106 102.564V96.8393H25.9348V102.36C25.9348 103.203 26.0649 103.816 26.3252 104.2C26.5978 104.572 27.0315 104.758 27.6263 104.758C28.0848 104.758 28.4937 104.64 28.8531 104.405C29.2249 104.157 29.6276 103.773 30.0613 103.252V96.8393H31.5856V105.873H30.3216L30.1915 104.46H30.1357C29.7268 104.956 29.2806 105.353 28.7974 105.65C28.3265 105.947 27.7812 106.096 27.1616 106.096ZM37.7186 106.096C36.5785 106.096 35.6677 105.687 34.9861 104.869C34.317 104.039 33.9824 102.874 33.9824 101.375C33.9824 100.396 34.1621 99.5531 34.5214 98.8468C34.8932 98.1281 35.3765 97.5766 35.9713 97.1925C36.5661 96.8083 37.2105 96.6162 37.9045 96.6162C38.4373 96.6162 38.8896 96.7092 39.2614 96.895C39.6455 97.0685 40.0359 97.3226 40.4324 97.6572L40.3581 96.1144V92.6384H41.9009V105.873H40.6369L40.5068 104.814H40.451C40.104 105.161 39.6951 105.464 39.2242 105.724C38.7533 105.972 38.2514 106.096 37.7186 106.096ZM38.0532 104.814C38.4745 104.814 38.871 104.708 39.2428 104.498C39.6145 104.287 39.9863 103.977 40.3581 103.568V98.8468C39.9863 98.4998 39.6207 98.2582 39.2614 98.1219C38.902 97.9732 38.5364 97.8988 38.1647 97.8988C37.6814 97.8988 37.2415 98.0475 36.8449 98.3449C36.4608 98.6299 36.151 99.0327 35.9155 99.5531C35.6801 100.061 35.5624 100.662 35.5624 101.356C35.5624 102.434 35.7792 103.283 36.2129 103.903C36.6467 104.51 37.2601 104.814 38.0532 104.814ZM44.9435 105.873V96.8393H46.4677V105.873H44.9435ZM45.7056 94.9805C45.4082 94.9805 45.1604 94.8875 44.9621 94.7017C44.7762 94.5158 44.6833 94.2741 44.6833 93.9767C44.6833 93.6793 44.7762 93.4377 44.9621 93.2518C45.1604 93.0659 45.4082 92.973 45.7056 92.973C46.003 92.973 46.2447 93.0659 46.4305 93.2518C46.6288 93.4377 46.7279 93.6793 46.7279 93.9767C46.7279 94.2741 46.6288 94.5158 46.4305 94.7017C46.2447 94.8875 46.003 94.9805 45.7056 94.9805ZM53.031 106.096C52.2999 106.096 51.6121 105.91 50.9677 105.538C50.3358 105.167 49.8215 104.628 49.4249 103.921C49.0408 103.215 48.8487 102.366 48.8487 101.375C48.8487 100.359 49.0408 99.4974 49.4249 98.791C49.8215 98.0847 50.3358 97.5456 50.9677 97.1739C51.6121 96.8021 52.2999 96.6162 53.031 96.6162C53.7745 96.6162 54.4623 96.8021 55.0943 97.1739C55.7263 97.5456 56.2343 98.0847 56.6185 98.791C57.015 99.4974 57.2133 100.359 57.2133 101.375C57.2133 102.366 57.015 103.215 56.6185 103.921C56.2343 104.628 55.7263 105.167 55.0943 105.538C54.4623 105.91 53.7745 106.096 53.031 106.096ZM53.031 104.832C53.5515 104.832 54.01 104.69 54.4065 104.405C54.8031 104.107 55.1067 103.698 55.3173 103.178C55.528 102.657 55.6333 102.056 55.6333 101.375C55.6333 100.681 55.528 100.074 55.3173 99.5531C55.1067 99.0203 54.8031 98.6113 54.4065 98.3263C54.01 98.0289 53.5515 97.8802 53.031 97.8802C52.5105 97.8802 52.052 98.0289 51.6555 98.3263C51.2713 98.6113 50.9677 99.0203 50.7447 99.5531C50.534 100.074 50.4287 100.681 50.4287 101.375C50.4287 102.056 50.534 102.657 50.7447 103.178C50.9677 103.698 51.2713 104.107 51.6555 104.405C52.052 104.69 52.5105 104.832 53.031 104.832ZM59.5924 105.873V96.8393H60.8564L60.9865 98.475H61.0423C61.3397 97.905 61.7115 97.4527 62.1576 97.1181C62.6037 96.7835 63.087 96.6162 63.6074 96.6162C63.8057 96.6162 63.9792 96.6286 64.1279 96.6534C64.2766 96.6782 64.4253 96.7278 64.574 96.8021L64.2394 98.1033C64.1031 98.0661 63.973 98.0413 63.8491 98.0289C63.7375 98.0041 63.5888 97.9917 63.403 97.9917C63.0188 97.9917 62.6161 98.1466 62.1947 98.4564C61.7858 98.7662 61.4264 99.3053 61.1166 100.074V105.873H59.5924ZM66.0365 105.873V96.8393H67.3005L67.4306 98.475H67.4864C67.7838 97.905 68.1555 97.4527 68.6016 97.1181C69.0478 96.7835 69.531 96.6162 70.0515 96.6162C70.2498 96.6162 70.4233 96.6286 70.572 96.6534C70.7207 96.6782 70.8694 96.7278 71.0181 96.8021L70.6835 98.1033C70.5472 98.0661 70.4171 98.0413 70.2932 98.0289C70.1816 98.0041 70.0329 97.9917 69.847 97.9917C69.4629 97.9917 69.0602 98.1466 68.6388 98.4564C68.2299 98.7662 67.8705 99.3053 67.5607 100.074V105.873H66.0365ZM75.9609 106.096C75.1554 106.096 74.4181 105.91 73.7489 105.538C73.0921 105.154 72.5717 104.615 72.1875 103.921C71.8034 103.215 71.6113 102.36 71.6113 101.356C71.6113 100.377 71.8096 99.5345 72.2061 98.8282C72.6027 98.1219 73.1107 97.5766 73.7303 97.1925C74.3499 96.8083 75.0067 96.6162 75.7007 96.6162C76.469 96.6162 77.1195 96.7959 77.6524 97.1553C78.1976 97.5023 78.6066 97.9917 78.8792 98.6237C79.1518 99.2557 79.2881 99.9992 79.2881 100.854C79.2881 101.015 79.2819 101.17 79.2696 101.319C79.2696 101.468 79.251 101.616 79.2138 101.765H72.708V100.557H77.9126C77.9126 99.6894 77.7206 99.0265 77.3364 98.568C76.9646 98.0971 76.4256 97.8616 75.7192 97.8616C75.3103 97.8616 74.9076 97.9793 74.511 98.2148C74.1145 98.4379 73.7861 98.8034 73.5259 99.3115C73.278 99.8196 73.1541 100.495 73.1541 101.338C73.1541 102.106 73.2842 102.75 73.5445 103.271C73.8171 103.791 74.1826 104.188 74.6411 104.46C75.0996 104.721 75.6015 104.851 76.1468 104.851C76.5805 104.851 76.9832 104.789 77.355 104.665C77.7391 104.541 78.0861 104.374 78.3959 104.163L78.9536 105.167C78.557 105.439 78.1109 105.662 77.6152 105.836C77.1319 106.009 76.5805 106.096 75.9609 106.096ZM84.3874 110.037C83.6562 110.037 83.0056 109.938 82.4356 109.739C81.878 109.553 81.4381 109.281 81.1159 108.921C80.8061 108.562 80.6512 108.122 80.6512 107.602C80.6512 107.218 80.7689 106.846 81.0043 106.486C81.2398 106.139 81.562 105.83 81.9709 105.557V105.483C81.7479 105.334 81.5558 105.142 81.3947 104.906C81.246 104.659 81.1716 104.361 81.1716 104.014C81.1716 103.63 81.277 103.296 81.4876 103.01C81.7107 102.725 81.9337 102.502 82.1568 102.341V102.267C81.8718 102.019 81.6053 101.685 81.3575 101.263C81.1097 100.842 80.9857 100.365 80.9857 99.8319C80.9857 99.1752 81.1406 98.6051 81.4504 98.1219C81.7726 97.6386 82.1878 97.2668 82.6958 97.0066C83.2163 96.7463 83.7801 96.6162 84.3874 96.6162C84.6352 96.6162 84.8706 96.641 85.0937 96.6906C85.3168 96.7278 85.5088 96.7773 85.6699 96.8393H88.8113V98.0103H86.9339V98.0847C87.157 98.283 87.3366 98.5308 87.473 98.8282C87.6217 99.1256 87.696 99.4788 87.696 99.8877C87.696 100.532 87.5473 101.09 87.2499 101.561C86.9525 102.019 86.5559 102.379 86.0603 102.639C85.5646 102.887 85.007 103.01 84.3874 103.01C84.1643 103.01 83.935 102.986 83.6996 102.936C83.4641 102.874 83.2411 102.794 83.0304 102.695C82.8817 102.831 82.7454 102.98 82.6215 103.141C82.51 103.302 82.4542 103.512 82.4542 103.773C82.4542 104.058 82.5657 104.293 82.7888 104.479C83.0242 104.665 83.4456 104.758 84.0528 104.758H85.8C86.8534 104.758 87.6402 104.931 88.1607 105.278C88.6936 105.613 88.96 106.158 88.96 106.914C88.96 107.472 88.7741 107.986 88.4024 108.457C88.0306 108.928 87.4977 109.306 86.8038 109.591C86.1222 109.888 85.3168 110.037 84.3874 110.037ZM84.3874 101.988C84.7343 101.988 85.0503 101.901 85.3353 101.728C85.6327 101.542 85.8682 101.288 86.0417 100.966C86.2152 100.644 86.3019 100.266 86.3019 99.8319C86.3019 99.1628 86.116 98.6485 85.7443 98.2891C85.3725 97.9174 84.9202 97.7315 84.3874 97.7315C83.8545 97.7315 83.4022 97.9174 83.0304 98.2891C82.6587 98.6485 82.4728 99.1628 82.4728 99.8319C82.4728 100.266 82.5595 100.644 82.733 100.966C82.9065 101.288 83.1358 101.542 83.4208 101.728C83.7182 101.901 84.0404 101.988 84.3874 101.988ZM84.6104 108.977C85.1804 108.977 85.6761 108.89 86.0974 108.717C86.5312 108.544 86.8657 108.314 87.1012 108.029C87.349 107.744 87.473 107.447 87.473 107.137C87.473 106.716 87.3119 106.424 86.9897 106.263C86.6799 106.102 86.2338 106.022 85.6513 106.022H84.0899C83.9165 106.022 83.7244 106.009 83.5137 105.985C83.3154 105.96 83.1172 105.923 82.9189 105.873C82.5843 106.108 82.3427 106.356 82.194 106.617C82.0577 106.877 81.9895 107.137 81.9895 107.397C81.9895 107.881 82.2188 108.265 82.6773 108.55C83.1482 108.835 83.7925 108.977 84.6104 108.977ZM93.9645 106.096C93.2334 106.096 92.5456 105.91 91.9013 105.538C91.2693 105.167 90.755 104.628 90.3585 103.921C89.9743 103.215 89.7822 102.366 89.7822 101.375C89.7822 100.359 89.9743 99.4974 90.3585 98.791C90.755 98.0847 91.2693 97.5456 91.9013 97.1739C92.5456 96.8021 93.2334 96.6162 93.9645 96.6162C94.708 96.6162 95.3958 96.8021 96.0278 97.1739C96.6598 97.5456 97.1679 98.0847 97.552 98.791C97.9485 99.4974 98.1468 100.359 98.1468 101.375C98.1468 102.366 97.9485 103.215 97.552 103.921C97.1679 104.628 96.6598 105.167 96.0278 105.538C95.3958 105.91 94.708 106.096 93.9645 106.096ZM93.9645 104.832C94.485 104.832 94.9435 104.69 95.34 104.405C95.7366 104.107 96.0402 103.698 96.2508 103.178C96.4615 102.657 96.5668 102.056 96.5668 101.375C96.5668 100.681 96.4615 100.074 96.2508 99.5531C96.0402 99.0203 95.7366 98.6113 95.34 98.3263C94.9435 98.0289 94.485 97.8802 93.9645 97.8802C93.4441 97.8802 92.9856 98.0289 92.589 98.3263C92.2049 98.6113 91.9013 99.0203 91.6782 99.5531C91.4675 100.074 91.3622 100.681 91.3622 101.375C91.3622 102.056 91.4675 102.657 91.6782 103.178C91.9013 103.698 92.2049 104.107 92.589 104.405C92.9856 104.69 93.4441 104.832 93.9645 104.832Z" fill="#13171B"/>
</svg>
