<svg width="84" height="32" viewBox="0 0 84 32" fill="none" xmlns="http://www.w3.org/2000/svg">
<path d="M0.631601 18.6875L3.28824 6.17658H4.97181L7.6439 18.6875H5.99122L5.41973 15.5366H2.87121L2.26883 18.6875H0.631601ZM3.10289 14.2855H5.18805L4.13775 8.64787L3.10289 14.2855ZM8.91333 18.6875V6.17658H10.1026L13.6551 14.4863V6.17658H15.107V18.6875H13.9949L10.3961 10.1461V18.6875H8.91333ZM17.0735 18.6875V6.17658H19.792C20.7187 6.17658 21.4498 6.32074 21.9852 6.60905C22.531 6.88707 22.9171 7.30925 23.1437 7.87559C23.3805 8.44193 23.4989 9.14728 23.4989 9.99164V14.5944C23.4989 15.48 23.3805 16.2265 23.1437 16.834C22.9171 17.4416 22.5413 17.9049 22.0161 18.2241C21.5013 18.533 20.8062 18.6875 19.931 18.6875H17.0735ZM18.8189 17.4364H19.8074C20.4458 17.4364 20.8989 17.3128 21.1666 17.0657C21.4343 16.8186 21.594 16.4582 21.6454 15.9845C21.7072 15.5109 21.7381 14.9394 21.7381 14.2701V10.2079C21.7381 9.55916 21.6969 9.03401 21.6145 8.63242C21.5322 8.23084 21.352 7.93737 21.074 7.75203C20.7959 7.56668 20.3583 7.47401 19.7611 7.47401H18.8189V17.4364ZM25.2187 18.6875V6.17658H27.7363C28.5704 6.17658 29.2603 6.28984 29.806 6.51638C30.3518 6.73262 30.7533 7.08787 31.0108 7.58212C31.2785 8.06609 31.4124 8.7045 31.4124 9.49738C31.4124 9.98134 31.3609 10.4241 31.2579 10.8257C31.1549 11.217 30.9902 11.5516 30.7636 11.8297C30.5371 12.0974 30.2385 12.293 29.8678 12.4166L31.644 18.6875H29.9605L28.3232 12.8182H26.964V18.6875H25.2187ZM26.964 11.5671H27.6282C28.1224 11.5671 28.524 11.5053 28.8329 11.3817C29.1419 11.2582 29.3684 11.0471 29.5125 10.7485C29.6567 10.4499 29.7288 10.0328 29.7288 9.49738C29.7288 8.76629 29.5949 8.24114 29.3272 7.92193C29.0595 7.59242 28.5292 7.42767 27.7363 7.42767H26.964V11.5671ZM33.2281 18.6875V6.17658H38.078V7.47401H34.9734V11.6134H37.491V12.8491H34.9734V17.4364H38.1089V18.6875H33.2281ZM35.2823 5.43519L36.1936 2.37696H37.8463L36.1164 5.43519H35.2823ZM42.468 18.8265C41.7472 18.8265 41.1448 18.6721 40.6609 18.3631C40.1872 18.0542 39.8268 17.6269 39.5797 17.0812C39.3326 16.5354 39.1884 15.9021 39.1472 15.1814L40.6918 14.7643C40.7227 15.2071 40.7896 15.6344 40.8926 16.0463C41.0058 16.4582 41.186 16.798 41.4332 17.0657C41.6803 17.3231 42.0252 17.4519 42.468 17.4519C42.9211 17.4519 43.2609 17.3283 43.4874 17.0812C43.7243 16.8237 43.8427 16.4582 43.8427 15.9845C43.8427 15.4182 43.714 14.9651 43.4565 14.6253C43.1991 14.2752 42.8748 13.9251 42.4835 13.575L40.3829 11.7215C39.971 11.3611 39.6672 10.9699 39.4716 10.5477C39.2759 10.1152 39.1781 9.5849 39.1781 8.95678C39.1781 8.04034 39.4407 7.32985 39.9658 6.82529C40.491 6.32074 41.2066 6.06846 42.1128 6.06846C42.607 6.06846 43.0395 6.13539 43.4102 6.26925C43.7912 6.39281 44.1052 6.58846 44.3524 6.85618C44.6098 7.12391 44.8106 7.46371 44.9548 7.87559C45.1092 8.27718 45.2122 8.75084 45.2637 9.29658L43.7809 9.69817C43.75 9.28629 43.6882 8.91045 43.5955 8.57064C43.5029 8.22054 43.3381 7.94252 43.1013 7.73658C42.8747 7.52034 42.5452 7.41222 42.1128 7.41222C41.6803 7.41222 41.3405 7.53064 41.0934 7.76747C40.8565 7.99401 40.7381 8.33381 40.7381 8.78688C40.7381 9.16787 40.7999 9.48193 40.9235 9.72906C41.0573 9.97619 41.2684 10.2285 41.5567 10.4859L43.6728 12.3394C44.1464 12.7512 44.5635 13.2455 44.9239 13.8221C45.2843 14.3885 45.4645 15.0629 45.4645 15.8455C45.4645 16.4633 45.3357 16.9988 45.0783 17.4519C44.8209 17.8946 44.4656 18.2344 44.0126 18.4713C43.5698 18.7081 43.0549 18.8265 42.468 18.8265ZM50.317 18.6875L50.5487 6.17658H52.2632L54.4719 16.3243L56.6961 6.17658H58.3951L58.6267 18.6875H57.2212L57.0822 9.6055L54.9661 18.6875H53.9776L51.877 9.6055L51.738 18.6875H50.317ZM59.8648 18.6875L62.5214 6.17658H64.205L66.8771 18.6875H65.2244L64.6529 15.5366H62.1044L61.502 18.6875H59.8648ZM62.3361 14.2855H64.4213L63.371 8.64787L62.3361 14.2855ZM69.7149 18.6875V14.2701L67.0119 6.17658H68.6337L70.5489 12.2158L72.4333 6.17658H74.0705L71.383 14.2701V18.6875H69.7149ZM78.4331 18.8265C77.5887 18.8265 76.9142 18.6618 76.4097 18.3323C75.9051 18.0027 75.5447 17.5342 75.3285 16.9267C75.1123 16.3089 75.0041 15.5881 75.0041 14.7643V10.0225C75.0041 9.19876 75.1123 8.49341 75.3285 7.90648C75.555 7.30925 75.9154 6.85618 76.4097 6.54727C76.9142 6.22806 77.5887 6.06846 78.4331 6.06846C79.2774 6.06846 79.9467 6.22806 80.441 6.54727C80.9352 6.86648 81.2905 7.31955 81.5067 7.90648C81.7333 8.49341 81.8465 9.19876 81.8465 10.0225V14.7798C81.8465 15.5932 81.7333 16.3037 81.5067 16.9113C81.2905 17.5188 80.9352 17.9924 80.441 18.3323C79.9467 18.6618 79.2774 18.8265 78.4331 18.8265ZM78.4331 17.4519C78.8964 17.4519 79.2465 17.3592 79.4834 17.1738C79.7202 16.9782 79.8798 16.7105 79.9622 16.3707C80.0445 16.0206 80.0857 15.6138 80.0857 15.1505V9.66728C80.0857 9.20391 80.0445 8.80748 79.9622 8.47797C79.8798 8.13817 79.7202 7.88074 79.4834 7.70569C79.2465 7.52034 78.8964 7.42767 78.4331 7.42767C77.9697 7.42767 77.6144 7.52034 77.3673 7.70569C77.1305 7.88074 76.9709 8.13817 76.8885 8.47797C76.8061 8.80748 76.7649 9.20391 76.7649 9.66728V15.1505C76.7649 15.6138 76.8061 16.0206 76.8885 16.3707C76.9709 16.7105 77.1305 16.9782 77.3673 17.1738C77.6144 17.3592 77.9697 17.4519 78.4331 17.4519Z" fill="#13171B"/>
<path d="M3.25837 29.8514L2.08526 26.7598H2.06615C2.07252 26.8251 2.0781 26.9047 2.08288 26.9987C2.08765 27.0927 2.09164 27.1954 2.09482 27.3069C2.09801 27.4168 2.0996 27.5291 2.0996 27.6438V29.8514H1.7221V26.3584H2.32419L3.43039 29.2637H3.44711L4.57004 26.3584H5.16734V29.8514H4.76596V27.6151C4.76596 27.5116 4.76755 27.4081 4.77074 27.3045C4.77392 27.1994 4.7779 27.1007 4.78268 27.0083C4.78746 26.9143 4.79224 26.8331 4.79702 26.7646H4.7779L3.59047 29.8514H3.25837ZM9.19469 29.8514L8.76463 28.7428H7.36456L6.93689 29.8514H6.52595L7.89257 26.3441H8.25812L9.61519 29.8514H9.19469ZM8.64278 28.3821L8.23423 27.2807C8.22467 27.252 8.20875 27.205 8.18645 27.1397C8.16574 27.0744 8.14424 27.0067 8.12194 26.9366C8.09964 26.8665 8.08132 26.81 8.06699 26.767C8.05106 26.8323 8.03354 26.8976 8.01442 26.9629C7.9969 27.0266 7.97938 27.0863 7.96186 27.1421C7.94434 27.1962 7.92921 27.2424 7.91647 27.2807L7.50074 28.3821H8.64278ZM12.9521 28.922C12.9521 29.1291 12.9003 29.3059 12.7968 29.4524C12.6948 29.5974 12.5515 29.7081 12.3667 29.7845C12.1819 29.861 11.9645 29.8992 11.7144 29.8992C11.5822 29.8992 11.4572 29.8929 11.3393 29.8801C11.2215 29.8674 11.1132 29.8491 11.0144 29.8252C10.9157 29.8013 10.8288 29.7718 10.754 29.7368V29.3473C10.8734 29.3967 11.0192 29.4429 11.1912 29.4859C11.3632 29.5273 11.5432 29.548 11.7312 29.548C11.9064 29.548 12.0545 29.5249 12.1756 29.4787C12.2966 29.4309 12.3882 29.3632 12.4503 29.2756C12.514 29.1864 12.5459 29.0797 12.5459 28.9555C12.5459 28.836 12.5196 28.7365 12.467 28.6568C12.4145 28.5756 12.3269 28.5023 12.2042 28.437C12.0832 28.3701 11.9175 28.2993 11.7073 28.2244C11.5591 28.1718 11.4285 28.1145 11.3154 28.0524C11.2024 27.9887 11.1076 27.917 11.0311 27.8373C10.9547 27.7577 10.8965 27.6653 10.8567 27.5602C10.8185 27.4551 10.7994 27.3348 10.7994 27.1994C10.7994 27.0131 10.8464 26.8538 10.9403 26.7216C11.0359 26.5878 11.1673 26.4858 11.3346 26.4158C11.5034 26.3441 11.6969 26.3082 11.9151 26.3082C12.1015 26.3082 12.2735 26.3258 12.4312 26.3608C12.5905 26.3958 12.7362 26.4428 12.8684 26.5018L12.7418 26.8506C12.616 26.798 12.4822 26.7542 12.3404 26.7192C12.2003 26.6841 12.0553 26.6666 11.9056 26.6666C11.7559 26.6666 11.6292 26.6889 11.5257 26.7335C11.4238 26.7765 11.3457 26.8379 11.2916 26.9175C11.2374 26.9971 11.2103 27.0919 11.2103 27.2018C11.2103 27.3245 11.2358 27.4264 11.2868 27.5076C11.3393 27.5889 11.4222 27.6613 11.5353 27.725C11.6499 27.7872 11.8013 27.8525 11.9892 27.921C12.1947 27.9958 12.3691 28.0755 12.5124 28.1599C12.6558 28.2427 12.7649 28.3446 12.8398 28.4657C12.9146 28.5852 12.9521 28.7373 12.9521 28.922ZM15.6199 29.8514H15.2114V26.7168H14.1124V26.3584H16.7142V26.7168H15.6199V29.8514ZM20.0678 29.8514H18.123V26.3584H20.0678V26.7168H18.5291V27.8469H19.9794V28.2005H18.5291V29.4931H20.0678V29.8514ZM22.6664 26.3584C22.9531 26.3584 23.1896 26.3943 23.376 26.4659C23.5639 26.536 23.7041 26.6435 23.7965 26.7885C23.8889 26.9334 23.9351 27.1182 23.9351 27.3428C23.9351 27.5275 23.9016 27.682 23.8347 27.8063C23.7678 27.9289 23.6802 28.0285 23.5719 28.1049C23.4636 28.1814 23.3481 28.2403 23.2255 28.2817L24.1835 29.8514H23.7105L22.8551 28.394H22.1288V29.8514H21.7227V26.3584H22.6664ZM22.6425 26.7096H22.1288V28.05H22.6831C22.9682 28.05 23.1777 27.9918 23.3115 27.8756C23.4469 27.7593 23.5146 27.5881 23.5146 27.3619C23.5146 27.1246 23.4429 26.9565 23.2995 26.8578C23.1578 26.759 22.9388 26.7096 22.6425 26.7096ZM25.6234 29.8514V26.3584H26.0295V29.8514H25.6234ZM30.6016 29.8514H30.1333L28.2291 26.9175H28.21C28.2148 26.9955 28.2204 27.0847 28.2268 27.1851C28.2331 27.2838 28.2379 27.3898 28.2411 27.5028C28.2459 27.6143 28.2483 27.7282 28.2483 27.8445V29.8514H27.8708V26.3584H28.3367L30.2337 29.2828H30.2504C30.2472 29.2271 30.2432 29.1482 30.2385 29.0463C30.2337 28.9427 30.2289 28.832 30.2241 28.7142C30.2209 28.5947 30.2194 28.484 30.2194 28.3821V26.3584H30.6016V29.8514ZM33.9289 28.0213H35.1498V29.7153C34.9666 29.7774 34.7779 29.8236 34.5836 29.8538C34.3908 29.8841 34.175 29.8992 33.9361 29.8992C33.5729 29.8992 33.2663 29.8268 33.0163 29.6818C32.7678 29.5369 32.579 29.3306 32.45 29.063C32.321 28.7938 32.2565 28.4745 32.2565 28.1049C32.2565 27.7434 32.3274 27.428 32.4691 27.1588C32.6125 26.8896 32.8187 26.681 33.0879 26.5328C33.3587 26.3831 33.6836 26.3082 34.0627 26.3082C34.2571 26.3082 34.441 26.3266 34.6146 26.3632C34.7898 26.3982 34.9523 26.4484 35.102 26.5137L34.9467 26.8673C34.8177 26.8116 34.6752 26.7638 34.5191 26.724C34.3646 26.6841 34.2045 26.6642 34.0388 26.6642C33.7537 26.6642 33.5092 26.7232 33.3054 26.841C33.1031 26.9589 32.9478 27.1254 32.8395 27.3404C32.7327 27.5554 32.6794 27.8103 32.6794 28.1049C32.6794 28.3964 32.7264 28.6505 32.8203 28.8671C32.9143 29.0821 33.0609 29.2494 33.26 29.3688C33.4591 29.4883 33.7155 29.548 34.0293 29.548C34.187 29.548 34.3224 29.5393 34.4354 29.5217C34.5485 29.5026 34.6513 29.4803 34.7437 29.4548V28.3845H33.9289V28.0213ZM40.0388 26.3035C40.2108 26.3035 40.359 26.3337 40.4832 26.3943C40.609 26.4532 40.7054 26.5384 40.7723 26.6499C40.8408 26.7614 40.875 26.896 40.875 27.0537C40.875 27.2607 40.8073 27.4359 40.672 27.5793C40.5382 27.7227 40.3677 27.8533 40.1607 27.9711L41.1307 28.9125C41.2183 28.8105 41.29 28.6927 41.3457 28.5589C41.4015 28.4235 41.4484 28.277 41.4867 28.1193H41.8881C41.8371 28.3295 41.771 28.523 41.6898 28.6998C41.6101 28.8766 41.5098 29.0319 41.3887 29.1657L42.0888 29.8514H41.5512L41.1187 29.4286C41.0168 29.5225 40.9069 29.6054 40.789 29.677C40.6727 29.7471 40.5429 29.8021 40.3996 29.8419C40.2578 29.8801 40.0954 29.8992 39.9122 29.8992C39.6892 29.8992 39.4957 29.8626 39.3316 29.7893C39.1675 29.7161 39.0401 29.6085 38.9493 29.4668C38.8601 29.325 38.8155 29.1514 38.8155 28.9459C38.8155 28.7771 38.8466 28.6321 38.9087 28.5111C38.9708 28.39 39.0592 28.2825 39.1739 28.1886C39.2886 28.0946 39.4256 28.003 39.5849 27.9138C39.51 27.831 39.4391 27.7473 39.3722 27.6629C39.3053 27.5769 39.2512 27.4853 39.2098 27.3882C39.1683 27.2894 39.1476 27.1811 39.1476 27.0632C39.1476 26.904 39.1835 26.7678 39.2552 26.6547C39.3284 26.5416 39.4312 26.4548 39.5634 26.3943C39.6972 26.3337 39.8556 26.3035 40.0388 26.3035ZM39.8238 28.1647C39.6995 28.2363 39.5928 28.3072 39.5036 28.3773C39.416 28.4474 39.3483 28.5262 39.3005 28.6138C39.2544 28.7014 39.2313 28.8074 39.2313 28.9316C39.2313 29.118 39.2942 29.2677 39.42 29.3808C39.5458 29.4923 39.7139 29.548 39.9241 29.548C40.1408 29.548 40.3247 29.5122 40.476 29.4405C40.6289 29.3688 40.7588 29.282 40.8655 29.1801L39.8238 28.1647ZM40.0245 26.6308C39.8795 26.6308 39.7617 26.669 39.6709 26.7455C39.5817 26.8203 39.5371 26.9255 39.5371 27.0608C39.5371 27.1819 39.5697 27.2934 39.635 27.3953C39.7003 27.4973 39.7935 27.6104 39.9146 27.7346C40.1137 27.6247 40.2578 27.5188 40.347 27.4168C40.4378 27.3133 40.4832 27.1923 40.4832 27.0537C40.4832 26.9278 40.441 26.8259 40.3566 26.7479C40.2738 26.6698 40.1631 26.6308 40.0245 26.6308ZM47.8164 29.8514L47.3863 28.7428H45.9862L45.5586 29.8514H45.1476L46.5142 26.3441H46.8798L48.2369 29.8514H47.8164ZM47.2645 28.3821L46.8559 27.2807C46.8463 27.252 46.8304 27.205 46.8081 27.1397C46.7874 27.0744 46.7659 27.0067 46.7436 26.9366C46.7213 26.8665 46.703 26.81 46.6887 26.767C46.6727 26.8323 46.6552 26.8976 46.6361 26.9629C46.6186 27.0266 46.601 27.0863 46.5835 27.1421C46.566 27.1962 46.5509 27.2424 46.5381 27.2807L46.1224 28.3821H47.2645ZM52.2451 26.3584V28.6186C52.2451 28.8655 52.1949 29.0853 52.0946 29.278C51.9958 29.4708 51.8461 29.6229 51.6454 29.7344C51.4447 29.8443 51.193 29.8992 50.8904 29.8992C50.4588 29.8992 50.1298 29.7822 49.9037 29.548C49.6791 29.3139 49.5668 29.0009 49.5668 28.6091V26.3584H49.9753V28.621C49.9753 28.9173 50.0534 29.1458 50.2095 29.3067C50.3672 29.4676 50.6021 29.548 50.9143 29.548C51.1277 29.548 51.3022 29.5098 51.4375 29.4333C51.5745 29.3553 51.6757 29.247 51.741 29.1084C51.8079 28.9682 51.8413 28.8066 51.8413 28.6234V26.3584H52.2451ZM56.8267 28.0715C56.8267 28.4649 56.7551 28.7938 56.6117 29.0582C56.4684 29.321 56.2605 29.5193 55.9881 29.6531C55.7173 29.7853 55.3884 29.8514 55.0014 29.8514H54.0529V26.3584H55.1065C55.4617 26.3584 55.7675 26.4237 56.024 26.5543C56.2804 26.6833 56.4779 26.8753 56.6165 27.1301C56.7567 27.3834 56.8267 27.6972 56.8267 28.0715ZM56.3991 28.0858C56.3991 27.772 56.3465 27.5132 56.2414 27.3093C56.1378 27.1054 55.9849 26.9541 55.7827 26.8554C55.582 26.755 55.3359 26.7049 55.0444 26.7049H54.459V29.5026H54.9536C55.4346 29.5026 55.7954 29.384 56.0359 29.1466C56.278 28.9093 56.3991 28.5557 56.3991 28.0858ZM58.484 29.8514V26.3584H58.8902V29.8514H58.484ZM63.7609 28.1001C63.7609 28.3693 63.7266 28.6146 63.6582 28.836C63.5897 29.0558 63.4877 29.2454 63.3523 29.4047C63.2185 29.5623 63.0521 29.6842 62.853 29.7702C62.6539 29.8562 62.4229 29.8992 62.1601 29.8992C61.8893 29.8992 61.6528 29.8562 61.4505 29.7702C61.2498 29.6842 61.0826 29.5615 60.9488 29.4023C60.8166 29.243 60.717 29.0526 60.6501 28.8312C60.5848 28.6098 60.5522 28.3646 60.5522 28.0954C60.5522 27.7386 60.6111 27.4256 60.729 27.1564C60.8469 26.8872 61.0252 26.6778 61.2642 26.528C61.5047 26.3783 61.8057 26.3035 62.1673 26.3035C62.5129 26.3035 62.8036 26.3775 63.0394 26.5257C63.2767 26.6738 63.4559 26.8824 63.5769 27.1516C63.6996 27.4192 63.7609 27.7354 63.7609 28.1001ZM60.9799 28.1001C60.9799 28.3964 61.0221 28.6529 61.1065 28.8695C61.1909 29.0861 61.3199 29.2533 61.4935 29.3712C61.6687 29.4891 61.8909 29.548 62.1601 29.548C62.4309 29.548 62.6523 29.4891 62.8243 29.3712C62.9979 29.2533 63.1262 29.0861 63.209 28.8695C63.2918 28.6529 63.3332 28.3964 63.3332 28.1001C63.3332 27.6494 63.2385 27.2974 63.0489 27.0441C62.861 26.7893 62.5671 26.6618 62.1673 26.6618C61.8965 26.6618 61.6735 26.72 61.4983 26.8363C61.3231 26.9525 61.1925 27.1182 61.1065 27.3332C61.0221 27.5466 60.9799 27.8023 60.9799 28.1001ZM68.485 26.3584C68.9358 26.3584 69.2647 26.4468 69.4718 26.6236C69.6804 26.7988 69.7848 27.0505 69.7848 27.3786C69.7848 27.5267 69.7601 27.6677 69.7107 27.8015C69.6629 27.9337 69.5849 28.0508 69.4766 28.1527C69.3682 28.2531 69.2257 28.3327 69.0489 28.3916C68.8737 28.449 68.6586 28.4776 68.4038 28.4776H67.9785V29.8514H67.5724V26.3584H68.485ZM68.4468 26.7049H67.9785V28.1288H68.3584C68.5814 28.1288 68.767 28.1049 68.9151 28.0571C69.0648 28.0094 69.1771 27.9321 69.252 27.8254C69.3268 27.7171 69.3643 27.5737 69.3643 27.3953C69.3643 27.1628 69.2902 26.99 69.1421 26.8769C68.9939 26.7622 68.7622 26.7049 68.4468 26.7049ZM74.4261 28.1001C74.4261 28.3693 74.3919 28.6146 74.3234 28.836C74.2549 29.0558 74.153 29.2454 74.0176 29.4047C73.8838 29.5623 73.7173 29.6842 73.5182 29.7702C73.3191 29.8562 73.0882 29.8992 72.8254 29.8992C72.5546 29.8992 72.3181 29.8562 72.1158 29.7702C71.9151 29.6842 71.7478 29.5615 71.614 29.4023C71.4818 29.243 71.3823 29.0526 71.3154 28.8312C71.2501 28.6098 71.2174 28.3646 71.2174 28.0954C71.2174 27.7386 71.2764 27.4256 71.3942 27.1564C71.5121 26.8872 71.6905 26.6778 71.9294 26.528C72.1699 26.3783 72.471 26.3035 72.8325 26.3035C73.1782 26.3035 73.4689 26.3775 73.7046 26.5257C73.9419 26.6738 74.1211 26.8824 74.2422 27.1516C74.3648 27.4192 74.4261 27.7354 74.4261 28.1001ZM71.6451 28.1001C71.6451 28.3964 71.6873 28.6529 71.7717 28.8695C71.8561 29.0861 71.9852 29.2533 72.1588 29.3712C72.334 29.4891 72.5562 29.548 72.8254 29.548C73.0961 29.548 73.3175 29.4891 73.4896 29.3712C73.6632 29.2533 73.7914 29.0861 73.8742 28.8695C73.9571 28.6529 73.9985 28.3964 73.9985 28.1001C73.9985 27.6494 73.9037 27.2974 73.7142 27.0441C73.5262 26.7893 73.2323 26.6618 72.8325 26.6618C72.5618 26.6618 72.3388 26.72 72.1636 26.8363C71.9883 26.9525 71.8577 27.1182 71.7717 27.3332C71.6873 27.5466 71.6451 27.8023 71.6451 28.1001ZM78.0569 28.922C78.0569 29.1291 78.0051 29.3059 77.9016 29.4524C77.7996 29.5974 77.6563 29.7081 77.4715 29.7845C77.2868 29.861 77.0693 29.8992 76.8193 29.8992C76.6871 29.8992 76.562 29.8929 76.4442 29.8801C76.3263 29.8674 76.218 29.8491 76.1192 29.8252C76.0205 29.8013 75.9337 29.7718 75.8588 29.7368V29.3473C75.9783 29.3967 76.124 29.4429 76.296 29.4859C76.468 29.5273 76.648 29.548 76.836 29.548C77.0112 29.548 77.1593 29.5249 77.2804 29.4787C77.4014 29.4309 77.493 29.3632 77.5551 29.2756C77.6189 29.1864 77.6507 29.0797 77.6507 28.9555C77.6507 28.836 77.6244 28.7365 77.5719 28.6568C77.5193 28.5756 77.4317 28.5023 77.3091 28.437C77.188 28.3701 77.0223 28.2993 76.8121 28.2244C76.664 28.1718 76.5334 28.1145 76.4203 28.0524C76.3072 27.9887 76.2124 27.917 76.1359 27.8373C76.0595 27.7577 76.0014 27.6653 75.9615 27.5602C75.9233 27.4551 75.9042 27.3348 75.9042 27.1994C75.9042 27.0131 75.9512 26.8538 76.0452 26.7216C76.1407 26.5878 76.2721 26.4858 76.4394 26.4158C76.6082 26.3441 76.8017 26.3082 77.02 26.3082C77.2063 26.3082 77.3783 26.3258 77.536 26.3608C77.6953 26.3958 77.841 26.4428 77.9733 26.5018L77.8466 26.8506C77.7208 26.798 77.587 26.7542 77.4452 26.7192C77.3051 26.6841 77.1601 26.6666 77.0104 26.6666C76.8607 26.6666 76.734 26.6889 76.6305 26.7335C76.5286 26.7765 76.4505 26.8379 76.3964 26.9175C76.3422 26.9971 76.3151 27.0919 76.3151 27.2018C76.3151 27.3245 76.3406 27.4264 76.3916 27.5076C76.4442 27.5889 76.527 27.6613 76.6401 27.725C76.7548 27.7872 76.9061 27.8525 77.094 27.921C77.2995 27.9958 77.4739 28.0755 77.6173 28.1599C77.7606 28.2427 77.8697 28.3446 77.9446 28.4657C78.0194 28.5852 78.0569 28.7373 78.0569 28.922ZM80.7248 29.8514H80.3162V26.7168H79.2172V26.3584H81.819V26.7168H80.7248V29.8514Z" fill="#13171B"/>
</svg>
