<svg width="68" height="41" viewBox="0 0 68 41" fill="none" xmlns="http://www.w3.org/2000/svg">
<path d="M18.7022 27.958L18.7278 18.4345C18.7278 17.2825 18.3907 16.3779 17.7166 15.7208C17.0424 15.0552 16.2104 14.7224 15.2205 14.7224C14.6743 14.7224 14.1196 14.8461 13.5564 15.0936C13.0017 15.3411 12.5324 15.7592 12.1484 16.348C11.7729 16.9368 11.5852 17.7433 11.5852 18.7673H10.6379C10.5953 17.7518 10.7702 16.8686 11.1627 16.1176C11.5638 15.3667 12.1228 14.7864 12.8396 14.3768C13.5564 13.9586 14.3757 13.7495 15.2973 13.7495C16.6029 13.7495 17.6782 14.1592 18.523 14.9784C19.3764 15.7976 19.803 16.924 19.803 18.3577L19.7774 27.958H18.7022ZM2.29206 27.958V14.1336H3.29049V16.9496H3.36729V27.958H2.29206ZM10.5099 27.958L10.5355 18.6137C10.5355 17.419 10.2027 16.4718 9.5371 15.772C8.88001 15.0723 8.02665 14.7224 6.97701 14.7224C5.90178 14.7224 5.03135 15.0893 4.36573 15.8232C3.7001 16.5571 3.36729 17.5385 3.36729 18.7673L2.42006 18.3577C2.42006 17.4702 2.6206 16.6808 3.02168 15.9896C3.42276 15.2899 3.97318 14.7437 4.67294 14.3512C5.38123 13.9501 6.19192 13.7495 7.10502 13.7495C7.88157 13.7495 8.6112 13.9159 9.29389 14.2488C9.97658 14.573 10.527 15.0808 10.9451 15.772C11.3718 16.4632 11.5852 17.3507 11.5852 18.4345L11.5596 27.958H10.5099ZM28.0581 28.342C26.9829 28.342 26.0911 28.1543 25.3828 27.7788C24.6745 27.4033 24.1454 26.9084 23.7956 26.294C23.4457 25.6795 23.2707 25.0139 23.2707 24.2971C23.2707 23.4864 23.4457 22.8165 23.7956 22.2874C24.154 21.7498 24.6191 21.3274 25.1908 21.0202C25.7626 20.713 26.377 20.4911 27.0341 20.3546C27.8362 20.1924 28.6939 20.0516 29.607 19.9321C30.5286 19.8041 31.3777 19.6975 32.1542 19.6121C32.9308 19.5268 33.5111 19.4585 33.8951 19.4073L33.5111 19.6633C33.5537 18.0334 33.2551 16.8216 32.615 16.028C31.9836 15.2259 30.8657 14.8248 29.2613 14.8248C28.1008 14.8248 27.1663 15.0851 26.458 15.6056C25.7583 16.1176 25.2676 16.907 24.986 17.9737L23.8084 17.6665C24.1156 16.3864 24.7428 15.4136 25.69 14.748C26.6458 14.0824 27.8533 13.7495 29.3125 13.7495C30.5926 13.7495 31.6593 14.0098 32.5126 14.5304C33.366 15.0509 33.9463 15.7549 34.2535 16.6424C34.373 16.9838 34.4583 17.3977 34.5095 17.8841C34.5607 18.3705 34.5863 18.8441 34.5863 19.3049V27.958H33.5879V24.1691L34.0999 24.1947C33.733 25.5089 33.0033 26.5286 31.911 27.254C30.8187 27.9793 29.5344 28.342 28.0581 28.342ZM28.0069 27.2668C29.0053 27.2668 29.8843 27.0876 30.6438 26.7292C31.4118 26.3708 32.0305 25.8545 32.4998 25.1803C32.9777 24.4976 33.2807 23.6827 33.4087 22.7354C33.4769 22.2576 33.5111 21.7455 33.5111 21.1994C33.5111 20.6532 33.5111 20.2607 33.5111 20.0217L34.0743 20.457C33.622 20.4996 32.9948 20.5594 32.1926 20.6362C31.399 20.7044 30.5584 20.7983 29.671 20.9178C28.7835 21.0287 27.9813 21.1738 27.2645 21.353C26.8463 21.4554 26.4154 21.6175 25.9716 21.8394C25.5279 22.0613 25.1524 22.3728 24.8452 22.7738C24.5465 23.1749 24.3972 23.6912 24.3972 24.3227C24.3972 24.7664 24.5081 25.2145 24.73 25.6667C24.9519 26.119 25.3231 26.4988 25.8436 26.806C26.3727 27.1132 27.0938 27.2668 28.0069 27.2668ZM44.0584 28.342C42.7528 28.342 41.6519 28.022 40.7559 27.382C39.8684 26.7334 39.1943 25.8587 38.7334 24.7579C38.2726 23.6485 38.0422 22.4026 38.0422 21.0202C38.0422 19.6633 38.2684 18.4345 38.7206 17.3337C39.1729 16.2328 39.83 15.3624 40.6919 14.7224C41.5623 14.0738 42.6162 13.7495 43.8536 13.7495C45.1422 13.7495 46.226 14.0653 47.1049 14.6968C47.9924 15.3197 48.6623 16.1816 49.1146 17.2825C49.5669 18.3748 49.793 19.6207 49.793 21.0202C49.793 22.3941 49.5669 23.6357 49.1146 24.7451C48.6708 25.8459 48.0223 26.7206 47.1689 27.3692C46.3156 28.0177 45.2787 28.342 44.0584 28.342ZM44.0584 27.2668C45.1422 27.2668 46.0468 26.9937 46.7721 26.4476C47.506 25.9014 48.0564 25.159 48.4234 24.2203C48.7903 23.2731 48.9738 22.2064 48.9738 21.0202C48.9738 19.8169 48.786 18.7502 48.4106 17.8201C48.0436 16.8814 47.4932 16.1475 46.7593 15.6184C46.034 15.0893 45.1337 14.8248 44.0584 14.8248C42.9576 14.8248 42.0445 15.0979 41.3191 15.644C40.6023 16.1816 40.069 16.9198 39.7191 17.8585C39.3692 18.7886 39.1943 19.8425 39.1943 21.0202C39.1943 22.2064 39.3777 23.2731 39.7447 24.2203C40.1116 25.159 40.6535 25.9014 41.3703 26.4476C42.0957 26.9937 42.9917 27.2668 44.0584 27.2668ZM48.9738 27.958V17.0777H48.897V9.52541H49.9722V27.958H48.9738ZM58.4761 28.342C57.4009 28.342 56.5091 28.1543 55.8008 27.7788C55.0925 27.4033 54.5634 26.9084 54.2136 26.294C53.8637 25.6795 53.6887 25.0139 53.6887 24.2971C53.6887 23.4864 53.8637 22.8165 54.2136 22.2874C54.572 21.7498 55.037 21.3274 55.6088 21.0202C56.1806 20.713 56.795 20.4911 57.4521 20.3546C58.2542 20.1924 59.1118 20.0516 60.0249 19.9321C60.9466 19.8041 61.7957 19.6975 62.5722 19.6121C63.3488 19.5268 63.9291 19.4585 64.3131 19.4073L63.9291 19.6633C63.9717 18.0334 63.6731 16.8216 63.033 16.028C62.4016 15.2259 61.2837 14.8248 59.6793 14.8248C58.5188 14.8248 57.5843 15.0851 56.876 15.6056C56.1763 16.1176 55.6856 16.907 55.404 17.9737L54.2264 17.6665C54.5336 16.3864 55.1608 15.4136 56.108 14.748C57.0638 14.0824 58.2713 13.7495 59.7305 13.7495C61.0106 13.7495 62.0773 14.0098 62.9306 14.5304C63.784 15.0509 64.3643 15.7549 64.6715 16.6424C64.791 16.9838 64.8763 17.3977 64.9275 17.8841C64.9787 18.3705 65.0043 18.8441 65.0043 19.3049V27.958H64.0059V24.1691L64.5179 24.1947C64.1509 25.5089 63.4213 26.5286 62.329 27.254C61.2367 27.9793 59.9524 28.342 58.4761 28.342ZM58.4249 27.2668C59.4233 27.2668 60.3023 27.0876 61.0618 26.7292C61.8298 26.3708 62.4485 25.8545 62.9178 25.1803C63.3957 24.4976 63.6987 23.6827 63.8267 22.7354C63.8949 22.2576 63.9291 21.7455 63.9291 21.1994C63.9291 20.6532 63.9291 20.2607 63.9291 20.0217L64.4923 20.457C64.04 20.4996 63.4128 20.5594 62.6106 20.6362C61.817 20.7044 60.9764 20.7983 60.0889 20.9178C59.2015 21.0287 58.3993 21.1738 57.6825 21.353C57.2643 21.4554 56.8334 21.6175 56.3896 21.8394C55.9459 22.0613 55.5704 22.3728 55.2632 22.7738C54.9645 23.1749 54.8152 23.6912 54.8152 24.3227C54.8152 24.7664 54.9261 25.2145 55.148 25.6667C55.3699 26.119 55.7411 26.4988 56.2616 26.806C56.7907 27.1132 57.5118 27.2668 58.4249 27.2668Z" fill="#13171B"/>
<path d="M3.42647 39.9854L3.42996 38.7175C3.42996 38.565 3.38631 38.4457 3.29899 38.3595C3.21284 38.2722 3.10515 38.2286 2.97592 38.2286C2.90258 38.2286 2.82982 38.2455 2.75764 38.2792C2.68662 38.313 2.62725 38.3677 2.57951 38.4434C2.53178 38.519 2.50791 38.6215 2.50791 38.7507L2.36646 38.728C2.36181 38.5906 2.38684 38.4713 2.44156 38.37C2.49744 38.2676 2.57427 38.1884 2.67207 38.1325C2.77102 38.0766 2.88337 38.0487 3.0091 38.0487C3.19421 38.0487 3.34381 38.1057 3.4579 38.2198C3.57316 38.3339 3.63079 38.4899 3.63079 38.6878L3.6273 39.9854H3.42647ZM1.18247 39.9854V38.0993H1.36583V38.5237H1.3833V39.9854H1.18247ZM2.30534 39.9854L2.30884 38.7367C2.30884 38.5807 2.26634 38.4573 2.18136 38.3665C2.09637 38.2746 1.98577 38.2286 1.84956 38.2286C1.71102 38.2286 1.59867 38.2763 1.51252 38.3718C1.42637 38.4661 1.3833 38.5924 1.3833 38.7507L1.24359 38.6809C1.24359 38.5586 1.27153 38.4504 1.32741 38.3561C1.3833 38.2606 1.45955 38.1855 1.55618 38.1308C1.65397 38.0761 1.76574 38.0487 1.89147 38.0487C2.0044 38.0487 2.10743 38.0726 2.20057 38.1203C2.2937 38.168 2.36821 38.2402 2.42409 38.3368C2.47997 38.4323 2.50791 38.5522 2.50791 38.6966L2.50442 39.9854H2.30534ZM4.24218 37.7186V37.4619H4.44301V37.7186H4.24218ZM4.24218 39.9854V38.0993H4.44301V39.9854H4.24218ZM6.47142 39.9854V39.0039C6.47142 38.8852 6.4592 38.7792 6.43475 38.6861C6.41147 38.593 6.37538 38.5138 6.32648 38.4486C6.27875 38.3834 6.21821 38.3339 6.14486 38.3002C6.07268 38.2664 5.98711 38.2495 5.88816 38.2495C5.78571 38.2495 5.69665 38.2676 5.62097 38.3037C5.54646 38.3386 5.48476 38.3881 5.43586 38.4521C5.38813 38.5161 5.35204 38.5924 5.32759 38.6809C5.30431 38.7682 5.29267 38.8636 5.29267 38.9673L5.13375 38.948C5.13375 38.7443 5.1681 38.5767 5.23679 38.4451C5.30664 38.3124 5.40036 38.2146 5.51794 38.1517C5.63553 38.0877 5.76766 38.0557 5.91435 38.0557C6.01797 38.0557 6.11052 38.0708 6.19201 38.1011C6.27467 38.1314 6.34627 38.1744 6.40681 38.2303C6.46735 38.285 6.51741 38.3502 6.55699 38.4259C6.59657 38.5004 6.62568 38.5825 6.64431 38.6721C6.6641 38.7618 6.67399 38.8555 6.67399 38.9533V39.9854H6.47142ZM5.0901 39.9854V38.0993H5.27346V38.5237H5.29267V39.9854H5.0901ZM7.28348 37.7186V37.4619H7.48431V37.7186H7.28348ZM7.28348 39.9854V38.0993H7.48431V39.9854H7.28348ZM10.3754 39.9854L10.3789 38.7175C10.3789 38.565 10.3352 38.4457 10.2479 38.3595C10.1618 38.2722 10.0541 38.2286 9.92485 38.2286C9.8515 38.2286 9.77874 38.2455 9.70656 38.2792C9.63554 38.313 9.57617 38.3677 9.52844 38.4434C9.4807 38.519 9.45684 38.6215 9.45684 38.7507L9.31539 38.728C9.31073 38.5906 9.33576 38.4713 9.39048 38.37C9.44636 38.2676 9.5232 38.1884 9.62099 38.1325C9.71995 38.0766 9.83229 38.0487 9.95803 38.0487C10.1431 38.0487 10.2927 38.1057 10.4068 38.2198C10.5221 38.3339 10.5797 38.4899 10.5797 38.6878L10.5762 39.9854H10.3754ZM8.13139 39.9854V38.0993H8.31475V38.5237H8.33222V39.9854H8.13139ZM9.25427 39.9854L9.25776 38.7367C9.25776 38.5807 9.21527 38.4573 9.13028 38.3665C9.04529 38.2746 8.93469 38.2286 8.79848 38.2286C8.65994 38.2286 8.5476 38.2763 8.46144 38.3718C8.37529 38.4661 8.33222 38.5924 8.33222 38.7507L8.19251 38.6809C8.19251 38.5586 8.22045 38.4504 8.27634 38.3561C8.33222 38.2606 8.40847 38.1855 8.5051 38.1308C8.60289 38.0761 8.71466 38.0487 8.84039 38.0487C8.95332 38.0487 9.05635 38.0726 9.14949 38.1203C9.24262 38.168 9.31713 38.2402 9.37301 38.3368C9.4289 38.4323 9.45684 38.5522 9.45684 38.6966L9.45334 39.9854H9.25427ZM11.701 40.0377C11.5555 40.0377 11.4344 40.0121 11.3378 39.9609C11.2423 39.9097 11.1707 39.8422 11.123 39.7583C11.0753 39.6733 11.0514 39.5814 11.0514 39.4824C11.0514 39.3753 11.0735 39.2857 11.1178 39.2135C11.1632 39.1413 11.2231 39.0831 11.2976 39.0389C11.3733 38.9946 11.4565 38.9614 11.5474 38.9393C11.651 38.916 11.7627 38.8962 11.8826 38.8799C12.0026 38.8625 12.1166 38.8473 12.2249 38.8345C12.3344 38.8217 12.4234 38.8107 12.4921 38.8014L12.4188 38.845C12.4234 38.6413 12.385 38.4899 12.3035 38.391C12.2232 38.2909 12.0811 38.2408 11.8774 38.2408C11.7342 38.2408 11.616 38.2734 11.5229 38.3386C11.4309 38.4026 11.3663 38.5022 11.3291 38.6372L11.123 38.5796C11.1661 38.4084 11.2528 38.2769 11.3832 38.1849C11.5136 38.0929 11.6807 38.047 11.8844 38.047C12.0579 38.047 12.2034 38.0807 12.321 38.1482C12.4397 38.2158 12.5224 38.3106 12.5689 38.4329C12.5887 38.4829 12.6021 38.5417 12.6091 38.6093C12.6161 38.6756 12.6196 38.7426 12.6196 38.8101V39.9854H12.4362V39.4894L12.5043 39.5069C12.4473 39.6768 12.3477 39.8078 12.2057 39.8998C12.0637 39.9918 11.8954 40.0377 11.701 40.0377ZM11.7115 39.8526C11.8396 39.8526 11.9519 39.8299 12.0485 39.7845C12.1452 39.738 12.2232 39.6733 12.2825 39.5907C12.3431 39.5069 12.3815 39.4085 12.3978 39.2956C12.4094 39.2327 12.4158 39.1646 12.417 39.0912C12.4182 39.0179 12.4188 38.9638 12.4188 38.9288L12.5061 38.9847C12.4304 38.994 12.3396 39.0039 12.2336 39.0144C12.1289 39.0249 12.0218 39.0377 11.9123 39.0528C11.8029 39.068 11.7039 39.0872 11.6155 39.1105C11.5607 39.1256 11.5054 39.1477 11.4496 39.1768C11.3948 39.2048 11.3489 39.2438 11.3116 39.2938C11.2755 39.3439 11.2575 39.4073 11.2575 39.4842C11.2575 39.5412 11.2714 39.5983 11.2994 39.6553C11.3285 39.7123 11.3762 39.7595 11.4426 39.7968C11.5089 39.834 11.5986 39.8526 11.7115 39.8526ZM13.2302 39.9854V37.4183H13.431V39.9854H13.2302ZM14.113 37.7186V37.4619H14.3139V37.7186H14.113ZM14.113 39.9854V38.0993H14.3139V39.9854H14.113ZM15.6577 40.0342C15.44 40.0342 15.2601 39.9883 15.1181 39.8963C14.9772 39.8043 14.8899 39.6763 14.8562 39.5121L15.0622 39.4772C15.0913 39.5889 15.16 39.678 15.2683 39.7444C15.3766 39.8107 15.5093 39.8439 15.6664 39.8439C15.8224 39.8439 15.9464 39.8107 16.0384 39.7444C16.1304 39.678 16.1764 39.5872 16.1764 39.4719C16.1764 39.4091 16.1618 39.3578 16.1327 39.3183C16.1048 39.2775 16.0489 39.2403 15.9651 39.2065C15.8812 39.1727 15.7567 39.1332 15.5914 39.0878C15.4167 39.0412 15.2799 38.9946 15.181 38.948C15.0832 38.9015 15.0139 38.8485 14.9732 38.7891C14.9336 38.7298 14.9138 38.657 14.9138 38.5708C14.9138 38.4672 14.9435 38.3764 15.0029 38.2984C15.0622 38.2193 15.1449 38.1576 15.2508 38.1133C15.3579 38.0691 15.4813 38.047 15.621 38.047C15.7607 38.047 15.8865 38.0702 15.9982 38.1168C16.11 38.1622 16.2002 38.2262 16.2689 38.3089C16.3376 38.3904 16.3772 38.4853 16.3877 38.5935L16.1816 38.632C16.1618 38.5109 16.1007 38.4154 15.9982 38.3456C15.8958 38.2746 15.7677 38.2385 15.6141 38.2373C15.4685 38.235 15.3498 38.2641 15.2578 38.3246C15.1658 38.384 15.1199 38.4626 15.1199 38.5604C15.1199 38.6162 15.1356 38.664 15.167 38.7036C15.1996 38.742 15.2566 38.7775 15.3381 38.8101C15.4196 38.8427 15.5349 38.8776 15.6839 38.9149C15.8655 38.9614 16.007 39.0092 16.1083 39.0581C16.2107 39.107 16.2829 39.1646 16.3248 39.2309C16.3667 39.2961 16.3877 39.3771 16.3877 39.4737C16.3877 39.6483 16.3225 39.7857 16.1921 39.8858C16.0629 39.9848 15.8847 40.0342 15.6577 40.0342ZM17.8983 39.9854C17.7982 40.0075 17.6993 40.0156 17.6015 40.0098C17.5037 40.0051 17.4164 39.9836 17.3395 39.9452C17.2638 39.9056 17.2068 39.8451 17.1684 39.7636C17.1369 39.6972 17.1195 39.6303 17.116 39.5627C17.1125 39.4952 17.1107 39.4178 17.1107 39.3305V37.5755H17.3133V39.327C17.3133 39.4062 17.3139 39.4719 17.3151 39.5243C17.3174 39.5756 17.3296 39.6227 17.3517 39.6658C17.3936 39.7461 17.46 39.795 17.5508 39.8125C17.6416 39.8288 17.7575 39.8259 17.8983 39.8037V39.9854ZM16.6881 38.2827V38.0993H17.8983V38.2827H16.6881ZM19.7471 40.0377C19.6016 40.0377 19.4805 40.0121 19.3839 39.9609C19.2884 39.9097 19.2168 39.8422 19.1691 39.7583C19.1214 39.6733 19.0975 39.5814 19.0975 39.4824C19.0975 39.3753 19.1196 39.2857 19.1639 39.2135C19.2093 39.1413 19.2692 39.0831 19.3437 39.0389C19.4194 38.9946 19.5026 38.9614 19.5934 38.9393C19.6971 38.916 19.8088 38.8962 19.9287 38.8799C20.0486 38.8625 20.1627 38.8473 20.271 38.8345C20.3804 38.8217 20.4695 38.8107 20.5382 38.8014L20.4649 38.845C20.4695 38.6413 20.4311 38.4899 20.3496 38.391C20.2693 38.2909 20.1272 38.2408 19.9235 38.2408C19.7803 38.2408 19.6621 38.2734 19.569 38.3386C19.477 38.4026 19.4124 38.5022 19.3752 38.6372L19.1691 38.5796C19.2122 38.4084 19.2989 38.2769 19.4293 38.1849C19.5597 38.0929 19.7267 38.047 19.9305 38.047C20.1039 38.047 20.2495 38.0807 20.3671 38.1482C20.4858 38.2158 20.5685 38.3106 20.615 38.4329C20.6348 38.4829 20.6482 38.5417 20.6552 38.6093C20.6622 38.6756 20.6657 38.7426 20.6657 38.8101V39.9854H20.4823V39.4894L20.5504 39.5069C20.4934 39.6768 20.3938 39.8078 20.2518 39.8998C20.1098 39.9918 19.9415 40.0377 19.7471 40.0377ZM19.7576 39.8526C19.8857 39.8526 19.998 39.8299 20.0946 39.7845C20.1913 39.738 20.2693 39.6733 20.3286 39.5907C20.3892 39.5069 20.4276 39.4085 20.4439 39.2956C20.4555 39.2327 20.4619 39.1646 20.4631 39.0912C20.4643 39.0179 20.4649 38.9638 20.4649 38.9288L20.5522 38.9847C20.4765 38.994 20.3857 39.0039 20.2797 39.0144C20.175 39.0249 20.0679 39.0377 19.9584 39.0528C19.849 39.068 19.75 39.0872 19.6616 39.1105C19.6068 39.1256 19.5515 39.1477 19.4957 39.1768C19.4409 39.2048 19.3949 39.2438 19.3577 39.2938C19.3216 39.3439 19.3036 39.4073 19.3036 39.4842C19.3036 39.5412 19.3175 39.5983 19.3455 39.6553C19.3746 39.7123 19.4223 39.7595 19.4887 39.7968C19.555 39.834 19.6447 39.8526 19.7576 39.8526ZM21.2414 39.9854V38.0993H21.4247V38.5516L21.3793 38.4923C21.4003 38.4387 21.4265 38.3892 21.4579 38.3438C21.4905 38.2973 21.5237 38.2594 21.5574 38.2303C21.6075 38.1837 21.6663 38.1488 21.7338 38.1255C21.8013 38.1011 21.8694 38.0871 21.9381 38.0836C22.0068 38.079 22.0691 38.0842 22.125 38.0993V38.2897C22.0505 38.2722 21.9713 38.2687 21.8875 38.2792C21.8037 38.2897 21.7251 38.3258 21.6517 38.3875C21.5877 38.4434 21.5411 38.5086 21.512 38.5831C21.4829 38.6564 21.4643 38.7338 21.4561 38.8153C21.448 38.8957 21.4439 38.9742 21.4439 39.0511V39.9854H21.2414ZM23.3138 40.0377C23.1252 40.0377 22.9663 39.9958 22.8371 39.912C22.7079 39.827 22.6095 39.71 22.542 39.561C22.4756 39.4108 22.4413 39.2379 22.4389 39.0423C22.4413 38.8433 22.4762 38.6692 22.5437 38.5202C22.6124 38.37 22.7114 38.2536 22.8406 38.1709C22.9698 38.0883 23.1281 38.047 23.3156 38.047C23.4984 38.047 23.659 38.0912 23.7976 38.1797C23.9373 38.267 24.0339 38.3875 24.0874 38.5412L23.8919 38.6128C23.8441 38.4952 23.769 38.4044 23.6666 38.3403C23.5641 38.2751 23.4466 38.2425 23.3138 38.2425C23.1648 38.2425 23.042 38.2769 22.9454 38.3456C22.8487 38.4131 22.7766 38.5068 22.7288 38.6267C22.6811 38.7466 22.6561 38.8852 22.6537 39.0423C22.6572 39.2833 22.7137 39.4772 22.8231 39.6239C22.9337 39.7694 23.0973 39.8422 23.3138 39.8422C23.4477 39.8422 23.5636 39.8113 23.6613 39.7496C23.7603 39.6879 23.836 39.5983 23.8884 39.4807L24.0874 39.5488C24.0141 39.7083 23.9117 39.8299 23.7801 39.9138C23.6485 39.9964 23.4931 40.0377 23.3138 40.0377ZM25.9573 39.9854V39.0039C25.9573 38.8852 25.9451 38.7792 25.9206 38.6861C25.8973 38.593 25.8613 38.5138 25.8124 38.4486C25.7646 38.3834 25.7041 38.3339 25.6307 38.3002C25.5586 38.2664 25.473 38.2495 25.374 38.2495C25.2716 38.2495 25.1825 38.2676 25.1069 38.3037C25.0323 38.3386 24.9706 38.3881 24.9217 38.4521C24.874 38.5161 24.8379 38.5924 24.8135 38.6809C24.7902 38.7682 24.7785 38.8636 24.7785 38.9673L24.6196 38.948C24.6196 38.7443 24.654 38.5767 24.7227 38.4451C24.7925 38.3124 24.8862 38.2146 25.0038 38.1517C25.1214 38.0877 25.2535 38.0557 25.4002 38.0557C25.5038 38.0557 25.5964 38.0708 25.6779 38.1011C25.7606 38.1314 25.8322 38.1744 25.8927 38.2303C25.9532 38.285 26.0033 38.3502 26.0429 38.4259C26.0825 38.5004 26.1116 38.5825 26.1302 38.6721C26.15 38.7618 26.1599 38.8555 26.1599 38.9533V39.9854H25.9573ZM24.576 39.9854V37.4707H24.7593V38.9236H24.7785V39.9854H24.576ZM26.7694 37.7186V37.4619H26.9702V37.7186H26.7694ZM26.7694 39.9854V38.0993H26.9702V39.9854H26.7694ZM28.6179 39.9854C28.5178 40.0075 28.4188 40.0156 28.321 40.0098C28.2232 40.0051 28.1359 39.9836 28.0591 39.9452C27.9834 39.9056 27.9264 39.8451 27.8879 39.7636C27.8565 39.6972 27.8391 39.6303 27.8356 39.5627C27.8321 39.4952 27.8303 39.4178 27.8303 39.3305V37.5755H28.0329V39.327C28.0329 39.4062 28.0335 39.4719 28.0346 39.5243C28.037 39.5756 28.0492 39.6227 28.0713 39.6658C28.1132 39.7461 28.1796 39.795 28.2704 39.8125C28.3612 39.8288 28.477 39.8259 28.6179 39.8037V39.9854ZM27.4077 38.2827V38.0993H28.6179V38.2827H27.4077ZM29.8161 40.0377C29.6357 40.0377 29.4797 39.9976 29.3481 39.9172C29.2165 39.8358 29.1147 39.7211 29.0425 39.5732C28.9703 39.4242 28.9342 39.2484 28.9342 39.0458C28.9342 38.8398 28.9697 38.6622 29.0408 38.5132C29.1129 38.363 29.2142 38.2478 29.3446 38.1674C29.4762 38.0871 29.6322 38.047 29.8126 38.047C29.9954 38.047 30.1514 38.0889 30.2806 38.1727C30.411 38.2553 30.51 38.3753 30.5775 38.5324C30.6462 38.6896 30.6788 38.8788 30.6753 39.1H30.4657V39.0301C30.4599 38.7717 30.4017 38.5749 30.2911 38.4399C30.1805 38.3048 30.0222 38.2373 29.8161 38.2373C29.6031 38.2373 29.4383 38.3077 29.3219 38.4486C29.2067 38.5883 29.149 38.7862 29.149 39.0423C29.149 39.2961 29.2067 39.4929 29.3219 39.6326C29.4383 39.7723 29.6019 39.8422 29.8126 39.8422C29.9581 39.8422 30.085 39.8084 30.1933 39.7409C30.3027 39.6722 30.3895 39.5744 30.4535 39.4475L30.6351 39.5278C30.5595 39.6908 30.45 39.8165 30.3068 39.905C30.1636 39.9935 30.0001 40.0377 29.8161 40.0377ZM29.0722 39.1V38.9184H30.5618V39.1H29.0722ZM31.9539 40.0377C31.7653 40.0377 31.6064 39.9958 31.4772 39.912C31.348 39.827 31.2496 39.71 31.1821 39.561C31.1157 39.4108 31.0814 39.2379 31.079 39.0423C31.0814 38.8433 31.1163 38.6692 31.1838 38.5202C31.2525 38.37 31.3515 38.2536 31.4807 38.1709C31.6099 38.0883 31.7683 38.047 31.9557 38.047C32.1385 38.047 32.2991 38.0912 32.4377 38.1797C32.5774 38.267 32.674 38.3875 32.7276 38.5412L32.532 38.6128C32.4842 38.4952 32.4091 38.4044 32.3067 38.3403C32.2042 38.2751 32.0867 38.2425 31.9539 38.2425C31.8049 38.2425 31.6821 38.2769 31.5855 38.3456C31.4888 38.4131 31.4167 38.5068 31.3689 38.6267C31.3212 38.7466 31.2962 38.8852 31.2938 39.0423C31.2973 39.2833 31.3538 39.4772 31.4632 39.6239C31.5738 39.7694 31.7374 39.8422 31.9539 39.8422C32.0878 39.8422 32.2037 39.8113 32.3015 39.7496C32.4004 39.6879 32.4761 39.5983 32.5285 39.4807L32.7276 39.5488C32.6542 39.7083 32.5518 39.8299 32.4202 39.9138C32.2887 39.9964 32.1332 40.0377 31.9539 40.0377ZM34.2167 39.9854C34.1166 40.0075 34.0176 40.0156 33.9198 40.0098C33.822 40.0051 33.7347 39.9836 33.6579 39.9452C33.5822 39.9056 33.5252 39.8451 33.4868 39.7636C33.4553 39.6972 33.4379 39.6303 33.4344 39.5627C33.4309 39.4952 33.4291 39.4178 33.4291 39.3305V37.5755H33.6317V39.327C33.6317 39.4062 33.6323 39.4719 33.6334 39.5243C33.6358 39.5756 33.648 39.6227 33.6701 39.6658C33.712 39.7461 33.7784 39.795 33.8692 39.8125C33.96 39.8288 34.0758 39.8259 34.2167 39.8037V39.9854ZM33.0065 38.2827V38.0993H34.2167V38.2827H33.0065ZM35.4239 40.029C35.3203 40.029 35.2272 40.0139 35.1445 39.9836C35.063 39.9533 34.992 39.9108 34.9315 39.8561C34.8709 39.8002 34.8209 39.735 34.7813 39.6605C34.7417 39.5849 34.712 39.5022 34.6922 39.4126C34.6736 39.3229 34.6643 39.2292 34.6643 39.1314V38.0993H34.8669V39.0808C34.8669 39.1995 34.8785 39.3055 34.9018 39.3986C34.9262 39.4917 34.9623 39.5709 35.0101 39.6361C35.059 39.7013 35.1195 39.7508 35.1917 39.7845C35.265 39.8183 35.3512 39.8352 35.4501 39.8352C35.5526 39.8352 35.6411 39.8177 35.7156 39.7828C35.7912 39.7467 35.8529 39.6966 35.9007 39.6326C35.9496 39.5686 35.9857 39.4929 36.0089 39.4056C36.0334 39.3171 36.0456 39.2211 36.0456 39.1174L36.2045 39.1366C36.2045 39.3404 36.1696 39.5086 36.0997 39.6413C36.0311 39.7729 35.9379 39.8707 35.8203 39.9347C35.7028 39.9976 35.5706 40.029 35.4239 40.029ZM36.0648 39.9854V39.561H36.0456V38.0993H36.2482V39.9854H36.0648ZM36.8577 39.9854V38.0993H37.041V38.5516L36.9956 38.4923C37.0166 38.4387 37.0428 38.3892 37.0742 38.3438C37.1068 38.2973 37.14 38.2594 37.1738 38.2303C37.2238 38.1837 37.2826 38.1488 37.3501 38.1255C37.4177 38.1011 37.4858 38.0871 37.5544 38.0836C37.6231 38.079 37.6854 38.0842 37.7413 38.0993V38.2897C37.6668 38.2722 37.5876 38.2687 37.5038 38.2792C37.42 38.2897 37.3414 38.3258 37.2681 38.3875C37.204 38.4434 37.1575 38.5086 37.1283 38.5831C37.0992 38.6564 37.0806 38.7338 37.0725 38.8153C37.0643 38.8957 37.0602 38.9742 37.0602 39.0511V39.9854H36.8577ZM38.9371 40.0377C38.7567 40.0377 38.6007 39.9976 38.4691 39.9172C38.3376 39.8358 38.2357 39.7211 38.1635 39.5732C38.0913 39.4242 38.0553 39.2484 38.0553 39.0458C38.0553 38.8398 38.0908 38.6622 38.1618 38.5132C38.234 38.363 38.3352 38.2478 38.4656 38.1674C38.5972 38.0871 38.7532 38.047 38.9336 38.047C39.1164 38.047 39.2724 38.0889 39.4017 38.1727C39.532 38.2553 39.631 38.3753 39.6985 38.5324C39.7672 38.6896 39.7998 38.8788 39.7963 39.1H39.5868V39.0301C39.5809 38.7717 39.5227 38.5749 39.4121 38.4399C39.3015 38.3048 39.1432 38.2373 38.9371 38.2373C38.7241 38.2373 38.5594 38.3077 38.4429 38.4486C38.3277 38.5883 38.27 38.7862 38.27 39.0423C38.27 39.2961 38.3277 39.4929 38.4429 39.6326C38.5594 39.7723 38.7229 39.8422 38.9336 39.8422C39.0792 39.8422 39.2061 39.8084 39.3143 39.7409C39.4238 39.6722 39.5105 39.5744 39.5745 39.4475L39.7562 39.5278C39.6805 39.6908 39.571 39.8165 39.4278 39.905C39.2847 39.9935 39.1211 40.0377 38.9371 40.0377ZM38.1932 39.1V38.9184H39.6828V39.1H38.1932ZM40.2017 40.3224L40.2157 40.2141C40.2588 40.2164 40.289 40.2065 40.3065 40.1844C40.3239 40.1635 40.3338 40.135 40.3362 40.0989C40.3397 40.0639 40.3402 40.0261 40.3379 39.9854H40.2017V39.6448H40.4549V40.0727C40.4549 40.1646 40.4311 40.2333 40.3833 40.2787C40.3356 40.3241 40.2751 40.3387 40.2017 40.3224ZM42.7884 40.0377C42.6103 40.0377 42.4595 39.9941 42.3361 39.9068C42.2139 39.8183 42.1202 39.699 42.055 39.5488C41.9909 39.3974 41.9589 39.2275 41.9589 39.0389C41.9589 38.8526 41.9909 38.6844 42.055 38.5342C42.119 38.384 42.211 38.2652 42.3309 38.1779C42.452 38.0906 42.5981 38.047 42.7692 38.047C42.945 38.047 43.0934 38.09 43.2145 38.1762C43.3356 38.2623 43.427 38.3805 43.4887 38.5307C43.5504 38.6797 43.5812 38.8491 43.5812 39.0389C43.5812 39.2275 43.5504 39.3968 43.4887 39.547C43.427 39.6972 43.3373 39.8165 43.2198 39.905C43.1022 39.9935 42.9584 40.0377 42.7884 40.0377ZM42.8006 39.8456C42.9415 39.8456 43.0585 39.8107 43.1516 39.7409C43.2459 39.6699 43.3158 39.5738 43.3612 39.4527C43.4078 39.3305 43.4311 39.1925 43.4311 39.0389C43.4311 38.884 43.4078 38.7461 43.3612 38.625C43.3146 38.5039 43.2448 38.4096 43.1516 38.3421C43.0585 38.2734 42.9427 38.239 42.8041 38.239C42.6609 38.239 42.5428 38.2746 42.4496 38.3456C42.3565 38.4154 42.2872 38.5109 42.2418 38.632C42.1964 38.7519 42.1737 38.8875 42.1737 39.0389C42.1737 39.1914 42.197 39.3287 42.2436 39.451C42.2913 39.5721 42.3612 39.6681 42.4531 39.7391C42.5463 39.8101 42.6621 39.8456 42.8006 39.8456ZM43.4311 39.9854V38.5324H43.4136V37.4707H43.6144V39.9854H43.4311ZM45.0027 40.0377C44.8222 40.0377 44.6662 39.9976 44.5347 39.9172C44.4031 39.8358 44.3012 39.7211 44.2291 39.5732C44.1569 39.4242 44.1208 39.2484 44.1208 39.0458C44.1208 38.8398 44.1563 38.6622 44.2273 38.5132C44.2995 38.363 44.4008 38.2478 44.5312 38.1674C44.6627 38.0871 44.8187 38.047 44.9992 38.047C45.182 38.047 45.338 38.0889 45.4672 38.1727C45.5976 38.2553 45.6965 38.3753 45.7641 38.5324C45.8328 38.6896 45.8653 38.8788 45.8619 39.1H45.6523V39.0301C45.6465 38.7717 45.5883 38.5749 45.4777 38.4399C45.3671 38.3048 45.2087 38.2373 45.0027 38.2373C44.7896 38.2373 44.6249 38.3077 44.5085 38.4486C44.3932 38.5883 44.3356 38.7862 44.3356 39.0423C44.3356 39.2961 44.3932 39.4929 44.5085 39.6326C44.6249 39.7723 44.7885 39.8422 44.9992 39.8422C45.1447 39.8422 45.2716 39.8084 45.3799 39.7409C45.4893 39.6722 45.576 39.5744 45.6401 39.4475L45.8217 39.5278C45.746 39.6908 45.6366 39.8165 45.4934 39.905C45.3502 39.9935 45.1866 40.0377 45.0027 40.0377ZM44.2587 39.1V38.9184H45.7483V39.1H44.2587ZM47.0672 40.0342C46.8495 40.0342 46.6696 39.9883 46.5276 39.8963C46.3867 39.8043 46.2994 39.6763 46.2656 39.5121L46.4717 39.4772C46.5008 39.5889 46.5695 39.678 46.6777 39.7444C46.786 39.8107 46.9187 39.8439 47.0759 39.8439C47.2319 39.8439 47.3559 39.8107 47.4479 39.7444C47.5398 39.678 47.5858 39.5872 47.5858 39.4719C47.5858 39.4091 47.5713 39.3578 47.5422 39.3183C47.5142 39.2775 47.4583 39.2403 47.3745 39.2065C47.2907 39.1727 47.1661 39.1332 47.0008 39.0878C46.8262 39.0412 46.6894 38.9946 46.5904 38.948C46.4926 38.9015 46.4234 38.8485 46.3826 38.7891C46.343 38.7298 46.3232 38.657 46.3232 38.5708C46.3232 38.4672 46.3529 38.3764 46.4123 38.2984C46.4717 38.2193 46.5543 38.1576 46.6603 38.1133C46.7674 38.0691 46.8908 38.047 47.0305 38.047C47.1702 38.047 47.2959 38.0702 47.4077 38.1168C47.5195 38.1622 47.6097 38.2262 47.6784 38.3089C47.7471 38.3904 47.7866 38.4853 47.7971 38.5935L47.5911 38.632C47.5713 38.5109 47.5101 38.4154 47.4077 38.3456C47.3052 38.2746 47.1772 38.2385 47.0235 38.2373C46.878 38.235 46.7592 38.2641 46.6673 38.3246C46.5753 38.384 46.5293 38.4626 46.5293 38.5604C46.5293 38.6162 46.545 38.664 46.5765 38.7036C46.609 38.742 46.6661 38.7775 46.7476 38.8101C46.8291 38.8427 46.9443 38.8776 47.0934 38.9149C47.275 38.9614 47.4164 39.0092 47.5177 39.0581C47.6202 39.107 47.6923 39.1646 47.7342 39.2309C47.7762 39.2961 47.7971 39.3771 47.7971 39.4737C47.7971 39.6483 47.7319 39.7857 47.6015 39.8858C47.4723 39.9848 47.2942 40.0342 47.0672 40.0342ZM48.3421 37.7186V37.4619H48.5429V37.7186H48.3421ZM48.3421 39.9854V38.0993H48.5429V39.9854H48.3421ZM49.9234 40.876C49.8303 40.876 49.7372 40.862 49.644 40.8341C49.552 40.8073 49.4659 40.763 49.3856 40.7013C49.3052 40.6408 49.2371 40.5599 49.1813 40.4586L49.3629 40.3503C49.4199 40.4667 49.5008 40.55 49.6056 40.6001C49.7104 40.6501 49.8169 40.6751 49.9252 40.6751C50.0777 40.6751 50.1982 40.6466 50.2867 40.5896C50.3763 40.5337 50.4403 40.4493 50.4788 40.3364C50.5172 40.2246 50.5364 40.0855 50.5364 39.919V39.4248H50.5573V38.0993H50.7407V39.919C50.7407 39.9749 50.7395 40.0284 50.7372 40.0797C50.7349 40.1309 50.7296 40.1821 50.7215 40.2333C50.7005 40.3789 50.6575 40.4988 50.5923 40.5931C50.5271 40.6885 50.4386 40.7595 50.3268 40.8061C50.2162 40.8527 50.0818 40.876 49.9234 40.876ZM49.9147 40.0377C49.7366 40.0377 49.5858 39.9941 49.4624 39.9068C49.3402 39.8183 49.2464 39.699 49.1813 39.5488C49.1172 39.3974 49.0852 39.2275 49.0852 39.0389C49.0852 38.8526 49.1172 38.6844 49.1813 38.5342C49.2453 38.384 49.3373 38.2652 49.4572 38.1779C49.5782 38.0906 49.7244 38.047 49.8955 38.047C50.0713 38.047 50.2197 38.09 50.3408 38.1762C50.4619 38.2623 50.5533 38.3805 50.615 38.5307C50.6767 38.6797 50.7075 38.8491 50.7075 39.0389C50.7075 39.2275 50.6767 39.3968 50.615 39.547C50.5533 39.6972 50.4636 39.8165 50.346 39.905C50.2285 39.9935 50.0847 40.0377 49.9147 40.0377ZM49.9269 39.8456C50.0678 39.8456 50.1848 39.8107 50.2779 39.7409C50.3722 39.6699 50.4421 39.5738 50.4875 39.4527C50.5341 39.3305 50.5573 39.1925 50.5573 39.0389C50.5573 38.884 50.5341 38.7461 50.4875 38.625C50.4409 38.5039 50.3711 38.4096 50.2779 38.3421C50.1848 38.2734 50.069 38.239 49.9304 38.239C49.7872 38.239 49.6691 38.2746 49.5759 38.3456C49.4828 38.4154 49.4135 38.5109 49.3681 38.632C49.3227 38.7519 49.3 38.8875 49.3 39.0389C49.3 39.1914 49.3233 39.3287 49.3699 39.451C49.4176 39.5721 49.4874 39.6681 49.5794 39.7391C49.6725 39.8101 49.7884 39.8456 49.9269 39.8456ZM52.7332 39.9854V39.0039C52.7332 38.8852 52.721 38.7792 52.6965 38.6861C52.6732 38.593 52.6371 38.5138 52.5882 38.4486C52.5405 38.3834 52.48 38.3339 52.4066 38.3002C52.3344 38.2664 52.2489 38.2495 52.1499 38.2495C52.0475 38.2495 51.9584 38.2676 51.8827 38.3037C51.8082 38.3386 51.7465 38.3881 51.6976 38.4521C51.6499 38.5161 51.6138 38.5924 51.5893 38.6809C51.5661 38.7682 51.5544 38.8636 51.5544 38.9673L51.3955 38.948C51.3955 38.7443 51.4299 38.5767 51.4985 38.4451C51.5684 38.3124 51.6621 38.2146 51.7797 38.1517C51.8973 38.0877 52.0294 38.0557 52.1761 38.0557C52.2797 38.0557 52.3723 38.0708 52.4538 38.1011C52.5364 38.1314 52.608 38.1744 52.6686 38.2303C52.7291 38.285 52.7792 38.3502 52.8187 38.4259C52.8583 38.5004 52.8874 38.5825 52.9061 38.6721C52.9259 38.7618 52.9357 38.8555 52.9357 38.9533V39.9854H52.7332ZM51.3519 39.9854V38.0993H51.5352V38.5237H51.5544V39.9854H51.3519ZM54.8766 40.0377C54.7311 40.0377 54.61 40.0121 54.5134 39.9609C54.4179 39.9097 54.3463 39.8422 54.2986 39.7583C54.2508 39.6733 54.227 39.5814 54.227 39.4824C54.227 39.3753 54.2491 39.2857 54.2933 39.2135C54.3387 39.1413 54.3987 39.0831 54.4732 39.0389C54.5489 38.9946 54.6321 38.9614 54.7229 38.9393C54.8265 38.916 54.9383 38.8962 55.0582 38.8799C55.1781 38.8625 55.2922 38.8473 55.4005 38.8345C55.5099 38.8217 55.599 38.8107 55.6677 38.8014L55.5943 38.845C55.599 38.6413 55.5606 38.4899 55.4791 38.391C55.3987 38.2909 55.2567 38.2408 55.053 38.2408C54.9098 38.2408 54.7916 38.2734 54.6985 38.3386C54.6065 38.4026 54.5419 38.5022 54.5046 38.6372L54.2986 38.5796C54.3417 38.4084 54.4284 38.2769 54.5588 38.1849C54.6892 38.0929 54.8562 38.047 55.06 38.047C55.2334 38.047 55.379 38.0807 55.4965 38.1482C55.6153 38.2158 55.6979 38.3106 55.7445 38.4329C55.7643 38.4829 55.7777 38.5417 55.7847 38.6093C55.7917 38.6756 55.7952 38.7426 55.7952 38.8101V39.9854H55.6118V39.4894L55.6799 39.5069C55.6229 39.6768 55.5233 39.8078 55.3813 39.8998C55.2393 39.9918 55.071 40.0377 54.8766 40.0377ZM54.8871 39.8526C55.0151 39.8526 55.1275 39.8299 55.2241 39.7845C55.3207 39.738 55.3987 39.6733 55.4581 39.5907C55.5187 39.5069 55.5571 39.4085 55.5734 39.2956C55.585 39.2327 55.5914 39.1646 55.5926 39.0912C55.5938 39.0179 55.5943 38.9638 55.5943 38.9288L55.6816 38.9847C55.606 38.994 55.5152 39.0039 55.4092 39.0144C55.3044 39.0249 55.1973 39.0377 55.0879 39.0528C54.9785 39.068 54.8795 39.0872 54.791 39.1105C54.7363 39.1256 54.681 39.1477 54.6251 39.1768C54.5704 39.2048 54.5244 39.2438 54.4872 39.2938C54.4511 39.3439 54.433 39.4073 54.433 39.4842C54.433 39.5412 54.447 39.5983 54.475 39.6553C54.5041 39.7123 54.5518 39.7595 54.6181 39.7968C54.6845 39.834 54.7742 39.8526 54.8871 39.8526ZM57.7522 39.9854V39.0039C57.7522 38.8852 57.7399 38.7792 57.7155 38.6861C57.6922 38.593 57.6561 38.5138 57.6072 38.4486C57.5595 38.3834 57.4989 38.3339 57.4256 38.3002C57.3534 38.2664 57.2679 38.2495 57.1689 38.2495C57.0664 38.2495 56.9774 38.2676 56.9017 38.3037C56.8272 38.3386 56.7655 38.3881 56.7166 38.4521C56.6689 38.5161 56.6328 38.5924 56.6083 38.6809C56.585 38.7682 56.5734 38.8636 56.5734 38.9673L56.4145 38.948C56.4145 38.7443 56.4488 38.5767 56.5175 38.4451C56.5874 38.3124 56.6811 38.2146 56.7987 38.1517C56.9163 38.0877 57.0484 38.0557 57.1951 38.0557C57.2987 38.0557 57.3913 38.0708 57.4728 38.1011C57.5554 38.1314 57.627 38.1744 57.6875 38.2303C57.7481 38.285 57.7981 38.3502 57.8377 38.4259C57.8773 38.5004 57.9064 38.5825 57.925 38.6721C57.9448 38.7618 57.9547 38.8555 57.9547 38.9533V39.9854H57.7522ZM56.3708 39.9854V38.0993H56.5542V38.5237H56.5734V39.9854H56.3708ZM59.2472 40.0377C59.0691 40.0377 58.9183 39.9941 58.7949 39.9068C58.6727 39.8183 58.5789 39.699 58.5137 39.5488C58.4497 39.3974 58.4177 39.2275 58.4177 39.0389C58.4177 38.8526 58.4497 38.6844 58.5137 38.5342C58.5778 38.384 58.6697 38.2652 58.7897 38.1779C58.9107 38.0906 59.0568 38.047 59.228 38.047C59.4038 38.047 59.5522 38.09 59.6733 38.1762C59.7944 38.2623 59.8858 38.3805 59.9475 38.5307C60.0092 38.6797 60.04 38.8491 60.04 39.0389C60.04 39.2275 60.0092 39.3968 59.9475 39.547C59.8858 39.6972 59.7961 39.8165 59.6785 39.905C59.5609 39.9935 59.4172 40.0377 59.2472 40.0377ZM59.2594 39.8456C59.4003 39.8456 59.5173 39.8107 59.6104 39.7409C59.7047 39.6699 59.7746 39.5738 59.82 39.4527C59.8665 39.3305 59.8898 39.1925 59.8898 39.0389C59.8898 38.884 59.8665 38.7461 59.82 38.625C59.7734 38.5039 59.7036 38.4096 59.6104 38.3421C59.5173 38.2734 59.4014 38.239 59.2629 38.239C59.1197 38.239 59.0015 38.2746 58.9084 38.3456C58.8153 38.4154 58.746 38.5109 58.7006 38.632C58.6552 38.7519 58.6325 38.8875 58.6325 39.0389C58.6325 39.1914 58.6558 39.3287 58.7023 39.451C58.7501 39.5721 58.8199 39.6681 58.9119 39.7391C59.005 39.8101 59.1209 39.8456 59.2594 39.8456ZM59.8898 39.9854V38.5324H59.8724V37.4707H60.0732V39.9854H59.8898ZM62.0506 40.0377C61.9051 40.0377 61.784 40.0121 61.6874 39.9609C61.5919 39.9097 61.5203 39.8422 61.4726 39.7583C61.4249 39.6733 61.401 39.5814 61.401 39.4824C61.401 39.3753 61.4231 39.2857 61.4674 39.2135C61.5128 39.1413 61.5727 39.0831 61.6472 39.0389C61.7229 38.9946 61.8061 38.9614 61.897 38.9393C62.0006 38.916 62.1123 38.8962 62.2322 38.8799C62.3522 38.8625 62.4663 38.8473 62.5745 38.8345C62.684 38.8217 62.773 38.8107 62.8417 38.8014L62.7684 38.845C62.773 38.6413 62.7346 38.4899 62.6531 38.391C62.5728 38.2909 62.4307 38.2408 62.227 38.2408C62.0838 38.2408 61.9656 38.2734 61.8725 38.3386C61.7805 38.4026 61.7159 38.5022 61.6787 38.6372L61.4726 38.5796C61.5157 38.4084 61.6024 38.2769 61.7328 38.1849C61.8632 38.0929 62.0303 38.047 62.234 38.047C62.4075 38.047 62.553 38.0807 62.6706 38.1482C62.7893 38.2158 62.872 38.3106 62.9185 38.4329C62.9383 38.4829 62.9517 38.5417 62.9587 38.6093C62.9657 38.6756 62.9692 38.7426 62.9692 38.8101V39.9854H62.7858V39.4894L62.8539 39.5069C62.7969 39.6768 62.6973 39.8078 62.5553 39.8998C62.4133 39.9918 62.2451 40.0377 62.0506 40.0377ZM62.0611 39.8526C62.1892 39.8526 62.3015 39.8299 62.3981 39.7845C62.4948 39.738 62.5728 39.6733 62.6322 39.5907C62.6927 39.5069 62.7311 39.4085 62.7474 39.2956C62.759 39.2327 62.7655 39.1646 62.7666 39.0912C62.7678 39.0179 62.7684 38.9638 62.7684 38.9288L62.8557 38.9847C62.78 38.994 62.6892 39.0039 62.5833 39.0144C62.4785 39.0249 62.3714 39.0377 62.2619 39.0528C62.1525 39.068 62.0535 39.0872 61.9651 39.1105C61.9103 39.1256 61.855 39.1477 61.7992 39.1768C61.7444 39.2048 61.6985 39.2438 61.6612 39.2938C61.6251 39.3439 61.6071 39.4073 61.6071 39.4842C61.6071 39.5412 61.621 39.5983 61.649 39.6553C61.6781 39.7123 61.7258 39.7595 61.7922 39.7968C61.8585 39.834 61.9482 39.8526 62.0611 39.8526ZM63.5449 39.9854V38.0993H63.7282V38.5516L63.6828 38.4923C63.7038 38.4387 63.73 38.3892 63.7614 38.3438C63.794 38.2973 63.8272 38.2594 63.8609 38.2303C63.911 38.1837 63.9698 38.1488 64.0373 38.1255C64.1048 38.1011 64.173 38.0871 64.2416 38.0836C64.3103 38.079 64.3726 38.0842 64.4285 38.0993V38.2897C64.354 38.2722 64.2748 38.2687 64.191 38.2792C64.1072 38.2897 64.0286 38.3258 63.9552 38.3875C63.8912 38.4434 63.8446 38.5086 63.8155 38.5831C63.7864 38.6564 63.7678 38.7338 63.7597 38.8153C63.7515 38.8957 63.7474 38.9742 63.7474 39.0511V39.9854H63.5449ZM65.882 39.9854C65.7818 40.0075 65.6829 40.0156 65.5851 40.0098C65.4873 40.0051 65.4 39.9836 65.3231 39.9452C65.2475 39.9056 65.1904 39.8451 65.152 39.7636C65.1206 39.6972 65.1031 39.6303 65.0996 39.5627C65.0961 39.4952 65.0944 39.4178 65.0944 39.3305V37.5755H65.297V39.327C65.297 39.4062 65.2975 39.4719 65.2987 39.5243C65.301 39.5756 65.3133 39.6227 65.3354 39.6658C65.3773 39.7461 65.4436 39.795 65.5345 39.8125C65.6253 39.8288 65.7411 39.8259 65.882 39.8037V39.9854ZM64.6718 38.2827V38.0993H65.882V38.2827H64.6718Z" fill="#13171B"/>
</svg>
