<svg width="82" height="64" viewBox="0 0 82 64" fill="none" xmlns="http://www.w3.org/2000/svg">
<circle cx="41.2526" cy="18.9498" r="10.9587" stroke="#13171B" stroke-width="0.835712"/>
<circle cx="41.2523" cy="18.9496" r="14.2507" stroke="#13171B" stroke-width="0.835712"/>
<circle cx="41.2519" cy="18.9491" r="17.7001" stroke="#13171B" stroke-width="0.835712"/>
<path d="M15.1128 53.3911C15.1128 53.1808 15.0298 53.0176 14.8638 52.9014C14.6978 52.7796 14.4681 52.7188 14.1749 52.7188C13.8705 52.7188 13.6326 52.7686 13.4611 52.8682C13.2951 52.9622 13.2121 53.0895 13.2121 53.25C13.2121 53.3883 13.2646 53.5045 13.3698 53.5986C13.4749 53.6871 13.6077 53.759 13.7682 53.8144C13.9342 53.8697 14.1583 53.9306 14.4405 53.997C14.8555 54.0966 15.1958 54.1989 15.4614 54.3041C15.7325 54.4092 15.9621 54.5724 16.1503 54.7938C16.3439 55.0151 16.4408 55.3111 16.4408 55.6819C16.4408 56.3293 16.2305 56.8051 15.81 57.1095C15.395 57.4083 14.8223 57.5577 14.0919 57.5577C13.4279 57.5577 12.8773 57.4138 12.4402 57.1261C12.0086 56.8328 11.7928 56.3901 11.7928 55.7981L11.8011 55.6155H13.0129L13.0046 55.7483C13.0046 55.9917 13.0959 56.1854 13.2785 56.3293C13.4611 56.4676 13.7184 56.5368 14.0504 56.5368C14.4377 56.5368 14.7144 56.4759 14.8804 56.3542C15.0519 56.2324 15.1377 56.0775 15.1377 55.8894C15.1377 55.7455 15.0851 55.6293 14.98 55.5408C14.8804 55.4467 14.7503 55.3748 14.5899 55.325C14.4349 55.2696 14.2164 55.2088 13.9342 55.1424C13.5136 55.0372 13.1706 54.9321 12.905 54.827C12.6394 54.7218 12.4097 54.5531 12.2161 54.3207C12.0224 54.0883 11.9256 53.7756 11.9256 53.3828C11.9256 53.0176 12.0252 52.7077 12.2244 52.4532C12.4236 52.1986 12.6892 52.0105 13.0212 51.8888C13.3587 51.7615 13.735 51.6979 14.15 51.6979C14.7863 51.6979 15.3064 51.839 15.7104 52.1212C16.1143 52.3978 16.3163 52.8128 16.3163 53.3662V53.4658H15.1128V53.3911ZM23.5768 55.0345C23.5768 55.5546 23.4634 56.0056 23.2365 56.3874C23.0097 56.7692 22.7026 57.0597 22.3152 57.2589C21.9334 57.4581 21.5074 57.5577 21.037 57.5577C20.5667 57.5577 20.1379 57.4581 19.7505 57.2589C19.3687 57.0597 19.0644 56.7692 18.8375 56.3874C18.6107 56.0056 18.4972 55.5546 18.4972 55.0345V54.2211C18.4972 53.7009 18.6107 53.25 18.8375 52.8682C19.0644 52.4864 19.3687 52.1959 19.7505 51.9967C20.1379 51.7975 20.5667 51.6979 21.037 51.6979C21.5074 51.6979 21.9334 51.7975 22.3152 51.9967C22.7026 52.1959 23.0097 52.4864 23.2365 52.8682C23.4634 53.25 23.5768 53.7009 23.5768 54.2211V55.0345ZM22.2322 54.0385C22.2322 53.6179 22.1216 53.2942 21.9002 53.0674C21.6789 52.835 21.3912 52.7188 21.037 52.7188C20.6829 52.7188 20.3952 52.835 20.1738 53.0674C19.9525 53.2942 19.8418 53.6179 19.8418 54.0385V55.2171C19.8418 55.6376 19.9525 55.9641 20.1738 56.1965C20.3952 56.4233 20.6829 56.5368 21.037 56.5368C21.3912 56.5368 21.6789 56.4233 21.9002 56.1965C22.1216 55.9641 22.2322 55.6376 22.2322 55.2171V54.0385ZM27.5609 54.8519C27.5001 54.7633 27.4171 54.6333 27.3119 54.4618C27.2068 54.2847 27.1376 54.1685 27.1044 54.1132L27.0712 54.1381V57.4747H25.9009V51.7809H26.9882L28.781 54.4203L29.03 54.8104C29.1186 54.9653 29.1877 55.0787 29.2375 55.1507L29.2624 55.1258V51.7809H30.4327V57.4747H29.3454L27.5609 54.8519ZM37.848 55.0345C37.848 55.5546 37.7346 56.0056 37.5077 56.3874C37.2809 56.7692 36.9738 57.0597 36.5864 57.2589C36.2046 57.4581 35.7785 57.5577 35.3082 57.5577C34.8379 57.5577 34.409 57.4581 34.0217 57.2589C33.6399 57.0597 33.3356 56.7692 33.1087 56.3874C32.8818 56.0056 32.7684 55.5546 32.7684 55.0345V54.2211C32.7684 53.7009 32.8818 53.25 33.1087 52.8682C33.3356 52.4864 33.6399 52.1959 34.0217 51.9967C34.409 51.7975 34.8379 51.6979 35.3082 51.6979C35.7785 51.6979 36.2046 51.7975 36.5864 51.9967C36.9738 52.1959 37.2809 52.4864 37.5077 52.8682C37.7346 53.25 37.848 53.7009 37.848 54.2211V55.0345ZM36.5034 54.0385C36.5034 53.6179 36.3927 53.2942 36.1714 53.0674C35.9501 52.835 35.6623 52.7188 35.3082 52.7188C34.9541 52.7188 34.6663 52.835 34.445 53.0674C34.2237 53.2942 34.113 53.6179 34.113 54.0385V55.2171C34.113 55.6376 34.2237 55.9641 34.445 56.1965C34.6663 56.4233 34.9541 56.5368 35.3082 56.5368C35.6623 56.5368 35.9501 56.4233 36.1714 56.1965C36.3927 55.9641 36.5034 55.6376 36.5034 55.2171V54.0385ZM43.185 53.3911C43.185 53.1808 43.102 53.0176 42.936 52.9014C42.77 52.7796 42.5404 52.7188 42.2471 52.7188C41.9428 52.7188 41.7048 52.7686 41.5333 52.8682C41.3673 52.9622 41.2843 53.0895 41.2843 53.25C41.2843 53.3883 41.3369 53.5045 41.442 53.5986C41.5471 53.6871 41.6799 53.759 41.8404 53.8144C42.0064 53.8697 42.2305 53.9306 42.5127 53.997C42.9277 54.0966 43.268 54.1989 43.5336 54.3041C43.8047 54.4092 44.0344 54.5724 44.2225 54.7938C44.4162 55.0151 44.513 55.3111 44.513 55.6819C44.513 56.3293 44.3027 56.8051 43.8822 57.1095C43.4672 57.4083 42.8945 57.5577 42.1641 57.5577C41.5001 57.5577 40.9495 57.4138 40.5124 57.1261C40.0808 56.8328 39.865 56.3901 39.865 55.7981L39.8733 55.6155H41.0851L41.0768 55.7483C41.0768 55.9917 41.1681 56.1854 41.3507 56.3293C41.5333 56.4676 41.7906 56.5368 42.1226 56.5368C42.5099 56.5368 42.7866 56.4759 42.9526 56.3542C43.1241 56.2324 43.2099 56.0775 43.2099 55.8894C43.2099 55.7455 43.1573 55.6293 43.0522 55.5408C42.9526 55.4467 42.8226 55.3748 42.6621 55.325C42.5072 55.2696 42.2886 55.2088 42.0064 55.1424C41.5859 55.0372 41.2428 54.9321 40.9772 54.827C40.7116 54.7218 40.482 54.5531 40.2883 54.3207C40.0946 54.0883 39.9978 53.7756 39.9978 53.3828C39.9978 53.0176 40.0974 52.7077 40.2966 52.4532C40.4958 52.1986 40.7614 52.0105 41.0934 51.8888C41.4309 51.7615 41.8072 51.6979 42.2222 51.6979C42.8585 51.6979 43.3787 51.839 43.7826 52.1212C44.1865 52.3978 44.3885 52.8128 44.3885 53.3662V53.4658H43.185V53.3911ZM50.4871 52.8018H48.0303V54.163H50.2381V55.1839H48.0303V57.4747H46.7687V51.7809H50.6199L50.4871 52.8018ZM52.7735 57.4747V51.7809H56.7824L56.6413 52.8018H54.0351V54.0468H56.467V55.0677H54.0351V56.4538H56.6662L56.8073 57.4747H52.7735ZM63.8429 57.4249C63.6603 57.4968 63.4224 57.5328 63.1291 57.5328C62.8469 57.5328 62.6173 57.4636 62.4402 57.3253C62.2631 57.1869 62.1746 56.9545 62.1746 56.6281C62.1746 56.1522 62.111 55.7815 61.9837 55.5159C61.862 55.2503 61.6296 55.1175 61.2865 55.1175H60.3237V57.4747H59.0621V51.7809H61.6102C62.1525 51.7809 62.6062 51.8915 62.9714 52.1129C63.3421 52.3342 63.5275 52.6939 63.5275 53.1919C63.5275 53.3911 63.4832 53.5875 63.3947 53.7812C63.3062 53.9748 63.1817 54.1408 63.0212 54.2792C62.8663 54.4175 62.6947 54.5033 62.5066 54.5365V54.578C62.7501 54.6554 62.9631 54.8214 63.1457 55.076C63.3283 55.3305 63.4196 55.6708 63.4196 56.0969C63.4196 56.7055 63.5607 57.0541 63.8429 57.1427V57.4249ZM61.5687 54.1132C61.7513 54.1132 61.9062 54.0523 62.0335 53.9306C62.1663 53.8088 62.2327 53.6622 62.2327 53.4907V53.4326C62.2327 53.25 62.1691 53.1006 62.0418 52.9844C61.9201 52.8626 61.7624 52.8018 61.5687 52.8018H60.3237V54.1132H61.5687ZM69.2299 56.3542H66.964L66.5656 57.4747H65.3289L67.3956 51.7809H68.9228L70.9895 57.4747H69.6449L69.2299 56.3542ZM67.3126 55.3831H68.8896C68.6794 54.7578 68.4248 54.0136 68.126 53.1504H68.0845L67.3126 55.3831Z" fill="#13171B"/>
</svg>
