<svg width="38" height="41" viewBox="0 0 38 41" fill="none" xmlns="http://www.w3.org/2000/svg">
<path d="M5.32993 30.0504C4.11924 30.0504 3.24485 29.8246 2.70677 29.373C2.17829 28.9118 1.89964 28.1479 1.87081 27.0813C1.8516 26.4087 1.83718 25.8033 1.82757 25.2653C1.82757 24.7176 1.82757 24.1699 1.82757 23.6222C1.83718 23.0745 1.8516 22.4499 1.87081 21.7485H3.02385C2.99503 22.6805 2.97581 23.5693 2.9662 24.4149C2.9662 25.2509 2.98542 26.1397 3.02385 27.0813C3.05268 27.8116 3.22083 28.3064 3.52831 28.5658C3.84539 28.8253 4.43633 28.955 5.30111 28.955C6.13706 28.955 6.70397 28.8253 7.00184 28.5658C7.30932 28.3064 7.48227 27.8116 7.52071 27.0813C7.54953 26.6105 7.56395 26.0916 7.56395 25.5247C7.56395 24.9482 7.55914 24.3765 7.54953 23.8096C7.53993 23.233 7.53032 22.7094 7.52071 22.2385C7.5111 21.2585 7.36697 20.5666 7.08832 20.1631C6.81928 19.7499 6.30041 19.4424 5.53171 19.2406L4.49398 18.9812C3.83098 18.8082 3.31211 18.568 2.93737 18.2605C2.56264 17.9531 2.29359 17.5159 2.13025 16.949C1.97651 16.3821 1.89003 15.6182 1.87081 14.6573C1.8612 13.9174 1.8612 13.1151 1.87081 12.2503C1.88042 11.3855 1.89003 10.516 1.89964 9.64157C1.90925 8.94014 2.02936 8.37323 2.25996 7.94084C2.49057 7.50845 2.8509 7.19617 3.34094 7.00399C3.84059 6.80221 4.49398 6.70132 5.30111 6.70132C6.44454 6.70132 7.27088 6.93193 7.78014 7.39315C8.2894 7.84475 8.55844 8.60384 8.58727 9.6704C8.60649 10.3718 8.6161 11.1165 8.6161 11.9044C8.6161 12.6827 8.60649 13.5427 8.58727 14.4843H7.43423C7.46306 13.485 7.47747 12.6107 7.47747 11.8612C7.47747 11.1021 7.46306 10.3718 7.43423 9.6704C7.4054 8.93053 7.24206 8.43569 6.94419 8.18586C6.65593 7.92643 6.09863 7.79671 5.27228 7.79671C4.43633 7.79671 3.86461 7.92643 3.55713 8.18586C3.24966 8.43569 3.0815 8.93053 3.05268 9.6704C3.02385 10.5448 3.01424 11.3759 3.02385 12.1638C3.03346 12.9421 3.04307 13.7733 3.05268 14.6573C3.0719 15.7335 3.17759 16.4877 3.36976 16.9201C3.57155 17.3429 3.94628 17.6264 4.49398 17.7705L5.56054 18.0299C6.34845 18.2221 6.96341 18.4719 7.4054 18.7794C7.8474 19.0773 8.15968 19.5001 8.34225 20.0478C8.53442 20.5955 8.64492 21.3257 8.67375 22.2385C8.69297 22.7478 8.70257 23.2859 8.70257 23.8528C8.71218 24.4101 8.71218 24.9674 8.70257 25.5247C8.70257 26.0724 8.69297 26.5913 8.67375 27.0813C8.63531 28.1479 8.36147 28.9118 7.85221 29.373C7.34295 29.8246 6.50219 30.0504 5.32993 30.0504ZM13.3089 30.0504C12.127 30.0504 11.2766 29.8246 10.7578 29.373C10.2485 28.9214 9.98428 28.1863 9.96506 27.1678C9.92663 23.7183 9.90741 20.3312 9.90741 17.0066C9.91702 13.6724 9.93624 10.2854 9.96506 6.84545H11.1181C11.0989 9.14192 11.0845 11.4096 11.0749 13.6484C11.0749 15.8872 11.0749 18.126 11.0749 20.3648C11.0845 22.6037 11.0893 24.8713 11.0893 27.1678C11.0893 27.8404 11.243 28.2968 11.5505 28.537C11.858 28.7772 12.4441 28.8973 13.3089 28.8973C14.1737 28.8973 14.755 28.7772 15.0529 28.537C15.3507 28.2968 15.4997 27.8404 15.4997 27.1678C15.4997 24.8713 15.5045 22.6037 15.5141 20.3648C15.5237 18.126 15.5285 15.8872 15.5285 13.6484C15.5285 11.4096 15.5189 9.14192 15.4997 6.84545H16.6527C16.6815 10.2854 16.7007 13.6724 16.7103 17.0066C16.72 20.3312 16.7007 23.7183 16.6527 27.1678C16.6431 28.1863 16.3788 28.9214 15.86 29.373C15.3411 29.8246 14.4907 30.0504 13.3089 30.0504ZM18.4802 29.9062V6.84545H21.9682C23.0251 6.84545 23.789 7.05684 24.2598 7.47962C24.7403 7.8928 24.9949 8.57501 25.0237 9.52627C25.0622 10.6409 25.0862 11.669 25.0958 12.6107C25.115 13.5427 25.115 14.4363 25.0958 15.2915C25.0862 16.137 25.0622 16.9922 25.0237 17.857C24.9949 18.5488 24.8508 19.0965 24.5913 19.5001C24.3415 19.894 23.9475 20.1727 23.4095 20.336L25.5426 29.9062H24.3319L22.2564 20.509H19.6333V29.9062H18.4802ZM19.6333 19.4136H21.9393C22.6792 19.4136 23.1837 19.3079 23.4527 19.0965C23.7217 18.8755 23.8611 18.4623 23.8707 17.857C23.8995 16.7616 23.9235 15.7959 23.9427 14.96C23.962 14.1144 23.9668 13.2737 23.9572 12.4377C23.9475 11.5921 23.9187 10.6217 23.8707 9.52627C23.8419 8.90171 23.6977 8.48373 23.4383 8.27234C23.1789 8.05134 22.6888 7.94084 21.9682 7.94084H19.6333V19.4136ZM26.5684 29.9062V6.84545H27.7214V29.9062H26.5684ZM28.6348 29.9062L30.7103 6.84545H33.9388L36.0143 29.9062H34.8324L34.1983 22.4403H30.4509L29.8167 29.9062H28.6348ZM30.5374 21.3449H34.1118L33.7082 16.5886L32.9011 7.94084H31.7481L30.9409 16.6175L30.5374 21.3449Z" fill="#13171B"/>
<path d="M8.1656 39.4056V35.8017H8.67016C8.83534 35.8017 8.95472 35.8347 9.0283 35.9008C9.10338 35.9654 9.14318 36.072 9.14768 36.2206C9.15519 36.4639 9.15894 36.6794 9.15894 36.8671C9.16044 37.0548 9.15669 37.2433 9.14768 37.4325C9.14167 37.5811 9.10113 37.6885 9.02605 37.7546C8.95096 37.8191 8.83083 37.8514 8.66565 37.8514H8.3458V39.4056H8.1656ZM8.3458 37.6802H8.66565C8.78278 37.6802 8.86087 37.663 8.89991 37.6284C8.94045 37.5939 8.96298 37.5286 8.96748 37.4325C8.97349 37.2928 8.97724 37.1652 8.97874 37.0496C8.98175 36.9324 8.98175 36.8093 8.97874 36.6801C8.97724 36.551 8.97349 36.3978 8.96748 36.2206C8.96598 36.123 8.94421 36.0577 8.90216 36.0247C8.86011 35.9901 8.78278 35.9729 8.67016 35.9729H8.3458V37.6802ZM10.3514 39.4056V35.8017H10.8965C11.0617 35.8017 11.181 35.8347 11.2546 35.9008C11.3297 35.9654 11.3695 36.072 11.374 36.2206C11.38 36.3948 11.3838 36.5555 11.3853 36.7027C11.3883 36.8483 11.3883 36.988 11.3853 37.1216C11.3838 37.2538 11.38 37.3874 11.374 37.5226C11.3695 37.6307 11.347 37.7163 11.3064 37.7794C11.2674 37.8409 11.2058 37.8845 11.1217 37.91L11.4551 39.4056H11.2659L10.9415 37.937H10.5316V39.4056H10.3514ZM10.5316 37.7658H10.892C11.0076 37.7658 11.0864 37.7493 11.1285 37.7163C11.1705 37.6817 11.1923 37.6172 11.1938 37.5226C11.1983 37.3514 11.2021 37.2005 11.2051 37.0698C11.2081 36.9377 11.2088 36.8063 11.2073 36.6756C11.2058 36.5435 11.2013 36.3918 11.1938 36.2206C11.1893 36.123 11.1668 36.0577 11.1262 36.0247C11.0857 35.9901 11.0091 35.9729 10.8965 35.9729H10.5316V37.7658ZM13.1246 39.4282C12.9384 39.4282 12.804 39.3899 12.7214 39.3133C12.6388 39.2367 12.596 39.1098 12.593 38.9326C12.59 38.6728 12.5877 38.4348 12.5862 38.2186C12.5847 38.0008 12.584 37.7914 12.584 37.5901C12.584 37.3874 12.5847 37.1802 12.5862 36.9685C12.5877 36.7567 12.59 36.527 12.593 36.2792C12.596 36.1005 12.6388 35.9729 12.7214 35.8963C12.804 35.8182 12.9384 35.7792 13.1246 35.7792C13.3123 35.7792 13.4474 35.8182 13.53 35.8963C13.6126 35.9729 13.6546 36.1005 13.6561 36.2792C13.6591 36.527 13.6614 36.7567 13.6629 36.9685C13.6659 37.1802 13.6674 37.3874 13.6674 37.5901C13.6674 37.7914 13.6659 38.0008 13.6629 38.2186C13.6614 38.4348 13.6591 38.6728 13.6561 38.9326C13.6546 39.1098 13.6126 39.2367 13.53 39.3133C13.4474 39.3899 13.3123 39.4282 13.1246 39.4282ZM13.1246 39.257C13.2597 39.257 13.3513 39.2352 13.3994 39.1917C13.4489 39.1466 13.4744 39.0603 13.4759 38.9326C13.4805 38.6638 13.4835 38.4243 13.485 38.2141C13.488 38.0023 13.4895 37.8004 13.4895 37.6082C13.4895 37.4145 13.488 37.2125 13.485 37.0023C13.4835 36.7905 13.4805 36.5495 13.4759 36.2792C13.4744 36.1501 13.4489 36.063 13.3994 36.0179C13.3513 35.9729 13.2597 35.9503 13.1246 35.9503C12.9894 35.9503 12.8978 35.9729 12.8498 36.0179C12.8017 36.063 12.7762 36.1501 12.7732 36.2792C12.7687 36.542 12.7649 36.777 12.7619 36.9842C12.7604 37.1915 12.7597 37.3919 12.7597 37.5856C12.7597 37.7779 12.7604 37.9813 12.7619 38.1961C12.7649 38.4093 12.7687 38.6548 12.7732 38.9326C12.7762 39.0603 12.8017 39.1466 12.8498 39.1917C12.8978 39.2352 12.9894 39.257 13.1246 39.257ZM14.9473 39.4056V35.8017H15.4699C15.6546 35.8017 15.7875 35.8347 15.8686 35.9008C15.9497 35.9654 15.9909 36.072 15.9925 36.2206C15.997 36.551 16 36.8649 16.0015 37.1622C16.003 37.458 16.003 37.7538 16.0015 38.0497C16 38.3455 15.997 38.6578 15.9925 38.9867C15.9909 39.1353 15.9527 39.2427 15.8776 39.3088C15.8025 39.3734 15.6801 39.4056 15.5104 39.4056H14.9473ZM15.1275 39.2345H15.5104C15.6276 39.2345 15.7064 39.2172 15.7469 39.1826C15.789 39.1466 15.8108 39.0813 15.8123 38.9867C15.8183 38.7149 15.8228 38.4686 15.8258 38.2479C15.8288 38.0256 15.8303 37.8109 15.8303 37.6037C15.8303 37.3964 15.8288 37.1824 15.8258 36.9617C15.8228 36.7395 15.8183 36.4924 15.8123 36.2206C15.8108 36.126 15.7867 36.0615 15.7402 36.0269C15.6936 35.9909 15.6035 35.9729 15.4699 35.9729H15.1275V39.2345ZM17.7781 39.4282C17.5934 39.4282 17.4605 39.3929 17.3794 39.3223C17.2998 39.2517 17.2585 39.1368 17.2555 38.9777C17.2495 38.4386 17.2465 37.9092 17.2465 37.3897C17.248 36.8686 17.251 36.3393 17.2555 35.8017H17.4357C17.4327 36.1606 17.4305 36.515 17.429 36.8649C17.429 37.2147 17.429 37.5646 17.429 37.9145C17.4305 38.2644 17.4312 38.6188 17.4312 38.9777C17.4312 39.0828 17.4552 39.1541 17.5033 39.1917C17.5513 39.2292 17.6429 39.248 17.7781 39.248C17.9132 39.248 18.0041 39.2292 18.0506 39.1917C18.0972 39.1541 18.1205 39.0828 18.1205 38.9777C18.1205 38.6188 18.1212 38.2644 18.1227 37.9145C18.1242 37.5646 18.125 37.2147 18.125 36.8649C18.125 36.515 18.1235 36.1606 18.1205 35.8017H18.3007C18.3052 36.3393 18.3082 36.8686 18.3097 37.3897C18.3112 37.9092 18.3082 38.4386 18.3007 38.9777C18.2992 39.1368 18.2579 39.2517 18.1768 39.3223C18.0957 39.3929 17.9628 39.4282 17.7781 39.4282ZM20.0999 39.4327C19.9197 39.4327 19.7861 39.3974 19.699 39.3268C19.6119 39.2547 19.5669 39.1353 19.5639 38.9687C19.5608 38.7179 19.5586 38.4814 19.5571 38.2591C19.5556 38.0369 19.5548 37.8199 19.5548 37.6082C19.5548 37.3949 19.5556 37.1772 19.5571 36.9549C19.5586 36.7327 19.5608 36.4969 19.5639 36.2477C19.5669 36.081 19.6112 35.9624 19.6967 35.8918C19.7823 35.8197 19.9152 35.7837 20.0954 35.7837C20.2831 35.7837 20.4205 35.8197 20.5076 35.8918C20.5962 35.9624 20.645 36.081 20.654 36.2477C20.6586 36.3423 20.6616 36.4286 20.6631 36.5067C20.6646 36.5848 20.6646 36.6629 20.6631 36.741C20.6616 36.8191 20.6586 36.9054 20.654 37H20.4739C20.4769 36.9054 20.4784 36.8191 20.4784 36.741C20.4799 36.6629 20.4799 36.5848 20.4784 36.5067C20.4784 36.4286 20.4769 36.3423 20.4739 36.2477C20.4693 36.132 20.4393 36.0547 20.3838 36.0157C20.3297 35.9751 20.2336 35.9549 20.0954 35.9549C19.9693 35.9549 19.8799 35.9751 19.8274 36.0157C19.7748 36.0547 19.7471 36.132 19.744 36.2477C19.738 36.524 19.7335 36.7702 19.7305 36.9865C19.729 37.2027 19.7283 37.4099 19.7283 37.6082C19.7283 37.8049 19.729 38.0114 19.7305 38.2276C19.7335 38.4438 19.738 38.6909 19.744 38.9687C19.7471 39.0828 19.7748 39.1601 19.8274 39.2007C19.8815 39.2412 19.9723 39.2615 20.0999 39.2615C20.2426 39.2615 20.3425 39.2412 20.3995 39.2007C20.4566 39.1601 20.4874 39.0828 20.4919 38.9687C20.4949 38.8996 20.4964 38.8275 20.4964 38.7524C20.4964 38.6773 20.4956 38.591 20.4941 38.4934C20.4926 38.3943 20.4904 38.2749 20.4874 38.1352H20.6676C20.6751 38.3199 20.6796 38.4731 20.6811 38.5947C20.6826 38.7149 20.6796 38.8395 20.6721 38.9687C20.6631 39.1353 20.6135 39.2547 20.5234 39.3268C20.4333 39.3974 20.2922 39.4327 20.0999 39.4327ZM22.104 39.4056V35.9729H21.5995V35.8017H22.7888V35.9729H22.2842V39.4056H22.104ZM24.313 39.4282C24.1268 39.4282 23.9924 39.3899 23.9098 39.3133C23.8272 39.2367 23.7844 39.1098 23.7814 38.9326C23.7784 38.6728 23.7762 38.4348 23.7747 38.2186C23.7732 38.0008 23.7724 37.7914 23.7724 37.5901C23.7724 37.3874 23.7732 37.1802 23.7747 36.9685C23.7762 36.7567 23.7784 36.527 23.7814 36.2792C23.7844 36.1005 23.8272 35.9729 23.9098 35.8963C23.9924 35.8182 24.1268 35.7792 24.313 35.7792C24.5007 35.7792 24.6359 35.8182 24.7185 35.8963C24.801 35.9729 24.8431 36.1005 24.8446 36.2792C24.8476 36.527 24.8499 36.7567 24.8514 36.9685C24.8544 37.1802 24.8559 37.3874 24.8559 37.5901C24.8559 37.7914 24.8544 38.0008 24.8514 38.2186C24.8499 38.4348 24.8476 38.6728 24.8446 38.9326C24.8431 39.1098 24.801 39.2367 24.7185 39.3133C24.6359 39.3899 24.5007 39.4282 24.313 39.4282ZM24.313 39.257C24.4482 39.257 24.5398 39.2352 24.5878 39.1917C24.6374 39.1466 24.6629 39.0603 24.6644 38.9326C24.6689 38.6638 24.6719 38.4243 24.6734 38.2141C24.6764 38.0023 24.6779 37.8004 24.6779 37.6082C24.6779 37.4145 24.6764 37.2125 24.6734 37.0023C24.6719 36.7905 24.6689 36.5495 24.6644 36.2792C24.6629 36.1501 24.6374 36.063 24.5878 36.0179C24.5398 35.9729 24.4482 35.9503 24.313 35.9503C24.1779 35.9503 24.0863 35.9729 24.0382 36.0179C23.9902 36.063 23.9646 36.1501 23.9616 36.2792C23.9571 36.542 23.9534 36.777 23.9504 36.9842C23.9489 37.1915 23.9481 37.3919 23.9481 37.5856C23.9481 37.7779 23.9489 37.9813 23.9504 38.1961C23.9534 38.4093 23.9571 38.6548 23.9616 38.9326C23.9646 39.0603 23.9902 39.1466 24.0382 39.1917C24.0863 39.2352 24.1779 39.257 24.313 39.257ZM26.1358 39.4056V35.8017H26.6809C26.846 35.8017 26.9654 35.8347 27.039 35.9008C27.1141 35.9654 27.1539 36.072 27.1584 36.2206C27.1644 36.3948 27.1681 36.5555 27.1696 36.7027C27.1726 36.8483 27.1726 36.988 27.1696 37.1216C27.1681 37.2538 27.1644 37.3874 27.1584 37.5226C27.1539 37.6307 27.1313 37.7163 27.0908 37.7794C27.0518 37.8409 26.9902 37.8845 26.9061 37.91L27.2395 39.4056H27.0503L26.7259 37.937H26.316V39.4056H26.1358ZM26.316 37.7658H26.6763C26.792 37.7658 26.8708 37.7493 26.9129 37.7163C26.9549 37.6817 26.9767 37.6172 26.9782 37.5226C26.9827 37.3514 26.9864 37.2005 26.9894 37.0698C26.9924 36.9377 26.9932 36.8063 26.9917 36.6756C26.9902 36.5435 26.9857 36.3918 26.9782 36.2206C26.9737 36.123 26.9512 36.0577 26.9106 36.0247C26.8701 35.9901 26.7935 35.9729 26.6809 35.9729H26.316V37.7658ZM28.2647 39.4056L28.5891 35.8017H29.0936L29.418 39.4056H29.2333L29.1342 38.2389H28.5485L28.4494 39.4056H28.2647ZM28.5621 38.0677H29.1207L29.0576 37.3244L28.9315 35.9729H28.7513L28.6251 37.3289L28.5621 38.0677Z" fill="#13171B"/>
</svg>
