<svg width="76" height="54" viewBox="0 0 76 54" fill="none" xmlns="http://www.w3.org/2000/svg">
<path d="M75.5333 53.3504L38.0807 53.2996L0.619995 53.3504L38.0979 0.136719L75.5333 53.3504ZM38.0763 50.7573L70.629 50.7992L38.0964 4.5535L5.52429 50.8022L38.0763 50.7573Z" fill="#13171B"/>
<path d="M5.26091 38.6453C5.23037 38.65 5.19916 38.6475 5.16979 38.6378C5.14043 38.6282 5.11374 38.6118 5.09189 38.59C5.07004 38.5682 5.05365 38.5415 5.04404 38.5121C5.03444 38.4827 5.03188 38.4515 5.03659 38.421V36.0889C5.03188 36.0583 5.03444 36.0271 5.04404 35.9977C5.05365 35.9684 5.07004 35.9417 5.09189 35.9198C5.11374 35.898 5.14043 35.8816 5.16979 35.872C5.19916 35.8624 5.23037 35.8598 5.26091 35.8645H11.6165C11.8541 35.8645 12.0877 35.8032 12.2947 35.6866C12.5129 35.5656 12.7085 35.4078 12.8727 35.22C13.0381 35.0348 13.1731 34.8246 13.2727 34.5972C13.366 34.3873 13.4152 34.1606 13.417 33.9309C13.414 33.6847 13.3889 33.4392 13.3423 33.1974C13.2849 32.884 13.1516 32.5893 12.9539 32.3393C12.7563 32.0893 12.5005 31.8915 12.2087 31.7633C11.8598 31.5928 11.3892 31.5076 10.797 31.5076H6.97318C6.82364 31.5076 6.74887 31.4328 6.74887 31.2833V28.9534C6.74887 28.8038 6.82364 28.729 6.97318 28.729H11.7302C11.9294 28.7273 12.1247 28.6737 12.2969 28.5735C12.4826 28.4695 12.6516 28.3385 12.7987 28.1847C12.9467 28.0284 13.0669 27.8478 13.1538 27.6508C13.2396 27.4661 13.2852 27.2653 13.2877 27.0616C13.2874 26.8549 13.2417 26.6507 13.1538 26.4635C13.0682 26.276 12.9477 26.1064 12.7987 25.964C12.6508 25.8239 12.482 25.7076 12.2984 25.6193C12.122 25.5326 11.9282 25.4871 11.7317 25.4862H5.26091C5.11136 25.4862 5.03659 25.4114 5.03659 25.2619V22.9297C5.03188 22.8992 5.03444 22.868 5.04404 22.8386C5.05365 22.8093 5.07004 22.7826 5.09189 22.7607C5.11374 22.7389 5.14043 22.7225 5.16979 22.7129C5.19916 22.7033 5.23037 22.7007 5.26091 22.7054H11.467C13.1862 22.7054 14.4903 23.0945 15.379 23.8726C16.2678 24.6507 16.7112 25.7142 16.7092 27.0631C16.7171 27.6046 16.665 28.1452 16.5537 28.6752C16.45 29.1268 16.1906 29.5156 15.7753 29.8417C15.6537 29.9356 15.5189 30.0112 15.3753 30.066C15.1974 30.1407 15.1084 30.1991 15.1084 30.2439C15.1084 30.2888 15.1974 30.3733 15.3753 30.4989C15.5264 30.6005 15.6612 30.7242 15.7753 30.866C16.1756 31.3114 16.455 31.8521 16.5866 32.4362C16.7211 33.0907 16.7846 33.7578 16.7758 34.4259C16.776 34.9606 16.6858 35.4915 16.5089 35.9961C16.3398 36.4917 16.0799 36.9514 15.7424 37.3517C15.4098 37.7441 15.0013 38.0653 14.5416 38.2961C14.0479 38.5398 13.5031 38.6618 12.9527 38.652L5.26091 38.6453Z" fill="#13171B"/>
<path d="M23.334 25.4865C23.0978 25.4862 22.8638 25.5314 22.6446 25.6196C22.214 25.7884 21.8587 26.107 21.6442 26.5169C21.5434 26.7051 21.49 26.915 21.4887 27.1285V28.9731C21.4887 29.0771 21.5261 29.1286 21.6001 29.1286C21.7182 29.1286 21.9176 29.0584 22.1983 28.9178C22.5113 28.7706 22.8544 28.6989 23.2002 28.7084H26.6016C27.2087 28.7084 27.7127 28.7974 28.1135 28.9754C28.528 29.1643 28.8881 29.455 29.1603 29.8203C29.4601 30.1942 29.6965 30.6148 29.8601 31.0652C30.0443 31.5477 30.1386 32.0599 30.1383 32.5764V34.0658C30.1331 34.5158 30.1034 34.9651 30.0493 35.4117C29.9923 35.929 29.8574 36.4347 29.6493 36.9117C29.4403 37.3881 29.1201 37.8073 28.7154 38.1342C28.3006 38.4761 27.7376 38.6466 27.0263 38.6456H21.1776C20.7369 38.657 20.3042 38.5259 19.9439 38.2718C19.599 38.0214 19.3058 37.7069 19.0803 37.3453C18.8547 36.9933 18.6785 36.6118 18.5569 36.2118C18.4492 35.8849 18.3893 35.5442 18.3789 35.2001V27.3536C18.376 26.7504 18.466 26.1504 18.6458 25.5747C18.8176 25.0223 19.1141 24.5168 19.5124 24.0972C19.9479 23.6516 20.4753 23.3063 21.058 23.0856C21.6876 22.8333 22.4617 22.7072 23.3804 22.7072H28.9382C28.9687 22.7027 28.9998 22.7054 29.0291 22.715C29.0584 22.7247 29.085 22.7411 29.1068 22.7629C29.1287 22.7847 29.145 22.8113 29.1547 22.8406C29.1644 22.8699 29.167 22.901 29.1625 22.9315V25.2652C29.1672 25.2957 29.1647 25.3269 29.1551 25.3563C29.1454 25.3857 29.1291 25.4123 29.1072 25.4342C29.0854 25.456 29.0587 25.4724 29.0293 25.482C28.9999 25.4916 28.9687 25.4942 28.9382 25.4895H23.334V25.4865ZM25.735 35.7557C25.9715 35.7639 26.2078 35.7341 26.4348 35.6675C26.5954 35.6162 26.7329 35.5104 26.8236 35.3684C26.923 35.1952 26.9801 35.001 26.9904 34.8016C27.0128 34.5648 27.024 34.2759 27.024 33.935V33.3121C27.024 32.9418 26.961 32.6379 26.8349 32.4007C26.7186 32.175 26.5414 31.9864 26.3234 31.8563C26.0924 31.725 25.8388 31.6382 25.5757 31.6006C25.2815 31.5554 24.9843 31.5331 24.6867 31.5341C24.3317 31.5341 23.9651 31.5415 23.5868 31.5565C23.2345 31.5666 22.8859 31.6302 22.5527 31.7449C22.2548 31.8474 21.9901 32.0282 21.7863 32.2683C21.5869 32.5056 21.4872 32.8545 21.4872 33.3151V33.938C21.4872 34.3368 21.5355 34.659 21.6322 34.9048C21.7076 35.1197 21.8378 35.3112 22.0098 35.4603C22.164 35.5861 22.3478 35.6703 22.5437 35.7048C22.7452 35.7422 22.9497 35.7607 23.1546 35.7602L25.735 35.7557Z" fill="#13171B"/>
<path d="M31.7578 33.2007V26.1318C31.7578 25.0201 32.0726 24.1727 32.7022 23.5895C33.3318 23.0063 34.2024 22.7134 35.314 22.7109H40.2489C41.3311 22.7109 42.1982 23.0038 42.8503 23.5895C43.5023 24.1752 43.8283 25.0226 43.8283 26.1318V34.4008C43.8283 35.1864 43.743 35.8496 43.5726 36.3905C43.4021 36.9313 43.1613 37.3685 42.8503 37.702C42.5396 38.0347 42.1496 38.2832 41.7167 38.4243C41.2355 38.5786 40.7326 38.6544 40.2273 38.6486H35.7589C35.1622 38.659 34.5672 38.5835 33.992 38.4243C33.5228 38.2923 33.0945 38.0438 32.7471 37.702C32.4136 37.3685 32.1643 36.9313 31.9993 36.3905C31.8344 35.8496 31.7528 35.1864 31.7548 34.4008L31.7578 33.2007ZM36.5148 35.8678H39.0488C39.7746 35.8678 40.2562 35.7233 40.4934 35.4341C40.7307 35.145 40.8494 34.7041 40.8494 34.1114V27.2204C40.8485 27.0091 40.8147 26.7992 40.7492 26.5983C40.6831 26.3921 40.5731 26.2025 40.4269 26.0428C40.2702 25.8737 40.0813 25.7377 39.8713 25.6427C39.6118 25.5315 39.3311 25.4785 39.0488 25.4872H36.5148C35.9959 25.4872 35.5734 25.6206 35.2474 25.8873C34.9214 26.1539 34.7584 26.5983 34.7584 27.2204V34.1114C34.7584 34.7041 34.8883 35.145 35.148 35.4341C35.4077 35.7233 35.8563 35.8678 36.4939 35.8678H36.5148Z" fill="#13171B"/>
<path d="M45.3987 24.378C45.3916 24.1832 45.4338 23.9898 45.5214 23.8157C45.5982 23.6703 45.711 23.547 45.8489 23.4575C45.991 23.3664 46.1487 23.302 46.314 23.2676C46.4907 23.2299 46.6709 23.2111 46.8516 23.2115C47.0914 23.2074 47.3311 23.2247 47.5679 23.2631C47.7397 23.2909 47.8987 23.371 48.0232 23.4927C48.1603 23.6456 48.257 23.8304 48.3044 24.0303C48.3897 24.3505 48.4581 24.6749 48.5093 25.0023L49.0611 28.3887C49.0678 28.4164 49.0768 28.4635 49.0873 28.5218C49.0975 28.5838 49.111 28.6452 49.1276 28.7058C49.1446 28.7676 49.1618 28.8222 49.1792 28.8695C49.1957 28.9174 49.2114 28.9443 49.2248 28.9443C49.2383 28.9443 49.2555 28.9204 49.2764 28.8695C49.2985 28.8167 49.3156 28.7618 49.3273 28.7058C49.3407 28.6445 49.3549 28.5854 49.3684 28.5271C49.378 28.4918 49.3847 28.4558 49.3886 28.4194L49.921 24.9612C49.966 24.6415 50.0327 24.3252 50.1206 24.0146C50.1712 23.8191 50.2696 23.6392 50.407 23.4912C50.5357 23.3705 50.6983 23.2923 50.8728 23.2669C51.1164 23.2285 51.3628 23.2112 51.6093 23.2153C52.0385 23.2153 52.3897 23.3005 52.6628 23.471C52.936 23.6415 53.0726 23.9348 53.0726 24.351V30.4494C53.0746 30.4634 53.0733 30.4776 53.0689 30.4909C53.0644 30.5042 53.057 30.5164 53.047 30.5263C53.0371 30.5363 53.025 30.5437 53.0116 30.5482C52.9983 30.5526 52.9841 30.5539 52.9702 30.5519H51.6871C51.6732 30.5539 51.659 30.5526 51.6456 30.5482C51.6323 30.5437 51.6202 30.5363 51.6102 30.5263C51.6003 30.5164 51.5928 30.5042 51.5883 30.4909C51.5839 30.4776 51.5826 30.4634 51.5846 30.4494V24.8692C51.5831 24.8401 51.5799 24.8112 51.5749 24.7825C51.5674 24.7376 51.5472 24.7159 51.5136 24.7159C51.4992 24.7153 51.4848 24.7183 51.4717 24.7245C51.4587 24.7308 51.4474 24.7402 51.4388 24.7518C51.4217 24.7757 51.4062 24.8007 51.3925 24.8266C51.3813 24.8565 51.3728 24.8872 51.367 24.9186C51.3573 24.9664 51.3469 25.018 51.3364 25.0726C51.3259 25.1272 51.3162 25.1818 51.3057 25.2363C51.2953 25.2909 51.287 25.3313 51.2803 25.359C51.2392 25.5295 51.2003 25.7082 51.1622 25.8958C51.124 26.0835 51.0724 26.3325 51.0037 26.6436C50.9349 26.9546 50.8541 27.3494 50.7532 27.8302C50.6522 28.311 50.5229 28.9271 50.3591 29.6771C50.3386 29.7869 50.3042 29.8937 50.2567 29.9948C50.2083 30.0985 50.1408 30.1921 50.0578 30.2707C49.9588 30.3609 49.8418 30.4289 49.7146 30.4704C49.5394 30.5256 49.3561 30.5508 49.1725 30.5452C49.0073 30.5493 48.8427 30.524 48.6865 30.4704C48.5726 30.4298 48.467 30.369 48.3747 30.2909C48.2964 30.2265 48.2327 30.1462 48.1877 30.0554C48.1497 29.973 48.1189 29.8874 48.0958 29.7997L47.0729 24.929C47.0579 24.8909 47.0459 24.8517 47.037 24.8116C47.0198 24.7466 46.9974 24.7107 46.9705 24.704H46.9196C46.8919 24.704 46.8785 24.7279 46.8785 24.7787V30.4472C46.8805 30.4611 46.8792 30.4753 46.8748 30.4887C46.8703 30.502 46.8629 30.5141 46.8529 30.5241C46.843 30.534 46.8308 30.5415 46.8175 30.5459C46.8042 30.5504 46.79 30.5516 46.776 30.5496H45.4967C45.4828 30.5515 45.4687 30.5502 45.4555 30.5457C45.4422 30.5412 45.4302 30.5337 45.4204 30.5237C45.4105 30.5138 45.4031 30.5017 45.3987 30.4884C45.3943 30.4752 45.393 30.4611 45.395 30.4472L45.3987 24.378Z" fill="#13171B"/>
<path d="M58.0517 23.2119H59.3311C59.345 23.2099 59.3592 23.2111 59.3725 23.2156C59.3858 23.22 59.398 23.2275 59.4079 23.2374C59.4179 23.2474 59.4253 23.2595 59.4298 23.2728C59.4342 23.2862 59.4355 23.3004 59.4335 23.3143V28.1745C59.4351 28.3918 59.4213 28.6089 59.3924 28.8242C59.3728 28.9799 59.3352 29.1327 59.2802 29.2796C59.2333 29.4001 59.1731 29.5149 59.1008 29.6221C59.0234 29.7402 58.9361 29.8515 58.8398 29.9548C58.7344 30.0595 58.6136 30.1475 58.4816 30.2158C58.3557 30.2829 58.2258 30.3426 58.0928 30.3945C57.9588 30.4385 57.8222 30.4745 57.6838 30.5021C57.522 30.534 57.3575 30.5495 57.1926 30.5485H55.9962C55.7841 30.549 55.5727 30.5239 55.3666 30.4737C55.191 30.4338 55.0234 30.3646 54.8709 30.2688C54.7373 30.1881 54.6135 30.092 54.5023 29.9825C54.3795 29.8611 54.2697 29.7273 54.1748 29.5832C54.0863 29.4336 54.016 29.2739 53.9654 29.1076C53.9137 28.9334 53.8885 28.7525 53.8906 28.5708V23.3143C53.8886 23.3004 53.8899 23.2862 53.8944 23.2728C53.8988 23.2595 53.9063 23.2474 53.9162 23.2374C53.9262 23.2275 53.9383 23.22 53.9516 23.2156C53.965 23.2111 53.9792 23.2099 53.9931 23.2119H55.2694C55.2834 23.2099 55.2976 23.2111 55.3109 23.2156C55.3242 23.22 55.3364 23.2275 55.3463 23.2374C55.3562 23.2474 55.3637 23.2595 55.3682 23.2728C55.3726 23.2862 55.3739 23.3004 55.3719 23.3143V28.3076C55.3742 28.403 55.3898 28.4976 55.4182 28.5887C55.4483 28.6951 55.495 28.796 55.5566 28.8878C55.6179 28.98 55.696 29.0599 55.7869 29.1233C55.8812 29.1887 55.9937 29.2227 56.1084 29.2205H57.1829C57.2962 29.2211 57.407 29.1872 57.5006 29.1233C57.5941 29.0598 57.6754 28.98 57.7407 28.8878C57.8055 28.7958 57.8571 28.6951 57.8939 28.5887C57.9293 28.4954 57.9485 28.3968 57.9508 28.2971V23.3143C57.9488 23.3005 57.9501 23.2865 57.9544 23.2733C57.9588 23.2601 57.9661 23.248 57.9759 23.2381C57.9857 23.2282 57.9976 23.2207 58.0107 23.2161C58.0239 23.2116 58.0379 23.2101 58.0517 23.2119Z" fill="#13171B"/>
<path d="M62.1649 27.4995C61.9357 27.4972 61.7075 27.4696 61.4845 27.4172C61.2433 27.3633 61.0177 27.2548 60.825 27.1002C60.7081 27.0044 60.6093 26.8884 60.5334 26.7577C60.4535 26.6217 60.3883 26.4776 60.339 26.3278C60.2875 26.1744 60.2497 26.0168 60.226 25.8567C60.2023 25.6993 60.1903 25.5404 60.1902 25.3812V25.1868C60.1901 25.1248 60.1971 25.0631 60.2111 25.0028C60.2565 24.4091 60.4785 23.95 60.8773 23.6255C61.0107 23.5187 61.1548 23.426 61.3072 23.3489C61.461 23.2647 61.6329 23.219 61.8082 23.2158H65.1954C65.2093 23.2138 65.2235 23.215 65.2368 23.2195C65.2502 23.2239 65.2623 23.2314 65.2723 23.2413C65.2822 23.2513 65.2897 23.2634 65.2941 23.2768C65.2986 23.2901 65.2998 23.3043 65.2978 23.3182V24.4435C65.2998 24.4574 65.2986 24.4716 65.2941 24.485C65.2897 24.4983 65.2822 24.5104 65.2723 24.5204C65.2623 24.5303 65.2502 24.5378 65.2368 24.5423C65.2235 24.5467 65.2093 24.548 65.1954 24.546H62.2367C62.1865 24.5473 62.1373 24.5594 62.0923 24.5815C62.0472 24.6035 62.0075 24.635 61.9757 24.6738C61.9071 24.7447 61.8501 24.826 61.8067 24.9146C61.7741 24.9784 61.7533 25.0475 61.7454 25.1187C61.7387 25.1875 61.7357 25.2555 61.7357 25.3236C61.7359 25.4365 61.7426 25.5494 61.7559 25.6616C61.769 25.7765 61.8191 25.8841 61.8987 25.9681C61.9839 26.0479 62.0946 26.095 62.2112 26.1012C62.3556 26.1152 62.5006 26.1219 62.6457 26.1214H63.7934C64.018 26.1231 64.2415 26.1525 64.4589 26.2089C64.6959 26.2698 64.9162 26.3832 65.1034 26.5409C65.2209 26.6384 65.3197 26.7565 65.395 26.8893C65.4745 27.0289 65.5396 27.1762 65.5894 27.329C65.641 27.4888 65.6768 27.6534 65.6964 27.8202C65.7166 27.9832 65.7268 28.1473 65.727 28.3115V28.5261C65.7273 28.5847 65.7206 28.6432 65.7068 28.7003C65.652 29.3209 65.4337 29.7984 65.0518 30.1329C64.9191 30.2394 64.777 30.3335 64.6271 30.4141C64.4829 30.4998 64.3193 30.5474 64.1516 30.5524H60.4287C60.4148 30.5544 60.4006 30.5531 60.3872 30.5487C60.3739 30.5442 60.3618 30.5368 60.3518 30.5268C60.3419 30.5169 60.3344 30.5047 60.3299 30.4914C60.3255 30.4781 60.3242 30.4639 60.3262 30.45V29.3201C60.3244 29.3063 60.3257 29.2922 60.3302 29.2789C60.3347 29.2657 60.3422 29.2537 60.3522 29.2438C60.3621 29.234 60.3742 29.2265 60.3874 29.2221C60.4007 29.2177 60.4148 29.2165 60.4287 29.2185H63.7186C63.7718 29.2171 63.8239 29.2028 63.8703 29.1767C63.9167 29.1506 63.956 29.1136 63.9848 29.0689C64.0503 28.9857 64.1053 28.8948 64.1486 28.7982C64.1805 28.7302 64.2012 28.6575 64.2099 28.5829C64.2166 28.5149 64.2204 28.4431 64.2204 28.3683C64.2202 28.2538 64.2132 28.1395 64.1994 28.0258C64.1858 27.9061 64.136 27.7934 64.0566 27.7028C63.9776 27.6218 63.876 27.5666 63.765 27.5443C63.619 27.5117 63.4697 27.4964 63.3201 27.4987L62.1649 27.4995Z" fill="#13171B"/>
<path d="M66.5846 23.2119H67.8632C67.8771 23.2099 67.8913 23.2111 67.9046 23.2156C67.918 23.22 67.9301 23.2275 67.94 23.2374C67.95 23.2474 67.9575 23.2595 67.9619 23.2728C67.9663 23.2862 67.9676 23.3004 67.9656 23.3143V30.446C67.9676 30.46 67.9663 30.4742 67.9619 30.4875C67.9575 30.5008 67.95 30.513 67.94 30.5229C67.9301 30.5328 67.918 30.5403 67.9046 30.5448C67.8913 30.5492 67.8771 30.5505 67.8632 30.5485H66.5846C66.5706 30.5505 66.5564 30.5492 66.5431 30.5448C66.5298 30.5403 66.5176 30.5328 66.5077 30.5229C66.4978 30.513 66.4903 30.5008 66.4858 30.4875C66.4814 30.4742 66.4801 30.46 66.4821 30.446V23.3143C66.4801 23.3004 66.4814 23.2862 66.4858 23.2728C66.4903 23.2595 66.4978 23.2474 66.5077 23.2374C66.5176 23.2275 66.5298 23.22 66.5431 23.2156C66.5564 23.2111 66.5706 23.2099 66.5846 23.2119Z" fill="#13171B"/>
<path d="M68.764 25.4946C68.7623 25.2136 68.8037 24.934 68.8866 24.6654C68.9217 24.5292 68.9788 24.3997 69.0556 24.2818C69.1239 24.181 69.1973 24.0837 69.2755 23.9902C69.4839 23.7472 69.7423 23.5519 70.0329 23.4175C70.3267 23.2806 70.6472 23.2104 70.9713 23.2119H73.6855C73.6994 23.2099 73.7136 23.2111 73.727 23.2156C73.7403 23.22 73.7524 23.2275 73.7624 23.2374C73.7723 23.2474 73.7798 23.2595 73.7842 23.2728C73.7887 23.2862 73.7899 23.3004 73.7879 23.3143V24.4396C73.7899 24.4535 73.7887 24.4677 73.7842 24.4811C73.7798 24.4944 73.7723 24.5065 73.7624 24.5165C73.7524 24.5264 73.7403 24.5339 73.727 24.5383C73.7136 24.5428 73.6994 24.5441 73.6855 24.5421H71.0356C70.9123 24.5634 70.7953 24.6116 70.6927 24.6831C70.5901 24.7547 70.5045 24.848 70.4419 24.9563C70.3128 25.1781 70.248 25.4665 70.2475 25.8214V28.4108C70.2564 28.6209 70.3378 28.8214 70.4778 28.9783C70.6272 29.1253 70.8261 29.2111 71.0356 29.219H73.6855C73.6993 29.2171 73.7135 29.2183 73.7267 29.2227C73.74 29.2271 73.7521 29.2345 73.762 29.2444C73.7719 29.2543 73.7795 29.2663 73.784 29.2795C73.7884 29.2928 73.7898 29.3069 73.7879 29.3207V30.4468C73.7899 30.4607 73.7887 30.4749 73.7842 30.4882C73.7798 30.5016 73.7723 30.5137 73.7624 30.5237C73.7524 30.5336 73.7403 30.5411 73.727 30.5455C73.7136 30.55 73.6994 30.5512 73.6855 30.5492H71.0685C70.8862 30.5518 70.7042 30.5327 70.5264 30.4924C70.3867 30.4604 70.2497 30.4177 70.1166 30.3645C69.852 30.2654 69.614 30.1062 69.4213 29.8995C69.2096 29.6735 69.0397 29.4117 68.9195 29.1263C68.8779 29.0294 68.8439 28.9294 68.8178 28.8272C68.7804 28.6749 68.763 28.5183 68.7663 28.3614L68.764 25.4946Z" fill="#13171B"/>
<path d="M50.005 37.4834V38.5616C50.0069 38.5749 50.0057 38.5884 50.0014 38.6012C49.9971 38.6139 49.99 38.6255 49.9805 38.635C49.971 38.6445 49.9594 38.6516 49.9467 38.6559C49.9339 38.6601 49.9204 38.6614 49.9071 38.6595H47.0658C47.0262 38.6598 46.9866 38.6566 46.9476 38.6498C46.4058 38.6044 46.0205 38.4459 45.7916 38.1742C45.5628 37.9026 45.4484 37.4926 45.4484 36.9442V31.7297C45.4466 31.7164 45.4478 31.7028 45.4521 31.6901C45.4563 31.6773 45.4635 31.6658 45.473 31.6563C45.4825 31.6468 45.4941 31.6396 45.5068 31.6353C45.5195 31.6311 45.5331 31.6298 45.5464 31.6317H46.7712C46.7845 31.6298 46.798 31.6311 46.8107 31.6353C46.8235 31.6396 46.8351 31.6468 46.8445 31.6563C46.854 31.6658 46.8612 31.6773 46.8655 31.6901C46.8697 31.7028 46.871 31.7164 46.8691 31.7297V37.0616C46.8691 37.277 46.997 37.3854 47.2519 37.3854H49.9078C49.9211 37.3837 49.9346 37.385 49.9472 37.3893C49.9598 37.3936 49.9713 37.4008 49.9807 37.4103C49.9901 37.4198 49.9972 37.4313 50.0014 37.444C50.0056 37.4566 50.0069 37.4701 50.005 37.4834Z" fill="#13171B"/>
<path d="M52.2686 32.2103C52.3469 31.9561 52.4907 31.7961 52.7 31.7303C52.9779 31.6565 53.2651 31.6235 53.5524 31.6324C53.848 31.6232 54.1433 31.6562 54.4295 31.7303C54.6419 31.7961 54.7874 31.9561 54.8662 32.2103L56.8387 38.6011C56.8387 38.64 56.8162 38.6602 56.7706 38.6602H55.483C55.4549 38.6624 55.4269 38.6549 55.4037 38.6388C55.3805 38.6227 55.3636 38.5991 55.3559 38.5719L54.8363 36.8761C54.8302 36.8473 54.8141 36.8216 54.7908 36.8036C54.7675 36.7857 54.7385 36.7766 54.7092 36.7782H52.4054C52.3747 36.7775 52.3449 36.7881 52.3215 36.8079C52.298 36.8277 52.2827 36.8555 52.2783 36.8858L51.7549 38.5622C51.7489 38.591 51.7328 38.6167 51.7095 38.6347C51.6862 38.6526 51.6572 38.6617 51.6278 38.6602H50.3567C50.3043 38.6602 50.2782 38.64 50.2782 38.6011L52.2686 32.2103ZM53.6698 33.0829C53.6584 33.0341 53.6421 32.9865 53.6212 32.9409C53.6139 32.9294 53.6037 32.9202 53.5916 32.9141C53.5795 32.9081 53.5659 32.9054 53.5524 32.9065C53.5195 32.9065 53.4836 32.9655 53.4448 33.0829L52.7584 35.3179C52.7588 35.3278 52.7573 35.3377 52.7539 35.347C52.7505 35.353 52.7487 35.3596 52.7486 35.3665C52.7486 35.4128 52.7748 35.4353 52.8271 35.4353H54.2874C54.3398 35.4353 54.3622 35.4128 54.3622 35.3665C54.3621 35.3597 54.3605 35.3531 54.3577 35.347C54.3536 35.3379 54.3518 35.3279 54.3525 35.3179L53.6698 33.0829Z" fill="#13171B"/>
<path d="M57.4447 31.7297C57.4429 31.7164 57.4441 31.7028 57.4484 31.6901C57.4526 31.6773 57.4598 31.6658 57.4693 31.6563C57.4788 31.6468 57.4904 31.6396 57.5031 31.6353C57.5158 31.6311 57.5294 31.6298 57.5427 31.6317H61.0712C61.2939 31.6297 61.5151 31.6695 61.7232 31.7491C61.9193 31.8244 62.0975 31.9398 62.2466 32.0878C62.3972 32.2406 62.5155 32.4222 62.5943 32.6217C62.6818 32.8466 62.725 33.0862 62.7214 33.3275C62.7283 33.6098 62.6974 33.8917 62.6294 34.1657C62.588 34.3321 62.5204 34.4909 62.429 34.636C62.3765 34.7201 62.3082 34.7932 62.2279 34.8514C62.1688 34.8873 62.1396 34.9149 62.1396 34.9351C62.1396 34.9673 62.1905 35.0361 62.2892 35.1408C62.3879 35.2454 62.503 35.3651 62.6272 35.5034C62.6758 35.567 62.7169 35.636 62.7498 35.709C62.7856 35.7871 62.8169 35.8673 62.8433 35.949C62.8689 36.0289 62.887 36.111 62.8971 36.1943C62.9061 36.2642 62.9111 36.3346 62.912 36.4051C62.9135 36.7015 62.884 36.9972 62.8238 37.2875C62.7722 37.5448 62.667 37.7883 62.515 38.0023C62.3634 38.2084 62.163 38.3736 61.9318 38.4831C61.6419 38.6103 61.327 38.6706 61.0106 38.6595H57.5427C57.5294 38.6614 57.5158 38.6601 57.5031 38.6559C57.4904 38.6516 57.4788 38.6445 57.4693 38.635C57.4598 38.6255 57.4526 38.6139 57.4484 38.6012C57.4441 38.5884 57.4429 38.5749 57.4447 38.5616V31.7297ZM58.8654 34.3467C58.8634 34.36 58.8645 34.3736 58.8687 34.3864C58.8729 34.3992 58.8801 34.4109 58.8896 34.4204C58.8991 34.43 58.9108 34.4371 58.9236 34.4413C58.9364 34.4455 58.95 34.4467 58.9633 34.4446H60.6592C60.9204 34.4446 61.1065 34.3875 61.2177 34.2734C61.3284 34.159 61.3845 33.9511 61.3845 33.6505C61.3845 33.3701 61.3097 33.1757 61.1684 33.0673C61.0213 32.9583 60.8421 32.9015 60.6592 32.9058H58.9641C58.9508 32.9039 58.9372 32.9052 58.9245 32.9095C58.9118 32.9137 58.9002 32.9209 58.8907 32.9304C58.8812 32.9399 58.874 32.9514 58.8698 32.9642C58.8655 32.9769 58.8643 32.9905 58.8661 33.0038L58.8654 34.3467ZM58.8654 37.2875C58.8635 37.3008 58.8648 37.3143 58.869 37.327C58.8733 37.3398 58.8805 37.3513 58.8899 37.3608C58.8994 37.3703 58.911 37.3775 58.9238 37.3818C58.9365 37.386 58.95 37.3873 58.9633 37.3854H61.0315C61.1305 37.3889 61.2276 37.3577 61.3059 37.2972C61.379 37.2363 61.439 37.1613 61.4824 37.0766C61.5277 36.9888 61.559 36.8944 61.5751 36.7969C61.5903 36.7128 61.5986 36.6275 61.5998 36.542C61.6028 36.4152 61.5846 36.2889 61.546 36.1681C61.5177 36.0792 61.4708 35.9974 61.4084 35.9281C61.3578 35.872 61.2937 35.8298 61.2222 35.8055C61.1609 35.7837 61.0965 35.7721 61.0315 35.7711H58.9641C58.9508 35.7692 58.9372 35.7705 58.9245 35.7747C58.9118 35.779 58.9002 35.7861 58.8907 35.7956C58.8812 35.8051 58.874 35.8167 58.8698 35.8294C58.8655 35.8422 58.8643 35.8557 58.8661 35.869L58.8654 37.2875Z" fill="#13171B"/>
</svg>
