<svg width="77" height="33" viewBox="0 0 77 33" fill="none" xmlns="http://www.w3.org/2000/svg">
<path fill-rule="evenodd" clip-rule="evenodd" d="M32.8488 0.0934366C32.7999 0.124382 32.7784 0.179503 32.8009 0.215993C32.8234 0.252418 32.8147 0.422489 32.7815 0.593849C32.7482 0.765273 32.705 1.19245 32.6854 1.54316L32.6497 2.18089L33.8577 2.1348C34.5222 2.10946 35.0939 2.0613 35.1283 2.02784C35.1626 1.99432 35.1965 1.88769 35.2037 1.79079C35.2108 1.69396 35.2197 1.61466 35.2235 1.61466C35.2272 1.61466 35.2406 1.42608 35.2533 1.19561C35.2658 0.965128 35.2975 0.609773 35.3236 0.405856L35.3709 0.0351562L34.1543 0.0361233C33.4851 0.0367035 32.8977 0.0624268 32.8488 0.0934366ZM28.5748 0.212963C27.9545 0.226502 27.6741 0.256673 27.6254 0.315276C27.5683 0.384065 27.2947 2.05911 27.2947 2.33968C27.2947 2.42607 27.2802 2.42626 28.8547 2.31886C29.5131 2.27399 29.4668 2.34942 29.524 1.22784C29.5439 0.837801 29.5655 0.449115 29.5721 0.364015C29.5865 0.178601 29.6582 0.189432 28.5748 0.212963ZM18.3933 0.612287C18.4332 0.686878 18.4935 0.730911 18.5271 0.710087C18.6161 0.655095 18.6041 0.62834 18.4545 0.548269C18.3317 0.482574 18.3266 0.487861 18.3933 0.612287ZM20.9485 2.45586C20.8727 2.53154 20.8182 2.53934 20.7225 2.48815C20.6099 2.42788 20.5989 2.43954 20.6198 2.59788C20.6327 2.69536 20.6452 2.81308 20.6477 2.8595C20.6501 2.90592 20.6837 2.92442 20.7222 2.90057C20.7694 2.87143 20.771 2.83597 20.7273 2.79219C20.6915 2.75641 20.6779 2.68633 20.697 2.63643C20.7252 2.563 20.7498 2.56758 20.8257 2.66042C20.8774 2.72347 20.8982 2.73391 20.872 2.68356C20.8384 2.6189 20.8529 2.60297 20.9215 2.62928C21.0386 2.67415 21.217 2.57686 21.1466 2.50646C21.119 2.479 21.0696 2.49918 21.0366 2.55133C21.0035 2.60349 20.9761 2.61574 20.9755 2.57848C20.975 2.54128 21.0094 2.47597 21.052 2.43342C21.0945 2.39087 21.1111 2.35606 21.0888 2.35606C21.0665 2.35606 21.0033 2.40099 20.9485 2.45586ZM20.3452 2.83945C20.3715 2.86846 20.3602 2.93177 20.32 2.98019C20.2623 3.04975 20.2691 3.05968 20.3528 3.02757C20.4788 2.97922 20.4895 2.89715 20.378 2.83307C20.3337 2.80754 20.319 2.81044 20.3452 2.83945ZM43.2862 3.74486C43.2296 3.81294 43.2245 3.86522 43.2699 3.91054C43.3153 3.95593 43.3462 3.92453 43.3678 3.81113C43.4048 3.61792 43.3969 3.61147 43.2862 3.74486ZM57.4554 5.67849L56.6999 7.64713L57.0901 9.24043C57.3046 10.1168 57.5094 10.942 57.545 11.0743L57.6098 11.3149L57.9886 11.2753C58.3157 11.2411 58.3953 11.2555 58.5707 11.3802C58.6823 11.4597 58.7843 11.5142 58.7972 11.5013C58.8101 11.4884 58.7752 10.5496 58.7195 9.41514C58.621 7.40711 58.6143 7.34806 58.4666 7.18772C58.3155 7.02371 58.3148 7.01623 58.3148 5.36646C58.3148 4.45538 58.2914 3.70992 58.2629 3.70992C58.2343 3.70992 57.8709 4.59579 57.4554 5.67849ZM33.5702 3.82119L32.5259 3.84201L32.4904 4.1144C32.4563 4.37653 32.0579 10.3865 31.7054 15.9591C31.6122 17.4306 31.5322 18.639 31.5274 18.6443C31.5152 18.6582 27.2001 19.234 27.1876 19.2235C27.1523 19.1939 27.6994 16.4988 27.7541 16.433C27.8147 16.36 29.0971 4.61706 29.0995 4.11324L29.1004 3.90416L28.0202 3.9442C27.4261 3.96625 26.9165 4.00551 26.8879 4.03136C26.8592 4.05728 26.5636 5.80214 26.2308 7.90888C24.847 16.6722 24.6875 17.5739 24.3382 18.6102C24.1591 19.1414 24.0333 19.6207 24.0501 19.7083C24.0665 19.7938 23.9906 20.3717 23.8815 20.9924C23.7725 21.6132 23.6832 22.1586 23.6832 22.2044C23.6832 22.262 23.7517 22.2453 23.9054 22.1504C24.0731 22.0467 24.3777 21.982 25.1469 21.8865C26.8273 21.6778 30.1554 21.3273 32.4527 21.1169C33.6403 21.0082 34.6306 20.8984 34.6534 20.8729C34.6761 20.8474 34.7707 17.8529 34.8637 14.2184C34.9568 10.584 35.0646 7.21867 35.1034 6.73998C35.1423 6.26129 35.1642 5.40546 35.1522 4.83813L35.1303 3.80662L34.8724 3.80346C34.7305 3.80172 34.1445 3.80971 33.5702 3.82119ZM37.2387 3.96547C37.0395 4.09048 37.0277 4.11762 37.0603 4.37208C37.0949 4.64201 37.1712 6.23003 37.2933 9.22205C37.328 10.0731 37.3753 12.3588 37.3984 14.3015C37.4227 16.3366 37.4645 17.8098 37.4973 17.777C37.5285 17.7458 37.6227 17.524 37.7064 17.2843C37.7903 17.0445 37.8907 16.8164 37.9295 16.7776C37.9684 16.7387 38.0002 16.642 38.0002 16.5625C38.0002 16.483 38.0292 16.4001 38.0647 16.3782C38.1001 16.3562 38.1292 16.3569 38.1292 16.3796C38.1292 16.4588 37.664 17.7984 37.5423 18.0698C37.4391 18.3 37.4198 18.4993 37.4198 19.3342V20.3254L37.7317 20.6171L38.0437 20.9088L39.0054 20.9515C39.5344 20.975 40.1703 21.0329 40.4186 21.0803C40.6669 21.1277 40.8807 21.1566 40.8938 21.1446C40.9383 21.104 40.6405 16.059 40.5478 15.2822C40.4463 14.4314 40.2368 11.4453 40.2759 11.4062C40.2894 11.3927 40.681 12.1577 41.1461 13.1063C41.6112 14.0548 42.048 14.8653 42.1167 14.9074C42.3066 15.0236 42.5007 14.9402 42.5733 14.7113C42.6087 14.5998 42.7538 14.0734 42.8958 13.5415C43.5076 11.2503 43.4627 11.3911 43.5018 11.6397C43.5213 11.7638 43.6124 12.8952 43.7044 14.154C43.7963 15.4127 43.9725 17.442 44.0959 18.6635C44.2193 19.8849 44.3203 20.8896 44.3203 20.8961C44.3203 20.9026 44.4161 20.981 44.5333 21.0704C44.7318 21.2217 44.838 21.2401 46.091 21.3398C47.1957 21.4277 47.4453 21.4317 47.4893 21.3623C47.5906 21.2027 47.5441 20.7842 47.2135 18.8786C46.9902 17.5912 46.9021 16.9372 46.9431 16.8721C47.0123 16.7625 46.6466 15.3329 46.4873 15.0897C46.4111 14.9735 46.4067 14.8923 46.4642 14.666C46.5473 14.3385 46.4582 13.473 46.2528 12.6131C46.1489 12.1786 46.1378 12.0287 46.1941 11.8199C46.2512 11.6081 46.2455 11.5426 46.1625 11.4509C46.107 11.3896 46.0616 11.2673 46.0616 11.1792C46.0616 11.0912 45.931 10.37 45.7713 9.57664C45.5825 8.63764 45.4811 7.96645 45.4811 7.65371C45.4811 7.27056 45.4583 7.15652 45.3683 7.09063C45.2965 7.03815 45.2497 6.9065 45.2399 6.72896C45.2314 6.57545 45.2132 6.24679 45.1996 5.99858C45.1783 5.61215 44.9822 4.21458 44.9455 4.18783C44.9386 4.18286 44.5507 4.15933 44.0835 4.13567C43.2668 4.09422 43.2324 4.09757 43.1924 4.22354C43.1695 4.29562 43.122 4.35461 43.0868 4.35461C43.0516 4.35461 43.0408 4.3256 43.0627 4.29014C43.0847 4.25468 43.0621 4.22567 43.0128 4.22567C42.9634 4.22567 42.923 4.26919 42.923 4.32238C42.923 4.37556 42.9648 4.41908 43.016 4.41908C43.085 4.41908 43.0977 4.46472 43.0652 4.59637C43.0189 4.78365 42.9245 4.91478 42.8729 4.86327C42.8104 4.8008 42.9178 4.55034 42.9895 4.59134C43.0298 4.61436 43.0401 4.6083 43.0125 4.578C42.9341 4.49187 42.7621 4.4851 42.7923 4.56929C42.8072 4.61081 42.7794 4.7237 42.7307 4.82027C42.6553 4.96952 42.6554 4.99073 42.7312 4.96165C42.8592 4.91253 42.9134 5.10716 42.8026 5.21792C42.7512 5.26924 42.7354 5.32088 42.7674 5.33261C42.8406 5.35937 42.1459 7.52264 42.0359 7.61032C41.9915 7.64578 41.9671 7.7105 41.9818 7.75408C42.0086 7.83351 41.8606 8.42154 41.73 8.75465C41.6472 8.96592 41.5271 8.99641 41.6028 8.78689C41.6452 8.66981 41.4252 8.19286 40.4611 6.31268L39.2669 3.98346L38.7786 3.94246C38.5101 3.91996 38.1018 3.88579 37.8712 3.86651C37.5195 3.83718 37.4176 3.85317 37.2387 3.96547ZM43.0412 4.02427C42.9719 4.06817 42.9751 4.08642 43.0573 4.11794C43.1219 4.14276 43.1595 4.12239 43.1595 4.0625C43.1595 3.9529 43.1557 3.95168 43.0412 4.02427ZM23.6832 4.19692C23.2043 4.24237 22.7817 4.28195 22.7441 4.28485C22.7064 4.28776 22.6102 4.37859 22.5302 4.48671C22.4098 4.64956 22.2694 5.30573 21.7127 8.30652C21.34 10.316 20.6472 13.7153 20.1571 15.9386L19.2736 19.9475L18.7859 19.9847C18.5177 20.0051 18.0515 20.0561 17.75 20.098C17.4485 20.1398 17.035 20.1758 16.831 20.178C16.6271 20.1801 16.4603 20.2006 16.4602 20.2234C16.4602 20.2463 16.3949 20.2639 16.3151 20.2626C16.0546 20.2584 15.1534 20.3459 15.0967 20.3809C15.0243 20.4257 15.0252 20.3219 15.098 20.2431C15.129 20.2094 15.3669 19.3986 15.6264 18.4412C16.0014 17.058 16.1311 16.6674 16.2582 16.5393C16.3461 16.4507 16.3967 16.4145 16.3708 16.4587C16.3148 16.5544 16.3895 16.5622 16.5247 16.4749C16.6055 16.4226 16.6002 16.4105 16.4925 16.4012C16.4215 16.3951 16.3292 16.3911 16.2872 16.3923C16.2453 16.3936 16.1912 16.2749 16.1671 16.1285C16.143 15.9821 16.0845 15.7682 16.0371 15.6529C15.9897 15.5376 15.9784 15.4434 16.0121 15.4434C16.0457 15.4434 16.0733 15.4778 16.0733 15.5199C16.0733 15.6541 16.3597 16.0229 16.4602 16.018C16.5268 16.0149 16.5317 16.0032 16.4759 15.9808C16.4314 15.9628 16.4113 15.9216 16.4314 15.8892C16.4514 15.8567 16.4394 15.8302 16.4047 15.8302C16.3219 15.8302 16.679 14.5134 16.8203 14.2978C16.925 14.1381 16.9238 14.1264 16.793 14.0205C16.6575 13.9108 16.6575 13.9093 16.7843 13.8224C16.9188 13.7304 17.4092 11.9705 18.6158 7.24987C19.0992 5.35853 19.1603 5.05849 19.0983 4.88062C19.0387 4.71003 18.9942 4.67702 18.8239 4.67722C18.5642 4.67754 16.5075 4.86605 16.4817 4.89183C16.471 4.90254 16.2768 5.77339 16.05 6.82708C15.8087 7.94898 15.5964 8.78875 15.5379 8.85355C15.4828 8.91441 15.2657 9.54962 15.0552 10.2652C14.8448 10.9808 14.625 11.6139 14.5668 11.672C14.4455 11.7933 14.4235 11.9283 14.5364 11.8585C14.5845 11.8289 14.5992 11.845 14.5769 11.9031C14.5577 11.9532 14.3328 12.6905 14.0771 13.5415C13.4392 15.6648 12.0742 20.0078 11.3728 22.1462C11.0533 23.1203 10.7987 23.924 10.8071 23.9324C10.8154 23.9407 10.9708 23.8765 11.1523 23.7896C11.3345 23.7024 11.9836 23.529 12.6009 23.4025C13.2161 23.2764 14.2417 23.0473 14.8802 22.8933C15.697 22.6963 16.2513 22.6008 16.7504 22.5711C17.1406 22.5479 18.3304 22.4622 19.3945 22.3807C21.2964 22.235 21.3322 22.2345 21.5046 22.3545C21.6796 22.4762 21.6801 22.4761 21.7128 22.3284C21.7308 22.247 21.8073 21.6292 21.8827 20.9555C22.0017 19.894 22.0375 19.7167 22.1518 19.6263C22.2243 19.569 22.2537 19.511 22.217 19.4974C22.1759 19.4822 22.2336 19.1761 22.3674 18.6991C22.4867 18.2736 22.6143 17.6933 22.6508 17.4097C22.7926 16.3099 23.2514 13.9916 23.342 13.9181C23.4186 13.8557 23.4207 13.7992 23.3545 13.5783C23.284 13.343 23.2879 13.3039 23.39 13.2293C23.4973 13.1508 23.498 13.1321 23.4005 12.9437C23.3432 12.8328 23.2962 12.6866 23.2962 12.6189C23.2962 12.5513 23.4279 11.8028 23.5889 10.9557C23.7499 10.1086 24.0837 8.29853 24.3308 6.93339C24.5779 5.56825 24.7968 4.37157 24.8172 4.27402C24.8603 4.06798 24.9653 4.07513 23.6832 4.19692ZM46.9644 4.39284C46.9644 4.41386 47.0924 5.21895 47.2487 6.18187C47.4396 7.35715 47.545 8.22935 47.5693 8.83524C47.5892 9.33165 47.6495 9.99891 47.703 10.318C47.7567 10.6372 47.8017 10.9998 47.8031 11.1239C47.8051 11.3097 47.848 11.3796 48.046 11.5196L48.2865 11.6897L48.5328 13.1636C48.9337 15.5622 49.8284 20.5637 49.9624 21.155C49.9908 21.2807 50.0503 21.293 50.8165 21.3319C53.3334 21.4595 56.9172 21.9256 59.8564 22.5077C60.4738 22.63 60.9875 22.7214 60.9981 22.7108C61.0086 22.7002 60.9305 22.417 60.8245 22.0815C60.3481 20.5732 59.1721 16.7208 58.6432 14.936C58.3241 13.8592 58.0135 12.9236 57.9532 12.8569C57.8559 12.7494 57.7427 12.7356 56.9549 12.7356C56.1646 12.7356 56.0626 12.7232 56.0325 12.6228C55.9229 12.2575 55.1465 9.29826 54.6789 7.4632C54.2386 5.73535 54.1047 5.29528 53.9912 5.20348C53.8802 5.11361 53.404 5.03721 51.7455 4.84329C48.1223 4.4196 46.9644 4.31051 46.9644 4.39284ZM13.5259 5.26273C11.4942 5.56657 8.35556 6.08329 6.69073 6.38804C5.63727 6.58093 5.4438 6.6347 5.30533 6.77305C5.12702 6.95138 4.05028 9.78693 4.14714 9.8231C4.26664 9.86771 7.22097 9.36092 7.47475 9.25229L7.74367 9.13715L7.39465 10.1646C6.99796 11.3322 6.24097 13.4004 5.71511 14.7531C5.4932 15.324 5.26374 15.795 5.10554 16.0045C4.96598 16.1892 4.85151 16.4069 4.85112 16.4882C4.84996 16.726 4.22569 18.7327 4.1147 18.8553C4.05905 18.9168 4.01345 19.007 4.01345 19.0557C4.01345 19.1476 3.02132 21.7072 2.02468 24.1868C1.47967 25.5428 1.45561 25.623 1.53668 25.8158C1.67301 26.1399 1.86945 26.1688 2.17249 25.9095C2.31283 25.7895 2.54499 25.6574 2.68849 25.6159C2.83681 25.5731 3.04673 25.4381 3.17507 25.3031C3.42136 25.044 3.71067 24.9551 4.99365 24.7446L5.62224 24.6414L5.74961 24.249C5.81971 24.0332 6.17093 22.9138 6.53015 21.7614C7.32403 19.2143 8.58541 15.23 9.3978 12.7034C9.72845 11.6751 10.1497 10.358 10.3339 9.77656C10.5181 9.19504 10.6877 8.74782 10.7108 8.78269C10.738 8.82389 10.968 8.81686 11.3654 8.76277C11.7024 8.71694 12.5021 8.6593 13.1426 8.6348L14.3071 8.59019L14.6173 7.57441C14.788 7.01578 14.9071 6.52568 14.8822 6.48533C14.8572 6.44497 14.8688 6.37354 14.9077 6.3266C14.9823 6.23673 15.2994 5.23127 15.2994 5.08466C15.2994 5.03773 15.2776 5.00214 15.251 5.00562C15.2244 5.0091 14.4481 5.12476 13.5259 5.26273ZM42.5247 5.38612C42.5247 5.47477 42.5394 5.51106 42.5572 5.46671C42.5752 5.42242 42.5752 5.34989 42.5572 5.30553C42.5394 5.26124 42.5247 5.29748 42.5247 5.38612ZM60.0846 5.98511C60.0652 6.03572 60.1202 6.36412 60.2069 6.71477C60.3074 7.12112 60.3787 7.64165 60.4037 8.14973C60.4252 8.58825 60.4889 9.23707 60.5453 9.59146C60.6016 9.94592 60.632 10.2961 60.6128 10.3696C60.5935 10.4432 60.7642 11.4942 60.992 12.7051C61.4126 14.9409 62.286 19.8491 62.6237 21.8749C62.7257 22.487 62.823 23.0016 62.8399 23.0185C62.8567 23.0353 63.3764 23.1226 63.9946 23.2122C65.8295 23.4786 67.6346 23.8115 69.5685 24.2403C70.4782 24.442 70.7616 24.4847 70.7616 24.4203C70.7616 24.4053 70.5459 24.0109 70.2822 23.544C70.0186 23.0771 69.7726 22.6155 69.7357 22.5183C69.6987 22.4211 69.6387 22.3416 69.6024 22.3416C69.566 22.3416 69.5361 22.3054 69.5359 22.261C69.5358 22.2167 69.4705 22.1047 69.3908 22.0123C69.2566 21.8563 69.1078 21.8194 67.3436 21.5036C66.2972 21.3163 65.4196 21.1442 65.3934 21.1212C65.3671 21.0981 65.3284 20.9353 65.3073 20.7595C65.2862 20.5836 65.2524 20.3962 65.2322 20.343C65.2121 20.2898 65.2025 20.1916 65.2111 20.1246C65.2195 20.0577 65.1923 19.9818 65.1506 19.956C65.1089 19.9302 65.0334 19.6949 64.983 19.4331C64.733 18.135 64.2198 15.1445 63.9596 13.4697C63.7993 12.4374 63.6261 11.4738 63.5748 11.3285C63.4686 11.0277 63.3325 10.3414 63.3713 10.3027C63.434 10.24 67.5402 17.1968 70.6483 22.6317L71.9019 24.8237L72.5579 25.038C72.9187 25.1559 73.2014 25.2726 73.1862 25.2971C73.171 25.3218 73.2783 25.345 73.4246 25.3488C73.5709 25.3527 73.7015 25.3884 73.7148 25.4282C73.7281 25.468 73.8219 25.5006 73.9232 25.5006C74.1589 25.5006 74.2135 25.5916 74.0866 25.7727C74.0313 25.8516 73.9861 25.9567 73.9861 26.0064C73.9861 26.1648 74.1668 25.9637 74.2128 25.754C74.2357 25.6501 74.2845 25.5651 74.3212 25.5651C74.3581 25.5651 74.3725 25.6248 74.3534 25.6977C74.3312 25.7825 74.3459 25.8206 74.3943 25.8034C74.4358 25.7886 74.6002 25.845 74.7595 25.9287C75.2142 26.1675 75.624 26.1116 75.4738 25.8311C75.4334 25.7557 75.4232 25.6931 75.451 25.6921C75.4789 25.691 75.4521 25.6612 75.3915 25.6259C75.3307 25.5905 75.2977 25.519 75.3178 25.4667C75.3397 25.4094 75.3165 25.3717 75.2592 25.3717C75.1765 25.3717 74.8245 24.9253 74.8245 24.8204C74.8245 24.7994 74.7807 24.7384 74.7272 24.6849C74.6737 24.6314 74.6463 24.5609 74.6665 24.5283C74.6866 24.4958 74.6719 24.4691 74.6337 24.4691C74.5955 24.4691 74.3488 24.1427 74.0855 23.7438C73.7483 23.2328 73.6343 23.0123 73.6997 22.9977C73.7509 22.9862 73.7927 22.948 73.7927 22.9127C73.7927 22.8775 73.737 22.8663 73.669 22.8879C73.5651 22.9208 73.438 22.7541 72.8739 21.8446C71.9645 20.3786 71.3133 19.2821 70.3739 17.6353C68.0969 13.6438 64.0581 7.06246 63.8324 6.97594C63.7839 6.95731 63.7258 6.85835 63.7033 6.75597L63.6624 6.56984L62.0044 6.26284C61.0925 6.094 60.2954 5.94165 60.2331 5.92438C60.1705 5.90703 60.1041 5.93411 60.0846 5.98511ZM52.1937 6.68621C52.2144 6.71877 52.2642 7.08006 52.3043 7.48899C52.3562 8.01873 52.4138 8.2917 52.5044 8.4383C52.6801 8.72261 53.3316 12.0053 53.2319 12.1049C53.1804 12.1564 53.1311 12.151 53.0513 12.085C52.9689 12.0169 52.7283 11.9946 52.0851 11.9958C51.614 11.9966 51.2063 12.0195 51.1791 12.0467C51.152 12.0738 51.1802 12.3488 51.2419 12.6576C51.3034 12.9664 51.3674 13.2917 51.3839 13.3803C51.4003 13.469 51.4324 13.64 51.4553 13.7604C51.485 13.9176 51.4757 13.9662 51.4222 13.9332C51.3812 13.9079 51.3622 13.8637 51.3799 13.8351C51.3976 13.8065 51.3715 13.6417 51.3218 13.4689C51.2722 13.2961 51.2117 13.0003 51.1873 12.8116C51.161 12.6079 51.1057 12.4543 51.0513 12.4334C50.981 12.4065 50.9769 12.3774 51.0336 12.3091C51.0893 12.2419 51.0882 12.1734 51.029 12.0304C50.9858 11.9262 50.9681 11.8123 50.9896 11.7774C51.0112 11.7426 50.9674 11.61 50.8924 11.4829C50.8174 11.3557 50.7718 11.2107 50.7911 11.1604C50.8103 11.1102 50.6273 10.0594 50.3842 8.82537C50.1053 7.40943 49.9624 6.54406 49.9967 6.47978C50.0462 6.3874 50.1489 6.38952 51.1036 6.50247C51.6824 6.57094 52.1729 6.65366 52.1937 6.68621ZM41.5794 9.18982C41.5552 9.26609 41.5209 9.31399 41.5031 9.29626C41.4854 9.27853 41.4908 9.20162 41.5149 9.12535C41.5391 9.04908 41.5735 9.00118 41.5912 9.01891C41.609 9.03664 41.6036 9.11355 41.5794 9.18982ZM41.3617 9.9162C41.298 9.97938 41.2906 9.97196 41.3256 9.88009C41.3498 9.81653 41.3859 9.78075 41.4058 9.8006C41.4256 9.82039 41.4058 9.87242 41.3617 9.9162ZM14.203 11.5107C14.203 11.5462 14.2538 11.5756 14.3159 11.5762C14.4124 11.577 14.4147 11.5863 14.332 11.6397C14.2788 11.674 14.266 11.7026 14.3036 11.7032C14.3411 11.7037 14.4282 11.6585 14.497 11.6027C14.5658 11.5468 14.586 11.5196 14.5416 11.542C14.4973 11.5644 14.461 11.552 14.461 11.5145C14.461 11.477 14.4029 11.4462 14.332 11.4462C14.2611 11.4462 14.203 11.4753 14.203 11.5107ZM2.91711 12.0265C2.18997 12.1243 1.58485 12.2078 1.57234 12.2121C1.53739 12.2241 3.50926 14.283 3.55447 14.2817C3.58575 14.2808 4.39311 12.4941 4.60793 11.9503C4.66823 11.7975 4.59497 11.8008 2.91711 12.0265ZM15.3941 13.8143C15.4185 13.9118 15.4689 14.0102 15.5058 14.033C15.5428 14.0559 15.5597 14.1142 15.5433 14.1626C15.5244 14.2188 15.4778 14.1806 15.4147 14.0573C15.2724 13.7792 15.2078 13.5494 15.2853 13.5973C15.3207 13.6191 15.3696 13.7167 15.3941 13.8143ZM54.7474 14.0371C54.7268 14.0885 54.7115 14.0733 54.7084 13.9981C54.7057 13.9302 54.7209 13.8922 54.7423 13.9136C54.7637 13.935 54.766 13.9906 54.7474 14.0371ZM51.5433 14.1255C51.5433 14.1808 51.5143 14.2081 51.4788 14.1862C51.4433 14.1643 51.4143 14.1191 51.4143 14.0857C51.4143 14.0523 51.4433 14.025 51.4788 14.025C51.5143 14.025 51.5433 14.0703 51.5433 14.1255ZM54.7531 14.3151C54.7457 14.4038 54.717 14.4763 54.6893 14.4763C54.6289 14.4763 54.6247 14.3948 54.678 14.256C54.7356 14.1059 54.7682 14.1317 54.7531 14.3151ZM15.7055 14.5429C15.7547 14.731 15.7037 14.697 15.5813 14.4602C15.4897 14.283 15.4883 14.2634 15.5726 14.3334C15.6275 14.3788 15.6873 14.4732 15.7055 14.5429ZM51.6432 14.3377C51.6769 14.3678 52.2269 14.4281 52.8654 14.4716C53.7377 14.531 54.0964 14.5815 54.3085 14.6747C54.6534 14.8262 54.6242 14.8279 54.6578 14.6536C54.6732 14.5738 54.6897 14.643 54.6946 14.8072C54.7021 15.0648 54.6837 15.1111 54.5611 15.1432C54.3439 15.1999 54.4725 15.2684 54.7018 15.218C54.8633 15.1826 54.8884 15.1564 54.8293 15.0852C54.7888 15.0364 54.7706 14.9592 54.7889 14.9137C54.8087 14.8645 54.8242 14.88 54.8272 14.9516C54.831 15.0406 54.8535 15.0548 54.9129 15.0057C54.9701 14.9584 55.0767 14.9794 55.2803 15.0784L55.5671 15.2177L55.9038 16.5071C56.089 17.2163 56.388 18.2065 56.5683 18.7077C56.7485 19.2089 56.896 19.6368 56.896 19.6586C56.896 19.723 55.3452 19.7041 54.0584 19.6241C53.4022 19.5833 52.7988 19.547 52.7174 19.5435C52.6247 19.5396 52.5593 19.4891 52.5421 19.4082C52.5271 19.3373 52.4699 19.0907 52.415 18.8602C52.3601 18.6298 52.3015 18.3687 52.2847 18.28C52.1336 17.484 51.9767 16.7311 51.9286 16.5716C51.8966 16.4652 51.8571 16.3056 51.8409 16.217C51.8246 16.1283 51.7671 15.8672 51.7131 15.6368C51.6591 15.4063 51.5985 15.1017 51.5784 14.9598C51.5584 14.818 51.5245 14.6076 51.503 14.4924C51.4651 14.2879 51.5199 14.2274 51.6432 14.3377ZM38.7171 14.5913C38.68 14.6606 38.6644 14.732 38.6824 14.75C38.7004 14.768 38.6715 14.7995 38.6181 14.8199C38.5346 14.852 38.5358 14.8263 38.6268 14.6354C38.6851 14.5133 38.7443 14.4251 38.7586 14.4394C38.7729 14.4536 38.7542 14.522 38.7171 14.5913ZM15.8475 14.9276C15.9026 15.034 15.9265 15.121 15.9008 15.121C15.8751 15.121 15.8888 15.1558 15.9314 15.1984C16.0202 15.2872 16.033 15.3789 15.9566 15.3789C15.9279 15.3789 15.858 15.2338 15.8013 15.0565C15.6843 14.6908 15.701 14.6443 15.8475 14.9276ZM38.6451 14.9883C38.6451 15.0217 38.6161 15.0669 38.5806 15.0888C38.5451 15.1107 38.5161 15.0834 38.5161 15.0281C38.5161 14.9729 38.5451 14.9276 38.5806 14.9276C38.6161 14.9276 38.6451 14.9549 38.6451 14.9883ZM38.4318 15.4905C38.4154 15.5532 38.401 15.5175 38.3997 15.4111C38.3984 15.3047 38.4118 15.2534 38.4294 15.2971C38.4471 15.3407 38.4482 15.4278 38.4318 15.4905ZM54.6389 15.3391C54.6389 15.3964 54.8998 15.4263 54.9328 15.3728C54.9527 15.3407 54.8946 15.3144 54.8039 15.3144C54.7132 15.3144 54.6389 15.3256 54.6389 15.3391ZM54.649 15.6368C54.649 15.7254 54.6637 15.7617 54.6815 15.7174C54.6995 15.6731 54.6995 15.6005 54.6815 15.5562C54.6637 15.5119 54.649 15.5481 54.649 15.6368ZM16.5247 15.7657C16.6497 15.8465 16.7182 15.8465 16.7182 15.7657C16.7182 15.7302 16.6529 15.7017 16.5731 15.7022C16.4558 15.703 16.4465 15.7152 16.5247 15.7657ZM38.2376 16.0403C38.196 16.173 38.1402 16.2815 38.1134 16.2815C38.0444 16.2815 38.0509 16.2501 38.173 15.9943C38.3092 15.7088 38.3355 15.7276 38.2376 16.0403ZM16.7504 16.1525C16.7285 16.188 16.638 16.217 16.5493 16.217C16.4607 16.217 16.4036 16.2421 16.4226 16.2728C16.4735 16.3551 16.7684 16.2827 16.8085 16.1781C16.8484 16.0743 16.8094 16.0572 16.7504 16.1525ZM16.9126 16.3943C16.9132 16.4209 16.9418 16.4862 16.9761 16.5393C17.0267 16.6175 17.0388 16.6083 17.0397 16.491C17.0402 16.4112 17.0116 16.3459 16.9761 16.3459C16.9407 16.3459 16.9121 16.3677 16.9126 16.3943ZM16.6537 16.5446C16.5791 16.5968 16.592 16.6023 16.7101 16.5689C16.8143 16.5394 16.8492 16.5484 16.8192 16.5969C16.7949 16.6362 16.8058 16.6683 16.8433 16.6683C16.8809 16.6683 16.9116 16.6248 16.9116 16.5716C16.9116 16.4595 16.7929 16.4471 16.6537 16.5446ZM16.7182 16.9611C16.7182 17.038 16.9777 17.2684 17.0184 17.2277C17.0425 17.2037 17.0266 17.184 16.9831 17.184C16.9396 17.184 16.924 17.1518 16.9483 17.1123C16.9727 17.073 16.9527 17.0154 16.9038 16.9844C16.8025 16.9203 16.7182 16.9096 16.7182 16.9611ZM37.2908 18.0221C37.2908 18.0576 37.3215 18.0866 37.3591 18.0866C37.3966 18.0866 37.4095 18.0576 37.3875 18.0221C37.3656 17.9867 37.3349 17.9577 37.3192 17.9577C37.3036 17.9577 37.2908 17.9867 37.2908 18.0221ZM26.7613 19.286C26.7399 19.3074 26.6842 19.3097 26.6377 19.2911C26.5863 19.2705 26.6015 19.2552 26.6767 19.2521C26.7446 19.2494 26.7827 19.2646 26.7613 19.286ZM37.0155 19.8866C36.9874 19.9938 36.9958 20.019 37.0437 19.9712C37.0812 19.9337 37.0991 19.865 37.0836 19.8184C37.0675 19.7702 37.0383 19.7994 37.0155 19.8866ZM36.6824 20.1178C36.6154 20.2421 36.5725 20.3553 36.5871 20.3695C36.6612 20.4414 36.8621 20.4285 36.8894 20.3502C36.9084 20.2955 36.8922 20.2782 36.8476 20.3057C36.7967 20.3372 36.7836 20.2814 36.8041 20.1213C36.8202 19.995 36.8268 19.8917 36.8188 19.8917C36.8108 19.8917 36.7494 19.9935 36.6824 20.1178ZM14.8479 20.3713C14.8479 20.4252 14.7923 20.4598 14.7149 20.4539C14.5906 20.4446 14.5893 20.4385 14.695 20.3612C14.8374 20.2572 14.8479 20.2579 14.8479 20.3713ZM36.6459 20.6009C36.6459 20.6725 36.6889 20.7299 36.7426 20.7299C36.8512 20.7299 36.8555 20.7181 36.8002 20.574C36.7449 20.4299 36.6459 20.4472 36.6459 20.6009ZM36.4202 20.8588C36.3982 20.8942 36.3893 20.9255 36.4002 20.9282C36.5622 20.9683 36.6402 20.9662 36.6132 20.9225C36.5948 20.8928 36.631 20.8552 36.6935 20.8389C36.7659 20.82 36.7442 20.8066 36.6336 20.8018C36.5381 20.7977 36.4421 20.8233 36.4202 20.8588ZM36.4236 21.1757C36.4028 21.2092 36.4133 21.2537 36.4469 21.2744C36.4805 21.2952 36.525 21.2847 36.5457 21.2511C36.5665 21.2175 36.556 21.1731 36.5224 21.1523C36.4888 21.1316 36.4443 21.1421 36.4236 21.1757ZM36.2267 21.4651C36.2267 21.5504 36.2484 21.6066 36.2751 21.5902C36.3017 21.5738 36.3234 21.5041 36.3234 21.4352C36.3234 21.3664 36.3017 21.3101 36.2751 21.3101C36.2484 21.3101 36.2267 21.3798 36.2267 21.4651ZM73.8277 21.8859C73.8072 21.9189 73.8201 21.9641 73.8561 21.9864C73.8922 22.0086 73.9217 21.9816 73.9217 21.9263C73.9217 21.8131 73.8829 21.7964 73.8277 21.8859ZM73.3863 22.1057C73.3601 22.1742 73.4102 22.2066 73.5715 22.2254C73.7231 22.2431 73.7927 22.2249 73.7927 22.1675C73.7927 22.1214 73.7515 22.0837 73.7012 22.0837C73.6509 22.0837 73.5676 22.0675 73.5161 22.0478C73.4645 22.028 73.4062 22.0541 73.3863 22.1057ZM74.7862 22.2449C74.7489 22.3158 74.7376 22.4609 74.761 22.5672L74.8036 22.7606L74.8517 22.5899C74.8781 22.496 74.8894 22.3509 74.8768 22.2676C74.8547 22.1212 74.8515 22.1205 74.7862 22.2449ZM32.1311 22.8255L31.5855 23.3739L32.7446 24.5339L33.9037 25.694H38.4825H43.0614L44.2065 24.5506L45.3516 23.4073L44.7889 22.8422L44.2263 22.2771H38.4516H32.6768L32.1311 22.8255ZM74.5077 22.589C74.4634 22.6717 74.4398 22.7522 74.4554 22.7677C74.5061 22.8183 74.644 22.6062 74.6157 22.5212C74.5983 22.469 74.5586 22.4939 74.5077 22.589ZM74.1151 22.5995C74.0619 22.6338 74.0474 22.6619 74.0829 22.6619C74.1183 22.6619 74.1909 22.6338 74.2441 22.5995C74.2973 22.5651 74.3118 22.537 74.2764 22.537C74.2409 22.537 74.1683 22.5651 74.1151 22.5995ZM73.8232 22.6668C73.7711 22.7509 73.9073 22.9218 74.0263 22.9218C74.0751 22.9218 74.1151 22.8897 74.1151 22.8504C74.1151 22.8111 74.0682 22.7971 74.0106 22.8192C73.9302 22.85 73.914 22.8292 73.9401 22.7294C73.9756 22.5936 73.8951 22.5505 73.8232 22.6668ZM75.147 22.6962C75.0799 22.777 75.0892 22.7929 75.2036 22.7929C75.2823 22.7929 75.3405 22.7517 75.3405 22.6962C75.3405 22.643 75.315 22.5995 75.2838 22.5995C75.2527 22.5995 75.1912 22.643 75.147 22.6962ZM74.4537 23.0086C74.3739 23.0874 74.3091 23.209 74.3096 23.2787C74.3103 23.3866 74.3225 23.3815 74.3913 23.2442C74.4358 23.1555 74.5369 23.0544 74.6161 23.0194C74.6952 22.9843 74.76 22.9335 74.76 22.9065C74.76 22.8122 74.5977 22.8662 74.4537 23.0086ZM73.8249 23.0508C73.803 23.0862 73.8049 23.1473 73.8292 23.1866C73.8725 23.2567 73.9828 23.1493 73.9852 23.0346C73.9866 22.964 73.8714 22.9756 73.8249 23.0508ZM74.6311 23.2157C74.6311 23.271 74.6605 23.298 74.6966 23.2757C74.7326 23.2534 74.7455 23.2083 74.725 23.1752C74.6697 23.0858 74.6311 23.1025 74.6311 23.2157ZM74.889 23.2513C74.8074 23.3099 74.8099 23.3151 74.9051 23.2845C74.9672 23.2645 75.018 23.2763 75.018 23.3106C75.018 23.345 75.0651 23.3731 75.1226 23.3731C75.2083 23.3731 75.2128 23.3556 75.147 23.2764C75.0521 23.1621 75.0177 23.1587 74.889 23.2513ZM35.1977 23.4669C35.2848 23.5539 35.3561 23.6555 35.3561 23.6925C35.3561 23.7975 35.0519 23.7717 35.0103 23.6632C34.9496 23.5051 34.5994 23.5394 34.5457 23.7087C34.5209 23.7869 34.5262 23.8607 34.5575 23.8727C35.1398 24.0955 35.2906 24.2717 35.2017 24.6257C35.122 24.9432 34.4316 25.0336 34.1601 24.7621C33.9547 24.5569 33.9542 24.4046 34.1587 24.4046C34.2559 24.4046 34.3302 24.451 34.3543 24.5266C34.4325 24.7731 34.9046 24.7323 34.9046 24.4791C34.9046 24.4042 34.7881 24.3106 34.566 24.2074C34.2184 24.0458 34.1521 23.9402 34.2226 23.6597C34.3089 23.3161 34.9251 23.1943 35.1977 23.4669ZM36.9683 23.4376C36.9683 23.5412 36.9253 23.5665 36.7495 23.5665C36.492 23.5665 36.4527 23.6374 36.4517 24.1037C36.4513 24.2869 36.433 24.5457 36.411 24.6786C36.3777 24.8802 36.3452 24.9204 36.2153 24.9204C36.076 24.9204 36.063 24.8983 36.0918 24.7108C36.1095 24.5956 36.1416 24.291 36.1631 24.0339L36.2022 23.5665H35.9727C35.786 23.5665 35.743 23.5424 35.743 23.4376C35.743 23.3177 35.786 23.3086 36.3557 23.3086C36.9253 23.3086 36.9683 23.3177 36.9683 23.4376ZM37.6777 23.9554C37.6777 24.5665 37.6857 24.6053 37.8228 24.6584C37.9187 24.6956 38.0117 24.6869 38.0969 24.6326C38.2089 24.5613 38.2284 24.4684 38.2444 23.9295C38.2625 23.3177 38.2651 23.3086 38.4217 23.3086C38.58 23.3086 38.5806 23.311 38.5806 23.9562C38.5806 24.5579 38.5694 24.6151 38.4223 24.7621C38.2079 24.9765 37.7237 24.9859 37.5045 24.7802C37.3777 24.6611 37.3554 24.5764 37.356 24.2161C37.3571 23.5674 37.4145 23.3086 37.5572 23.3086C37.6669 23.3086 37.6777 23.3667 37.6777 23.9554ZM39.8352 23.3999C40.2233 23.5621 40.4091 24.0419 40.2593 24.4954C40.161 24.7932 39.9201 24.9204 39.4545 24.9204H39.0965V24.1145V23.3086H39.3566C39.4996 23.3086 39.715 23.3497 39.8352 23.3999ZM41.0532 23.5182C41.0731 23.6334 41.1091 23.9961 41.1332 24.324L41.1769 24.9204H41.0073C40.858 24.9204 40.8378 24.8946 40.8378 24.7047C40.8378 24.586 40.819 24.2233 40.7959 23.8988C40.7558 23.3342 40.7597 23.3086 40.8854 23.3086C40.9833 23.3086 41.0262 23.3621 41.0532 23.5182ZM42.6104 23.4484C42.8437 23.6318 42.966 23.9379 42.966 24.3381C42.966 24.7736 42.8221 24.9204 42.395 24.9204C41.8823 24.9204 41.6117 24.5837 41.6117 23.9462C41.6117 23.6913 41.6443 23.5925 41.77 23.4669C41.9771 23.2598 42.3599 23.2514 42.6104 23.4484ZM74.5583 23.5504C74.4781 23.6526 74.4804 23.6549 74.5827 23.5748C74.6448 23.5261 74.6955 23.4753 74.6955 23.4619C74.6955 23.4089 74.6426 23.443 74.5583 23.5504ZM39.4012 23.6149C39.3874 23.6415 39.3888 23.8881 39.4045 24.1629L39.4331 24.6625H39.618C39.7445 24.6625 39.8366 24.6112 39.9095 24.5C40.0528 24.2813 39.9948 23.8353 39.8028 23.68C39.6589 23.5634 39.4463 23.529 39.4012 23.6149ZM42.0115 23.6439C41.969 23.6864 41.9341 23.8627 41.9341 24.0357C41.9341 24.2957 41.9661 24.382 42.1189 24.5348C42.4553 24.8711 42.7016 24.6465 42.6247 24.0734C42.5685 23.6539 42.2351 23.4204 42.0115 23.6439ZM74.7378 23.7087C74.6876 23.9008 74.703 23.9043 74.9239 23.7504C75.0288 23.6772 75.064 23.634 75.0019 23.6544C74.9398 23.6748 74.889 23.6633 74.889 23.629C74.889 23.5079 74.7746 23.5683 74.7378 23.7087ZM30.1645 24.3204C22.0864 24.8598 14.7907 25.9986 6.81881 27.9646C4.61431 28.5083 4.41897 28.5677 4.25297 28.7446C4.09355 28.9145 4.05505 28.9277 3.91136 28.8623C3.67242 28.7535 3.65404 28.7625 3.4687 29.0786C3.37512 29.2382 3.26968 29.3688 3.23427 29.3688C3.19887 29.3688 3.05615 29.3107 2.91711 29.2398C2.77806 29.1689 2.61871 29.1109 2.56299 29.1109C2.448 29.1109 0.527199 29.6734 0.479541 29.721C0.441749 29.7588 0.137287 29.6412 4.16617 31.1442L7.51125 32.3921L9.13197 32.0444C13.8041 31.0423 18.9927 30.1891 23.4252 29.694C24.0814 29.6208 24.7994 29.5145 25.0208 29.4578C25.4125 29.3575 25.4251 29.3476 25.4918 29.0877C25.5295 28.9409 25.5677 28.7939 25.5768 28.7612C25.5858 28.7284 25.838 28.9805 26.1373 29.3213C26.4673 29.6971 26.6973 29.9108 26.7218 29.8644C26.7441 29.8222 26.7818 29.6791 26.8057 29.546C26.8549 29.2718 26.8445 29.2782 27.0703 29.3811C27.2074 29.4435 27.2772 29.4388 27.4441 29.3557C27.6613 29.2476 28.1927 29.2035 31.6391 29.0077L33.5005 28.902L34.2197 29.6189L34.9389 30.3358H38.5278H42.1166L42.7843 29.6301L43.452 28.9245L44.5149 28.9852C52.3321 29.4317 58.7012 30.2254 65.5378 31.6046C66.868 31.873 68.0248 32.1075 68.1088 32.1257C68.1927 32.1439 68.3171 32.2532 68.3851 32.3685L68.5089 32.5782L68.9742 32.4574C69.6231 32.2889 69.6184 32.2876 69.4954 32.5949C69.438 32.7382 69.4037 32.868 69.419 32.8832C69.4342 32.8986 69.5612 32.88 69.7011 32.842C69.9818 32.7657 76.5643 29.8446 76.6541 29.7565C76.6855 29.7257 76.6143 29.6738 76.4929 29.6388C71.4424 28.183 68.4388 27.4346 64.4092 26.628C62.0687 26.1596 58.7236 25.5955 56.7671 25.3394C55.5304 25.1775 55.4029 25.1479 54.7924 24.8821C54.4334 24.7259 54.0935 24.598 54.0369 24.598C53.9803 24.598 53.6549 24.7591 53.3137 24.956L52.6933 25.3141L52.3366 25.0205C52.1404 24.8591 51.9469 24.7278 51.9067 24.7288C51.8665 24.7297 50.4597 24.6238 48.7806 24.4934L45.7277 24.2563L44.717 25.2653L43.7062 26.2742H38.4824H33.2586L32.2605 25.2749L31.2624 24.2757L30.8747 24.2873C30.6614 24.2937 30.3419 24.3086 30.1645 24.3204ZM75.018 26.4048C75.018 26.446 75.0757 26.4948 75.1463 26.5132C75.2168 26.5317 75.2568 26.5754 75.2352 26.6103C75.2136 26.6453 75.2621 26.6385 75.343 26.5952C75.4581 26.5337 75.4703 26.5059 75.3991 26.4676C75.2005 26.3609 75.018 26.3308 75.018 26.4048ZM74.8245 26.5681C74.8245 26.6234 74.854 26.6504 74.89 26.6282C74.9261 26.6059 74.9389 26.5607 74.9185 26.5277C74.8632 26.4382 74.8245 26.4549 74.8245 26.5681ZM75.4049 26.7235C75.4049 26.7578 75.4485 26.7692 75.5017 26.7488C75.5549 26.7284 75.5984 26.7003 75.5984 26.6864C75.5984 26.6725 75.5549 26.661 75.5017 26.661C75.4485 26.661 75.4049 26.6891 75.4049 26.7235ZM76.2433 26.7938C76.2433 26.8313 76.2723 26.8441 76.3078 26.8222C76.3433 26.8003 76.3723 26.7696 76.3723 26.7539C76.3723 26.7383 76.3433 26.7255 76.3078 26.7255C76.2723 26.7255 76.2433 26.7563 76.2433 26.7938Z" fill="#13171B"/>
</svg>
