<svg width="188" height="29" viewBox="0 0 188 29" fill="none" xmlns="http://www.w3.org/2000/svg">
<path d="M24.8343 14.9454C24.8343 21.612 19.4503 27.0114 12.8148 27.0114C6.17936 27.0114 0.795327 21.612 0.795327 14.9454C0.795327 8.27875 6.17936 2.87931 12.8148 2.87931C19.4503 2.87931 24.8343 8.27875 24.8343 14.9454Z" stroke="#13171B" stroke-width="1.59065"/>
<path d="M20.1366 18.3127C20.1761 17.8678 19.9867 17.5283 19.9492 17.4535C17.1393 12.9708 15.0038 9.68346 14.217 8.7122C14.0671 8.48806 13.6925 8.03978 13.168 8.00243C12.606 7.96507 12.1564 8.26392 11.9316 8.63748C11.1074 9.83288 10.2457 10.9909 9.42142 12.1863C7.47321 14.876 6.08699 16.8932 5.67487 17.5283C5.56247 17.715 5.30021 18.0512 5.41261 18.4248C5.48754 18.6489 5.67487 18.7984 5.78726 18.8731C6.7239 19.3961 7.62308 19.9564 8.55971 20.4794C9.45889 21.0024 10.3581 21.5254 11.2572 22.0484C11.482 22.1978 12.044 22.4593 12.7559 22.4966C13.5426 22.4966 14.1421 22.1978 14.4793 22.011C15.9404 21.1892 17.7388 20.1806 19.7619 18.9852C19.8937 18.8899 20.0702 18.7137 20.1366 18.3127ZM18.563 18.761C16.8771 17.2294 15.1536 15.6604 13.4677 14.1288C13.4302 14.0915 13.2572 13.9673 13.1305 13.9421C13.0219 13.9204 12.8336 13.9507 12.7184 13.9794C12.2688 14.0915 11.8567 14.1662 11.4071 14.2783C11.9691 12.7093 12.4936 11.1777 13.0556 9.60874C13.1042 9.4913 13.2073 9.3764 13.2804 9.34725C13.4677 9.27254 13.7674 9.34725 13.9548 9.6461C15.7156 12.3357 19.1999 17.5656 19.2749 17.715C19.3873 17.9018 19.4247 17.9765 19.3873 18.1633C19.3498 18.3501 19.2374 18.4248 19.0875 18.4995C18.9002 18.5742 18.7129 18.6863 18.563 18.761ZM10.8076 15.9219C10.8826 15.6978 10.995 15.4737 11.0699 15.2495C11.557 15.1375 12.0065 15.0628 12.4936 14.9507C12.5983 14.9266 12.7865 14.9194 12.9432 14.9507C13.1305 14.988 13.2429 15.1001 13.3178 15.1375C14.8165 16.4823 16.2776 17.8271 17.7762 19.2093C17.6638 19.284 15.4534 20.5541 13.9922 21.3759C13.8049 21.488 13.4302 21.6748 12.9057 21.6748C12.3063 21.7122 11.8567 21.488 11.6694 21.3759C10.92 20.9277 10.1333 20.4794 9.38396 20.0311C9.75861 18.761 10.2457 17.3415 10.8076 15.9219ZM6.31178 18.2754C6.19939 18.0512 6.31178 17.9266 6.42418 17.715C6.64425 17.3979 8.62108 14.6135 11.3322 10.8041C11.4071 10.6921 11.482 10.6547 11.5944 10.6921C11.7068 10.7294 11.7818 10.8789 11.7068 11.0283C10.6952 13.9047 9.64621 16.8185 8.63465 19.6949C7.9228 19.284 7.17349 18.8731 6.46164 18.4622C6.38671 18.3875 6.34925 18.3501 6.31178 18.2754Z" fill="#13171B"/>
<path d="M44.076 17.9834V11.3707H47.0702C47.8255 11.3707 48.4768 11.5056 49.024 11.7753C49.5789 12.0451 50.0066 12.4304 50.3072 12.9314C50.6155 13.4247 50.7696 14.0065 50.7696 14.6771C50.7696 15.3553 50.6155 15.941 50.3072 16.4343C50.0066 16.9275 49.5789 17.309 49.024 17.5788C48.4768 17.8485 47.8255 17.9834 47.0702 17.9834H44.076ZM45.5327 16.8042H47.024C47.4941 16.8042 47.8987 16.7194 48.2379 16.5499C48.577 16.3803 48.839 16.1375 49.024 15.8216C49.209 15.5056 49.3014 15.1241 49.3014 14.6771C49.3014 14.23 49.209 13.8485 49.024 13.5326C48.839 13.2166 48.577 12.9776 48.2379 12.8158C47.8987 12.6462 47.4941 12.5615 47.024 12.5615H45.5327V16.8042ZM56.1691 17.9834V11.3707H59.3829C60.223 11.3707 60.855 11.5287 61.2789 11.8447C61.7105 12.1607 61.9263 12.5807 61.9263 13.1048C61.9263 13.6212 61.749 14.0297 61.3945 14.3302C61.0477 14.6308 60.5775 14.7811 59.9841 14.7811L60.1691 14.4112C60.8088 14.4112 61.3174 14.5614 61.6951 14.862C62.0727 15.1626 62.2615 15.5981 62.2615 16.1684C62.2615 16.7387 62.0342 17.1857 61.5795 17.5094C61.1248 17.8254 60.4581 17.9834 59.5795 17.9834H56.1691ZM57.6257 16.9083H59.487C59.9109 16.9083 60.2346 16.8389 60.4581 16.7002C60.6816 16.5537 60.7933 16.3341 60.7933 16.0412C60.7933 15.7406 60.6816 15.521 60.4581 15.3823C60.2346 15.2435 59.9109 15.1742 59.487 15.1742H57.4292V14.1221H59.2211C59.6219 14.1221 59.9263 14.0528 60.1344 13.9141C60.3502 13.7676 60.4581 13.5557 60.4581 13.2782C60.4581 13.0085 60.3502 12.8042 60.1344 12.6655C59.9263 12.5191 59.6219 12.4459 59.2211 12.4459H57.6257V16.9083ZM68.2545 15.7291C67.9924 15.7291 67.7689 15.6404 67.584 15.4632C67.399 15.2859 67.3065 15.0508 67.3065 14.758C67.3065 14.4728 67.399 14.2416 67.584 14.0643C67.7689 13.8871 67.9924 13.7984 68.2545 13.7984C68.5319 13.7984 68.7593 13.8871 68.9366 14.0643C69.1138 14.2416 69.2024 14.4728 69.2024 14.758C69.2024 15.0508 69.1138 15.2859 68.9366 15.4632C68.7593 15.6404 68.5319 15.7291 68.2545 15.7291ZM79.7247 16.0296C79.7247 16.4458 79.6091 16.8081 79.3779 17.1164C79.1544 17.4246 78.8345 17.6674 78.4184 17.8447C78.0022 18.0142 77.4935 18.099 76.8924 18.099C76.376 18.099 75.8673 18.0296 75.3663 17.8909C74.8731 17.7522 74.4762 17.5711 74.1756 17.3476L74.719 16.2146C74.9964 16.4227 75.3355 16.5884 75.7363 16.7117C76.1371 16.835 76.5455 16.8967 76.9617 16.8967C77.455 16.8967 77.7979 16.8235 77.9906 16.677C78.1833 16.5306 78.2796 16.3572 78.2796 16.1568C78.2796 15.9718 78.2064 15.8254 78.06 15.7175C77.9213 15.6096 77.7324 15.5248 77.4935 15.4632C77.2623 15.3938 77.008 15.3322 76.7305 15.2782C76.453 15.2166 76.1756 15.1472 75.8981 15.0701C75.6207 14.993 75.3663 14.8851 75.1351 14.7464C74.9039 14.6077 74.7151 14.4227 74.5687 14.1915C74.4299 13.9603 74.3606 13.6674 74.3606 13.3129C74.3606 12.9044 74.4762 12.546 74.7074 12.2378C74.9386 11.9295 75.2623 11.6906 75.6785 11.521C76.1024 11.3514 76.5995 11.2667 77.1698 11.2667C77.5783 11.2667 77.9868 11.3129 78.3952 11.4054C78.8114 11.4902 79.1737 11.6328 79.4819 11.8331L78.9848 12.9661C78.692 12.7734 78.3837 12.6424 78.06 12.573C77.744 12.4959 77.4318 12.4574 77.1236 12.4574C76.6611 12.4574 76.3259 12.5306 76.1178 12.6771C75.9174 12.8235 75.8172 13.0085 75.8172 13.232C75.8172 13.4169 75.8866 13.5634 76.0253 13.6713C76.1717 13.7792 76.3606 13.8678 76.5918 13.9372C76.823 13.9988 77.0773 14.0566 77.3548 14.1106C77.6399 14.1645 77.9174 14.2339 78.1871 14.3187C78.4646 14.3957 78.7189 14.5036 78.9501 14.6424C79.1891 14.7734 79.3779 14.9507 79.5166 15.1742C79.6553 15.3977 79.7247 15.6828 79.7247 16.0296ZM88.1295 18.099C87.4281 18.099 86.8 17.9526 86.2451 17.6597C85.6979 17.3591 85.2663 16.9506 84.9503 16.4343C84.6343 15.9179 84.4763 15.3322 84.4763 14.6771C84.4763 14.022 84.6343 13.4401 84.9503 12.9314C85.2663 12.415 85.6979 12.0104 86.2451 11.7175C86.8 11.417 87.4243 11.2667 88.1179 11.2667C88.8193 11.2667 89.4435 11.417 89.9907 11.7175C90.5457 12.0104 90.9811 12.415 91.2971 12.9314C91.6131 13.4401 91.7711 14.022 91.7711 14.6771C91.7711 15.3322 91.6131 15.9179 91.2971 16.4343C90.9811 16.9506 90.5457 17.3591 89.9907 17.6597C89.4435 17.9526 88.8231 18.099 88.1295 18.099ZM88.1179 16.862C88.5418 16.862 88.9156 16.7695 89.2393 16.5846C89.5707 16.3919 89.8289 16.1298 90.0139 15.7984C90.1988 15.467 90.2913 15.0932 90.2913 14.6771C90.2913 14.2532 90.195 13.8794 90.0023 13.5557C89.8173 13.2243 89.563 12.9661 89.2393 12.7811C88.9156 12.5961 88.5457 12.5037 88.1295 12.5037C87.7133 12.5037 87.3395 12.5961 87.0081 12.7811C86.6767 12.9661 86.4146 13.2243 86.222 13.5557C86.037 13.8794 85.9445 14.2532 85.9445 14.6771C85.9445 15.0932 86.037 15.467 86.222 15.7984C86.4146 16.1298 86.6767 16.3919 87.0081 16.5846C87.3395 16.7695 87.7094 16.862 88.1179 16.862ZM100.106 18.099C99.4739 18.099 98.9305 17.9834 98.4758 17.7522C98.0288 17.5133 97.6858 17.1742 97.4469 16.7348C97.208 16.2878 97.0885 15.7599 97.0885 15.151V11.3707H98.5452V15.1048C98.5452 15.6751 98.68 16.1106 98.9498 16.4112C99.2195 16.7117 99.6087 16.862 100.117 16.862C100.618 16.862 101 16.7156 101.262 16.4227C101.532 16.1221 101.667 15.6828 101.667 15.1048V11.3707H103.1V15.151C103.1 15.7599 102.981 16.2878 102.742 16.7348C102.51 17.1742 102.171 17.5133 101.724 17.7522C101.277 17.9834 100.738 18.099 100.106 18.099ZM108.98 17.9834V11.3707H110.182L114.171 16.2031H113.627V11.3707H115.072V17.9834H113.87L109.882 13.1511H110.437V17.9834H108.98ZM121.017 17.9834V11.3707H124.011C124.766 11.3707 125.417 11.5056 125.965 11.7753C126.519 12.0451 126.947 12.4304 127.248 12.9314C127.556 13.4247 127.71 14.0065 127.71 14.6771C127.71 15.3553 127.556 15.941 127.248 16.4343C126.947 16.9275 126.519 17.309 125.965 17.5788C125.417 17.8485 124.766 17.9834 124.011 17.9834H121.017ZM122.473 16.8042H123.965C124.435 16.8042 124.839 16.7194 125.178 16.5499C125.518 16.3803 125.78 16.1375 125.965 15.8216C126.15 15.5056 126.242 15.1241 126.242 14.6771C126.242 14.23 126.15 13.8485 125.965 13.5326C125.78 13.2166 125.518 12.9776 125.178 12.8158C124.839 12.6462 124.435 12.5615 123.965 12.5615H122.473V16.8042ZM134.37 14.0643H137.722V15.1973H134.37V14.0643ZM134.566 16.8158H138.243V17.9834H133.11V11.3707H138.115V12.5499H134.566V16.8158ZM148.569 16.0296C148.569 16.4458 148.453 16.8081 148.222 17.1164C147.998 17.4246 147.679 17.6674 147.262 17.8447C146.846 18.0142 146.338 18.099 145.736 18.099C145.22 18.099 144.711 18.0296 144.21 17.8909C143.717 17.7522 143.32 17.5711 143.02 17.3476L143.563 16.2146C143.84 16.4227 144.18 16.5884 144.58 16.7117C144.981 16.835 145.39 16.8967 145.806 16.8967C146.299 16.8967 146.642 16.8235 146.835 16.677C147.027 16.5306 147.124 16.3572 147.124 16.1568C147.124 15.9718 147.05 15.8254 146.904 15.7175C146.765 15.6096 146.576 15.5248 146.338 15.4632C146.106 15.3938 145.852 15.3322 145.575 15.2782C145.297 15.2166 145.02 15.1472 144.742 15.0701C144.465 14.993 144.21 14.8851 143.979 14.7464C143.748 14.6077 143.559 14.4227 143.413 14.1915C143.274 13.9603 143.205 13.6674 143.205 13.3129C143.205 12.9044 143.32 12.546 143.551 12.2378C143.783 11.9295 144.106 11.6906 144.523 11.521C144.946 11.3514 145.444 11.2667 146.014 11.2667C146.422 11.2667 146.831 11.3129 147.239 11.4054C147.655 11.4902 148.018 11.6328 148.326 11.8331L147.829 12.9661C147.536 12.7734 147.228 12.6424 146.904 12.573C146.588 12.4959 146.276 12.4574 145.968 12.4574C145.505 12.4574 145.17 12.5306 144.962 12.6771C144.761 12.8235 144.661 13.0085 144.661 13.232C144.661 13.4169 144.731 13.5634 144.869 13.6713C145.016 13.7792 145.205 13.8678 145.436 13.9372C145.667 13.9988 145.921 14.0566 146.199 14.1106C146.484 14.1645 146.761 14.2339 147.031 14.3187C147.309 14.3957 147.563 14.5036 147.794 14.6424C148.033 14.7734 148.222 14.9507 148.361 15.1742C148.499 15.3977 148.569 15.6828 148.569 16.0296ZM153.864 17.9834V11.3707H155.32V17.9834H153.864ZM167.041 17.2551C166.817 17.4323 166.559 17.5865 166.266 17.7175C165.981 17.8408 165.68 17.9333 165.364 17.995C165.048 18.0643 164.728 18.099 164.405 18.099C163.696 18.099 163.06 17.9526 162.497 17.6597C161.942 17.3591 161.507 16.9506 161.191 16.4343C160.875 15.9179 160.717 15.3322 160.717 14.6771C160.717 14.022 160.875 13.4401 161.191 12.9314C161.507 12.415 161.939 12.0104 162.486 11.7175C163.041 11.417 163.669 11.2667 164.37 11.2667C164.987 11.2667 165.526 11.3592 165.989 11.5441C166.451 11.7214 166.836 11.9988 167.145 12.3765L166.197 13.2898C165.958 13.02 165.688 12.8235 165.387 12.7002C165.087 12.5692 164.755 12.5037 164.393 12.5037C163.969 12.5037 163.588 12.5961 163.249 12.7811C162.917 12.9661 162.655 13.2243 162.463 13.5557C162.278 13.8794 162.185 14.2532 162.185 14.6771C162.185 15.1009 162.281 15.4786 162.474 15.81C162.667 16.1414 162.933 16.3996 163.272 16.5846C163.611 16.7695 164 16.862 164.439 16.862C164.786 16.862 165.102 16.8081 165.387 16.7002C165.68 16.5923 165.954 16.4304 166.208 16.2146L167.041 17.2551ZM165.665 17.2666V14.6193H167.041V17.2551L165.665 17.2666ZM172.778 17.9834V11.3707H173.98L177.968 16.2031H177.425V11.3707H178.87V17.9834H177.668L173.679 13.1511H174.234V17.9834H172.778Z" fill="#13171B"/>
</svg>
