<svg width="41" height="40" viewBox="0 0 41 40" fill="none" xmlns="http://www.w3.org/2000/svg">
<path d="M39.5386 19.8879C39.5386 30.4352 31.0201 38.9805 20.518 38.9805C10.0159 38.9805 1.49741 30.4352 1.49741 19.8879C1.49741 9.34066 10.0159 0.795327 20.518 0.795327C31.0201 0.795327 39.5386 9.34066 39.5386 19.8879Z" stroke="#13171B" stroke-width="1.59065"/>
<path d="M31.8399 25.095C31.9011 24.407 31.6082 23.8819 31.5503 23.7664C27.2052 16.8346 23.903 11.7513 22.6864 10.2494C22.4546 9.9028 21.8753 9.20962 21.0642 9.15186C20.1952 9.09409 19.5 9.55621 19.1524 10.1339C17.8778 11.9823 16.5454 13.7731 15.2708 15.6215C12.2582 19.7806 10.1147 22.8999 9.47741 23.8819C9.30361 24.1707 8.89807 24.6906 9.07188 25.2683C9.18774 25.6149 9.47741 25.8459 9.65122 25.9615C11.0996 26.7702 12.49 27.6366 13.9383 28.4454C15.3287 29.2541 16.7192 30.0628 18.1096 30.8715C18.4572 31.1025 19.3262 31.5069 20.4269 31.5647C21.6436 31.5647 22.5705 31.1025 23.0919 30.8137C25.3513 29.5429 28.1322 27.9832 31.2606 26.1348C31.4644 25.9875 31.7374 25.715 31.8399 25.095ZM29.4067 25.7882C26.7997 23.4198 24.1347 20.9937 21.5277 18.6253C21.4698 18.5675 21.2022 18.3756 21.0063 18.3365C20.8383 18.303 20.5472 18.3498 20.369 18.3943C19.6738 18.5675 19.0365 18.6831 18.3413 18.8564C19.2103 16.4302 20.0214 14.0619 20.8904 11.6358C20.9657 11.4541 21.125 11.2765 21.238 11.2314C21.5277 11.1159 21.9912 11.2314 22.2808 11.6935C25.0037 15.8526 30.3916 23.9397 30.5075 24.1707C30.6813 24.4596 30.7392 24.5751 30.6813 24.8639C30.6233 25.1528 30.4495 25.2683 30.2178 25.3838C29.9281 25.4993 29.6384 25.6726 29.4067 25.7882ZM17.4144 21.398C17.5302 21.0514 17.704 20.7049 17.8199 20.3583C18.5731 20.185 19.2683 20.0694 20.0214 19.8961C20.1833 19.8589 20.4744 19.8478 20.7166 19.8961C21.0063 19.9539 21.1801 20.1272 21.296 20.185C23.6133 22.2645 25.8727 24.344 28.1901 26.4813C28.0163 26.5969 24.5982 28.5609 22.3388 29.8317C22.0491 30.005 21.4698 30.2938 20.6587 30.2938C19.7317 30.3516 19.0365 30.005 18.7469 29.8317C17.5882 29.1385 16.3716 28.4454 15.2129 27.7522C15.7922 25.7882 16.5454 23.5931 17.4144 21.398ZM10.4623 25.0372C10.2885 24.6906 10.4623 24.4978 10.6361 24.1707C10.9764 23.6803 14.0332 19.3748 18.2254 13.4842C18.3413 13.3109 18.4572 13.2532 18.631 13.3109C18.8048 13.3687 18.9207 13.5998 18.8048 13.8308C17.2406 18.2787 15.6184 22.7844 14.0542 27.2323C12.9535 26.5969 11.7948 25.9615 10.694 25.326C10.5782 25.2105 10.5202 25.1528 10.4623 25.0372Z" fill="#13171B"/>
</svg>
