<svg width="34" height="34" viewBox="0 0 34 34" fill="none" xmlns="http://www.w3.org/2000/svg">
<path d="M16.9557 33.3346C12.4814 33.3346 11.954 33.3109 10.2079 33.2345C8.84634 33.1897 7.50237 32.9129 6.23388 32.4161C4.03916 31.562 2.30372 29.8259 1.45044 27.6308C0.972659 26.3577 0.714957 25.0126 0.68837 23.6531C0.586517 21.9107 0.586517 21.3396 0.586517 16.8999C0.586517 12.4129 0.610162 11.8891 0.68837 10.1522C0.715538 8.79449 0.973232 7.45129 1.45044 6.17994C2.30279 3.98198 4.04105 2.24438 6.23933 1.39287C7.51002 0.913077 8.85357 0.654702 10.2116 0.628977C11.9485 0.530762 12.5196 0.530762 16.9557 0.530762C21.4663 0.530762 21.9846 0.554406 23.7034 0.628977C25.0649 0.654925 26.412 0.913272 27.6866 1.39287C29.8842 2.24535 31.6221 3.98261 32.4754 6.17994C32.9613 7.46982 33.2204 8.83402 33.2412 10.2122C33.343 11.9546 33.343 12.5239 33.343 16.9618C33.343 21.3996 33.3176 21.9816 33.2412 23.704C33.2141 25.0649 32.9558 26.4112 32.4773 27.6854C31.6218 29.8819 29.8838 31.6187 27.6866 32.4724C26.4139 32.9493 25.0695 33.207 23.7107 33.2345C21.9737 33.3346 21.4044 33.3346 16.9557 33.3346ZM16.8938 3.40991C12.4451 3.40991 11.9831 3.43174 10.2461 3.50995C9.2094 3.52368 8.18268 3.715 7.21057 4.07559C5.77509 4.62489 4.63921 5.75615 4.08406 7.18937C3.72069 8.17206 3.52934 9.21001 3.51841 10.2577C3.42202 12.0201 3.42202 12.4821 3.42202 16.8999C3.42202 21.265 3.43839 21.7943 3.51841 23.5458C3.5347 24.5829 3.72593 25.6098 4.08406 26.5832C4.64002 28.0155 5.77571 29.1459 7.21057 29.6951C8.18201 30.0581 9.20915 30.2495 10.2461 30.2608C12.0067 30.3626 12.4705 30.3626 16.8938 30.3626C21.3553 30.3626 21.8173 30.3408 23.5397 30.2608C24.5772 30.2482 25.6047 30.0568 26.5771 29.6951C28.0039 29.1411 29.1324 28.0133 29.6872 26.5868C30.0499 25.6033 30.2412 24.5649 30.2529 23.5167H30.2729C30.3511 21.7779 30.3511 21.3141 30.3511 16.8708C30.3511 12.4275 30.3311 11.9601 30.2529 10.2231C30.2366 9.18723 30.0453 8.16154 29.6872 7.18937C29.1336 5.76084 28.005 4.63086 26.5771 4.07559C25.6049 3.71318 24.5772 3.52181 23.5397 3.50995C21.7809 3.40991 21.3208 3.40991 16.8938 3.40991ZM16.9557 25.3009C13.5545 25.3031 10.487 23.2561 9.18371 20.1146C7.88044 16.973 8.59814 13.3557 11.0021 10.9497C13.406 8.54363 17.0227 7.8228 20.1654 9.12335C23.3081 10.4239 25.3578 13.4897 25.3585 16.8908C25.3535 21.5307 21.5955 25.2919 16.9557 25.3009ZM16.9557 11.4308C13.9422 11.4308 11.4993 13.8737 11.4993 16.8872C11.4993 19.9007 13.9422 22.3436 16.9557 22.3436C19.9692 22.3436 22.4121 19.9007 22.4121 16.8872C22.4051 13.8766 19.9662 11.4378 16.9557 11.4308ZM25.6859 10.134C24.6045 10.13 23.7305 9.25114 23.7325 8.16972C23.7345 7.0883 24.6117 6.21269 25.6932 6.21269C26.7746 6.21269 27.6518 7.08828 27.6538 8.1697C27.6543 8.69144 27.447 9.19191 27.0777 9.56049C26.7085 9.92908 26.2076 10.1355 25.6859 10.134Z" fill="#13171B"/>
</svg>
